%TF.GenerationSoftware,KiCad,Pcbnew,8.0.3*%
%TF.CreationDate,2024-10-26T03:20:47-07:00*%
%TF.ProjectId,test,74657374-2e6b-4696-9361-645f70636258,rev?*%
%TF.SameCoordinates,Original*%
%TF.FileFunction,Paste,Bot*%
%TF.FilePolarity,Positive*%
%FSLAX46Y46*%
G04 Gerber Fmt 4.6, Leading zero omitted, Abs format (unit mm)*
G04 Created by KiCad (PCBNEW 8.0.3) date 2024-10-26 03:20:47*
%MOMM*%
%LPD*%
G01*
G04 APERTURE LIST*
G04 Aperture macros list*
%AMRoundRect*
0 Rectangle with rounded corners*
0 $1 Rounding radius*
0 $2 $3 $4 $5 $6 $7 $8 $9 X,Y pos of 4 corners*
0 Add a 4 corners polygon primitive as box body*
4,1,4,$2,$3,$4,$5,$6,$7,$8,$9,$2,$3,0*
0 Add four circle primitives for the rounded corners*
1,1,$1+$1,$2,$3*
1,1,$1+$1,$4,$5*
1,1,$1+$1,$6,$7*
1,1,$1+$1,$8,$9*
0 Add four rect primitives between the rounded corners*
20,1,$1+$1,$2,$3,$4,$5,0*
20,1,$1+$1,$4,$5,$6,$7,0*
20,1,$1+$1,$6,$7,$8,$9,0*
20,1,$1+$1,$8,$9,$2,$3,0*%
G04 Aperture macros list end*
%ADD10RoundRect,0.250000X0.250000X0.475000X-0.250000X0.475000X-0.250000X-0.475000X0.250000X-0.475000X0*%
%ADD11RoundRect,0.250000X0.475000X-0.250000X0.475000X0.250000X-0.475000X0.250000X-0.475000X-0.250000X0*%
%ADD12R,2.108200X0.558800*%
%ADD13R,0.640000X0.700000*%
%ADD14RoundRect,0.250000X-0.475000X0.250000X-0.475000X-0.250000X0.475000X-0.250000X0.475000X0.250000X0*%
%ADD15RoundRect,0.150000X0.850000X0.150000X-0.850000X0.150000X-0.850000X-0.150000X0.850000X-0.150000X0*%
%ADD16RoundRect,0.249999X-0.450001X-1.450001X0.450001X-1.450001X0.450001X1.450001X-0.450001X1.450001X0*%
%ADD17RoundRect,0.250000X-0.450000X0.262500X-0.450000X-0.262500X0.450000X-0.262500X0.450000X0.262500X0*%
%ADD18RoundRect,0.250000X-0.250000X-0.475000X0.250000X-0.475000X0.250000X0.475000X-0.250000X0.475000X0*%
%ADD19R,0.750000X0.770000*%
%ADD20R,0.750000X0.310000*%
G04 APERTURE END LIST*
D10*
%TO.C,C16*%
X187005000Y-122597499D03*
X185105000Y-122597499D03*
%TD*%
D11*
%TO.C,C36*%
X159982500Y-132080000D03*
X159982500Y-130180000D03*
%TD*%
D12*
%TO.C,SW4*%
X158558000Y-111884000D03*
X165159400Y-111884000D03*
%TD*%
D13*
%TO.C,RN1*%
X163500500Y-130240000D03*
X162560500Y-130240000D03*
X162560500Y-128840000D03*
X163500500Y-128840000D03*
%TD*%
D14*
%TO.C,C37*%
X166078500Y-130180000D03*
X166078500Y-132080000D03*
%TD*%
D10*
%TO.C,C20*%
X186167500Y-130650000D03*
X184267500Y-130650000D03*
%TD*%
D11*
%TO.C,C15*%
X179705000Y-131802499D03*
X179705000Y-129902499D03*
%TD*%
D15*
%TO.C,U2*%
X182205000Y-118787499D03*
X182205000Y-120057499D03*
X182205000Y-121327499D03*
X182205000Y-122597499D03*
X182205000Y-123867499D03*
X182205000Y-125137499D03*
X182205000Y-126407499D03*
X182205000Y-127677499D03*
X177205000Y-127677499D03*
X177205000Y-126407499D03*
X177205000Y-125137499D03*
X177205000Y-123867499D03*
X177205000Y-122597499D03*
X177205000Y-121327499D03*
X177205000Y-120057499D03*
X177205000Y-118787499D03*
%TD*%
D16*
%TO.C,C14*%
X189085000Y-125730000D03*
X193185000Y-125730000D03*
%TD*%
D17*
%TO.C,R15*%
X193040000Y-100052500D03*
X193040000Y-101877500D03*
%TD*%
D18*
%TO.C,C35*%
X154968500Y-128524000D03*
X156868500Y-128524000D03*
%TD*%
D16*
%TO.C,C17*%
X181262500Y-114300000D03*
X185362500Y-114300000D03*
%TD*%
D19*
%TO.C,J3*%
X196085000Y-94795000D03*
X196085000Y-95865000D03*
D20*
X196085000Y-97175000D03*
X196085000Y-98175000D03*
X196085000Y-98675000D03*
X196085000Y-99675000D03*
D19*
X196085000Y-100985000D03*
X196085000Y-102055000D03*
D20*
X196085000Y-100175000D03*
X196085000Y-99175000D03*
X196085000Y-97675000D03*
X196085000Y-96675000D03*
%TD*%
M02*
