%TF.GenerationSoftware,KiCad,Pcbnew,8.0.3*%
%TF.CreationDate,2024-10-26T03:20:47-07:00*%
%TF.ProjectId,test,74657374-2e6b-4696-9361-645f70636258,rev?*%
%TF.SameCoordinates,Original*%
%TF.FileFunction,Legend,Top*%
%TF.FilePolarity,Positive*%
%FSLAX46Y46*%
G04 Gerber Fmt 4.6, Leading zero omitted, Abs format (unit mm)*
G04 Created by KiCad (PCBNEW 8.0.3) date 2024-10-26 03:20:47*
%MOMM*%
%LPD*%
G01*
G04 APERTURE LIST*
%ADD10C,0.150000*%
%ADD11C,0.120000*%
%ADD12C,0.152400*%
%ADD13C,0.508000*%
G04 APERTURE END LIST*
D10*
X194306819Y-90916904D02*
X194306819Y-90345476D01*
X195306819Y-90631190D02*
X194306819Y-90631190D01*
X195306819Y-90012142D02*
X194306819Y-90012142D01*
X194306819Y-90012142D02*
X194306819Y-89631190D01*
X194306819Y-89631190D02*
X194354438Y-89535952D01*
X194354438Y-89535952D02*
X194402057Y-89488333D01*
X194402057Y-89488333D02*
X194497295Y-89440714D01*
X194497295Y-89440714D02*
X194640152Y-89440714D01*
X194640152Y-89440714D02*
X194735390Y-89488333D01*
X194735390Y-89488333D02*
X194783009Y-89535952D01*
X194783009Y-89535952D02*
X194830628Y-89631190D01*
X194830628Y-89631190D02*
X194830628Y-90012142D01*
X195306819Y-88488333D02*
X195306819Y-89059761D01*
X195306819Y-88774047D02*
X194306819Y-88774047D01*
X194306819Y-88774047D02*
X194449676Y-88869285D01*
X194449676Y-88869285D02*
X194544914Y-88964523D01*
X194544914Y-88964523D02*
X194592533Y-89059761D01*
X195588095Y-86542819D02*
X196159523Y-86542819D01*
X195873809Y-87542819D02*
X195873809Y-86542819D01*
X196492857Y-87542819D02*
X196492857Y-86542819D01*
X196492857Y-86542819D02*
X196873809Y-86542819D01*
X196873809Y-86542819D02*
X196969047Y-86590438D01*
X196969047Y-86590438D02*
X197016666Y-86638057D01*
X197016666Y-86638057D02*
X197064285Y-86733295D01*
X197064285Y-86733295D02*
X197064285Y-86876152D01*
X197064285Y-86876152D02*
X197016666Y-86971390D01*
X197016666Y-86971390D02*
X196969047Y-87019009D01*
X196969047Y-87019009D02*
X196873809Y-87066628D01*
X196873809Y-87066628D02*
X196492857Y-87066628D01*
X197921428Y-86876152D02*
X197921428Y-87542819D01*
X197683333Y-86495200D02*
X197445238Y-87209485D01*
X197445238Y-87209485D02*
X198064285Y-87209485D01*
X194306819Y-81906904D02*
X194306819Y-81335476D01*
X195306819Y-81621190D02*
X194306819Y-81621190D01*
X195306819Y-81002142D02*
X194306819Y-81002142D01*
X194306819Y-81002142D02*
X194306819Y-80621190D01*
X194306819Y-80621190D02*
X194354438Y-80525952D01*
X194354438Y-80525952D02*
X194402057Y-80478333D01*
X194402057Y-80478333D02*
X194497295Y-80430714D01*
X194497295Y-80430714D02*
X194640152Y-80430714D01*
X194640152Y-80430714D02*
X194735390Y-80478333D01*
X194735390Y-80478333D02*
X194783009Y-80525952D01*
X194783009Y-80525952D02*
X194830628Y-80621190D01*
X194830628Y-80621190D02*
X194830628Y-81002142D01*
X194735390Y-79859285D02*
X194687771Y-79954523D01*
X194687771Y-79954523D02*
X194640152Y-80002142D01*
X194640152Y-80002142D02*
X194544914Y-80049761D01*
X194544914Y-80049761D02*
X194497295Y-80049761D01*
X194497295Y-80049761D02*
X194402057Y-80002142D01*
X194402057Y-80002142D02*
X194354438Y-79954523D01*
X194354438Y-79954523D02*
X194306819Y-79859285D01*
X194306819Y-79859285D02*
X194306819Y-79668809D01*
X194306819Y-79668809D02*
X194354438Y-79573571D01*
X194354438Y-79573571D02*
X194402057Y-79525952D01*
X194402057Y-79525952D02*
X194497295Y-79478333D01*
X194497295Y-79478333D02*
X194544914Y-79478333D01*
X194544914Y-79478333D02*
X194640152Y-79525952D01*
X194640152Y-79525952D02*
X194687771Y-79573571D01*
X194687771Y-79573571D02*
X194735390Y-79668809D01*
X194735390Y-79668809D02*
X194735390Y-79859285D01*
X194735390Y-79859285D02*
X194783009Y-79954523D01*
X194783009Y-79954523D02*
X194830628Y-80002142D01*
X194830628Y-80002142D02*
X194925866Y-80049761D01*
X194925866Y-80049761D02*
X195116342Y-80049761D01*
X195116342Y-80049761D02*
X195211580Y-80002142D01*
X195211580Y-80002142D02*
X195259200Y-79954523D01*
X195259200Y-79954523D02*
X195306819Y-79859285D01*
X195306819Y-79859285D02*
X195306819Y-79668809D01*
X195306819Y-79668809D02*
X195259200Y-79573571D01*
X195259200Y-79573571D02*
X195211580Y-79525952D01*
X195211580Y-79525952D02*
X195116342Y-79478333D01*
X195116342Y-79478333D02*
X194925866Y-79478333D01*
X194925866Y-79478333D02*
X194830628Y-79525952D01*
X194830628Y-79525952D02*
X194783009Y-79573571D01*
X194783009Y-79573571D02*
X194735390Y-79668809D01*
X132806009Y-120848333D02*
X132806009Y-121181666D01*
X133329819Y-121181666D02*
X132329819Y-121181666D01*
X132329819Y-121181666D02*
X132329819Y-120705476D01*
X132806009Y-119991190D02*
X132853628Y-119848333D01*
X132853628Y-119848333D02*
X132901247Y-119800714D01*
X132901247Y-119800714D02*
X132996485Y-119753095D01*
X132996485Y-119753095D02*
X133139342Y-119753095D01*
X133139342Y-119753095D02*
X133234580Y-119800714D01*
X133234580Y-119800714D02*
X133282200Y-119848333D01*
X133282200Y-119848333D02*
X133329819Y-119943571D01*
X133329819Y-119943571D02*
X133329819Y-120324523D01*
X133329819Y-120324523D02*
X132329819Y-120324523D01*
X132329819Y-120324523D02*
X132329819Y-119991190D01*
X132329819Y-119991190D02*
X132377438Y-119895952D01*
X132377438Y-119895952D02*
X132425057Y-119848333D01*
X132425057Y-119848333D02*
X132520295Y-119800714D01*
X132520295Y-119800714D02*
X132615533Y-119800714D01*
X132615533Y-119800714D02*
X132710771Y-119848333D01*
X132710771Y-119848333D02*
X132758390Y-119895952D01*
X132758390Y-119895952D02*
X132806009Y-119991190D01*
X132806009Y-119991190D02*
X132806009Y-120324523D01*
X132329819Y-118895952D02*
X132329819Y-119086428D01*
X132329819Y-119086428D02*
X132377438Y-119181666D01*
X132377438Y-119181666D02*
X132425057Y-119229285D01*
X132425057Y-119229285D02*
X132567914Y-119324523D01*
X132567914Y-119324523D02*
X132758390Y-119372142D01*
X132758390Y-119372142D02*
X133139342Y-119372142D01*
X133139342Y-119372142D02*
X133234580Y-119324523D01*
X133234580Y-119324523D02*
X133282200Y-119276904D01*
X133282200Y-119276904D02*
X133329819Y-119181666D01*
X133329819Y-119181666D02*
X133329819Y-118991190D01*
X133329819Y-118991190D02*
X133282200Y-118895952D01*
X133282200Y-118895952D02*
X133234580Y-118848333D01*
X133234580Y-118848333D02*
X133139342Y-118800714D01*
X133139342Y-118800714D02*
X132901247Y-118800714D01*
X132901247Y-118800714D02*
X132806009Y-118848333D01*
X132806009Y-118848333D02*
X132758390Y-118895952D01*
X132758390Y-118895952D02*
X132710771Y-118991190D01*
X132710771Y-118991190D02*
X132710771Y-119181666D01*
X132710771Y-119181666D02*
X132758390Y-119276904D01*
X132758390Y-119276904D02*
X132806009Y-119324523D01*
X132806009Y-119324523D02*
X132901247Y-119372142D01*
X136616009Y-107513333D02*
X136616009Y-107846666D01*
X137139819Y-107846666D02*
X136139819Y-107846666D01*
X136139819Y-107846666D02*
X136139819Y-107370476D01*
X136616009Y-106656190D02*
X136663628Y-106513333D01*
X136663628Y-106513333D02*
X136711247Y-106465714D01*
X136711247Y-106465714D02*
X136806485Y-106418095D01*
X136806485Y-106418095D02*
X136949342Y-106418095D01*
X136949342Y-106418095D02*
X137044580Y-106465714D01*
X137044580Y-106465714D02*
X137092200Y-106513333D01*
X137092200Y-106513333D02*
X137139819Y-106608571D01*
X137139819Y-106608571D02*
X137139819Y-106989523D01*
X137139819Y-106989523D02*
X136139819Y-106989523D01*
X136139819Y-106989523D02*
X136139819Y-106656190D01*
X136139819Y-106656190D02*
X136187438Y-106560952D01*
X136187438Y-106560952D02*
X136235057Y-106513333D01*
X136235057Y-106513333D02*
X136330295Y-106465714D01*
X136330295Y-106465714D02*
X136425533Y-106465714D01*
X136425533Y-106465714D02*
X136520771Y-106513333D01*
X136520771Y-106513333D02*
X136568390Y-106560952D01*
X136568390Y-106560952D02*
X136616009Y-106656190D01*
X136616009Y-106656190D02*
X136616009Y-106989523D01*
X136139819Y-105513333D02*
X136139819Y-105989523D01*
X136139819Y-105989523D02*
X136616009Y-106037142D01*
X136616009Y-106037142D02*
X136568390Y-105989523D01*
X136568390Y-105989523D02*
X136520771Y-105894285D01*
X136520771Y-105894285D02*
X136520771Y-105656190D01*
X136520771Y-105656190D02*
X136568390Y-105560952D01*
X136568390Y-105560952D02*
X136616009Y-105513333D01*
X136616009Y-105513333D02*
X136711247Y-105465714D01*
X136711247Y-105465714D02*
X136949342Y-105465714D01*
X136949342Y-105465714D02*
X137044580Y-105513333D01*
X137044580Y-105513333D02*
X137092200Y-105560952D01*
X137092200Y-105560952D02*
X137139819Y-105656190D01*
X137139819Y-105656190D02*
X137139819Y-105894285D01*
X137139819Y-105894285D02*
X137092200Y-105989523D01*
X137092200Y-105989523D02*
X137044580Y-106037142D01*
X199191666Y-118836009D02*
X198858333Y-118836009D01*
X198858333Y-119359819D02*
X198858333Y-118359819D01*
X198858333Y-118359819D02*
X199334523Y-118359819D01*
X200048809Y-118836009D02*
X200191666Y-118883628D01*
X200191666Y-118883628D02*
X200239285Y-118931247D01*
X200239285Y-118931247D02*
X200286904Y-119026485D01*
X200286904Y-119026485D02*
X200286904Y-119169342D01*
X200286904Y-119169342D02*
X200239285Y-119264580D01*
X200239285Y-119264580D02*
X200191666Y-119312200D01*
X200191666Y-119312200D02*
X200096428Y-119359819D01*
X200096428Y-119359819D02*
X199715476Y-119359819D01*
X199715476Y-119359819D02*
X199715476Y-118359819D01*
X199715476Y-118359819D02*
X200048809Y-118359819D01*
X200048809Y-118359819D02*
X200144047Y-118407438D01*
X200144047Y-118407438D02*
X200191666Y-118455057D01*
X200191666Y-118455057D02*
X200239285Y-118550295D01*
X200239285Y-118550295D02*
X200239285Y-118645533D01*
X200239285Y-118645533D02*
X200191666Y-118740771D01*
X200191666Y-118740771D02*
X200144047Y-118788390D01*
X200144047Y-118788390D02*
X200048809Y-118836009D01*
X200048809Y-118836009D02*
X199715476Y-118836009D01*
X201144047Y-118693152D02*
X201144047Y-119359819D01*
X200905952Y-118312200D02*
X200667857Y-119026485D01*
X200667857Y-119026485D02*
X201286904Y-119026485D01*
X199191666Y-122486009D02*
X198858333Y-122486009D01*
X198858333Y-123009819D02*
X198858333Y-122009819D01*
X198858333Y-122009819D02*
X199334523Y-122009819D01*
X200048809Y-122486009D02*
X200191666Y-122533628D01*
X200191666Y-122533628D02*
X200239285Y-122581247D01*
X200239285Y-122581247D02*
X200286904Y-122676485D01*
X200286904Y-122676485D02*
X200286904Y-122819342D01*
X200286904Y-122819342D02*
X200239285Y-122914580D01*
X200239285Y-122914580D02*
X200191666Y-122962200D01*
X200191666Y-122962200D02*
X200096428Y-123009819D01*
X200096428Y-123009819D02*
X199715476Y-123009819D01*
X199715476Y-123009819D02*
X199715476Y-122009819D01*
X199715476Y-122009819D02*
X200048809Y-122009819D01*
X200048809Y-122009819D02*
X200144047Y-122057438D01*
X200144047Y-122057438D02*
X200191666Y-122105057D01*
X200191666Y-122105057D02*
X200239285Y-122200295D01*
X200239285Y-122200295D02*
X200239285Y-122295533D01*
X200239285Y-122295533D02*
X200191666Y-122390771D01*
X200191666Y-122390771D02*
X200144047Y-122438390D01*
X200144047Y-122438390D02*
X200048809Y-122486009D01*
X200048809Y-122486009D02*
X199715476Y-122486009D01*
X200620238Y-122009819D02*
X201239285Y-122009819D01*
X201239285Y-122009819D02*
X200905952Y-122390771D01*
X200905952Y-122390771D02*
X201048809Y-122390771D01*
X201048809Y-122390771D02*
X201144047Y-122438390D01*
X201144047Y-122438390D02*
X201191666Y-122486009D01*
X201191666Y-122486009D02*
X201239285Y-122581247D01*
X201239285Y-122581247D02*
X201239285Y-122819342D01*
X201239285Y-122819342D02*
X201191666Y-122914580D01*
X201191666Y-122914580D02*
X201144047Y-122962200D01*
X201144047Y-122962200D02*
X201048809Y-123009819D01*
X201048809Y-123009819D02*
X200763095Y-123009819D01*
X200763095Y-123009819D02*
X200667857Y-122962200D01*
X200667857Y-122962200D02*
X200620238Y-122914580D01*
X180234819Y-99797904D02*
X181044342Y-99797904D01*
X181044342Y-99797904D02*
X181139580Y-99750285D01*
X181139580Y-99750285D02*
X181187200Y-99702666D01*
X181187200Y-99702666D02*
X181234819Y-99607428D01*
X181234819Y-99607428D02*
X181234819Y-99416952D01*
X181234819Y-99416952D02*
X181187200Y-99321714D01*
X181187200Y-99321714D02*
X181139580Y-99274095D01*
X181139580Y-99274095D02*
X181044342Y-99226476D01*
X181044342Y-99226476D02*
X180234819Y-99226476D01*
X180568152Y-98321714D02*
X181234819Y-98321714D01*
X180187200Y-98559809D02*
X180901485Y-98797904D01*
X180901485Y-98797904D02*
X180901485Y-98178857D01*
X176649104Y-103797905D02*
X176649104Y-103321715D01*
X176934819Y-103893143D02*
X175934819Y-103559810D01*
X175934819Y-103559810D02*
X176934819Y-103226477D01*
X176268152Y-102893143D02*
X176934819Y-102893143D01*
X176363390Y-102893143D02*
X176315771Y-102845524D01*
X176315771Y-102845524D02*
X176268152Y-102750286D01*
X176268152Y-102750286D02*
X176268152Y-102607429D01*
X176268152Y-102607429D02*
X176315771Y-102512191D01*
X176315771Y-102512191D02*
X176411009Y-102464572D01*
X176411009Y-102464572D02*
X176934819Y-102464572D01*
X176268152Y-102131238D02*
X176268152Y-101750286D01*
X175934819Y-101988381D02*
X176791961Y-101988381D01*
X176791961Y-101988381D02*
X176887200Y-101940762D01*
X176887200Y-101940762D02*
X176934819Y-101845524D01*
X176934819Y-101845524D02*
X176934819Y-101750286D01*
X176887200Y-101036000D02*
X176934819Y-101131238D01*
X176934819Y-101131238D02*
X176934819Y-101321714D01*
X176934819Y-101321714D02*
X176887200Y-101416952D01*
X176887200Y-101416952D02*
X176791961Y-101464571D01*
X176791961Y-101464571D02*
X176411009Y-101464571D01*
X176411009Y-101464571D02*
X176315771Y-101416952D01*
X176315771Y-101416952D02*
X176268152Y-101321714D01*
X176268152Y-101321714D02*
X176268152Y-101131238D01*
X176268152Y-101131238D02*
X176315771Y-101036000D01*
X176315771Y-101036000D02*
X176411009Y-100988381D01*
X176411009Y-100988381D02*
X176506247Y-100988381D01*
X176506247Y-100988381D02*
X176601485Y-101464571D01*
X176268152Y-100559809D02*
X176934819Y-100559809D01*
X176363390Y-100559809D02*
X176315771Y-100512190D01*
X176315771Y-100512190D02*
X176268152Y-100416952D01*
X176268152Y-100416952D02*
X176268152Y-100274095D01*
X176268152Y-100274095D02*
X176315771Y-100178857D01*
X176315771Y-100178857D02*
X176411009Y-100131238D01*
X176411009Y-100131238D02*
X176934819Y-100131238D01*
X176268152Y-99655047D02*
X176934819Y-99655047D01*
X176363390Y-99655047D02*
X176315771Y-99607428D01*
X176315771Y-99607428D02*
X176268152Y-99512190D01*
X176268152Y-99512190D02*
X176268152Y-99369333D01*
X176268152Y-99369333D02*
X176315771Y-99274095D01*
X176315771Y-99274095D02*
X176411009Y-99226476D01*
X176411009Y-99226476D02*
X176934819Y-99226476D01*
X176934819Y-98321714D02*
X176411009Y-98321714D01*
X176411009Y-98321714D02*
X176315771Y-98369333D01*
X176315771Y-98369333D02*
X176268152Y-98464571D01*
X176268152Y-98464571D02*
X176268152Y-98655047D01*
X176268152Y-98655047D02*
X176315771Y-98750285D01*
X176887200Y-98321714D02*
X176934819Y-98416952D01*
X176934819Y-98416952D02*
X176934819Y-98655047D01*
X176934819Y-98655047D02*
X176887200Y-98750285D01*
X176887200Y-98750285D02*
X176791961Y-98797904D01*
X176791961Y-98797904D02*
X176696723Y-98797904D01*
X176696723Y-98797904D02*
X176601485Y-98750285D01*
X176601485Y-98750285D02*
X176553866Y-98655047D01*
X176553866Y-98655047D02*
X176553866Y-98416952D01*
X176553866Y-98416952D02*
X176506247Y-98321714D01*
X176649104Y-97131237D02*
X176649104Y-96655047D01*
X176934819Y-97226475D02*
X175934819Y-96893142D01*
X175934819Y-96893142D02*
X176934819Y-96559809D01*
X176934819Y-96226475D02*
X176268152Y-96226475D01*
X176458628Y-96226475D02*
X176363390Y-96178856D01*
X176363390Y-96178856D02*
X176315771Y-96131237D01*
X176315771Y-96131237D02*
X176268152Y-96035999D01*
X176268152Y-96035999D02*
X176268152Y-95940761D01*
X176887200Y-95226475D02*
X176934819Y-95321713D01*
X176934819Y-95321713D02*
X176934819Y-95512189D01*
X176934819Y-95512189D02*
X176887200Y-95607427D01*
X176887200Y-95607427D02*
X176791961Y-95655046D01*
X176791961Y-95655046D02*
X176411009Y-95655046D01*
X176411009Y-95655046D02*
X176315771Y-95607427D01*
X176315771Y-95607427D02*
X176268152Y-95512189D01*
X176268152Y-95512189D02*
X176268152Y-95321713D01*
X176268152Y-95321713D02*
X176315771Y-95226475D01*
X176315771Y-95226475D02*
X176411009Y-95178856D01*
X176411009Y-95178856D02*
X176506247Y-95178856D01*
X176506247Y-95178856D02*
X176601485Y-95655046D01*
X176934819Y-94321713D02*
X176411009Y-94321713D01*
X176411009Y-94321713D02*
X176315771Y-94369332D01*
X176315771Y-94369332D02*
X176268152Y-94464570D01*
X176268152Y-94464570D02*
X176268152Y-94655046D01*
X176268152Y-94655046D02*
X176315771Y-94750284D01*
X176887200Y-94321713D02*
X176934819Y-94416951D01*
X176934819Y-94416951D02*
X176934819Y-94655046D01*
X176934819Y-94655046D02*
X176887200Y-94750284D01*
X176887200Y-94750284D02*
X176791961Y-94797903D01*
X176791961Y-94797903D02*
X176696723Y-94797903D01*
X176696723Y-94797903D02*
X176601485Y-94750284D01*
X176601485Y-94750284D02*
X176553866Y-94655046D01*
X176553866Y-94655046D02*
X176553866Y-94416951D01*
X176553866Y-94416951D02*
X176506247Y-94321713D01*
X190061580Y-103922666D02*
X190109200Y-103970285D01*
X190109200Y-103970285D02*
X190156819Y-104113142D01*
X190156819Y-104113142D02*
X190156819Y-104208380D01*
X190156819Y-104208380D02*
X190109200Y-104351237D01*
X190109200Y-104351237D02*
X190013961Y-104446475D01*
X190013961Y-104446475D02*
X189918723Y-104494094D01*
X189918723Y-104494094D02*
X189728247Y-104541713D01*
X189728247Y-104541713D02*
X189585390Y-104541713D01*
X189585390Y-104541713D02*
X189394914Y-104494094D01*
X189394914Y-104494094D02*
X189299676Y-104446475D01*
X189299676Y-104446475D02*
X189204438Y-104351237D01*
X189204438Y-104351237D02*
X189156819Y-104208380D01*
X189156819Y-104208380D02*
X189156819Y-104113142D01*
X189156819Y-104113142D02*
X189204438Y-103970285D01*
X189204438Y-103970285D02*
X189252057Y-103922666D01*
X189156819Y-103065523D02*
X189156819Y-103255999D01*
X189156819Y-103255999D02*
X189204438Y-103351237D01*
X189204438Y-103351237D02*
X189252057Y-103398856D01*
X189252057Y-103398856D02*
X189394914Y-103494094D01*
X189394914Y-103494094D02*
X189585390Y-103541713D01*
X189585390Y-103541713D02*
X189966342Y-103541713D01*
X189966342Y-103541713D02*
X190061580Y-103494094D01*
X190061580Y-103494094D02*
X190109200Y-103446475D01*
X190109200Y-103446475D02*
X190156819Y-103351237D01*
X190156819Y-103351237D02*
X190156819Y-103160761D01*
X190156819Y-103160761D02*
X190109200Y-103065523D01*
X190109200Y-103065523D02*
X190061580Y-103017904D01*
X190061580Y-103017904D02*
X189966342Y-102970285D01*
X189966342Y-102970285D02*
X189728247Y-102970285D01*
X189728247Y-102970285D02*
X189633009Y-103017904D01*
X189633009Y-103017904D02*
X189585390Y-103065523D01*
X189585390Y-103065523D02*
X189537771Y-103160761D01*
X189537771Y-103160761D02*
X189537771Y-103351237D01*
X189537771Y-103351237D02*
X189585390Y-103446475D01*
X189585390Y-103446475D02*
X189633009Y-103494094D01*
X189633009Y-103494094D02*
X189728247Y-103541713D01*
X132548333Y-134029580D02*
X132500714Y-134077200D01*
X132500714Y-134077200D02*
X132357857Y-134124819D01*
X132357857Y-134124819D02*
X132262619Y-134124819D01*
X132262619Y-134124819D02*
X132119762Y-134077200D01*
X132119762Y-134077200D02*
X132024524Y-133981961D01*
X132024524Y-133981961D02*
X131976905Y-133886723D01*
X131976905Y-133886723D02*
X131929286Y-133696247D01*
X131929286Y-133696247D02*
X131929286Y-133553390D01*
X131929286Y-133553390D02*
X131976905Y-133362914D01*
X131976905Y-133362914D02*
X132024524Y-133267676D01*
X132024524Y-133267676D02*
X132119762Y-133172438D01*
X132119762Y-133172438D02*
X132262619Y-133124819D01*
X132262619Y-133124819D02*
X132357857Y-133124819D01*
X132357857Y-133124819D02*
X132500714Y-133172438D01*
X132500714Y-133172438D02*
X132548333Y-133220057D01*
X133024524Y-134124819D02*
X133215000Y-134124819D01*
X133215000Y-134124819D02*
X133310238Y-134077200D01*
X133310238Y-134077200D02*
X133357857Y-134029580D01*
X133357857Y-134029580D02*
X133453095Y-133886723D01*
X133453095Y-133886723D02*
X133500714Y-133696247D01*
X133500714Y-133696247D02*
X133500714Y-133315295D01*
X133500714Y-133315295D02*
X133453095Y-133220057D01*
X133453095Y-133220057D02*
X133405476Y-133172438D01*
X133405476Y-133172438D02*
X133310238Y-133124819D01*
X133310238Y-133124819D02*
X133119762Y-133124819D01*
X133119762Y-133124819D02*
X133024524Y-133172438D01*
X133024524Y-133172438D02*
X132976905Y-133220057D01*
X132976905Y-133220057D02*
X132929286Y-133315295D01*
X132929286Y-133315295D02*
X132929286Y-133553390D01*
X132929286Y-133553390D02*
X132976905Y-133648628D01*
X132976905Y-133648628D02*
X133024524Y-133696247D01*
X133024524Y-133696247D02*
X133119762Y-133743866D01*
X133119762Y-133743866D02*
X133310238Y-133743866D01*
X133310238Y-133743866D02*
X133405476Y-133696247D01*
X133405476Y-133696247D02*
X133453095Y-133648628D01*
X133453095Y-133648628D02*
X133500714Y-133553390D01*
X185674095Y-88862819D02*
X185674095Y-89672342D01*
X185674095Y-89672342D02*
X185721714Y-89767580D01*
X185721714Y-89767580D02*
X185769333Y-89815200D01*
X185769333Y-89815200D02*
X185864571Y-89862819D01*
X185864571Y-89862819D02*
X186055047Y-89862819D01*
X186055047Y-89862819D02*
X186150285Y-89815200D01*
X186150285Y-89815200D02*
X186197904Y-89767580D01*
X186197904Y-89767580D02*
X186245523Y-89672342D01*
X186245523Y-89672342D02*
X186245523Y-88862819D01*
X187197904Y-88862819D02*
X186721714Y-88862819D01*
X186721714Y-88862819D02*
X186674095Y-89339009D01*
X186674095Y-89339009D02*
X186721714Y-89291390D01*
X186721714Y-89291390D02*
X186816952Y-89243771D01*
X186816952Y-89243771D02*
X187055047Y-89243771D01*
X187055047Y-89243771D02*
X187150285Y-89291390D01*
X187150285Y-89291390D02*
X187197904Y-89339009D01*
X187197904Y-89339009D02*
X187245523Y-89434247D01*
X187245523Y-89434247D02*
X187245523Y-89672342D01*
X187245523Y-89672342D02*
X187197904Y-89767580D01*
X187197904Y-89767580D02*
X187150285Y-89815200D01*
X187150285Y-89815200D02*
X187055047Y-89862819D01*
X187055047Y-89862819D02*
X186816952Y-89862819D01*
X186816952Y-89862819D02*
X186721714Y-89815200D01*
X186721714Y-89815200D02*
X186674095Y-89767580D01*
X163503142Y-78464580D02*
X163455523Y-78512200D01*
X163455523Y-78512200D02*
X163312666Y-78559819D01*
X163312666Y-78559819D02*
X163217428Y-78559819D01*
X163217428Y-78559819D02*
X163074571Y-78512200D01*
X163074571Y-78512200D02*
X162979333Y-78416961D01*
X162979333Y-78416961D02*
X162931714Y-78321723D01*
X162931714Y-78321723D02*
X162884095Y-78131247D01*
X162884095Y-78131247D02*
X162884095Y-77988390D01*
X162884095Y-77988390D02*
X162931714Y-77797914D01*
X162931714Y-77797914D02*
X162979333Y-77702676D01*
X162979333Y-77702676D02*
X163074571Y-77607438D01*
X163074571Y-77607438D02*
X163217428Y-77559819D01*
X163217428Y-77559819D02*
X163312666Y-77559819D01*
X163312666Y-77559819D02*
X163455523Y-77607438D01*
X163455523Y-77607438D02*
X163503142Y-77655057D01*
X164455523Y-78559819D02*
X163884095Y-78559819D01*
X164169809Y-78559819D02*
X164169809Y-77559819D01*
X164169809Y-77559819D02*
X164074571Y-77702676D01*
X164074571Y-77702676D02*
X163979333Y-77797914D01*
X163979333Y-77797914D02*
X163884095Y-77845533D01*
X164836476Y-77655057D02*
X164884095Y-77607438D01*
X164884095Y-77607438D02*
X164979333Y-77559819D01*
X164979333Y-77559819D02*
X165217428Y-77559819D01*
X165217428Y-77559819D02*
X165312666Y-77607438D01*
X165312666Y-77607438D02*
X165360285Y-77655057D01*
X165360285Y-77655057D02*
X165407904Y-77750295D01*
X165407904Y-77750295D02*
X165407904Y-77845533D01*
X165407904Y-77845533D02*
X165360285Y-77988390D01*
X165360285Y-77988390D02*
X164788857Y-78559819D01*
X164788857Y-78559819D02*
X165407904Y-78559819D01*
X132664580Y-123356666D02*
X132712200Y-123404285D01*
X132712200Y-123404285D02*
X132759819Y-123547142D01*
X132759819Y-123547142D02*
X132759819Y-123642380D01*
X132759819Y-123642380D02*
X132712200Y-123785237D01*
X132712200Y-123785237D02*
X132616961Y-123880475D01*
X132616961Y-123880475D02*
X132521723Y-123928094D01*
X132521723Y-123928094D02*
X132331247Y-123975713D01*
X132331247Y-123975713D02*
X132188390Y-123975713D01*
X132188390Y-123975713D02*
X131997914Y-123928094D01*
X131997914Y-123928094D02*
X131902676Y-123880475D01*
X131902676Y-123880475D02*
X131807438Y-123785237D01*
X131807438Y-123785237D02*
X131759819Y-123642380D01*
X131759819Y-123642380D02*
X131759819Y-123547142D01*
X131759819Y-123547142D02*
X131807438Y-123404285D01*
X131807438Y-123404285D02*
X131855057Y-123356666D01*
X131759819Y-122451904D02*
X131759819Y-122928094D01*
X131759819Y-122928094D02*
X132236009Y-122975713D01*
X132236009Y-122975713D02*
X132188390Y-122928094D01*
X132188390Y-122928094D02*
X132140771Y-122832856D01*
X132140771Y-122832856D02*
X132140771Y-122594761D01*
X132140771Y-122594761D02*
X132188390Y-122499523D01*
X132188390Y-122499523D02*
X132236009Y-122451904D01*
X132236009Y-122451904D02*
X132331247Y-122404285D01*
X132331247Y-122404285D02*
X132569342Y-122404285D01*
X132569342Y-122404285D02*
X132664580Y-122451904D01*
X132664580Y-122451904D02*
X132712200Y-122499523D01*
X132712200Y-122499523D02*
X132759819Y-122594761D01*
X132759819Y-122594761D02*
X132759819Y-122832856D01*
X132759819Y-122832856D02*
X132712200Y-122928094D01*
X132712200Y-122928094D02*
X132664580Y-122975713D01*
X128979819Y-130976666D02*
X128503628Y-131309999D01*
X128979819Y-131548094D02*
X127979819Y-131548094D01*
X127979819Y-131548094D02*
X127979819Y-131167142D01*
X127979819Y-131167142D02*
X128027438Y-131071904D01*
X128027438Y-131071904D02*
X128075057Y-131024285D01*
X128075057Y-131024285D02*
X128170295Y-130976666D01*
X128170295Y-130976666D02*
X128313152Y-130976666D01*
X128313152Y-130976666D02*
X128408390Y-131024285D01*
X128408390Y-131024285D02*
X128456009Y-131071904D01*
X128456009Y-131071904D02*
X128503628Y-131167142D01*
X128503628Y-131167142D02*
X128503628Y-131548094D01*
X127979819Y-130643332D02*
X127979819Y-130024285D01*
X127979819Y-130024285D02*
X128360771Y-130357618D01*
X128360771Y-130357618D02*
X128360771Y-130214761D01*
X128360771Y-130214761D02*
X128408390Y-130119523D01*
X128408390Y-130119523D02*
X128456009Y-130071904D01*
X128456009Y-130071904D02*
X128551247Y-130024285D01*
X128551247Y-130024285D02*
X128789342Y-130024285D01*
X128789342Y-130024285D02*
X128884580Y-130071904D01*
X128884580Y-130071904D02*
X128932200Y-130119523D01*
X128932200Y-130119523D02*
X128979819Y-130214761D01*
X128979819Y-130214761D02*
X128979819Y-130500475D01*
X128979819Y-130500475D02*
X128932200Y-130595713D01*
X128932200Y-130595713D02*
X128884580Y-130643332D01*
X155192667Y-83843200D02*
X155335524Y-83890819D01*
X155335524Y-83890819D02*
X155573619Y-83890819D01*
X155573619Y-83890819D02*
X155668857Y-83843200D01*
X155668857Y-83843200D02*
X155716476Y-83795580D01*
X155716476Y-83795580D02*
X155764095Y-83700342D01*
X155764095Y-83700342D02*
X155764095Y-83605104D01*
X155764095Y-83605104D02*
X155716476Y-83509866D01*
X155716476Y-83509866D02*
X155668857Y-83462247D01*
X155668857Y-83462247D02*
X155573619Y-83414628D01*
X155573619Y-83414628D02*
X155383143Y-83367009D01*
X155383143Y-83367009D02*
X155287905Y-83319390D01*
X155287905Y-83319390D02*
X155240286Y-83271771D01*
X155240286Y-83271771D02*
X155192667Y-83176533D01*
X155192667Y-83176533D02*
X155192667Y-83081295D01*
X155192667Y-83081295D02*
X155240286Y-82986057D01*
X155240286Y-82986057D02*
X155287905Y-82938438D01*
X155287905Y-82938438D02*
X155383143Y-82890819D01*
X155383143Y-82890819D02*
X155621238Y-82890819D01*
X155621238Y-82890819D02*
X155764095Y-82938438D01*
X156097429Y-82890819D02*
X156335524Y-83890819D01*
X156335524Y-83890819D02*
X156526000Y-83176533D01*
X156526000Y-83176533D02*
X156716476Y-83890819D01*
X156716476Y-83890819D02*
X156954572Y-82890819D01*
X157240286Y-82890819D02*
X157859333Y-82890819D01*
X157859333Y-82890819D02*
X157526000Y-83271771D01*
X157526000Y-83271771D02*
X157668857Y-83271771D01*
X157668857Y-83271771D02*
X157764095Y-83319390D01*
X157764095Y-83319390D02*
X157811714Y-83367009D01*
X157811714Y-83367009D02*
X157859333Y-83462247D01*
X157859333Y-83462247D02*
X157859333Y-83700342D01*
X157859333Y-83700342D02*
X157811714Y-83795580D01*
X157811714Y-83795580D02*
X157764095Y-83843200D01*
X157764095Y-83843200D02*
X157668857Y-83890819D01*
X157668857Y-83890819D02*
X157383143Y-83890819D01*
X157383143Y-83890819D02*
X157287905Y-83843200D01*
X157287905Y-83843200D02*
X157240286Y-83795580D01*
X156253319Y-122681904D02*
X157062842Y-122681904D01*
X157062842Y-122681904D02*
X157158080Y-122634285D01*
X157158080Y-122634285D02*
X157205700Y-122586666D01*
X157205700Y-122586666D02*
X157253319Y-122491428D01*
X157253319Y-122491428D02*
X157253319Y-122300952D01*
X157253319Y-122300952D02*
X157205700Y-122205714D01*
X157205700Y-122205714D02*
X157158080Y-122158095D01*
X157158080Y-122158095D02*
X157062842Y-122110476D01*
X157062842Y-122110476D02*
X156253319Y-122110476D01*
X156253319Y-121205714D02*
X156253319Y-121396190D01*
X156253319Y-121396190D02*
X156300938Y-121491428D01*
X156300938Y-121491428D02*
X156348557Y-121539047D01*
X156348557Y-121539047D02*
X156491414Y-121634285D01*
X156491414Y-121634285D02*
X156681890Y-121681904D01*
X156681890Y-121681904D02*
X157062842Y-121681904D01*
X157062842Y-121681904D02*
X157158080Y-121634285D01*
X157158080Y-121634285D02*
X157205700Y-121586666D01*
X157205700Y-121586666D02*
X157253319Y-121491428D01*
X157253319Y-121491428D02*
X157253319Y-121300952D01*
X157253319Y-121300952D02*
X157205700Y-121205714D01*
X157205700Y-121205714D02*
X157158080Y-121158095D01*
X157158080Y-121158095D02*
X157062842Y-121110476D01*
X157062842Y-121110476D02*
X156824747Y-121110476D01*
X156824747Y-121110476D02*
X156729509Y-121158095D01*
X156729509Y-121158095D02*
X156681890Y-121205714D01*
X156681890Y-121205714D02*
X156634271Y-121300952D01*
X156634271Y-121300952D02*
X156634271Y-121491428D01*
X156634271Y-121491428D02*
X156681890Y-121586666D01*
X156681890Y-121586666D02*
X156729509Y-121634285D01*
X156729509Y-121634285D02*
X156824747Y-121681904D01*
X150219580Y-118117857D02*
X150267200Y-118165476D01*
X150267200Y-118165476D02*
X150314819Y-118308333D01*
X150314819Y-118308333D02*
X150314819Y-118403571D01*
X150314819Y-118403571D02*
X150267200Y-118546428D01*
X150267200Y-118546428D02*
X150171961Y-118641666D01*
X150171961Y-118641666D02*
X150076723Y-118689285D01*
X150076723Y-118689285D02*
X149886247Y-118736904D01*
X149886247Y-118736904D02*
X149743390Y-118736904D01*
X149743390Y-118736904D02*
X149552914Y-118689285D01*
X149552914Y-118689285D02*
X149457676Y-118641666D01*
X149457676Y-118641666D02*
X149362438Y-118546428D01*
X149362438Y-118546428D02*
X149314819Y-118403571D01*
X149314819Y-118403571D02*
X149314819Y-118308333D01*
X149314819Y-118308333D02*
X149362438Y-118165476D01*
X149362438Y-118165476D02*
X149410057Y-118117857D01*
X149314819Y-117784523D02*
X149314819Y-117165476D01*
X149314819Y-117165476D02*
X149695771Y-117498809D01*
X149695771Y-117498809D02*
X149695771Y-117355952D01*
X149695771Y-117355952D02*
X149743390Y-117260714D01*
X149743390Y-117260714D02*
X149791009Y-117213095D01*
X149791009Y-117213095D02*
X149886247Y-117165476D01*
X149886247Y-117165476D02*
X150124342Y-117165476D01*
X150124342Y-117165476D02*
X150219580Y-117213095D01*
X150219580Y-117213095D02*
X150267200Y-117260714D01*
X150267200Y-117260714D02*
X150314819Y-117355952D01*
X150314819Y-117355952D02*
X150314819Y-117641666D01*
X150314819Y-117641666D02*
X150267200Y-117736904D01*
X150267200Y-117736904D02*
X150219580Y-117784523D01*
X149314819Y-116832142D02*
X149314819Y-116213095D01*
X149314819Y-116213095D02*
X149695771Y-116546428D01*
X149695771Y-116546428D02*
X149695771Y-116403571D01*
X149695771Y-116403571D02*
X149743390Y-116308333D01*
X149743390Y-116308333D02*
X149791009Y-116260714D01*
X149791009Y-116260714D02*
X149886247Y-116213095D01*
X149886247Y-116213095D02*
X150124342Y-116213095D01*
X150124342Y-116213095D02*
X150219580Y-116260714D01*
X150219580Y-116260714D02*
X150267200Y-116308333D01*
X150267200Y-116308333D02*
X150314819Y-116403571D01*
X150314819Y-116403571D02*
X150314819Y-116689285D01*
X150314819Y-116689285D02*
X150267200Y-116784523D01*
X150267200Y-116784523D02*
X150219580Y-116832142D01*
X170539580Y-121927857D02*
X170587200Y-121975476D01*
X170587200Y-121975476D02*
X170634819Y-122118333D01*
X170634819Y-122118333D02*
X170634819Y-122213571D01*
X170634819Y-122213571D02*
X170587200Y-122356428D01*
X170587200Y-122356428D02*
X170491961Y-122451666D01*
X170491961Y-122451666D02*
X170396723Y-122499285D01*
X170396723Y-122499285D02*
X170206247Y-122546904D01*
X170206247Y-122546904D02*
X170063390Y-122546904D01*
X170063390Y-122546904D02*
X169872914Y-122499285D01*
X169872914Y-122499285D02*
X169777676Y-122451666D01*
X169777676Y-122451666D02*
X169682438Y-122356428D01*
X169682438Y-122356428D02*
X169634819Y-122213571D01*
X169634819Y-122213571D02*
X169634819Y-122118333D01*
X169634819Y-122118333D02*
X169682438Y-121975476D01*
X169682438Y-121975476D02*
X169730057Y-121927857D01*
X169634819Y-121594523D02*
X169634819Y-120975476D01*
X169634819Y-120975476D02*
X170015771Y-121308809D01*
X170015771Y-121308809D02*
X170015771Y-121165952D01*
X170015771Y-121165952D02*
X170063390Y-121070714D01*
X170063390Y-121070714D02*
X170111009Y-121023095D01*
X170111009Y-121023095D02*
X170206247Y-120975476D01*
X170206247Y-120975476D02*
X170444342Y-120975476D01*
X170444342Y-120975476D02*
X170539580Y-121023095D01*
X170539580Y-121023095D02*
X170587200Y-121070714D01*
X170587200Y-121070714D02*
X170634819Y-121165952D01*
X170634819Y-121165952D02*
X170634819Y-121451666D01*
X170634819Y-121451666D02*
X170587200Y-121546904D01*
X170587200Y-121546904D02*
X170539580Y-121594523D01*
X170634819Y-120023095D02*
X170634819Y-120594523D01*
X170634819Y-120308809D02*
X169634819Y-120308809D01*
X169634819Y-120308809D02*
X169777676Y-120404047D01*
X169777676Y-120404047D02*
X169872914Y-120499285D01*
X169872914Y-120499285D02*
X169920533Y-120594523D01*
X147788333Y-128519580D02*
X147740714Y-128567200D01*
X147740714Y-128567200D02*
X147597857Y-128614819D01*
X147597857Y-128614819D02*
X147502619Y-128614819D01*
X147502619Y-128614819D02*
X147359762Y-128567200D01*
X147359762Y-128567200D02*
X147264524Y-128471961D01*
X147264524Y-128471961D02*
X147216905Y-128376723D01*
X147216905Y-128376723D02*
X147169286Y-128186247D01*
X147169286Y-128186247D02*
X147169286Y-128043390D01*
X147169286Y-128043390D02*
X147216905Y-127852914D01*
X147216905Y-127852914D02*
X147264524Y-127757676D01*
X147264524Y-127757676D02*
X147359762Y-127662438D01*
X147359762Y-127662438D02*
X147502619Y-127614819D01*
X147502619Y-127614819D02*
X147597857Y-127614819D01*
X147597857Y-127614819D02*
X147740714Y-127662438D01*
X147740714Y-127662438D02*
X147788333Y-127710057D01*
X148121667Y-127614819D02*
X148740714Y-127614819D01*
X148740714Y-127614819D02*
X148407381Y-127995771D01*
X148407381Y-127995771D02*
X148550238Y-127995771D01*
X148550238Y-127995771D02*
X148645476Y-128043390D01*
X148645476Y-128043390D02*
X148693095Y-128091009D01*
X148693095Y-128091009D02*
X148740714Y-128186247D01*
X148740714Y-128186247D02*
X148740714Y-128424342D01*
X148740714Y-128424342D02*
X148693095Y-128519580D01*
X148693095Y-128519580D02*
X148645476Y-128567200D01*
X148645476Y-128567200D02*
X148550238Y-128614819D01*
X148550238Y-128614819D02*
X148264524Y-128614819D01*
X148264524Y-128614819D02*
X148169286Y-128567200D01*
X148169286Y-128567200D02*
X148121667Y-128519580D01*
X169393142Y-87572819D02*
X169059809Y-87096628D01*
X168821714Y-87572819D02*
X168821714Y-86572819D01*
X168821714Y-86572819D02*
X169202666Y-86572819D01*
X169202666Y-86572819D02*
X169297904Y-86620438D01*
X169297904Y-86620438D02*
X169345523Y-86668057D01*
X169345523Y-86668057D02*
X169393142Y-86763295D01*
X169393142Y-86763295D02*
X169393142Y-86906152D01*
X169393142Y-86906152D02*
X169345523Y-87001390D01*
X169345523Y-87001390D02*
X169297904Y-87049009D01*
X169297904Y-87049009D02*
X169202666Y-87096628D01*
X169202666Y-87096628D02*
X168821714Y-87096628D01*
X170345523Y-87572819D02*
X169774095Y-87572819D01*
X170059809Y-87572819D02*
X170059809Y-86572819D01*
X170059809Y-86572819D02*
X169964571Y-86715676D01*
X169964571Y-86715676D02*
X169869333Y-86810914D01*
X169869333Y-86810914D02*
X169774095Y-86858533D01*
X170678857Y-86572819D02*
X171297904Y-86572819D01*
X171297904Y-86572819D02*
X170964571Y-86953771D01*
X170964571Y-86953771D02*
X171107428Y-86953771D01*
X171107428Y-86953771D02*
X171202666Y-87001390D01*
X171202666Y-87001390D02*
X171250285Y-87049009D01*
X171250285Y-87049009D02*
X171297904Y-87144247D01*
X171297904Y-87144247D02*
X171297904Y-87382342D01*
X171297904Y-87382342D02*
X171250285Y-87477580D01*
X171250285Y-87477580D02*
X171202666Y-87525200D01*
X171202666Y-87525200D02*
X171107428Y-87572819D01*
X171107428Y-87572819D02*
X170821714Y-87572819D01*
X170821714Y-87572819D02*
X170726476Y-87525200D01*
X170726476Y-87525200D02*
X170678857Y-87477580D01*
X156942080Y-116908857D02*
X156989700Y-116956476D01*
X156989700Y-116956476D02*
X157037319Y-117099333D01*
X157037319Y-117099333D02*
X157037319Y-117194571D01*
X157037319Y-117194571D02*
X156989700Y-117337428D01*
X156989700Y-117337428D02*
X156894461Y-117432666D01*
X156894461Y-117432666D02*
X156799223Y-117480285D01*
X156799223Y-117480285D02*
X156608747Y-117527904D01*
X156608747Y-117527904D02*
X156465890Y-117527904D01*
X156465890Y-117527904D02*
X156275414Y-117480285D01*
X156275414Y-117480285D02*
X156180176Y-117432666D01*
X156180176Y-117432666D02*
X156084938Y-117337428D01*
X156084938Y-117337428D02*
X156037319Y-117194571D01*
X156037319Y-117194571D02*
X156037319Y-117099333D01*
X156037319Y-117099333D02*
X156084938Y-116956476D01*
X156084938Y-116956476D02*
X156132557Y-116908857D01*
X156132557Y-116527904D02*
X156084938Y-116480285D01*
X156084938Y-116480285D02*
X156037319Y-116385047D01*
X156037319Y-116385047D02*
X156037319Y-116146952D01*
X156037319Y-116146952D02*
X156084938Y-116051714D01*
X156084938Y-116051714D02*
X156132557Y-116004095D01*
X156132557Y-116004095D02*
X156227795Y-115956476D01*
X156227795Y-115956476D02*
X156323033Y-115956476D01*
X156323033Y-115956476D02*
X156465890Y-116004095D01*
X156465890Y-116004095D02*
X157037319Y-116575523D01*
X157037319Y-116575523D02*
X157037319Y-115956476D01*
X156465890Y-115385047D02*
X156418271Y-115480285D01*
X156418271Y-115480285D02*
X156370652Y-115527904D01*
X156370652Y-115527904D02*
X156275414Y-115575523D01*
X156275414Y-115575523D02*
X156227795Y-115575523D01*
X156227795Y-115575523D02*
X156132557Y-115527904D01*
X156132557Y-115527904D02*
X156084938Y-115480285D01*
X156084938Y-115480285D02*
X156037319Y-115385047D01*
X156037319Y-115385047D02*
X156037319Y-115194571D01*
X156037319Y-115194571D02*
X156084938Y-115099333D01*
X156084938Y-115099333D02*
X156132557Y-115051714D01*
X156132557Y-115051714D02*
X156227795Y-115004095D01*
X156227795Y-115004095D02*
X156275414Y-115004095D01*
X156275414Y-115004095D02*
X156370652Y-115051714D01*
X156370652Y-115051714D02*
X156418271Y-115099333D01*
X156418271Y-115099333D02*
X156465890Y-115194571D01*
X156465890Y-115194571D02*
X156465890Y-115385047D01*
X156465890Y-115385047D02*
X156513509Y-115480285D01*
X156513509Y-115480285D02*
X156561128Y-115527904D01*
X156561128Y-115527904D02*
X156656366Y-115575523D01*
X156656366Y-115575523D02*
X156846842Y-115575523D01*
X156846842Y-115575523D02*
X156942080Y-115527904D01*
X156942080Y-115527904D02*
X156989700Y-115480285D01*
X156989700Y-115480285D02*
X157037319Y-115385047D01*
X157037319Y-115385047D02*
X157037319Y-115194571D01*
X157037319Y-115194571D02*
X156989700Y-115099333D01*
X156989700Y-115099333D02*
X156942080Y-115051714D01*
X156942080Y-115051714D02*
X156846842Y-115004095D01*
X156846842Y-115004095D02*
X156656366Y-115004095D01*
X156656366Y-115004095D02*
X156561128Y-115051714D01*
X156561128Y-115051714D02*
X156513509Y-115099333D01*
X156513509Y-115099333D02*
X156465890Y-115194571D01*
X182197142Y-77356819D02*
X181863809Y-76880628D01*
X181625714Y-77356819D02*
X181625714Y-76356819D01*
X181625714Y-76356819D02*
X182006666Y-76356819D01*
X182006666Y-76356819D02*
X182101904Y-76404438D01*
X182101904Y-76404438D02*
X182149523Y-76452057D01*
X182149523Y-76452057D02*
X182197142Y-76547295D01*
X182197142Y-76547295D02*
X182197142Y-76690152D01*
X182197142Y-76690152D02*
X182149523Y-76785390D01*
X182149523Y-76785390D02*
X182101904Y-76833009D01*
X182101904Y-76833009D02*
X182006666Y-76880628D01*
X182006666Y-76880628D02*
X181625714Y-76880628D01*
X183149523Y-77356819D02*
X182578095Y-77356819D01*
X182863809Y-77356819D02*
X182863809Y-76356819D01*
X182863809Y-76356819D02*
X182768571Y-76499676D01*
X182768571Y-76499676D02*
X182673333Y-76594914D01*
X182673333Y-76594914D02*
X182578095Y-76642533D01*
X184101904Y-77356819D02*
X183530476Y-77356819D01*
X183816190Y-77356819D02*
X183816190Y-76356819D01*
X183816190Y-76356819D02*
X183720952Y-76499676D01*
X183720952Y-76499676D02*
X183625714Y-76594914D01*
X183625714Y-76594914D02*
X183530476Y-76642533D01*
X147044580Y-120816666D02*
X147092200Y-120864285D01*
X147092200Y-120864285D02*
X147139819Y-121007142D01*
X147139819Y-121007142D02*
X147139819Y-121102380D01*
X147139819Y-121102380D02*
X147092200Y-121245237D01*
X147092200Y-121245237D02*
X146996961Y-121340475D01*
X146996961Y-121340475D02*
X146901723Y-121388094D01*
X146901723Y-121388094D02*
X146711247Y-121435713D01*
X146711247Y-121435713D02*
X146568390Y-121435713D01*
X146568390Y-121435713D02*
X146377914Y-121388094D01*
X146377914Y-121388094D02*
X146282676Y-121340475D01*
X146282676Y-121340475D02*
X146187438Y-121245237D01*
X146187438Y-121245237D02*
X146139819Y-121102380D01*
X146139819Y-121102380D02*
X146139819Y-121007142D01*
X146139819Y-121007142D02*
X146187438Y-120864285D01*
X146187438Y-120864285D02*
X146235057Y-120816666D01*
X146568390Y-120245237D02*
X146520771Y-120340475D01*
X146520771Y-120340475D02*
X146473152Y-120388094D01*
X146473152Y-120388094D02*
X146377914Y-120435713D01*
X146377914Y-120435713D02*
X146330295Y-120435713D01*
X146330295Y-120435713D02*
X146235057Y-120388094D01*
X146235057Y-120388094D02*
X146187438Y-120340475D01*
X146187438Y-120340475D02*
X146139819Y-120245237D01*
X146139819Y-120245237D02*
X146139819Y-120054761D01*
X146139819Y-120054761D02*
X146187438Y-119959523D01*
X146187438Y-119959523D02*
X146235057Y-119911904D01*
X146235057Y-119911904D02*
X146330295Y-119864285D01*
X146330295Y-119864285D02*
X146377914Y-119864285D01*
X146377914Y-119864285D02*
X146473152Y-119911904D01*
X146473152Y-119911904D02*
X146520771Y-119959523D01*
X146520771Y-119959523D02*
X146568390Y-120054761D01*
X146568390Y-120054761D02*
X146568390Y-120245237D01*
X146568390Y-120245237D02*
X146616009Y-120340475D01*
X146616009Y-120340475D02*
X146663628Y-120388094D01*
X146663628Y-120388094D02*
X146758866Y-120435713D01*
X146758866Y-120435713D02*
X146949342Y-120435713D01*
X146949342Y-120435713D02*
X147044580Y-120388094D01*
X147044580Y-120388094D02*
X147092200Y-120340475D01*
X147092200Y-120340475D02*
X147139819Y-120245237D01*
X147139819Y-120245237D02*
X147139819Y-120054761D01*
X147139819Y-120054761D02*
X147092200Y-119959523D01*
X147092200Y-119959523D02*
X147044580Y-119911904D01*
X147044580Y-119911904D02*
X146949342Y-119864285D01*
X146949342Y-119864285D02*
X146758866Y-119864285D01*
X146758866Y-119864285D02*
X146663628Y-119911904D01*
X146663628Y-119911904D02*
X146616009Y-119959523D01*
X146616009Y-119959523D02*
X146568390Y-120054761D01*
X163187142Y-87449819D02*
X162853809Y-86973628D01*
X162615714Y-87449819D02*
X162615714Y-86449819D01*
X162615714Y-86449819D02*
X162996666Y-86449819D01*
X162996666Y-86449819D02*
X163091904Y-86497438D01*
X163091904Y-86497438D02*
X163139523Y-86545057D01*
X163139523Y-86545057D02*
X163187142Y-86640295D01*
X163187142Y-86640295D02*
X163187142Y-86783152D01*
X163187142Y-86783152D02*
X163139523Y-86878390D01*
X163139523Y-86878390D02*
X163091904Y-86926009D01*
X163091904Y-86926009D02*
X162996666Y-86973628D01*
X162996666Y-86973628D02*
X162615714Y-86973628D01*
X164139523Y-87449819D02*
X163568095Y-87449819D01*
X163853809Y-87449819D02*
X163853809Y-86449819D01*
X163853809Y-86449819D02*
X163758571Y-86592676D01*
X163758571Y-86592676D02*
X163663333Y-86687914D01*
X163663333Y-86687914D02*
X163568095Y-86735533D01*
X164520476Y-86545057D02*
X164568095Y-86497438D01*
X164568095Y-86497438D02*
X164663333Y-86449819D01*
X164663333Y-86449819D02*
X164901428Y-86449819D01*
X164901428Y-86449819D02*
X164996666Y-86497438D01*
X164996666Y-86497438D02*
X165044285Y-86545057D01*
X165044285Y-86545057D02*
X165091904Y-86640295D01*
X165091904Y-86640295D02*
X165091904Y-86735533D01*
X165091904Y-86735533D02*
X165044285Y-86878390D01*
X165044285Y-86878390D02*
X164472857Y-87449819D01*
X164472857Y-87449819D02*
X165091904Y-87449819D01*
X191844819Y-93710357D02*
X191368628Y-94043690D01*
X191844819Y-94281785D02*
X190844819Y-94281785D01*
X190844819Y-94281785D02*
X190844819Y-93900833D01*
X190844819Y-93900833D02*
X190892438Y-93805595D01*
X190892438Y-93805595D02*
X190940057Y-93757976D01*
X190940057Y-93757976D02*
X191035295Y-93710357D01*
X191035295Y-93710357D02*
X191178152Y-93710357D01*
X191178152Y-93710357D02*
X191273390Y-93757976D01*
X191273390Y-93757976D02*
X191321009Y-93805595D01*
X191321009Y-93805595D02*
X191368628Y-93900833D01*
X191368628Y-93900833D02*
X191368628Y-94281785D01*
X191844819Y-92757976D02*
X191844819Y-93329404D01*
X191844819Y-93043690D02*
X190844819Y-93043690D01*
X190844819Y-93043690D02*
X190987676Y-93138928D01*
X190987676Y-93138928D02*
X191082914Y-93234166D01*
X191082914Y-93234166D02*
X191130533Y-93329404D01*
X191178152Y-91900833D02*
X191844819Y-91900833D01*
X190797200Y-92138928D02*
X191511485Y-92377023D01*
X191511485Y-92377023D02*
X191511485Y-91757976D01*
X131913333Y-125679580D02*
X131865714Y-125727200D01*
X131865714Y-125727200D02*
X131722857Y-125774819D01*
X131722857Y-125774819D02*
X131627619Y-125774819D01*
X131627619Y-125774819D02*
X131484762Y-125727200D01*
X131484762Y-125727200D02*
X131389524Y-125631961D01*
X131389524Y-125631961D02*
X131341905Y-125536723D01*
X131341905Y-125536723D02*
X131294286Y-125346247D01*
X131294286Y-125346247D02*
X131294286Y-125203390D01*
X131294286Y-125203390D02*
X131341905Y-125012914D01*
X131341905Y-125012914D02*
X131389524Y-124917676D01*
X131389524Y-124917676D02*
X131484762Y-124822438D01*
X131484762Y-124822438D02*
X131627619Y-124774819D01*
X131627619Y-124774819D02*
X131722857Y-124774819D01*
X131722857Y-124774819D02*
X131865714Y-124822438D01*
X131865714Y-124822438D02*
X131913333Y-124870057D01*
X132770476Y-125108152D02*
X132770476Y-125774819D01*
X132532381Y-124727200D02*
X132294286Y-125441485D01*
X132294286Y-125441485D02*
X132913333Y-125441485D01*
X136474580Y-132087857D02*
X136522200Y-132135476D01*
X136522200Y-132135476D02*
X136569819Y-132278333D01*
X136569819Y-132278333D02*
X136569819Y-132373571D01*
X136569819Y-132373571D02*
X136522200Y-132516428D01*
X136522200Y-132516428D02*
X136426961Y-132611666D01*
X136426961Y-132611666D02*
X136331723Y-132659285D01*
X136331723Y-132659285D02*
X136141247Y-132706904D01*
X136141247Y-132706904D02*
X135998390Y-132706904D01*
X135998390Y-132706904D02*
X135807914Y-132659285D01*
X135807914Y-132659285D02*
X135712676Y-132611666D01*
X135712676Y-132611666D02*
X135617438Y-132516428D01*
X135617438Y-132516428D02*
X135569819Y-132373571D01*
X135569819Y-132373571D02*
X135569819Y-132278333D01*
X135569819Y-132278333D02*
X135617438Y-132135476D01*
X135617438Y-132135476D02*
X135665057Y-132087857D01*
X136569819Y-131135476D02*
X136569819Y-131706904D01*
X136569819Y-131421190D02*
X135569819Y-131421190D01*
X135569819Y-131421190D02*
X135712676Y-131516428D01*
X135712676Y-131516428D02*
X135807914Y-131611666D01*
X135807914Y-131611666D02*
X135855533Y-131706904D01*
X136569819Y-130183095D02*
X136569819Y-130754523D01*
X136569819Y-130468809D02*
X135569819Y-130468809D01*
X135569819Y-130468809D02*
X135712676Y-130564047D01*
X135712676Y-130564047D02*
X135807914Y-130659285D01*
X135807914Y-130659285D02*
X135855533Y-130754523D01*
X152327142Y-113259580D02*
X152279523Y-113307200D01*
X152279523Y-113307200D02*
X152136666Y-113354819D01*
X152136666Y-113354819D02*
X152041428Y-113354819D01*
X152041428Y-113354819D02*
X151898571Y-113307200D01*
X151898571Y-113307200D02*
X151803333Y-113211961D01*
X151803333Y-113211961D02*
X151755714Y-113116723D01*
X151755714Y-113116723D02*
X151708095Y-112926247D01*
X151708095Y-112926247D02*
X151708095Y-112783390D01*
X151708095Y-112783390D02*
X151755714Y-112592914D01*
X151755714Y-112592914D02*
X151803333Y-112497676D01*
X151803333Y-112497676D02*
X151898571Y-112402438D01*
X151898571Y-112402438D02*
X152041428Y-112354819D01*
X152041428Y-112354819D02*
X152136666Y-112354819D01*
X152136666Y-112354819D02*
X152279523Y-112402438D01*
X152279523Y-112402438D02*
X152327142Y-112450057D01*
X152708095Y-112450057D02*
X152755714Y-112402438D01*
X152755714Y-112402438D02*
X152850952Y-112354819D01*
X152850952Y-112354819D02*
X153089047Y-112354819D01*
X153089047Y-112354819D02*
X153184285Y-112402438D01*
X153184285Y-112402438D02*
X153231904Y-112450057D01*
X153231904Y-112450057D02*
X153279523Y-112545295D01*
X153279523Y-112545295D02*
X153279523Y-112640533D01*
X153279523Y-112640533D02*
X153231904Y-112783390D01*
X153231904Y-112783390D02*
X152660476Y-113354819D01*
X152660476Y-113354819D02*
X153279523Y-113354819D01*
X154184285Y-112354819D02*
X153708095Y-112354819D01*
X153708095Y-112354819D02*
X153660476Y-112831009D01*
X153660476Y-112831009D02*
X153708095Y-112783390D01*
X153708095Y-112783390D02*
X153803333Y-112735771D01*
X153803333Y-112735771D02*
X154041428Y-112735771D01*
X154041428Y-112735771D02*
X154136666Y-112783390D01*
X154136666Y-112783390D02*
X154184285Y-112831009D01*
X154184285Y-112831009D02*
X154231904Y-112926247D01*
X154231904Y-112926247D02*
X154231904Y-113164342D01*
X154231904Y-113164342D02*
X154184285Y-113259580D01*
X154184285Y-113259580D02*
X154136666Y-113307200D01*
X154136666Y-113307200D02*
X154041428Y-113354819D01*
X154041428Y-113354819D02*
X153803333Y-113354819D01*
X153803333Y-113354819D02*
X153708095Y-113307200D01*
X153708095Y-113307200D02*
X153660476Y-113259580D01*
X149518080Y-122054857D02*
X149565700Y-122102476D01*
X149565700Y-122102476D02*
X149613319Y-122245333D01*
X149613319Y-122245333D02*
X149613319Y-122340571D01*
X149613319Y-122340571D02*
X149565700Y-122483428D01*
X149565700Y-122483428D02*
X149470461Y-122578666D01*
X149470461Y-122578666D02*
X149375223Y-122626285D01*
X149375223Y-122626285D02*
X149184747Y-122673904D01*
X149184747Y-122673904D02*
X149041890Y-122673904D01*
X149041890Y-122673904D02*
X148851414Y-122626285D01*
X148851414Y-122626285D02*
X148756176Y-122578666D01*
X148756176Y-122578666D02*
X148660938Y-122483428D01*
X148660938Y-122483428D02*
X148613319Y-122340571D01*
X148613319Y-122340571D02*
X148613319Y-122245333D01*
X148613319Y-122245333D02*
X148660938Y-122102476D01*
X148660938Y-122102476D02*
X148708557Y-122054857D01*
X148708557Y-121673904D02*
X148660938Y-121626285D01*
X148660938Y-121626285D02*
X148613319Y-121531047D01*
X148613319Y-121531047D02*
X148613319Y-121292952D01*
X148613319Y-121292952D02*
X148660938Y-121197714D01*
X148660938Y-121197714D02*
X148708557Y-121150095D01*
X148708557Y-121150095D02*
X148803795Y-121102476D01*
X148803795Y-121102476D02*
X148899033Y-121102476D01*
X148899033Y-121102476D02*
X149041890Y-121150095D01*
X149041890Y-121150095D02*
X149613319Y-121721523D01*
X149613319Y-121721523D02*
X149613319Y-121102476D01*
X149613319Y-120626285D02*
X149613319Y-120435809D01*
X149613319Y-120435809D02*
X149565700Y-120340571D01*
X149565700Y-120340571D02*
X149518080Y-120292952D01*
X149518080Y-120292952D02*
X149375223Y-120197714D01*
X149375223Y-120197714D02*
X149184747Y-120150095D01*
X149184747Y-120150095D02*
X148803795Y-120150095D01*
X148803795Y-120150095D02*
X148708557Y-120197714D01*
X148708557Y-120197714D02*
X148660938Y-120245333D01*
X148660938Y-120245333D02*
X148613319Y-120340571D01*
X148613319Y-120340571D02*
X148613319Y-120531047D01*
X148613319Y-120531047D02*
X148660938Y-120626285D01*
X148660938Y-120626285D02*
X148708557Y-120673904D01*
X148708557Y-120673904D02*
X148803795Y-120721523D01*
X148803795Y-120721523D02*
X149041890Y-120721523D01*
X149041890Y-120721523D02*
X149137128Y-120673904D01*
X149137128Y-120673904D02*
X149184747Y-120626285D01*
X149184747Y-120626285D02*
X149232366Y-120531047D01*
X149232366Y-120531047D02*
X149232366Y-120340571D01*
X149232366Y-120340571D02*
X149184747Y-120245333D01*
X149184747Y-120245333D02*
X149137128Y-120197714D01*
X149137128Y-120197714D02*
X149041890Y-120150095D01*
X170539580Y-125737857D02*
X170587200Y-125785476D01*
X170587200Y-125785476D02*
X170634819Y-125928333D01*
X170634819Y-125928333D02*
X170634819Y-126023571D01*
X170634819Y-126023571D02*
X170587200Y-126166428D01*
X170587200Y-126166428D02*
X170491961Y-126261666D01*
X170491961Y-126261666D02*
X170396723Y-126309285D01*
X170396723Y-126309285D02*
X170206247Y-126356904D01*
X170206247Y-126356904D02*
X170063390Y-126356904D01*
X170063390Y-126356904D02*
X169872914Y-126309285D01*
X169872914Y-126309285D02*
X169777676Y-126261666D01*
X169777676Y-126261666D02*
X169682438Y-126166428D01*
X169682438Y-126166428D02*
X169634819Y-126023571D01*
X169634819Y-126023571D02*
X169634819Y-125928333D01*
X169634819Y-125928333D02*
X169682438Y-125785476D01*
X169682438Y-125785476D02*
X169730057Y-125737857D01*
X169730057Y-125356904D02*
X169682438Y-125309285D01*
X169682438Y-125309285D02*
X169634819Y-125214047D01*
X169634819Y-125214047D02*
X169634819Y-124975952D01*
X169634819Y-124975952D02*
X169682438Y-124880714D01*
X169682438Y-124880714D02*
X169730057Y-124833095D01*
X169730057Y-124833095D02*
X169825295Y-124785476D01*
X169825295Y-124785476D02*
X169920533Y-124785476D01*
X169920533Y-124785476D02*
X170063390Y-124833095D01*
X170063390Y-124833095D02*
X170634819Y-125404523D01*
X170634819Y-125404523D02*
X170634819Y-124785476D01*
X169634819Y-123928333D02*
X169634819Y-124118809D01*
X169634819Y-124118809D02*
X169682438Y-124214047D01*
X169682438Y-124214047D02*
X169730057Y-124261666D01*
X169730057Y-124261666D02*
X169872914Y-124356904D01*
X169872914Y-124356904D02*
X170063390Y-124404523D01*
X170063390Y-124404523D02*
X170444342Y-124404523D01*
X170444342Y-124404523D02*
X170539580Y-124356904D01*
X170539580Y-124356904D02*
X170587200Y-124309285D01*
X170587200Y-124309285D02*
X170634819Y-124214047D01*
X170634819Y-124214047D02*
X170634819Y-124023571D01*
X170634819Y-124023571D02*
X170587200Y-123928333D01*
X170587200Y-123928333D02*
X170539580Y-123880714D01*
X170539580Y-123880714D02*
X170444342Y-123833095D01*
X170444342Y-123833095D02*
X170206247Y-123833095D01*
X170206247Y-123833095D02*
X170111009Y-123880714D01*
X170111009Y-123880714D02*
X170063390Y-123928333D01*
X170063390Y-123928333D02*
X170015771Y-124023571D01*
X170015771Y-124023571D02*
X170015771Y-124214047D01*
X170015771Y-124214047D02*
X170063390Y-124309285D01*
X170063390Y-124309285D02*
X170111009Y-124356904D01*
X170111009Y-124356904D02*
X170206247Y-124404523D01*
X153177642Y-120247580D02*
X153130023Y-120295200D01*
X153130023Y-120295200D02*
X152987166Y-120342819D01*
X152987166Y-120342819D02*
X152891928Y-120342819D01*
X152891928Y-120342819D02*
X152749071Y-120295200D01*
X152749071Y-120295200D02*
X152653833Y-120199961D01*
X152653833Y-120199961D02*
X152606214Y-120104723D01*
X152606214Y-120104723D02*
X152558595Y-119914247D01*
X152558595Y-119914247D02*
X152558595Y-119771390D01*
X152558595Y-119771390D02*
X152606214Y-119580914D01*
X152606214Y-119580914D02*
X152653833Y-119485676D01*
X152653833Y-119485676D02*
X152749071Y-119390438D01*
X152749071Y-119390438D02*
X152891928Y-119342819D01*
X152891928Y-119342819D02*
X152987166Y-119342819D01*
X152987166Y-119342819D02*
X153130023Y-119390438D01*
X153130023Y-119390438D02*
X153177642Y-119438057D01*
X153510976Y-119342819D02*
X154130023Y-119342819D01*
X154130023Y-119342819D02*
X153796690Y-119723771D01*
X153796690Y-119723771D02*
X153939547Y-119723771D01*
X153939547Y-119723771D02*
X154034785Y-119771390D01*
X154034785Y-119771390D02*
X154082404Y-119819009D01*
X154082404Y-119819009D02*
X154130023Y-119914247D01*
X154130023Y-119914247D02*
X154130023Y-120152342D01*
X154130023Y-120152342D02*
X154082404Y-120247580D01*
X154082404Y-120247580D02*
X154034785Y-120295200D01*
X154034785Y-120295200D02*
X153939547Y-120342819D01*
X153939547Y-120342819D02*
X153653833Y-120342819D01*
X153653833Y-120342819D02*
X153558595Y-120295200D01*
X153558595Y-120295200D02*
X153510976Y-120247580D01*
X154987166Y-119676152D02*
X154987166Y-120342819D01*
X154749071Y-119295200D02*
X154510976Y-120009485D01*
X154510976Y-120009485D02*
X155130023Y-120009485D01*
X173198080Y-116974857D02*
X173245700Y-117022476D01*
X173245700Y-117022476D02*
X173293319Y-117165333D01*
X173293319Y-117165333D02*
X173293319Y-117260571D01*
X173293319Y-117260571D02*
X173245700Y-117403428D01*
X173245700Y-117403428D02*
X173150461Y-117498666D01*
X173150461Y-117498666D02*
X173055223Y-117546285D01*
X173055223Y-117546285D02*
X172864747Y-117593904D01*
X172864747Y-117593904D02*
X172721890Y-117593904D01*
X172721890Y-117593904D02*
X172531414Y-117546285D01*
X172531414Y-117546285D02*
X172436176Y-117498666D01*
X172436176Y-117498666D02*
X172340938Y-117403428D01*
X172340938Y-117403428D02*
X172293319Y-117260571D01*
X172293319Y-117260571D02*
X172293319Y-117165333D01*
X172293319Y-117165333D02*
X172340938Y-117022476D01*
X172340938Y-117022476D02*
X172388557Y-116974857D01*
X172388557Y-116593904D02*
X172340938Y-116546285D01*
X172340938Y-116546285D02*
X172293319Y-116451047D01*
X172293319Y-116451047D02*
X172293319Y-116212952D01*
X172293319Y-116212952D02*
X172340938Y-116117714D01*
X172340938Y-116117714D02*
X172388557Y-116070095D01*
X172388557Y-116070095D02*
X172483795Y-116022476D01*
X172483795Y-116022476D02*
X172579033Y-116022476D01*
X172579033Y-116022476D02*
X172721890Y-116070095D01*
X172721890Y-116070095D02*
X173293319Y-116641523D01*
X173293319Y-116641523D02*
X173293319Y-116022476D01*
X172293319Y-115689142D02*
X172293319Y-115022476D01*
X172293319Y-115022476D02*
X173293319Y-115451047D01*
X139573095Y-117379819D02*
X139573095Y-118189342D01*
X139573095Y-118189342D02*
X139620714Y-118284580D01*
X139620714Y-118284580D02*
X139668333Y-118332200D01*
X139668333Y-118332200D02*
X139763571Y-118379819D01*
X139763571Y-118379819D02*
X139954047Y-118379819D01*
X139954047Y-118379819D02*
X140049285Y-118332200D01*
X140049285Y-118332200D02*
X140096904Y-118284580D01*
X140096904Y-118284580D02*
X140144523Y-118189342D01*
X140144523Y-118189342D02*
X140144523Y-117379819D01*
X141144523Y-118379819D02*
X140573095Y-118379819D01*
X140858809Y-118379819D02*
X140858809Y-117379819D01*
X140858809Y-117379819D02*
X140763571Y-117522676D01*
X140763571Y-117522676D02*
X140668333Y-117617914D01*
X140668333Y-117617914D02*
X140573095Y-117665533D01*
X153243642Y-124155580D02*
X153196023Y-124203200D01*
X153196023Y-124203200D02*
X153053166Y-124250819D01*
X153053166Y-124250819D02*
X152957928Y-124250819D01*
X152957928Y-124250819D02*
X152815071Y-124203200D01*
X152815071Y-124203200D02*
X152719833Y-124107961D01*
X152719833Y-124107961D02*
X152672214Y-124012723D01*
X152672214Y-124012723D02*
X152624595Y-123822247D01*
X152624595Y-123822247D02*
X152624595Y-123679390D01*
X152624595Y-123679390D02*
X152672214Y-123488914D01*
X152672214Y-123488914D02*
X152719833Y-123393676D01*
X152719833Y-123393676D02*
X152815071Y-123298438D01*
X152815071Y-123298438D02*
X152957928Y-123250819D01*
X152957928Y-123250819D02*
X153053166Y-123250819D01*
X153053166Y-123250819D02*
X153196023Y-123298438D01*
X153196023Y-123298438D02*
X153243642Y-123346057D01*
X153576976Y-123250819D02*
X154196023Y-123250819D01*
X154196023Y-123250819D02*
X153862690Y-123631771D01*
X153862690Y-123631771D02*
X154005547Y-123631771D01*
X154005547Y-123631771D02*
X154100785Y-123679390D01*
X154100785Y-123679390D02*
X154148404Y-123727009D01*
X154148404Y-123727009D02*
X154196023Y-123822247D01*
X154196023Y-123822247D02*
X154196023Y-124060342D01*
X154196023Y-124060342D02*
X154148404Y-124155580D01*
X154148404Y-124155580D02*
X154100785Y-124203200D01*
X154100785Y-124203200D02*
X154005547Y-124250819D01*
X154005547Y-124250819D02*
X153719833Y-124250819D01*
X153719833Y-124250819D02*
X153624595Y-124203200D01*
X153624595Y-124203200D02*
X153576976Y-124155580D01*
X154815071Y-123250819D02*
X154910309Y-123250819D01*
X154910309Y-123250819D02*
X155005547Y-123298438D01*
X155005547Y-123298438D02*
X155053166Y-123346057D01*
X155053166Y-123346057D02*
X155100785Y-123441295D01*
X155100785Y-123441295D02*
X155148404Y-123631771D01*
X155148404Y-123631771D02*
X155148404Y-123869866D01*
X155148404Y-123869866D02*
X155100785Y-124060342D01*
X155100785Y-124060342D02*
X155053166Y-124155580D01*
X155053166Y-124155580D02*
X155005547Y-124203200D01*
X155005547Y-124203200D02*
X154910309Y-124250819D01*
X154910309Y-124250819D02*
X154815071Y-124250819D01*
X154815071Y-124250819D02*
X154719833Y-124203200D01*
X154719833Y-124203200D02*
X154672214Y-124155580D01*
X154672214Y-124155580D02*
X154624595Y-124060342D01*
X154624595Y-124060342D02*
X154576976Y-123869866D01*
X154576976Y-123869866D02*
X154576976Y-123631771D01*
X154576976Y-123631771D02*
X154624595Y-123441295D01*
X154624595Y-123441295D02*
X154672214Y-123346057D01*
X154672214Y-123346057D02*
X154719833Y-123298438D01*
X154719833Y-123298438D02*
X154815071Y-123250819D01*
X172553333Y-133169819D02*
X172220000Y-132693628D01*
X171981905Y-133169819D02*
X171981905Y-132169819D01*
X171981905Y-132169819D02*
X172362857Y-132169819D01*
X172362857Y-132169819D02*
X172458095Y-132217438D01*
X172458095Y-132217438D02*
X172505714Y-132265057D01*
X172505714Y-132265057D02*
X172553333Y-132360295D01*
X172553333Y-132360295D02*
X172553333Y-132503152D01*
X172553333Y-132503152D02*
X172505714Y-132598390D01*
X172505714Y-132598390D02*
X172458095Y-132646009D01*
X172458095Y-132646009D02*
X172362857Y-132693628D01*
X172362857Y-132693628D02*
X171981905Y-132693628D01*
X173505714Y-133169819D02*
X172934286Y-133169819D01*
X173220000Y-133169819D02*
X173220000Y-132169819D01*
X173220000Y-132169819D02*
X173124762Y-132312676D01*
X173124762Y-132312676D02*
X173029524Y-132407914D01*
X173029524Y-132407914D02*
X172934286Y-132455533D01*
X170328333Y-129674580D02*
X170280714Y-129722200D01*
X170280714Y-129722200D02*
X170137857Y-129769819D01*
X170137857Y-129769819D02*
X170042619Y-129769819D01*
X170042619Y-129769819D02*
X169899762Y-129722200D01*
X169899762Y-129722200D02*
X169804524Y-129626961D01*
X169804524Y-129626961D02*
X169756905Y-129531723D01*
X169756905Y-129531723D02*
X169709286Y-129341247D01*
X169709286Y-129341247D02*
X169709286Y-129198390D01*
X169709286Y-129198390D02*
X169756905Y-129007914D01*
X169756905Y-129007914D02*
X169804524Y-128912676D01*
X169804524Y-128912676D02*
X169899762Y-128817438D01*
X169899762Y-128817438D02*
X170042619Y-128769819D01*
X170042619Y-128769819D02*
X170137857Y-128769819D01*
X170137857Y-128769819D02*
X170280714Y-128817438D01*
X170280714Y-128817438D02*
X170328333Y-128865057D01*
X171280714Y-129769819D02*
X170709286Y-129769819D01*
X170995000Y-129769819D02*
X170995000Y-128769819D01*
X170995000Y-128769819D02*
X170899762Y-128912676D01*
X170899762Y-128912676D02*
X170804524Y-129007914D01*
X170804524Y-129007914D02*
X170709286Y-129055533D01*
X183283333Y-104271580D02*
X183235714Y-104319200D01*
X183235714Y-104319200D02*
X183092857Y-104366819D01*
X183092857Y-104366819D02*
X182997619Y-104366819D01*
X182997619Y-104366819D02*
X182854762Y-104319200D01*
X182854762Y-104319200D02*
X182759524Y-104223961D01*
X182759524Y-104223961D02*
X182711905Y-104128723D01*
X182711905Y-104128723D02*
X182664286Y-103938247D01*
X182664286Y-103938247D02*
X182664286Y-103795390D01*
X182664286Y-103795390D02*
X182711905Y-103604914D01*
X182711905Y-103604914D02*
X182759524Y-103509676D01*
X182759524Y-103509676D02*
X182854762Y-103414438D01*
X182854762Y-103414438D02*
X182997619Y-103366819D01*
X182997619Y-103366819D02*
X183092857Y-103366819D01*
X183092857Y-103366819D02*
X183235714Y-103414438D01*
X183235714Y-103414438D02*
X183283333Y-103462057D01*
X183616667Y-103366819D02*
X184283333Y-103366819D01*
X184283333Y-103366819D02*
X183854762Y-104366819D01*
X165727142Y-82274580D02*
X165679523Y-82322200D01*
X165679523Y-82322200D02*
X165536666Y-82369819D01*
X165536666Y-82369819D02*
X165441428Y-82369819D01*
X165441428Y-82369819D02*
X165298571Y-82322200D01*
X165298571Y-82322200D02*
X165203333Y-82226961D01*
X165203333Y-82226961D02*
X165155714Y-82131723D01*
X165155714Y-82131723D02*
X165108095Y-81941247D01*
X165108095Y-81941247D02*
X165108095Y-81798390D01*
X165108095Y-81798390D02*
X165155714Y-81607914D01*
X165155714Y-81607914D02*
X165203333Y-81512676D01*
X165203333Y-81512676D02*
X165298571Y-81417438D01*
X165298571Y-81417438D02*
X165441428Y-81369819D01*
X165441428Y-81369819D02*
X165536666Y-81369819D01*
X165536666Y-81369819D02*
X165679523Y-81417438D01*
X165679523Y-81417438D02*
X165727142Y-81465057D01*
X166108095Y-81465057D02*
X166155714Y-81417438D01*
X166155714Y-81417438D02*
X166250952Y-81369819D01*
X166250952Y-81369819D02*
X166489047Y-81369819D01*
X166489047Y-81369819D02*
X166584285Y-81417438D01*
X166584285Y-81417438D02*
X166631904Y-81465057D01*
X166631904Y-81465057D02*
X166679523Y-81560295D01*
X166679523Y-81560295D02*
X166679523Y-81655533D01*
X166679523Y-81655533D02*
X166631904Y-81798390D01*
X166631904Y-81798390D02*
X166060476Y-82369819D01*
X166060476Y-82369819D02*
X166679523Y-82369819D01*
X167060476Y-81465057D02*
X167108095Y-81417438D01*
X167108095Y-81417438D02*
X167203333Y-81369819D01*
X167203333Y-81369819D02*
X167441428Y-81369819D01*
X167441428Y-81369819D02*
X167536666Y-81417438D01*
X167536666Y-81417438D02*
X167584285Y-81465057D01*
X167584285Y-81465057D02*
X167631904Y-81560295D01*
X167631904Y-81560295D02*
X167631904Y-81655533D01*
X167631904Y-81655533D02*
X167584285Y-81798390D01*
X167584285Y-81798390D02*
X167012857Y-82369819D01*
X167012857Y-82369819D02*
X167631904Y-82369819D01*
X170172142Y-81864580D02*
X170124523Y-81912200D01*
X170124523Y-81912200D02*
X169981666Y-81959819D01*
X169981666Y-81959819D02*
X169886428Y-81959819D01*
X169886428Y-81959819D02*
X169743571Y-81912200D01*
X169743571Y-81912200D02*
X169648333Y-81816961D01*
X169648333Y-81816961D02*
X169600714Y-81721723D01*
X169600714Y-81721723D02*
X169553095Y-81531247D01*
X169553095Y-81531247D02*
X169553095Y-81388390D01*
X169553095Y-81388390D02*
X169600714Y-81197914D01*
X169600714Y-81197914D02*
X169648333Y-81102676D01*
X169648333Y-81102676D02*
X169743571Y-81007438D01*
X169743571Y-81007438D02*
X169886428Y-80959819D01*
X169886428Y-80959819D02*
X169981666Y-80959819D01*
X169981666Y-80959819D02*
X170124523Y-81007438D01*
X170124523Y-81007438D02*
X170172142Y-81055057D01*
X170553095Y-81055057D02*
X170600714Y-81007438D01*
X170600714Y-81007438D02*
X170695952Y-80959819D01*
X170695952Y-80959819D02*
X170934047Y-80959819D01*
X170934047Y-80959819D02*
X171029285Y-81007438D01*
X171029285Y-81007438D02*
X171076904Y-81055057D01*
X171076904Y-81055057D02*
X171124523Y-81150295D01*
X171124523Y-81150295D02*
X171124523Y-81245533D01*
X171124523Y-81245533D02*
X171076904Y-81388390D01*
X171076904Y-81388390D02*
X170505476Y-81959819D01*
X170505476Y-81959819D02*
X171124523Y-81959819D01*
X171981666Y-81293152D02*
X171981666Y-81959819D01*
X171743571Y-80912200D02*
X171505476Y-81626485D01*
X171505476Y-81626485D02*
X172124523Y-81626485D01*
X166946080Y-116974857D02*
X166993700Y-117022476D01*
X166993700Y-117022476D02*
X167041319Y-117165333D01*
X167041319Y-117165333D02*
X167041319Y-117260571D01*
X167041319Y-117260571D02*
X166993700Y-117403428D01*
X166993700Y-117403428D02*
X166898461Y-117498666D01*
X166898461Y-117498666D02*
X166803223Y-117546285D01*
X166803223Y-117546285D02*
X166612747Y-117593904D01*
X166612747Y-117593904D02*
X166469890Y-117593904D01*
X166469890Y-117593904D02*
X166279414Y-117546285D01*
X166279414Y-117546285D02*
X166184176Y-117498666D01*
X166184176Y-117498666D02*
X166088938Y-117403428D01*
X166088938Y-117403428D02*
X166041319Y-117260571D01*
X166041319Y-117260571D02*
X166041319Y-117165333D01*
X166041319Y-117165333D02*
X166088938Y-117022476D01*
X166088938Y-117022476D02*
X166136557Y-116974857D01*
X166041319Y-116641523D02*
X166041319Y-116022476D01*
X166041319Y-116022476D02*
X166422271Y-116355809D01*
X166422271Y-116355809D02*
X166422271Y-116212952D01*
X166422271Y-116212952D02*
X166469890Y-116117714D01*
X166469890Y-116117714D02*
X166517509Y-116070095D01*
X166517509Y-116070095D02*
X166612747Y-116022476D01*
X166612747Y-116022476D02*
X166850842Y-116022476D01*
X166850842Y-116022476D02*
X166946080Y-116070095D01*
X166946080Y-116070095D02*
X166993700Y-116117714D01*
X166993700Y-116117714D02*
X167041319Y-116212952D01*
X167041319Y-116212952D02*
X167041319Y-116498666D01*
X167041319Y-116498666D02*
X166993700Y-116593904D01*
X166993700Y-116593904D02*
X166946080Y-116641523D01*
X166136557Y-115641523D02*
X166088938Y-115593904D01*
X166088938Y-115593904D02*
X166041319Y-115498666D01*
X166041319Y-115498666D02*
X166041319Y-115260571D01*
X166041319Y-115260571D02*
X166088938Y-115165333D01*
X166088938Y-115165333D02*
X166136557Y-115117714D01*
X166136557Y-115117714D02*
X166231795Y-115070095D01*
X166231795Y-115070095D02*
X166327033Y-115070095D01*
X166327033Y-115070095D02*
X166469890Y-115117714D01*
X166469890Y-115117714D02*
X167041319Y-115689142D01*
X167041319Y-115689142D02*
X167041319Y-115070095D01*
X172854580Y-79382857D02*
X172902200Y-79430476D01*
X172902200Y-79430476D02*
X172949819Y-79573333D01*
X172949819Y-79573333D02*
X172949819Y-79668571D01*
X172949819Y-79668571D02*
X172902200Y-79811428D01*
X172902200Y-79811428D02*
X172806961Y-79906666D01*
X172806961Y-79906666D02*
X172711723Y-79954285D01*
X172711723Y-79954285D02*
X172521247Y-80001904D01*
X172521247Y-80001904D02*
X172378390Y-80001904D01*
X172378390Y-80001904D02*
X172187914Y-79954285D01*
X172187914Y-79954285D02*
X172092676Y-79906666D01*
X172092676Y-79906666D02*
X171997438Y-79811428D01*
X171997438Y-79811428D02*
X171949819Y-79668571D01*
X171949819Y-79668571D02*
X171949819Y-79573333D01*
X171949819Y-79573333D02*
X171997438Y-79430476D01*
X171997438Y-79430476D02*
X172045057Y-79382857D01*
X172045057Y-79001904D02*
X171997438Y-78954285D01*
X171997438Y-78954285D02*
X171949819Y-78859047D01*
X171949819Y-78859047D02*
X171949819Y-78620952D01*
X171949819Y-78620952D02*
X171997438Y-78525714D01*
X171997438Y-78525714D02*
X172045057Y-78478095D01*
X172045057Y-78478095D02*
X172140295Y-78430476D01*
X172140295Y-78430476D02*
X172235533Y-78430476D01*
X172235533Y-78430476D02*
X172378390Y-78478095D01*
X172378390Y-78478095D02*
X172949819Y-79049523D01*
X172949819Y-79049523D02*
X172949819Y-78430476D01*
X171949819Y-78097142D02*
X171949819Y-77478095D01*
X171949819Y-77478095D02*
X172330771Y-77811428D01*
X172330771Y-77811428D02*
X172330771Y-77668571D01*
X172330771Y-77668571D02*
X172378390Y-77573333D01*
X172378390Y-77573333D02*
X172426009Y-77525714D01*
X172426009Y-77525714D02*
X172521247Y-77478095D01*
X172521247Y-77478095D02*
X172759342Y-77478095D01*
X172759342Y-77478095D02*
X172854580Y-77525714D01*
X172854580Y-77525714D02*
X172902200Y-77573333D01*
X172902200Y-77573333D02*
X172949819Y-77668571D01*
X172949819Y-77668571D02*
X172949819Y-77954285D01*
X172949819Y-77954285D02*
X172902200Y-78049523D01*
X172902200Y-78049523D02*
X172854580Y-78097142D01*
D11*
%TO.C,TP1*%
X198050000Y-89655000D02*
G75*
G02*
X195650000Y-89655000I-1200000J0D01*
G01*
X195650000Y-89655000D02*
G75*
G02*
X198050000Y-89655000I1200000J0D01*
G01*
%TO.C,TP4*%
X198050000Y-85090000D02*
G75*
G02*
X195650000Y-85090000I-1200000J0D01*
G01*
X195650000Y-85090000D02*
G75*
G02*
X198050000Y-85090000I1200000J0D01*
G01*
%TO.C,TP8*%
X198050000Y-80645000D02*
G75*
G02*
X195650000Y-80645000I-1200000J0D01*
G01*
X195650000Y-80645000D02*
G75*
G02*
X198050000Y-80645000I1200000J0D01*
G01*
%TO.C,FB6*%
X131955000Y-119852221D02*
X131955000Y-120177779D01*
X130935000Y-119852221D02*
X130935000Y-120177779D01*
%TO.C,FB5*%
X135765000Y-106517221D02*
X135765000Y-106842779D01*
X134745000Y-106517221D02*
X134745000Y-106842779D01*
%TO.C,FB4*%
X200187779Y-117985000D02*
X199862221Y-117985000D01*
X200187779Y-116965000D02*
X199862221Y-116965000D01*
%TO.C,FB3*%
X199862221Y-120140000D02*
X200187779Y-120140000D01*
X199862221Y-121160000D02*
X200187779Y-121160000D01*
%TO.C,U4*%
X153980000Y-90036000D02*
X153980000Y-90786000D01*
X153980000Y-90786000D02*
X153980000Y-92536000D01*
X153980000Y-107286000D02*
X153980000Y-105536000D01*
X153980000Y-108036000D02*
X153980000Y-107286000D01*
X154730000Y-90036000D02*
X153980000Y-90036000D01*
X154730000Y-108036000D02*
X153980000Y-108036000D01*
X173540000Y-108036000D02*
X173540000Y-90036000D01*
X179480000Y-90036000D02*
X172730000Y-90036000D01*
X179480000Y-90036000D02*
X179480000Y-108036000D01*
X179480000Y-108036000D02*
X172730000Y-108036000D01*
%TO.C,C6*%
X187287000Y-103494748D02*
X187287000Y-104017252D01*
X188757000Y-103494748D02*
X188757000Y-104017252D01*
%TO.C,C9*%
X131980000Y-130548748D02*
X131980000Y-131071252D01*
X133450000Y-130548748D02*
X133450000Y-131071252D01*
%TO.C,U5*%
X183088000Y-93210000D02*
X184348000Y-93210000D01*
X183088000Y-96970000D02*
X183088000Y-93210000D01*
X189908000Y-93210000D02*
X188648000Y-93210000D01*
X189908000Y-96970000D02*
X189908000Y-93210000D01*
X183188000Y-98250000D02*
X182858000Y-98490000D01*
X182858000Y-98010000D01*
X183188000Y-98250000D01*
G36*
X183188000Y-98250000D02*
G01*
X182858000Y-98490000D01*
X182858000Y-98010000D01*
X183188000Y-98250000D01*
G37*
%TO.C,C12*%
X164407252Y-79145000D02*
X163884748Y-79145000D01*
X164407252Y-80615000D02*
X163884748Y-80615000D01*
%TO.C,C5*%
X133250000Y-123451252D02*
X133250000Y-122928748D01*
X134720000Y-123451252D02*
X134720000Y-122928748D01*
%TO.C,R3*%
X129440000Y-131037064D02*
X129440000Y-130582936D01*
X130910000Y-131037064D02*
X130910000Y-130582936D01*
D12*
%TO.C,SW3*%
X153249400Y-81353200D02*
X153249400Y-82823860D01*
X153249400Y-84048140D02*
X153249400Y-85518800D01*
X153249400Y-85518800D02*
X159802600Y-85518800D01*
X159802600Y-81353200D02*
X153249400Y-81353200D01*
X159802600Y-82823860D02*
X159802600Y-81353200D01*
X159802600Y-85518800D02*
X159802600Y-84048140D01*
D11*
%TO.C,U6*%
X157613500Y-121920000D02*
X157613500Y-119720000D01*
X157613500Y-121920000D02*
X157613500Y-124120000D01*
X164383500Y-121920000D02*
X164383500Y-119720000D01*
X164383500Y-121920000D02*
X164383500Y-124120000D01*
X158313500Y-126110000D02*
X157833500Y-126110000D01*
X158073500Y-125780000D01*
X158313500Y-126110000D01*
G36*
X158313500Y-126110000D02*
G01*
X157833500Y-126110000D01*
X158073500Y-125780000D01*
X158313500Y-126110000D01*
G37*
%TO.C,C33*%
X151627500Y-116527252D02*
X151627500Y-116004748D01*
X153097500Y-116527252D02*
X153097500Y-116004748D01*
%TO.C,C31*%
X167797752Y-120677000D02*
X167275248Y-120677000D01*
X167797752Y-122147000D02*
X167275248Y-122147000D01*
%TO.C,C3*%
X146793748Y-129100000D02*
X149116252Y-129100000D01*
X146793748Y-132520000D02*
X149116252Y-132520000D01*
%TO.C,R13*%
X170263064Y-84733000D02*
X169808936Y-84733000D01*
X170263064Y-86203000D02*
X169808936Y-86203000D01*
%TO.C,C28*%
X154167500Y-116004748D02*
X154167500Y-116527252D01*
X155637500Y-116004748D02*
X155637500Y-116527252D01*
%TO.C,R11*%
X183067064Y-79342000D02*
X182612936Y-79342000D01*
X183067064Y-80812000D02*
X182612936Y-80812000D01*
%TO.C,C8*%
X144975000Y-121811252D02*
X144975000Y-119488748D01*
X148395000Y-121811252D02*
X148395000Y-119488748D01*
%TO.C,R12*%
X161887000Y-84575564D02*
X161887000Y-84121436D01*
X163357000Y-84575564D02*
X163357000Y-84121436D01*
%TO.C,R14*%
X192305000Y-93294564D02*
X192305000Y-92840436D01*
X193775000Y-93294564D02*
X193775000Y-92840436D01*
%TO.C,C4*%
X131818748Y-126265000D02*
X132341252Y-126265000D01*
X131818748Y-127735000D02*
X132341252Y-127735000D01*
%TO.C,C11*%
X137060000Y-131706252D02*
X137060000Y-131183748D01*
X138530000Y-131706252D02*
X138530000Y-131183748D01*
%TO.C,C25*%
X153231252Y-110133000D02*
X152708748Y-110133000D01*
X153231252Y-111603000D02*
X152708748Y-111603000D01*
%TO.C,C29*%
X150103500Y-121673252D02*
X150103500Y-121150748D01*
X151573500Y-121673252D02*
X151573500Y-121150748D01*
%TO.C,C26*%
X167275248Y-124233000D02*
X167797752Y-124233000D01*
X167275248Y-125703000D02*
X167797752Y-125703000D01*
%TO.C,C34*%
X154147752Y-121185000D02*
X153625248Y-121185000D01*
X154147752Y-122655000D02*
X153625248Y-122655000D01*
%TO.C,C27*%
X170423500Y-116070748D02*
X170423500Y-116593252D01*
X171893500Y-116070748D02*
X171893500Y-116593252D01*
%TO.C,U1*%
X140335000Y-118765000D02*
X138385000Y-118765000D01*
X140335000Y-118765000D02*
X142285000Y-118765000D01*
X140335000Y-128885000D02*
X138385000Y-128885000D01*
X140335000Y-128885000D02*
X142285000Y-128885000D01*
X137610000Y-118820000D02*
X137370000Y-118490000D01*
X137850000Y-118490000D01*
X137610000Y-118820000D01*
G36*
X137610000Y-118820000D02*
G01*
X137370000Y-118490000D01*
X137850000Y-118490000D01*
X137610000Y-118820000D01*
G37*
%TO.C,C30*%
X153625248Y-124741000D02*
X154147752Y-124741000D01*
X153625248Y-126211000D02*
X154147752Y-126211000D01*
%TO.C,R1*%
X170080000Y-132307064D02*
X170080000Y-131852936D01*
X171550000Y-132307064D02*
X171550000Y-131852936D01*
%TO.C,C1*%
X170756252Y-126900000D02*
X170233748Y-126900000D01*
X170756252Y-128370000D02*
X170233748Y-128370000D01*
%TO.C,C7*%
X183711252Y-101497000D02*
X183188748Y-101497000D01*
X183711252Y-102967000D02*
X183188748Y-102967000D01*
%TO.C,C22*%
X165443000Y-84713252D02*
X165443000Y-84190748D01*
X166913000Y-84713252D02*
X166913000Y-84190748D01*
%TO.C,C24*%
X170553748Y-82450000D02*
X171076252Y-82450000D01*
X170553748Y-83920000D02*
X171076252Y-83920000D01*
%TO.C,C32*%
X167883500Y-116070748D02*
X167883500Y-116593252D01*
X169353500Y-116070748D02*
X169353500Y-116593252D01*
%TO.C,C23*%
X170080000Y-78478748D02*
X170080000Y-79001252D01*
X171550000Y-78478748D02*
X171550000Y-79001252D01*
D13*
%TO.C,J6*%
X202541000Y-70485000D02*
G75*
G02*
X201779000Y-70485000I-381000J0D01*
G01*
X201779000Y-70485000D02*
G75*
G02*
X202541000Y-70485000I381000J0D01*
G01*
%TD*%
M02*
