M48
; DRILL file {KiCad 8.0.3} date 2024-10-26T03:20:38-0700
; FORMAT={-:-/ absolute / inch / decimal}
; #@! TF.CreationDate,2024-10-26T03:20:38-07:00
; #@! TF.GenerationSoftware,Kicad,Pcbnew,8.0.3
; #@! TF.FileFunction,Plated,1,2,PTH
FMAT,2
INCH
; #@! TA.AperFunction,Plated,PTH,ViaDrill
T1C0.0118
; #@! TA.AperFunction,Plated,PTH,ComponentDrill
T2C0.0256
; #@! TA.AperFunction,Plated,PTH,ComponentDrill
T3C0.0280
; #@! TA.AperFunction,Plated,PTH,ComponentDrill
T4C0.0374
; #@! TA.AperFunction,Plated,PTH,ComponentDrill
T5C0.0394
; #@! TA.AperFunction,Plated,PTH,ComponentDrill
T6C0.0430
%
G90
G05
T1
X4.925Y-3.975
X4.925Y-4.025
X4.925Y-4.075
X4.925Y-4.125
X4.925Y-4.175
X4.925Y-4.225
X4.925Y-4.275
X4.925Y-4.325
X4.925Y-4.375
X4.925Y-4.425
X4.925Y-4.475
X4.925Y-4.525
X4.925Y-4.575
X4.925Y-4.625
X4.925Y-4.675
X4.925Y-4.725
X4.925Y-4.775
X4.925Y-4.825
X4.925Y-4.875
X4.925Y-4.925
X4.925Y-4.975
X4.925Y-5.025
X4.925Y-5.075
X4.925Y-5.125
X4.925Y-5.175
X4.925Y-5.225
X4.925Y-5.275
X4.925Y-5.325
X4.925Y-5.375
X4.975Y-3.975
X4.975Y-5.375
X5.025Y-3.975
X5.025Y-5.375
X5.075Y-3.975
X5.075Y-5.375
X5.1Y-4.975
X5.125Y-3.975
X5.125Y-5.375
X5.175Y-3.975
X5.175Y-5.25
X5.175Y-5.375
X5.225Y-3.975
X5.225Y-5.375
X5.275Y-3.975
X5.275Y-5.375
X5.3Y-4.725
X5.3Y-4.95
X5.325Y-3.975
X5.325Y-5.375
X5.375Y-3.975
X5.375Y-5.375
X5.425Y-3.975
X5.425Y-5.375
X5.475Y-3.975
X5.475Y-5.375
X5.525Y-3.975
X5.525Y-4.025
X5.525Y-4.925
X5.525Y-5.225
X5.525Y-5.375
X5.55Y-4.775
X5.575Y-2.975
X5.575Y-3.025
X5.575Y-3.075
X5.575Y-3.125
X5.575Y-3.175
X5.575Y-3.225
X5.575Y-3.275
X5.575Y-3.325
X5.575Y-3.375
X5.575Y-3.425
X5.575Y-3.475
X5.575Y-3.525
X5.575Y-3.575
X5.575Y-3.625
X5.575Y-3.675
X5.575Y-3.725
X5.575Y-3.775
X5.575Y-3.825
X5.575Y-3.875
X5.575Y-3.925
X5.575Y-3.975
X5.575Y-5.375
X5.625Y-2.975
X5.625Y-5.375
X5.675Y-2.975
X5.675Y-5.375
X5.725Y-2.975
X5.725Y-5.375
X5.775Y-2.975
X5.775Y-5.375
X5.825Y-2.975
X5.825Y-5.375
X5.85Y-4.4
X5.875Y-2.975
X5.875Y-3.45
X5.875Y-3.825
X5.875Y-5.375
X5.8785Y-4.94
X5.925Y-2.975
X5.925Y-5.375
X5.9424Y-3.3249
X5.9624Y-4.2449
X5.975Y-2.975
X5.975Y-5.375
X6.0Y-5.175
X6.025Y-2.975
X6.025Y-5.375
X6.075Y-2.975
X6.075Y-5.375
X6.1224Y-4.4049
X6.125Y-2.975
X6.125Y-5.375
X6.15Y-5.15
X6.175Y-2.975
X6.175Y-5.375
X6.1824Y-3.7049
X6.2Y-3.65
X6.2Y-4.1
X6.2185Y-4.6
X6.2185Y-5.0
X6.225Y-2.975
X6.225Y-4.55
X6.225Y-5.375
X6.2585Y-4.82
X6.2585Y-5.06
X6.275Y-2.975
X6.275Y-5.375
X6.2824Y-3.4649
X6.2824Y-3.8049
X6.3224Y-3.4649
X6.325Y-2.975
X6.325Y-5.375
X6.3375Y-3.6375
X6.3585Y-4.58
X6.3585Y-5.0
X6.3624Y-3.4649
X6.375Y-2.975
X6.375Y-4.75
X6.375Y-5.375
X6.3785Y-4.8436
X6.4Y-3.675
X6.4185Y-5.0
X6.42Y-4.5662
X6.4224Y-4.0049
X6.425Y-2.975
X6.425Y-5.375
X6.4677Y-4.6265
X6.475Y-2.975
X6.475Y-5.375
X6.5178Y-3.6178
X6.525Y-2.975
X6.525Y-3.7
X6.525Y-5.375
X6.575Y-2.975
X6.575Y-5.375
X6.5913Y-4.4337
X6.625Y-2.975
X6.625Y-4.475
X6.625Y-5.2
X6.625Y-5.375
X6.65Y-3.1
X6.65Y-5.1
X6.6624Y-3.9049
X6.6624Y-4.4249
X6.675Y-2.975
X6.675Y-5.375
X6.7024Y-4.4049
X6.725Y-2.975
X6.725Y-3.65
X6.725Y-4.15
X6.725Y-5.375
X6.775Y-2.975
X6.775Y-5.375
X6.8Y-4.65
X6.825Y-2.975
X6.825Y-5.375
X6.875Y-2.975
X6.875Y-4.7
X6.875Y-5.375
X6.892Y-4.9937
X6.925Y-2.975
X6.925Y-5.375
X6.975Y-2.975
X6.975Y-5.375
X7.025Y-2.975
X7.025Y-5.375
X7.0421Y-4.8671
X7.05Y-4.625
X7.05Y-5.0
X7.067Y-4.8437
X7.075Y-2.975
X7.075Y-4.725
X7.075Y-5.375
X7.0984Y-3.1776
X7.125Y-2.975
X7.125Y-5.375
X7.15Y-5.1767
X7.1624Y-4.1049
X7.175Y-2.975
X7.175Y-5.375
X7.225Y-2.975
X7.225Y-5.375
X7.275Y-2.975
X7.275Y-4.125
X7.275Y-5.375
X7.292Y-4.6937
X7.292Y-5.2187
X7.325Y-2.975
X7.325Y-4.375
X7.325Y-5.375
X7.35Y-3.5
X7.3584Y-3.19
X7.375Y-2.975
X7.375Y-5.375
X7.425Y-2.575
X7.425Y-2.625
X7.425Y-2.675
X7.425Y-2.725
X7.425Y-2.775
X7.425Y-2.825
X7.425Y-2.875
X7.425Y-2.925
X7.425Y-2.975
X7.425Y-5.375
X7.475Y-2.575
X7.475Y-4.15
X7.475Y-5.375
X7.5Y-3.8
X7.525Y-2.575
X7.525Y-3.575
X7.525Y-5.375
X7.55Y-4.2
X7.575Y-2.575
X7.575Y-5.375
X7.6Y-3.075
X7.625Y-2.575
X7.625Y-5.375
X7.65Y-3.825
X7.675Y-2.575
X7.675Y-5.375
X7.7Y-2.975
X7.7Y-4.525
X7.7Y-4.975
X7.725Y-2.575
X7.725Y-5.375
X7.775Y-2.575
X7.775Y-5.375
X7.825Y-2.575
X7.825Y-5.375
X7.875Y-2.575
X7.875Y-5.375
X7.925Y-2.575
X7.925Y-5.375
X7.975Y-2.575
X7.975Y-2.625
X7.975Y-2.675
X7.975Y-2.725
X7.975Y-2.825
X7.975Y-2.875
X7.975Y-2.925
X7.975Y-2.975
X7.975Y-3.025
X7.975Y-3.075
X7.975Y-3.125
X7.975Y-3.175
X7.975Y-3.225
X7.975Y-3.275
X7.975Y-3.325
X7.975Y-3.375
X7.975Y-3.425
X7.975Y-3.475
X7.975Y-3.525
X7.975Y-3.575
X7.975Y-3.625
X7.975Y-4.125
X7.975Y-4.175
X7.975Y-4.2
X7.975Y-5.375
X8.0Y-4.2
X8.025Y-5.375
X8.05Y-4.2
X8.075Y-5.375
X8.1Y-4.2
X8.125Y-4.2
X8.125Y-4.225
X8.125Y-4.275
X8.125Y-4.325
X8.125Y-4.375
X8.125Y-4.425
X8.125Y-4.475
X8.125Y-4.525
X8.125Y-4.575
X8.125Y-4.625
X8.125Y-4.675
X8.125Y-4.725
X8.125Y-4.775
X8.125Y-4.825
X8.125Y-4.875
X8.125Y-4.925
X8.125Y-4.975
X8.125Y-5.025
X8.125Y-5.075
X8.125Y-5.125
X8.125Y-5.175
X8.125Y-5.225
X8.125Y-5.275
X8.125Y-5.325
X8.125Y-5.375
T3
X5.625Y-4.35
X5.725Y-4.25
X5.725Y-4.45
X7.5Y-4.375
X7.6Y-4.275
X7.6Y-4.475
T4
X5.75Y-3.4297
X5.75Y-3.5281
X5.75Y-3.6266
X5.75Y-3.725
X5.75Y-3.8234
X5.75Y-3.9219
X7.0031Y-3.35
X7.1016Y-3.35
X7.2Y-3.35
X7.2984Y-3.35
X7.3969Y-3.35
X7.4953Y-3.35
T5
X5.2882Y-4.4258
X5.2882Y-4.5242
X7.975Y-4.3516
X7.975Y-4.45
T6
X7.525Y-2.775
X7.625Y-2.775
X7.725Y-2.775
X7.825Y-2.775
T2
G00X7.9126Y-3.6793
M15
G01X7.8575Y-3.6793
M16
G05
G00X7.9126Y-4.0707
M15
G01X7.8575Y-4.0707
M16
G05
M30
