%TF.GenerationSoftware,KiCad,Pcbnew,8.0.3*%
%TF.CreationDate,2024-10-26T03:20:47-07:00*%
%TF.ProjectId,test,74657374-2e6b-4696-9361-645f70636258,rev?*%
%TF.SameCoordinates,Original*%
%TF.FileFunction,Legend,Bot*%
%TF.FilePolarity,Positive*%
%FSLAX46Y46*%
G04 Gerber Fmt 4.6, Leading zero omitted, Abs format (unit mm)*
G04 Created by KiCad (PCBNEW 8.0.3) date 2024-10-26 03:20:47*
%MOMM*%
%LPD*%
G01*
G04 APERTURE LIST*
%ADD10C,0.150000*%
%ADD11C,0.127000*%
%ADD12C,0.200000*%
%ADD13C,0.120000*%
%ADD14C,0.152400*%
%ADD15C,0.508000*%
G04 APERTURE END LIST*
D10*
X140094819Y-108269761D02*
X139618628Y-107936428D01*
X140094819Y-107698333D02*
X139094819Y-107698333D01*
X139094819Y-107698333D02*
X139094819Y-108079285D01*
X139094819Y-108079285D02*
X139142438Y-108174523D01*
X139142438Y-108174523D02*
X139190057Y-108222142D01*
X139190057Y-108222142D02*
X139285295Y-108269761D01*
X139285295Y-108269761D02*
X139428152Y-108269761D01*
X139428152Y-108269761D02*
X139523390Y-108222142D01*
X139523390Y-108222142D02*
X139571009Y-108174523D01*
X139571009Y-108174523D02*
X139618628Y-108079285D01*
X139618628Y-108079285D02*
X139618628Y-107698333D01*
X139094819Y-108555476D02*
X140094819Y-108888809D01*
X140094819Y-108888809D02*
X139094819Y-109222142D01*
X139190057Y-109507857D02*
X139142438Y-109555476D01*
X139142438Y-109555476D02*
X139094819Y-109650714D01*
X139094819Y-109650714D02*
X139094819Y-109888809D01*
X139094819Y-109888809D02*
X139142438Y-109984047D01*
X139142438Y-109984047D02*
X139190057Y-110031666D01*
X139190057Y-110031666D02*
X139285295Y-110079285D01*
X139285295Y-110079285D02*
X139380533Y-110079285D01*
X139380533Y-110079285D02*
X139523390Y-110031666D01*
X139523390Y-110031666D02*
X140094819Y-109460238D01*
X140094819Y-109460238D02*
X140094819Y-110079285D01*
X187719819Y-108904761D02*
X187243628Y-108571428D01*
X187719819Y-108333333D02*
X186719819Y-108333333D01*
X186719819Y-108333333D02*
X186719819Y-108714285D01*
X186719819Y-108714285D02*
X186767438Y-108809523D01*
X186767438Y-108809523D02*
X186815057Y-108857142D01*
X186815057Y-108857142D02*
X186910295Y-108904761D01*
X186910295Y-108904761D02*
X187053152Y-108904761D01*
X187053152Y-108904761D02*
X187148390Y-108857142D01*
X187148390Y-108857142D02*
X187196009Y-108809523D01*
X187196009Y-108809523D02*
X187243628Y-108714285D01*
X187243628Y-108714285D02*
X187243628Y-108333333D01*
X186719819Y-109190476D02*
X187719819Y-109523809D01*
X187719819Y-109523809D02*
X186719819Y-109857142D01*
X187719819Y-110714285D02*
X187719819Y-110142857D01*
X187719819Y-110428571D02*
X186719819Y-110428571D01*
X186719819Y-110428571D02*
X186862676Y-110333333D01*
X186862676Y-110333333D02*
X186957914Y-110238095D01*
X186957914Y-110238095D02*
X187005533Y-110142857D01*
X186697857Y-121277079D02*
X186745476Y-121324699D01*
X186745476Y-121324699D02*
X186888333Y-121372318D01*
X186888333Y-121372318D02*
X186983571Y-121372318D01*
X186983571Y-121372318D02*
X187126428Y-121324699D01*
X187126428Y-121324699D02*
X187221666Y-121229460D01*
X187221666Y-121229460D02*
X187269285Y-121134222D01*
X187269285Y-121134222D02*
X187316904Y-120943746D01*
X187316904Y-120943746D02*
X187316904Y-120800889D01*
X187316904Y-120800889D02*
X187269285Y-120610413D01*
X187269285Y-120610413D02*
X187221666Y-120515175D01*
X187221666Y-120515175D02*
X187126428Y-120419937D01*
X187126428Y-120419937D02*
X186983571Y-120372318D01*
X186983571Y-120372318D02*
X186888333Y-120372318D01*
X186888333Y-120372318D02*
X186745476Y-120419937D01*
X186745476Y-120419937D02*
X186697857Y-120467556D01*
X185745476Y-121372318D02*
X186316904Y-121372318D01*
X186031190Y-121372318D02*
X186031190Y-120372318D01*
X186031190Y-120372318D02*
X186126428Y-120515175D01*
X186126428Y-120515175D02*
X186221666Y-120610413D01*
X186221666Y-120610413D02*
X186316904Y-120658032D01*
X184888333Y-120372318D02*
X185078809Y-120372318D01*
X185078809Y-120372318D02*
X185174047Y-120419937D01*
X185174047Y-120419937D02*
X185221666Y-120467556D01*
X185221666Y-120467556D02*
X185316904Y-120610413D01*
X185316904Y-120610413D02*
X185364523Y-120800889D01*
X185364523Y-120800889D02*
X185364523Y-121181841D01*
X185364523Y-121181841D02*
X185316904Y-121277079D01*
X185316904Y-121277079D02*
X185269285Y-121324699D01*
X185269285Y-121324699D02*
X185174047Y-121372318D01*
X185174047Y-121372318D02*
X184983571Y-121372318D01*
X184983571Y-121372318D02*
X184888333Y-121324699D01*
X184888333Y-121324699D02*
X184840714Y-121277079D01*
X184840714Y-121277079D02*
X184793095Y-121181841D01*
X184793095Y-121181841D02*
X184793095Y-120943746D01*
X184793095Y-120943746D02*
X184840714Y-120848508D01*
X184840714Y-120848508D02*
X184888333Y-120800889D01*
X184888333Y-120800889D02*
X184983571Y-120753270D01*
X184983571Y-120753270D02*
X185174047Y-120753270D01*
X185174047Y-120753270D02*
X185269285Y-120800889D01*
X185269285Y-120800889D02*
X185316904Y-120848508D01*
X185316904Y-120848508D02*
X185364523Y-120943746D01*
X160625357Y-134029580D02*
X160672976Y-134077200D01*
X160672976Y-134077200D02*
X160815833Y-134124819D01*
X160815833Y-134124819D02*
X160911071Y-134124819D01*
X160911071Y-134124819D02*
X161053928Y-134077200D01*
X161053928Y-134077200D02*
X161149166Y-133981961D01*
X161149166Y-133981961D02*
X161196785Y-133886723D01*
X161196785Y-133886723D02*
X161244404Y-133696247D01*
X161244404Y-133696247D02*
X161244404Y-133553390D01*
X161244404Y-133553390D02*
X161196785Y-133362914D01*
X161196785Y-133362914D02*
X161149166Y-133267676D01*
X161149166Y-133267676D02*
X161053928Y-133172438D01*
X161053928Y-133172438D02*
X160911071Y-133124819D01*
X160911071Y-133124819D02*
X160815833Y-133124819D01*
X160815833Y-133124819D02*
X160672976Y-133172438D01*
X160672976Y-133172438D02*
X160625357Y-133220057D01*
X160292023Y-133124819D02*
X159672976Y-133124819D01*
X159672976Y-133124819D02*
X160006309Y-133505771D01*
X160006309Y-133505771D02*
X159863452Y-133505771D01*
X159863452Y-133505771D02*
X159768214Y-133553390D01*
X159768214Y-133553390D02*
X159720595Y-133601009D01*
X159720595Y-133601009D02*
X159672976Y-133696247D01*
X159672976Y-133696247D02*
X159672976Y-133934342D01*
X159672976Y-133934342D02*
X159720595Y-134029580D01*
X159720595Y-134029580D02*
X159768214Y-134077200D01*
X159768214Y-134077200D02*
X159863452Y-134124819D01*
X159863452Y-134124819D02*
X160149166Y-134124819D01*
X160149166Y-134124819D02*
X160244404Y-134077200D01*
X160244404Y-134077200D02*
X160292023Y-134029580D01*
X158815833Y-133124819D02*
X159006309Y-133124819D01*
X159006309Y-133124819D02*
X159101547Y-133172438D01*
X159101547Y-133172438D02*
X159149166Y-133220057D01*
X159149166Y-133220057D02*
X159244404Y-133362914D01*
X159244404Y-133362914D02*
X159292023Y-133553390D01*
X159292023Y-133553390D02*
X159292023Y-133934342D01*
X159292023Y-133934342D02*
X159244404Y-134029580D01*
X159244404Y-134029580D02*
X159196785Y-134077200D01*
X159196785Y-134077200D02*
X159101547Y-134124819D01*
X159101547Y-134124819D02*
X158911071Y-134124819D01*
X158911071Y-134124819D02*
X158815833Y-134077200D01*
X158815833Y-134077200D02*
X158768214Y-134029580D01*
X158768214Y-134029580D02*
X158720595Y-133934342D01*
X158720595Y-133934342D02*
X158720595Y-133696247D01*
X158720595Y-133696247D02*
X158768214Y-133601009D01*
X158768214Y-133601009D02*
X158815833Y-133553390D01*
X158815833Y-133553390D02*
X158911071Y-133505771D01*
X158911071Y-133505771D02*
X159101547Y-133505771D01*
X159101547Y-133505771D02*
X159196785Y-133553390D01*
X159196785Y-133553390D02*
X159244404Y-133601009D01*
X159244404Y-133601009D02*
X159292023Y-133696247D01*
X160525367Y-111476800D02*
X160668224Y-111429180D01*
X160668224Y-111429180D02*
X160906319Y-111429180D01*
X160906319Y-111429180D02*
X161001557Y-111476800D01*
X161001557Y-111476800D02*
X161049176Y-111524419D01*
X161049176Y-111524419D02*
X161096795Y-111619657D01*
X161096795Y-111619657D02*
X161096795Y-111714895D01*
X161096795Y-111714895D02*
X161049176Y-111810133D01*
X161049176Y-111810133D02*
X161001557Y-111857752D01*
X161001557Y-111857752D02*
X160906319Y-111905371D01*
X160906319Y-111905371D02*
X160715843Y-111952990D01*
X160715843Y-111952990D02*
X160620605Y-112000609D01*
X160620605Y-112000609D02*
X160572986Y-112048228D01*
X160572986Y-112048228D02*
X160525367Y-112143466D01*
X160525367Y-112143466D02*
X160525367Y-112238704D01*
X160525367Y-112238704D02*
X160572986Y-112333942D01*
X160572986Y-112333942D02*
X160620605Y-112381561D01*
X160620605Y-112381561D02*
X160715843Y-112429180D01*
X160715843Y-112429180D02*
X160953938Y-112429180D01*
X160953938Y-112429180D02*
X161096795Y-112381561D01*
X161430129Y-112429180D02*
X161668224Y-111429180D01*
X161668224Y-111429180D02*
X161858700Y-112143466D01*
X161858700Y-112143466D02*
X162049176Y-111429180D01*
X162049176Y-111429180D02*
X162287272Y-112429180D01*
X163096795Y-112095847D02*
X163096795Y-111429180D01*
X162858700Y-112476800D02*
X162620605Y-111762514D01*
X162620605Y-111762514D02*
X163239652Y-111762514D01*
X163720976Y-132026819D02*
X164054309Y-131550628D01*
X164292404Y-132026819D02*
X164292404Y-131026819D01*
X164292404Y-131026819D02*
X163911452Y-131026819D01*
X163911452Y-131026819D02*
X163816214Y-131074438D01*
X163816214Y-131074438D02*
X163768595Y-131122057D01*
X163768595Y-131122057D02*
X163720976Y-131217295D01*
X163720976Y-131217295D02*
X163720976Y-131360152D01*
X163720976Y-131360152D02*
X163768595Y-131455390D01*
X163768595Y-131455390D02*
X163816214Y-131503009D01*
X163816214Y-131503009D02*
X163911452Y-131550628D01*
X163911452Y-131550628D02*
X164292404Y-131550628D01*
X163292404Y-132026819D02*
X163292404Y-131026819D01*
X163292404Y-131026819D02*
X162720976Y-132026819D01*
X162720976Y-132026819D02*
X162720976Y-131026819D01*
X161720976Y-132026819D02*
X162292404Y-132026819D01*
X162006690Y-132026819D02*
X162006690Y-131026819D01*
X162006690Y-131026819D02*
X162101928Y-131169676D01*
X162101928Y-131169676D02*
X162197166Y-131264914D01*
X162197166Y-131264914D02*
X162292404Y-131312533D01*
X166721357Y-134029580D02*
X166768976Y-134077200D01*
X166768976Y-134077200D02*
X166911833Y-134124819D01*
X166911833Y-134124819D02*
X167007071Y-134124819D01*
X167007071Y-134124819D02*
X167149928Y-134077200D01*
X167149928Y-134077200D02*
X167245166Y-133981961D01*
X167245166Y-133981961D02*
X167292785Y-133886723D01*
X167292785Y-133886723D02*
X167340404Y-133696247D01*
X167340404Y-133696247D02*
X167340404Y-133553390D01*
X167340404Y-133553390D02*
X167292785Y-133362914D01*
X167292785Y-133362914D02*
X167245166Y-133267676D01*
X167245166Y-133267676D02*
X167149928Y-133172438D01*
X167149928Y-133172438D02*
X167007071Y-133124819D01*
X167007071Y-133124819D02*
X166911833Y-133124819D01*
X166911833Y-133124819D02*
X166768976Y-133172438D01*
X166768976Y-133172438D02*
X166721357Y-133220057D01*
X166388023Y-133124819D02*
X165768976Y-133124819D01*
X165768976Y-133124819D02*
X166102309Y-133505771D01*
X166102309Y-133505771D02*
X165959452Y-133505771D01*
X165959452Y-133505771D02*
X165864214Y-133553390D01*
X165864214Y-133553390D02*
X165816595Y-133601009D01*
X165816595Y-133601009D02*
X165768976Y-133696247D01*
X165768976Y-133696247D02*
X165768976Y-133934342D01*
X165768976Y-133934342D02*
X165816595Y-134029580D01*
X165816595Y-134029580D02*
X165864214Y-134077200D01*
X165864214Y-134077200D02*
X165959452Y-134124819D01*
X165959452Y-134124819D02*
X166245166Y-134124819D01*
X166245166Y-134124819D02*
X166340404Y-134077200D01*
X166340404Y-134077200D02*
X166388023Y-134029580D01*
X165435642Y-133124819D02*
X164768976Y-133124819D01*
X164768976Y-133124819D02*
X165197547Y-134124819D01*
X185860357Y-129329580D02*
X185907976Y-129377200D01*
X185907976Y-129377200D02*
X186050833Y-129424819D01*
X186050833Y-129424819D02*
X186146071Y-129424819D01*
X186146071Y-129424819D02*
X186288928Y-129377200D01*
X186288928Y-129377200D02*
X186384166Y-129281961D01*
X186384166Y-129281961D02*
X186431785Y-129186723D01*
X186431785Y-129186723D02*
X186479404Y-128996247D01*
X186479404Y-128996247D02*
X186479404Y-128853390D01*
X186479404Y-128853390D02*
X186431785Y-128662914D01*
X186431785Y-128662914D02*
X186384166Y-128567676D01*
X186384166Y-128567676D02*
X186288928Y-128472438D01*
X186288928Y-128472438D02*
X186146071Y-128424819D01*
X186146071Y-128424819D02*
X186050833Y-128424819D01*
X186050833Y-128424819D02*
X185907976Y-128472438D01*
X185907976Y-128472438D02*
X185860357Y-128520057D01*
X185479404Y-128520057D02*
X185431785Y-128472438D01*
X185431785Y-128472438D02*
X185336547Y-128424819D01*
X185336547Y-128424819D02*
X185098452Y-128424819D01*
X185098452Y-128424819D02*
X185003214Y-128472438D01*
X185003214Y-128472438D02*
X184955595Y-128520057D01*
X184955595Y-128520057D02*
X184907976Y-128615295D01*
X184907976Y-128615295D02*
X184907976Y-128710533D01*
X184907976Y-128710533D02*
X184955595Y-128853390D01*
X184955595Y-128853390D02*
X185527023Y-129424819D01*
X185527023Y-129424819D02*
X184907976Y-129424819D01*
X184288928Y-128424819D02*
X184193690Y-128424819D01*
X184193690Y-128424819D02*
X184098452Y-128472438D01*
X184098452Y-128472438D02*
X184050833Y-128520057D01*
X184050833Y-128520057D02*
X184003214Y-128615295D01*
X184003214Y-128615295D02*
X183955595Y-128805771D01*
X183955595Y-128805771D02*
X183955595Y-129043866D01*
X183955595Y-129043866D02*
X184003214Y-129234342D01*
X184003214Y-129234342D02*
X184050833Y-129329580D01*
X184050833Y-129329580D02*
X184098452Y-129377200D01*
X184098452Y-129377200D02*
X184193690Y-129424819D01*
X184193690Y-129424819D02*
X184288928Y-129424819D01*
X184288928Y-129424819D02*
X184384166Y-129377200D01*
X184384166Y-129377200D02*
X184431785Y-129329580D01*
X184431785Y-129329580D02*
X184479404Y-129234342D01*
X184479404Y-129234342D02*
X184527023Y-129043866D01*
X184527023Y-129043866D02*
X184527023Y-128805771D01*
X184527023Y-128805771D02*
X184479404Y-128615295D01*
X184479404Y-128615295D02*
X184431785Y-128520057D01*
X184431785Y-128520057D02*
X184384166Y-128472438D01*
X184384166Y-128472438D02*
X184288928Y-128424819D01*
X200749819Y-106346666D02*
X201464104Y-106346666D01*
X201464104Y-106346666D02*
X201606961Y-106299047D01*
X201606961Y-106299047D02*
X201702200Y-106203809D01*
X201702200Y-106203809D02*
X201749819Y-106060952D01*
X201749819Y-106060952D02*
X201749819Y-105965714D01*
X201749819Y-107346666D02*
X201749819Y-106775238D01*
X201749819Y-107060952D02*
X200749819Y-107060952D01*
X200749819Y-107060952D02*
X200892676Y-106965714D01*
X200892676Y-106965714D02*
X200987914Y-106870476D01*
X200987914Y-106870476D02*
X201035533Y-106775238D01*
X181744580Y-130209641D02*
X181792200Y-130162022D01*
X181792200Y-130162022D02*
X181839819Y-130019165D01*
X181839819Y-130019165D02*
X181839819Y-129923927D01*
X181839819Y-129923927D02*
X181792200Y-129781070D01*
X181792200Y-129781070D02*
X181696961Y-129685832D01*
X181696961Y-129685832D02*
X181601723Y-129638213D01*
X181601723Y-129638213D02*
X181411247Y-129590594D01*
X181411247Y-129590594D02*
X181268390Y-129590594D01*
X181268390Y-129590594D02*
X181077914Y-129638213D01*
X181077914Y-129638213D02*
X180982676Y-129685832D01*
X180982676Y-129685832D02*
X180887438Y-129781070D01*
X180887438Y-129781070D02*
X180839819Y-129923927D01*
X180839819Y-129923927D02*
X180839819Y-130019165D01*
X180839819Y-130019165D02*
X180887438Y-130162022D01*
X180887438Y-130162022D02*
X180935057Y-130209641D01*
X181839819Y-131162022D02*
X181839819Y-130590594D01*
X181839819Y-130876308D02*
X180839819Y-130876308D01*
X180839819Y-130876308D02*
X180982676Y-130781070D01*
X180982676Y-130781070D02*
X181077914Y-130685832D01*
X181077914Y-130685832D02*
X181125533Y-130590594D01*
X180839819Y-132066784D02*
X180839819Y-131590594D01*
X180839819Y-131590594D02*
X181316009Y-131542975D01*
X181316009Y-131542975D02*
X181268390Y-131590594D01*
X181268390Y-131590594D02*
X181220771Y-131685832D01*
X181220771Y-131685832D02*
X181220771Y-131923927D01*
X181220771Y-131923927D02*
X181268390Y-132019165D01*
X181268390Y-132019165D02*
X181316009Y-132066784D01*
X181316009Y-132066784D02*
X181411247Y-132114403D01*
X181411247Y-132114403D02*
X181649342Y-132114403D01*
X181649342Y-132114403D02*
X181744580Y-132066784D01*
X181744580Y-132066784D02*
X181792200Y-132019165D01*
X181792200Y-132019165D02*
X181839819Y-131923927D01*
X181839819Y-131923927D02*
X181839819Y-131685832D01*
X181839819Y-131685832D02*
X181792200Y-131590594D01*
X181792200Y-131590594D02*
X181744580Y-131542975D01*
X130974819Y-113331666D02*
X131689104Y-113331666D01*
X131689104Y-113331666D02*
X131831961Y-113284047D01*
X131831961Y-113284047D02*
X131927200Y-113188809D01*
X131927200Y-113188809D02*
X131974819Y-113045952D01*
X131974819Y-113045952D02*
X131974819Y-112950714D01*
X131070057Y-113760238D02*
X131022438Y-113807857D01*
X131022438Y-113807857D02*
X130974819Y-113903095D01*
X130974819Y-113903095D02*
X130974819Y-114141190D01*
X130974819Y-114141190D02*
X131022438Y-114236428D01*
X131022438Y-114236428D02*
X131070057Y-114284047D01*
X131070057Y-114284047D02*
X131165295Y-114331666D01*
X131165295Y-114331666D02*
X131260533Y-114331666D01*
X131260533Y-114331666D02*
X131403390Y-114284047D01*
X131403390Y-114284047D02*
X131974819Y-113712619D01*
X131974819Y-113712619D02*
X131974819Y-114331666D01*
X180466904Y-116787318D02*
X180466904Y-117596841D01*
X180466904Y-117596841D02*
X180419285Y-117692079D01*
X180419285Y-117692079D02*
X180371666Y-117739699D01*
X180371666Y-117739699D02*
X180276428Y-117787318D01*
X180276428Y-117787318D02*
X180085952Y-117787318D01*
X180085952Y-117787318D02*
X179990714Y-117739699D01*
X179990714Y-117739699D02*
X179943095Y-117692079D01*
X179943095Y-117692079D02*
X179895476Y-117596841D01*
X179895476Y-117596841D02*
X179895476Y-116787318D01*
X179466904Y-116882556D02*
X179419285Y-116834937D01*
X179419285Y-116834937D02*
X179324047Y-116787318D01*
X179324047Y-116787318D02*
X179085952Y-116787318D01*
X179085952Y-116787318D02*
X178990714Y-116834937D01*
X178990714Y-116834937D02*
X178943095Y-116882556D01*
X178943095Y-116882556D02*
X178895476Y-116977794D01*
X178895476Y-116977794D02*
X178895476Y-117073032D01*
X178895476Y-117073032D02*
X178943095Y-117215889D01*
X178943095Y-117215889D02*
X179514523Y-117787318D01*
X179514523Y-117787318D02*
X178895476Y-117787318D01*
X195278333Y-68034819D02*
X195278333Y-68749104D01*
X195278333Y-68749104D02*
X195325952Y-68891961D01*
X195325952Y-68891961D02*
X195421190Y-68987200D01*
X195421190Y-68987200D02*
X195564047Y-69034819D01*
X195564047Y-69034819D02*
X195659285Y-69034819D01*
X194373571Y-68034819D02*
X194564047Y-68034819D01*
X194564047Y-68034819D02*
X194659285Y-68082438D01*
X194659285Y-68082438D02*
X194706904Y-68130057D01*
X194706904Y-68130057D02*
X194802142Y-68272914D01*
X194802142Y-68272914D02*
X194849761Y-68463390D01*
X194849761Y-68463390D02*
X194849761Y-68844342D01*
X194849761Y-68844342D02*
X194802142Y-68939580D01*
X194802142Y-68939580D02*
X194754523Y-68987200D01*
X194754523Y-68987200D02*
X194659285Y-69034819D01*
X194659285Y-69034819D02*
X194468809Y-69034819D01*
X194468809Y-69034819D02*
X194373571Y-68987200D01*
X194373571Y-68987200D02*
X194325952Y-68939580D01*
X194325952Y-68939580D02*
X194278333Y-68844342D01*
X194278333Y-68844342D02*
X194278333Y-68606247D01*
X194278333Y-68606247D02*
X194325952Y-68511009D01*
X194325952Y-68511009D02*
X194373571Y-68463390D01*
X194373571Y-68463390D02*
X194468809Y-68415771D01*
X194468809Y-68415771D02*
X194659285Y-68415771D01*
X194659285Y-68415771D02*
X194754523Y-68463390D01*
X194754523Y-68463390D02*
X194802142Y-68511009D01*
X194802142Y-68511009D02*
X194849761Y-68606247D01*
X191777857Y-128739580D02*
X191825476Y-128787200D01*
X191825476Y-128787200D02*
X191968333Y-128834819D01*
X191968333Y-128834819D02*
X192063571Y-128834819D01*
X192063571Y-128834819D02*
X192206428Y-128787200D01*
X192206428Y-128787200D02*
X192301666Y-128691961D01*
X192301666Y-128691961D02*
X192349285Y-128596723D01*
X192349285Y-128596723D02*
X192396904Y-128406247D01*
X192396904Y-128406247D02*
X192396904Y-128263390D01*
X192396904Y-128263390D02*
X192349285Y-128072914D01*
X192349285Y-128072914D02*
X192301666Y-127977676D01*
X192301666Y-127977676D02*
X192206428Y-127882438D01*
X192206428Y-127882438D02*
X192063571Y-127834819D01*
X192063571Y-127834819D02*
X191968333Y-127834819D01*
X191968333Y-127834819D02*
X191825476Y-127882438D01*
X191825476Y-127882438D02*
X191777857Y-127930057D01*
X190825476Y-128834819D02*
X191396904Y-128834819D01*
X191111190Y-128834819D02*
X191111190Y-127834819D01*
X191111190Y-127834819D02*
X191206428Y-127977676D01*
X191206428Y-127977676D02*
X191301666Y-128072914D01*
X191301666Y-128072914D02*
X191396904Y-128120533D01*
X189968333Y-128168152D02*
X189968333Y-128834819D01*
X190206428Y-127787200D02*
X190444523Y-128501485D01*
X190444523Y-128501485D02*
X189825476Y-128501485D01*
X191844819Y-100322142D02*
X191368628Y-99988809D01*
X191844819Y-99750714D02*
X190844819Y-99750714D01*
X190844819Y-99750714D02*
X190844819Y-100131666D01*
X190844819Y-100131666D02*
X190892438Y-100226904D01*
X190892438Y-100226904D02*
X190940057Y-100274523D01*
X190940057Y-100274523D02*
X191035295Y-100322142D01*
X191035295Y-100322142D02*
X191178152Y-100322142D01*
X191178152Y-100322142D02*
X191273390Y-100274523D01*
X191273390Y-100274523D02*
X191321009Y-100226904D01*
X191321009Y-100226904D02*
X191368628Y-100131666D01*
X191368628Y-100131666D02*
X191368628Y-99750714D01*
X191844819Y-101274523D02*
X191844819Y-100703095D01*
X191844819Y-100988809D02*
X190844819Y-100988809D01*
X190844819Y-100988809D02*
X190987676Y-100893571D01*
X190987676Y-100893571D02*
X191082914Y-100798333D01*
X191082914Y-100798333D02*
X191130533Y-100703095D01*
X190844819Y-102179285D02*
X190844819Y-101703095D01*
X190844819Y-101703095D02*
X191321009Y-101655476D01*
X191321009Y-101655476D02*
X191273390Y-101703095D01*
X191273390Y-101703095D02*
X191225771Y-101798333D01*
X191225771Y-101798333D02*
X191225771Y-102036428D01*
X191225771Y-102036428D02*
X191273390Y-102131666D01*
X191273390Y-102131666D02*
X191321009Y-102179285D01*
X191321009Y-102179285D02*
X191416247Y-102226904D01*
X191416247Y-102226904D02*
X191654342Y-102226904D01*
X191654342Y-102226904D02*
X191749580Y-102179285D01*
X191749580Y-102179285D02*
X191797200Y-102131666D01*
X191797200Y-102131666D02*
X191844819Y-102036428D01*
X191844819Y-102036428D02*
X191844819Y-101798333D01*
X191844819Y-101798333D02*
X191797200Y-101703095D01*
X191797200Y-101703095D02*
X191749580Y-101655476D01*
X156561357Y-130563580D02*
X156608976Y-130611200D01*
X156608976Y-130611200D02*
X156751833Y-130658819D01*
X156751833Y-130658819D02*
X156847071Y-130658819D01*
X156847071Y-130658819D02*
X156989928Y-130611200D01*
X156989928Y-130611200D02*
X157085166Y-130515961D01*
X157085166Y-130515961D02*
X157132785Y-130420723D01*
X157132785Y-130420723D02*
X157180404Y-130230247D01*
X157180404Y-130230247D02*
X157180404Y-130087390D01*
X157180404Y-130087390D02*
X157132785Y-129896914D01*
X157132785Y-129896914D02*
X157085166Y-129801676D01*
X157085166Y-129801676D02*
X156989928Y-129706438D01*
X156989928Y-129706438D02*
X156847071Y-129658819D01*
X156847071Y-129658819D02*
X156751833Y-129658819D01*
X156751833Y-129658819D02*
X156608976Y-129706438D01*
X156608976Y-129706438D02*
X156561357Y-129754057D01*
X156228023Y-129658819D02*
X155608976Y-129658819D01*
X155608976Y-129658819D02*
X155942309Y-130039771D01*
X155942309Y-130039771D02*
X155799452Y-130039771D01*
X155799452Y-130039771D02*
X155704214Y-130087390D01*
X155704214Y-130087390D02*
X155656595Y-130135009D01*
X155656595Y-130135009D02*
X155608976Y-130230247D01*
X155608976Y-130230247D02*
X155608976Y-130468342D01*
X155608976Y-130468342D02*
X155656595Y-130563580D01*
X155656595Y-130563580D02*
X155704214Y-130611200D01*
X155704214Y-130611200D02*
X155799452Y-130658819D01*
X155799452Y-130658819D02*
X156085166Y-130658819D01*
X156085166Y-130658819D02*
X156180404Y-130611200D01*
X156180404Y-130611200D02*
X156228023Y-130563580D01*
X154704214Y-129658819D02*
X155180404Y-129658819D01*
X155180404Y-129658819D02*
X155228023Y-130135009D01*
X155228023Y-130135009D02*
X155180404Y-130087390D01*
X155180404Y-130087390D02*
X155085166Y-130039771D01*
X155085166Y-130039771D02*
X154847071Y-130039771D01*
X154847071Y-130039771D02*
X154751833Y-130087390D01*
X154751833Y-130087390D02*
X154704214Y-130135009D01*
X154704214Y-130135009D02*
X154656595Y-130230247D01*
X154656595Y-130230247D02*
X154656595Y-130468342D01*
X154656595Y-130468342D02*
X154704214Y-130563580D01*
X154704214Y-130563580D02*
X154751833Y-130611200D01*
X154751833Y-130611200D02*
X154847071Y-130658819D01*
X154847071Y-130658819D02*
X155085166Y-130658819D01*
X155085166Y-130658819D02*
X155180404Y-130611200D01*
X155180404Y-130611200D02*
X155228023Y-130563580D01*
X148304819Y-93031666D02*
X149019104Y-93031666D01*
X149019104Y-93031666D02*
X149161961Y-92984047D01*
X149161961Y-92984047D02*
X149257200Y-92888809D01*
X149257200Y-92888809D02*
X149304819Y-92745952D01*
X149304819Y-92745952D02*
X149304819Y-92650714D01*
X148638152Y-93936428D02*
X149304819Y-93936428D01*
X148257200Y-93698333D02*
X148971485Y-93460238D01*
X148971485Y-93460238D02*
X148971485Y-94079285D01*
X183955357Y-117309580D02*
X184002976Y-117357200D01*
X184002976Y-117357200D02*
X184145833Y-117404819D01*
X184145833Y-117404819D02*
X184241071Y-117404819D01*
X184241071Y-117404819D02*
X184383928Y-117357200D01*
X184383928Y-117357200D02*
X184479166Y-117261961D01*
X184479166Y-117261961D02*
X184526785Y-117166723D01*
X184526785Y-117166723D02*
X184574404Y-116976247D01*
X184574404Y-116976247D02*
X184574404Y-116833390D01*
X184574404Y-116833390D02*
X184526785Y-116642914D01*
X184526785Y-116642914D02*
X184479166Y-116547676D01*
X184479166Y-116547676D02*
X184383928Y-116452438D01*
X184383928Y-116452438D02*
X184241071Y-116404819D01*
X184241071Y-116404819D02*
X184145833Y-116404819D01*
X184145833Y-116404819D02*
X184002976Y-116452438D01*
X184002976Y-116452438D02*
X183955357Y-116500057D01*
X183002976Y-117404819D02*
X183574404Y-117404819D01*
X183288690Y-117404819D02*
X183288690Y-116404819D01*
X183288690Y-116404819D02*
X183383928Y-116547676D01*
X183383928Y-116547676D02*
X183479166Y-116642914D01*
X183479166Y-116642914D02*
X183574404Y-116690533D01*
X182669642Y-116404819D02*
X182002976Y-116404819D01*
X182002976Y-116404819D02*
X182431547Y-117404819D01*
X192229819Y-95766666D02*
X192944104Y-95766666D01*
X192944104Y-95766666D02*
X193086961Y-95719047D01*
X193086961Y-95719047D02*
X193182200Y-95623809D01*
X193182200Y-95623809D02*
X193229819Y-95480952D01*
X193229819Y-95480952D02*
X193229819Y-95385714D01*
X192229819Y-96147619D02*
X192229819Y-96766666D01*
X192229819Y-96766666D02*
X192610771Y-96433333D01*
X192610771Y-96433333D02*
X192610771Y-96576190D01*
X192610771Y-96576190D02*
X192658390Y-96671428D01*
X192658390Y-96671428D02*
X192706009Y-96719047D01*
X192706009Y-96719047D02*
X192801247Y-96766666D01*
X192801247Y-96766666D02*
X193039342Y-96766666D01*
X193039342Y-96766666D02*
X193134580Y-96719047D01*
X193134580Y-96719047D02*
X193182200Y-96671428D01*
X193182200Y-96671428D02*
X193229819Y-96576190D01*
X193229819Y-96576190D02*
X193229819Y-96290476D01*
X193229819Y-96290476D02*
X193182200Y-96195238D01*
X193182200Y-96195238D02*
X193134580Y-96147619D01*
X184463333Y-87344819D02*
X184463333Y-88059104D01*
X184463333Y-88059104D02*
X184510952Y-88201961D01*
X184510952Y-88201961D02*
X184606190Y-88297200D01*
X184606190Y-88297200D02*
X184749047Y-88344819D01*
X184749047Y-88344819D02*
X184844285Y-88344819D01*
X183510952Y-87344819D02*
X183987142Y-87344819D01*
X183987142Y-87344819D02*
X184034761Y-87821009D01*
X184034761Y-87821009D02*
X183987142Y-87773390D01*
X183987142Y-87773390D02*
X183891904Y-87725771D01*
X183891904Y-87725771D02*
X183653809Y-87725771D01*
X183653809Y-87725771D02*
X183558571Y-87773390D01*
X183558571Y-87773390D02*
X183510952Y-87821009D01*
X183510952Y-87821009D02*
X183463333Y-87916247D01*
X183463333Y-87916247D02*
X183463333Y-88154342D01*
X183463333Y-88154342D02*
X183510952Y-88249580D01*
X183510952Y-88249580D02*
X183558571Y-88297200D01*
X183558571Y-88297200D02*
X183653809Y-88344819D01*
X183653809Y-88344819D02*
X183891904Y-88344819D01*
X183891904Y-88344819D02*
X183987142Y-88297200D01*
X183987142Y-88297200D02*
X184034761Y-88249580D01*
D11*
%TO.C,RV2*%
X140715000Y-105725000D02*
X150245000Y-105725000D01*
X140715000Y-115255000D02*
X140715000Y-105725000D01*
X150245000Y-115255000D02*
X140715000Y-115255000D01*
X150245000Y-105725000D02*
X150245000Y-115255000D01*
D12*
X145515000Y-105190000D02*
G75*
G02*
X145315000Y-105190000I-100000J0D01*
G01*
X145315000Y-105190000D02*
G75*
G02*
X145515000Y-105190000I100000J0D01*
G01*
D11*
%TO.C,RV1*%
X188340000Y-106360000D02*
X197870000Y-106360000D01*
X188340000Y-115890000D02*
X188340000Y-106360000D01*
X197870000Y-115890000D02*
X188340000Y-115890000D01*
X197870000Y-106360000D02*
X197870000Y-115890000D01*
D12*
X193140000Y-105825000D02*
G75*
G02*
X192940000Y-105825000I-100000J0D01*
G01*
X192940000Y-105825000D02*
G75*
G02*
X193140000Y-105825000I100000J0D01*
G01*
D13*
%TO.C,C16*%
X185793748Y-121862499D02*
X186316252Y-121862499D01*
X185793748Y-123332499D02*
X186316252Y-123332499D01*
%TO.C,C36*%
X159247500Y-130868748D02*
X159247500Y-131391252D01*
X160717500Y-130868748D02*
X160717500Y-131391252D01*
D14*
%TO.C,SW4*%
X158582100Y-109801200D02*
X158582100Y-111271860D01*
X158582100Y-112496140D02*
X158582100Y-113966800D01*
X158582100Y-113966800D02*
X165135300Y-113966800D01*
X165135300Y-109801200D02*
X158582100Y-109801200D01*
X165135300Y-111271860D02*
X165135300Y-109801200D01*
X165135300Y-113966800D02*
X165135300Y-112496140D01*
D13*
%TO.C,RN1*%
X162060500Y-130040000D02*
X162060500Y-129040000D01*
X164000500Y-130040000D02*
X164000500Y-129040000D01*
%TO.C,C37*%
X165343500Y-131391252D02*
X165343500Y-130868748D01*
X166813500Y-131391252D02*
X166813500Y-130868748D01*
%TO.C,C20*%
X184956248Y-129915000D02*
X185478752Y-129915000D01*
X184956248Y-131385000D02*
X185478752Y-131385000D01*
%TO.C,J1*%
X199955000Y-113440000D02*
X199955000Y-115940000D01*
X199955000Y-115940000D02*
X202455000Y-115940000D01*
X200255000Y-107920000D02*
X200255000Y-115640000D01*
X200255000Y-108920000D02*
X201755000Y-108920000D01*
X200255000Y-114640000D02*
X201755000Y-114640000D01*
X200255000Y-115640000D02*
X204275000Y-115640000D01*
X201755000Y-108920000D02*
X201755000Y-107920000D01*
X201755000Y-114640000D02*
X201755000Y-115640000D01*
X202565000Y-107920000D02*
X202565000Y-108420000D01*
X202565000Y-108420000D02*
X203775000Y-108420000D01*
X202565000Y-115140000D02*
X202565000Y-115640000D01*
X203775000Y-108420000D02*
X203775000Y-115140000D01*
X203775000Y-115140000D02*
X202565000Y-115140000D01*
X204275000Y-107920000D02*
X200255000Y-107920000D01*
X204275000Y-115640000D02*
X204275000Y-107920000D01*
%TO.C,C15*%
X178970000Y-130591247D02*
X178970000Y-131113751D01*
X180440000Y-130591247D02*
X180440000Y-131113751D01*
%TO.C,J2*%
X132610000Y-109805000D02*
X132610000Y-117525000D01*
X132610000Y-117525000D02*
X136630000Y-117525000D01*
X133110000Y-110305000D02*
X134320000Y-110305000D01*
X133110000Y-117025000D02*
X133110000Y-110305000D01*
X134320000Y-110305000D02*
X134320000Y-109805000D01*
X134320000Y-117025000D02*
X133110000Y-117025000D01*
X134320000Y-117525000D02*
X134320000Y-117025000D01*
X135130000Y-110805000D02*
X135130000Y-109805000D01*
X135130000Y-116525000D02*
X135130000Y-117525000D01*
X136630000Y-109805000D02*
X132610000Y-109805000D01*
X136630000Y-110805000D02*
X135130000Y-110805000D01*
X136630000Y-116525000D02*
X135130000Y-116525000D01*
X136630000Y-117525000D02*
X136630000Y-109805000D01*
X136930000Y-109505000D02*
X134430000Y-109505000D01*
X136930000Y-112005000D02*
X136930000Y-109505000D01*
%TO.C,U2*%
X177755000Y-118172499D02*
X179705000Y-118172499D01*
X177755000Y-128292499D02*
X179705000Y-128292499D01*
X181655000Y-118172499D02*
X179705000Y-118172499D01*
X181655000Y-128292499D02*
X179705000Y-128292499D01*
X182430000Y-118227499D02*
X182190000Y-117897499D01*
X182670000Y-117897499D01*
X182430000Y-118227499D01*
G36*
X182430000Y-118227499D02*
G01*
X182190000Y-117897499D01*
X182670000Y-117897499D01*
X182430000Y-118227499D01*
G37*
D14*
%TO.C,J6*%
X189508000Y-67257930D02*
X189508000Y-73711930D01*
X189508000Y-73711930D02*
X200382000Y-73711930D01*
X200382000Y-67257930D02*
X189508000Y-67257930D01*
X200382000Y-73711930D02*
X200382000Y-67257930D01*
D15*
X202541000Y-70485000D02*
G75*
G02*
X201779000Y-70485000I-381000J0D01*
G01*
X201779000Y-70485000D02*
G75*
G02*
X202541000Y-70485000I381000J0D01*
G01*
D13*
%TO.C,C14*%
X192296252Y-124020000D02*
X189973748Y-124020000D01*
X192296252Y-127440000D02*
X189973748Y-127440000D01*
%TO.C,R15*%
X192305000Y-101192064D02*
X192305000Y-100737936D01*
X193775000Y-101192064D02*
X193775000Y-100737936D01*
%TO.C,C35*%
X156179752Y-127789000D02*
X155657248Y-127789000D01*
X156179752Y-129259000D02*
X155657248Y-129259000D01*
%TO.C,J4*%
X143440000Y-100025000D02*
X143440000Y-102525000D01*
X143440000Y-102525000D02*
X145940000Y-102525000D01*
X143740000Y-84505000D02*
X143740000Y-102225000D01*
X143740000Y-85505000D02*
X145240000Y-85505000D01*
X143740000Y-101225000D02*
X145240000Y-101225000D01*
X143740000Y-102225000D02*
X147760000Y-102225000D01*
X145240000Y-85505000D02*
X145240000Y-84505000D01*
X145240000Y-101225000D02*
X145240000Y-102225000D01*
X146050000Y-84505000D02*
X146050000Y-85005000D01*
X146050000Y-85005000D02*
X147260000Y-85005000D01*
X146050000Y-101725000D02*
X146050000Y-102225000D01*
X147260000Y-85005000D02*
X147260000Y-101725000D01*
X147260000Y-101725000D02*
X146050000Y-101725000D01*
X147760000Y-84505000D02*
X143740000Y-84505000D01*
X147760000Y-102225000D02*
X147760000Y-84505000D01*
%TO.C,C17*%
X184473752Y-112590000D02*
X182151248Y-112590000D01*
X184473752Y-116010000D02*
X182151248Y-116010000D01*
D11*
%TO.C,J3*%
X196780000Y-94460000D02*
X197310000Y-94460000D01*
X197310000Y-92905000D02*
X198685000Y-92905000D01*
X197310000Y-94460000D02*
X197310000Y-92905000D01*
X197310000Y-102390000D02*
X196780000Y-102390000D01*
X197310000Y-103945000D02*
X197310000Y-102390000D01*
X198685000Y-103945000D02*
X197310000Y-103945000D01*
X201875000Y-92905000D02*
X202260000Y-92905000D01*
X201875000Y-103945000D02*
X202260000Y-103945000D01*
D12*
X195260000Y-94795000D02*
G75*
G02*
X195060000Y-94795000I-100000J0D01*
G01*
X195060000Y-94795000D02*
G75*
G02*
X195260000Y-94795000I100000J0D01*
G01*
D13*
%TO.C,J5*%
X174970000Y-82480000D02*
X174970000Y-84980000D01*
X175270000Y-82780000D02*
X175270000Y-86800000D01*
X175270000Y-86800000D02*
X192990000Y-86800000D01*
X175770000Y-85090000D02*
X175270000Y-85090000D01*
X175770000Y-86300000D02*
X175770000Y-85090000D01*
X176270000Y-82780000D02*
X176270000Y-84280000D01*
X176270000Y-84280000D02*
X175270000Y-84280000D01*
X177470000Y-82480000D02*
X174970000Y-82480000D01*
X191990000Y-82780000D02*
X191990000Y-84280000D01*
X191990000Y-84280000D02*
X192990000Y-84280000D01*
X192490000Y-85090000D02*
X192490000Y-86300000D01*
X192490000Y-86300000D02*
X175770000Y-86300000D01*
X192990000Y-82780000D02*
X175270000Y-82780000D01*
X192990000Y-85090000D02*
X192490000Y-85090000D01*
X192990000Y-86800000D02*
X192990000Y-82780000D01*
%TD*%
M02*
