%TF.GenerationSoftware,KiCad,Pcbnew,8.0.3*%
%TF.CreationDate,2024-10-26T03:20:47-07:00*%
%TF.ProjectId,test,74657374-2e6b-4696-9361-645f70636258,rev?*%
%TF.SameCoordinates,Original*%
%TF.FileFunction,Copper,L2,Bot*%
%TF.FilePolarity,Positive*%
%FSLAX46Y46*%
G04 Gerber Fmt 4.6, Leading zero omitted, Abs format (unit mm)*
G04 Created by KiCad (PCBNEW 8.0.3) date 2024-10-26 03:20:47*
%MOMM*%
%LPD*%
G01*
G04 APERTURE LIST*
G04 Aperture macros list*
%AMRoundRect*
0 Rectangle with rounded corners*
0 $1 Rounding radius*
0 $2 $3 $4 $5 $6 $7 $8 $9 X,Y pos of 4 corners*
0 Add a 4 corners polygon primitive as box body*
4,1,4,$2,$3,$4,$5,$6,$7,$8,$9,$2,$3,0*
0 Add four circle primitives for the rounded corners*
1,1,$1+$1,$2,$3*
1,1,$1+$1,$4,$5*
1,1,$1+$1,$6,$7*
1,1,$1+$1,$8,$9*
0 Add four rect primitives between the rounded corners*
20,1,$1+$1,$2,$3,$4,$5,0*
20,1,$1+$1,$4,$5,$6,$7,0*
20,1,$1+$1,$6,$7,$8,$9,0*
20,1,$1+$1,$8,$9,$2,$3,0*%
G04 Aperture macros list end*
%TA.AperFunction,ComponentPad*%
%ADD10R,1.218000X1.218000*%
%TD*%
%TA.AperFunction,ComponentPad*%
%ADD11C,1.218000*%
%TD*%
%TA.AperFunction,SMDPad,CuDef*%
%ADD12RoundRect,0.250000X0.250000X0.475000X-0.250000X0.475000X-0.250000X-0.475000X0.250000X-0.475000X0*%
%TD*%
%TA.AperFunction,SMDPad,CuDef*%
%ADD13RoundRect,0.250000X0.475000X-0.250000X0.475000X0.250000X-0.475000X0.250000X-0.475000X-0.250000X0*%
%TD*%
%TA.AperFunction,SMDPad,CuDef*%
%ADD14R,2.108200X0.558800*%
%TD*%
%TA.AperFunction,SMDPad,CuDef*%
%ADD15R,0.640000X0.700000*%
%TD*%
%TA.AperFunction,SMDPad,CuDef*%
%ADD16RoundRect,0.250000X-0.475000X0.250000X-0.475000X-0.250000X0.475000X-0.250000X0.475000X0.250000X0*%
%TD*%
%TA.AperFunction,ComponentPad*%
%ADD17RoundRect,0.250000X0.750000X-0.600000X0.750000X0.600000X-0.750000X0.600000X-0.750000X-0.600000X0*%
%TD*%
%TA.AperFunction,ComponentPad*%
%ADD18O,2.000000X1.700000*%
%TD*%
%TA.AperFunction,ComponentPad*%
%ADD19RoundRect,0.250000X-0.750000X0.600000X-0.750000X-0.600000X0.750000X-0.600000X0.750000X0.600000X0*%
%TD*%
%TA.AperFunction,SMDPad,CuDef*%
%ADD20RoundRect,0.150000X0.850000X0.150000X-0.850000X0.150000X-0.850000X-0.150000X0.850000X-0.150000X0*%
%TD*%
%TA.AperFunction,ComponentPad*%
%ADD21C,1.600200*%
%TD*%
%TA.AperFunction,SMDPad,CuDef*%
%ADD22RoundRect,0.249999X-0.450001X-1.450001X0.450001X-1.450001X0.450001X1.450001X-0.450001X1.450001X0*%
%TD*%
%TA.AperFunction,SMDPad,CuDef*%
%ADD23RoundRect,0.250000X-0.450000X0.262500X-0.450000X-0.262500X0.450000X-0.262500X0.450000X0.262500X0*%
%TD*%
%TA.AperFunction,SMDPad,CuDef*%
%ADD24RoundRect,0.250000X-0.250000X-0.475000X0.250000X-0.475000X0.250000X0.475000X-0.250000X0.475000X0*%
%TD*%
%TA.AperFunction,ComponentPad*%
%ADD25RoundRect,0.250000X0.725000X-0.600000X0.725000X0.600000X-0.725000X0.600000X-0.725000X-0.600000X0*%
%TD*%
%TA.AperFunction,ComponentPad*%
%ADD26O,1.950000X1.700000*%
%TD*%
%TA.AperFunction,SMDPad,CuDef*%
%ADD27R,0.750000X0.770000*%
%TD*%
%TA.AperFunction,SMDPad,CuDef*%
%ADD28R,0.750000X0.310000*%
%TD*%
%TA.AperFunction,ComponentPad*%
%ADD29O,2.550000X1.150000*%
%TD*%
%TA.AperFunction,ComponentPad*%
%ADD30RoundRect,0.250000X-0.600000X-0.725000X0.600000X-0.725000X0.600000X0.725000X-0.600000X0.725000X0*%
%TD*%
%TA.AperFunction,ComponentPad*%
%ADD31O,1.700000X1.950000*%
%TD*%
%TA.AperFunction,ViaPad*%
%ADD32C,0.600000*%
%TD*%
%TA.AperFunction,Conductor*%
%ADD33C,0.200000*%
%TD*%
G04 APERTURE END LIST*
D10*
%TO.P,RV2,1,1*%
%TO.N,Net-(FB5-Pad1)*%
X145415000Y-107950000D03*
D11*
%TO.P,RV2,2,2*%
%TO.N,Net-(J2-Pin_1)*%
X142875000Y-110490000D03*
%TO.P,RV2,3,3*%
%TO.N,GND*%
X145415000Y-113030000D03*
%TD*%
D10*
%TO.P,RV1,1,1*%
%TO.N,Net-(FB4-Pad1)*%
X193040000Y-108585000D03*
D11*
%TO.P,RV1,2,2*%
%TO.N,Net-(J1-Pin_2)*%
X190500000Y-111125000D03*
%TO.P,RV1,3,3*%
%TO.N,GND*%
X193040000Y-113665000D03*
%TD*%
D12*
%TO.P,C16,1*%
%TO.N,GND*%
X187005000Y-122597499D03*
%TO.P,C16,2*%
%TO.N,+5V*%
X185105000Y-122597499D03*
%TD*%
D13*
%TO.P,C36,1*%
%TO.N,GNDA*%
X159982500Y-132080000D03*
%TO.P,C36,2*%
%TO.N,/inL*%
X159982500Y-130180000D03*
%TD*%
D14*
%TO.P,SW4,1,1*%
%TO.N,Net-(U4-GPIO0{slash}BOOT{slash}ADC2_CH1)*%
X158558000Y-111884000D03*
%TO.P,SW4,2,2*%
%TO.N,GND*%
X165159400Y-111884000D03*
%TD*%
D15*
%TO.P,RN1,1,R1.1*%
%TO.N,/inR*%
X163500500Y-130240000D03*
%TO.P,RN1,2,R2.1*%
%TO.N,/inL*%
X162560500Y-130240000D03*
%TO.P,RN1,3,R2.2*%
%TO.N,Net-(RN1-R2.2)*%
X162560500Y-128840000D03*
%TO.P,RN1,4,R1.2*%
%TO.N,Net-(RN1-R1.2)*%
X163500500Y-128840000D03*
%TD*%
D16*
%TO.P,C37,1*%
%TO.N,/inR*%
X166078500Y-130180000D03*
%TO.P,C37,2*%
%TO.N,GNDA*%
X166078500Y-132080000D03*
%TD*%
D12*
%TO.P,C20,1*%
%TO.N,GND*%
X186167500Y-130650000D03*
%TO.P,C20,2*%
%TO.N,Net-(U2-VREF)*%
X184267500Y-130650000D03*
%TD*%
D17*
%TO.P,J1,1,Pin_1*%
%TO.N,Net-(J1-Pin_1)*%
X202565000Y-113030000D03*
D18*
%TO.P,J1,2,Pin_2*%
%TO.N,Net-(J1-Pin_2)*%
X202565000Y-110530000D03*
%TD*%
D13*
%TO.P,C15,1*%
%TO.N,GND*%
X179705000Y-131802499D03*
%TO.P,C15,2*%
%TO.N,+5V*%
X179705000Y-129902499D03*
%TD*%
D19*
%TO.P,J2,1,Pin_1*%
%TO.N,Net-(J2-Pin_1)*%
X134320000Y-112415000D03*
D18*
%TO.P,J2,2,Pin_2*%
%TO.N,Net-(J2-Pin_2)*%
X134320000Y-114915000D03*
%TD*%
D20*
%TO.P,U2,1,+OUT_L*%
%TO.N,unconnected-(U2-+OUT_L-Pad1)*%
X182205000Y-118787499D03*
%TO.P,U2,2,PGNDL*%
%TO.N,GND*%
X182205000Y-120057499D03*
%TO.P,U2,3,-OUT_L*%
%TO.N,unconnected-(U2--OUT_L-Pad3)*%
X182205000Y-121327499D03*
%TO.P,U2,4,PVDDL*%
%TO.N,+5V*%
X182205000Y-122597499D03*
%TO.P,U2,5,~{MUTE}*%
%TO.N,unconnected-(U2-~{MUTE}-Pad5)*%
X182205000Y-123867499D03*
%TO.P,U2,6,VDD*%
%TO.N,+5V*%
X182205000Y-125137499D03*
%TO.P,U2,7,INL*%
%TO.N,unconnected-(U2-INL-Pad7)*%
X182205000Y-126407499D03*
%TO.P,U2,8,VREF*%
%TO.N,Net-(U2-VREF)*%
X182205000Y-127677499D03*
%TO.P,U2,9,MODE*%
%TO.N,+5V*%
X177205000Y-127677499D03*
%TO.P,U2,10,INR*%
%TO.N,Net-(U2-INR)*%
X177205000Y-126407499D03*
%TO.P,U2,11,GND*%
%TO.N,GND*%
X177205000Y-125137499D03*
%TO.P,U2,12,~{SHND}*%
%TO.N,unconnected-(U2-~{SHND}-Pad12)*%
X177205000Y-123867499D03*
%TO.P,U2,13,PVDDR*%
%TO.N,+5V*%
X177205000Y-122597499D03*
%TO.P,U2,14,-OUT_R*%
%TO.N,Net-(U2--OUT_R)*%
X177205000Y-121327499D03*
%TO.P,U2,15,PGNDR*%
%TO.N,GND*%
X177205000Y-120057499D03*
%TO.P,U2,16,+OUT_R*%
%TO.N,Net-(U2-+OUT_R)*%
X177205000Y-118787499D03*
%TD*%
D21*
%TO.P,J6,1,Pin_1*%
%TO.N,+5V*%
X198755000Y-70485000D03*
%TO.P,J6,2,Pin_2*%
%TO.N,GND*%
X196215000Y-70485000D03*
%TO.P,J6,3*%
%TO.N,N/C*%
X193675000Y-70485000D03*
%TO.P,J6,4*%
X191135000Y-70485000D03*
%TD*%
D22*
%TO.P,C14,1*%
%TO.N,+5V*%
X189085000Y-125730000D03*
%TO.P,C14,2*%
%TO.N,GND*%
X193185000Y-125730000D03*
%TD*%
D23*
%TO.P,R15,1*%
%TO.N,/cc22*%
X193040000Y-100052500D03*
%TO.P,R15,2*%
%TO.N,GND*%
X193040000Y-101877500D03*
%TD*%
D24*
%TO.P,C35,1*%
%TO.N,Net-(U6-CAPP)*%
X154968500Y-128524000D03*
%TO.P,C35,2*%
%TO.N,Net-(U6-CAPM)*%
X156868500Y-128524000D03*
%TD*%
D25*
%TO.P,J4,1,Pin_1*%
%TO.N,GND*%
X146050000Y-99615000D03*
D26*
%TO.P,J4,2,Pin_2*%
%TO.N,/wsIn*%
X146050000Y-97115000D03*
%TO.P,J4,3,Pin_3*%
%TO.N,/sdIn*%
X146050000Y-94615000D03*
%TO.P,J4,4,Pin_4*%
%TO.N,/bckIn*%
X146050000Y-92115000D03*
%TO.P,J4,5,Pin_5*%
%TO.N,GND*%
X146050000Y-89615000D03*
%TO.P,J4,6,Pin_6*%
%TO.N,+3.3V*%
X146050000Y-87115000D03*
%TD*%
D22*
%TO.P,C17,1*%
%TO.N,+5V*%
X181262500Y-114300000D03*
%TO.P,C17,2*%
%TO.N,GND*%
X185362500Y-114300000D03*
%TD*%
D27*
%TO.P,J3,A1/B12,GND_A*%
%TO.N,GND*%
X196085000Y-94795000D03*
%TO.P,J3,A4/B9,VBUS_A*%
%TO.N,+5V*%
X196085000Y-95865000D03*
D28*
%TO.P,J3,A5,CC1*%
%TO.N,/cc21*%
X196085000Y-97175000D03*
%TO.P,J3,A6,DP1*%
%TO.N,/d2+*%
X196085000Y-98175000D03*
%TO.P,J3,A7,DN1*%
%TO.N,/d2-*%
X196085000Y-98675000D03*
%TO.P,J3,A8,SBU1*%
%TO.N,unconnected-(J3-SBU1-PadA8)*%
X196085000Y-99675000D03*
D27*
%TO.P,J3,A9/B4,VBUS_B*%
%TO.N,+5V*%
X196085000Y-100985000D03*
%TO.P,J3,A12/B1,GND_B*%
%TO.N,GND*%
X196085000Y-102055000D03*
D28*
%TO.P,J3,B5,CC2*%
%TO.N,/cc22*%
X196085000Y-100175000D03*
%TO.P,J3,B6,DP2*%
%TO.N,unconnected-(J3-DP2-PadB6)*%
X196085000Y-99175000D03*
%TO.P,J3,B7,DN2*%
%TO.N,unconnected-(J3-DN2-PadB7)*%
X196085000Y-97675000D03*
%TO.P,J3,B8,SBU2*%
%TO.N,unconnected-(J3-SBU2-PadB8)*%
X196085000Y-96675000D03*
D29*
%TO.P,J3,SH1,SHIELD*%
%TO.N,GND*%
X200280000Y-93455000D03*
%TO.P,J3,SH2,SHIELD__1*%
X200280000Y-103395000D03*
%TD*%
D30*
%TO.P,J5,1,Pin_1*%
%TO.N,+3.3V*%
X177880000Y-85090000D03*
D31*
%TO.P,J5,2,Pin_2*%
%TO.N,/wsIn*%
X180380000Y-85090000D03*
%TO.P,J5,3,Pin_3*%
%TO.N,/sdIn*%
X182880000Y-85090000D03*
%TO.P,J5,4,Pin_4*%
%TO.N,/bckIn*%
X185380000Y-85090000D03*
%TO.P,J5,5,Pin_5*%
%TO.N,GND*%
X187880000Y-85090000D03*
%TO.P,J5,6,Pin_6*%
%TO.N,+3.3V*%
X190380000Y-85090000D03*
%TD*%
D32*
%TO.N,GND*%
X148590000Y-111760000D03*
X195580000Y-114935000D03*
X139065000Y-100965000D03*
X193675000Y-65405000D03*
X179705000Y-136525000D03*
X141605000Y-136525000D03*
X170815000Y-92710000D03*
X141605000Y-92075000D03*
X133985000Y-136525000D03*
X128905000Y-100965000D03*
X188595000Y-69215000D03*
X140335000Y-102235000D03*
X125095000Y-112395000D03*
X202565000Y-75565000D03*
X125095000Y-131445000D03*
X125095000Y-100965000D03*
X136525000Y-136525000D03*
X125095000Y-122555000D03*
X170815000Y-75565000D03*
X154305000Y-75565000D03*
X197485000Y-136525000D03*
X202565000Y-74295000D03*
X188595000Y-66675000D03*
X182245000Y-75565000D03*
X140335000Y-125095000D03*
X179705000Y-75565000D03*
X188595000Y-73025000D03*
X141605000Y-78105000D03*
X202565000Y-86995000D03*
X167418500Y-112616500D03*
X206375000Y-117475000D03*
X125095000Y-120015000D03*
X172085000Y-136525000D03*
X194945000Y-136525000D03*
X141605000Y-93345000D03*
X182245000Y-136525000D03*
X142875000Y-136525000D03*
X158115000Y-75565000D03*
X198755000Y-136525000D03*
X206375000Y-109855000D03*
X125095000Y-130175000D03*
X131445000Y-100965000D03*
X169226000Y-99184000D03*
X159385000Y-136525000D03*
X165735000Y-93980000D03*
X201295000Y-136525000D03*
X197485000Y-65405000D03*
X136525000Y-100965000D03*
X186055000Y-75565000D03*
X206375000Y-122555000D03*
X188595000Y-136525000D03*
X194945000Y-65405000D03*
X160655000Y-75565000D03*
X195580000Y-126365000D03*
X186055000Y-136525000D03*
X188595000Y-65405000D03*
X125095000Y-132715000D03*
X168275000Y-132080000D03*
X175895000Y-75565000D03*
X168275000Y-136525000D03*
X157034000Y-94104000D03*
X202565000Y-76835000D03*
X157950500Y-116840000D03*
X146685000Y-75565000D03*
X183515000Y-75565000D03*
X202565000Y-69215000D03*
X203200000Y-106680000D03*
X202565000Y-136525000D03*
X135255000Y-136525000D03*
X200025000Y-65405000D03*
X165735000Y-136525000D03*
X153035000Y-75565000D03*
X202565000Y-106680000D03*
X125095000Y-135255000D03*
X188595000Y-71755000D03*
X125095000Y-108585000D03*
X135255000Y-100965000D03*
X206375000Y-126365000D03*
X188595000Y-75565000D03*
X183515000Y-136525000D03*
X144145000Y-136525000D03*
X167005000Y-75565000D03*
X202565000Y-104775000D03*
X206375000Y-106680000D03*
X149225000Y-97155000D03*
X204470000Y-106680000D03*
X155575000Y-136525000D03*
X141605000Y-84455000D03*
X206375000Y-132715000D03*
X169545000Y-75565000D03*
X174625000Y-136525000D03*
X151765000Y-136525000D03*
X141605000Y-81915000D03*
X126365000Y-100965000D03*
X145415000Y-75565000D03*
X202565000Y-67945000D03*
X206375000Y-131445000D03*
X125095000Y-126365000D03*
X163195000Y-136525000D03*
X141605000Y-76835000D03*
X153035000Y-136525000D03*
X206375000Y-128905000D03*
X140335000Y-132715000D03*
X125095000Y-107315000D03*
X140335000Y-136525000D03*
X202565000Y-83185000D03*
X181926000Y-104264000D03*
X141605000Y-100965000D03*
X159385000Y-75565000D03*
X151765000Y-75565000D03*
X146685000Y-136525000D03*
X189865000Y-136525000D03*
X131445000Y-133350000D03*
X184785000Y-75565000D03*
X205105000Y-136525000D03*
X206375000Y-133985000D03*
X202565000Y-106045000D03*
X134620000Y-120015000D03*
X184785000Y-136525000D03*
X202565000Y-88265000D03*
X164465000Y-136525000D03*
X172085000Y-75565000D03*
X150495000Y-75565000D03*
X141605000Y-75565000D03*
X193675000Y-136525000D03*
X149225000Y-87630000D03*
X125095000Y-117475000D03*
X185217500Y-119220000D03*
X126365000Y-136525000D03*
X175895000Y-136525000D03*
X141605000Y-83185000D03*
X181610000Y-131487499D03*
X125095000Y-128905000D03*
X169545000Y-136525000D03*
X205740000Y-106680000D03*
X163195000Y-75565000D03*
X200025000Y-136525000D03*
X202565000Y-90805000D03*
X177165000Y-75565000D03*
X192405000Y-136525000D03*
X186690000Y-88900000D03*
X152400000Y-131445000D03*
X149225000Y-136525000D03*
X206375000Y-120015000D03*
X125095000Y-121285000D03*
X180975000Y-75565000D03*
X172720000Y-118110000D03*
X144145000Y-75565000D03*
X188595000Y-67945000D03*
X132715000Y-100965000D03*
X202565000Y-80645000D03*
X155575000Y-75565000D03*
X147955000Y-136525000D03*
X195580000Y-75565000D03*
X161506500Y-116332000D03*
X140335000Y-100965000D03*
X159574000Y-96644000D03*
X206375000Y-107315000D03*
X132715000Y-136525000D03*
X201295000Y-65405000D03*
X142875000Y-75565000D03*
X125095000Y-106045000D03*
X191135000Y-136525000D03*
X125095000Y-109855000D03*
X141605000Y-89535000D03*
X141605000Y-94615000D03*
X179502500Y-123030000D03*
X202565000Y-71755000D03*
X202565000Y-85725000D03*
X173355000Y-136525000D03*
X154305000Y-136525000D03*
X178435000Y-75565000D03*
X141605000Y-90805000D03*
X178435000Y-136525000D03*
X203835000Y-136525000D03*
X202565000Y-79375000D03*
X141605000Y-99695000D03*
X151446000Y-107820000D03*
X141605000Y-85725000D03*
X147955000Y-75565000D03*
X158115000Y-136525000D03*
X206375000Y-123825000D03*
X206375000Y-116205000D03*
X125095000Y-125095000D03*
X134620000Y-125730000D03*
X127635000Y-100965000D03*
X180300000Y-80712000D03*
X168275000Y-75565000D03*
X141605000Y-86995000D03*
X164465000Y-75565000D03*
X188595000Y-70485000D03*
X206375000Y-127635000D03*
X186904000Y-81026000D03*
X206375000Y-121285000D03*
X193040000Y-78105000D03*
X192405000Y-65405000D03*
X125095000Y-123825000D03*
X141605000Y-79375000D03*
X206375000Y-125095000D03*
X165735000Y-75565000D03*
X202565000Y-78105000D03*
X130175000Y-100965000D03*
X133985000Y-100965000D03*
X196215000Y-65405000D03*
X125095000Y-133985000D03*
X206375000Y-118745000D03*
X163130000Y-101724000D03*
X191135000Y-90805000D03*
X125095000Y-114935000D03*
X137795000Y-136525000D03*
X150495000Y-136525000D03*
X191135000Y-65405000D03*
X177165000Y-136525000D03*
X161925000Y-136525000D03*
X170815000Y-136525000D03*
X206375000Y-135255000D03*
X128905000Y-136525000D03*
X174625000Y-119380000D03*
X202565000Y-65405000D03*
X202565000Y-73025000D03*
X158115000Y-115570000D03*
X141605000Y-98425000D03*
X206375000Y-130175000D03*
X125095000Y-113665000D03*
X188595000Y-74295000D03*
X202565000Y-66675000D03*
X187325000Y-136525000D03*
X150938000Y-84452000D03*
X206375000Y-114935000D03*
X206375000Y-112395000D03*
X173355000Y-75565000D03*
X180975000Y-136525000D03*
X174625000Y-75565000D03*
X125095000Y-111125000D03*
X129540000Y-126365000D03*
X187325000Y-75565000D03*
X127635000Y-136525000D03*
X185217500Y-132555000D03*
X202565000Y-92075000D03*
X156845000Y-75565000D03*
X206375000Y-113665000D03*
X202565000Y-81915000D03*
X196215000Y-136525000D03*
X161925000Y-75565000D03*
X137795000Y-100965000D03*
X189865000Y-65405000D03*
X206375000Y-111125000D03*
X145415000Y-136525000D03*
X168910000Y-78740000D03*
X125095000Y-102235000D03*
X206375000Y-108585000D03*
X139065000Y-136525000D03*
X130175000Y-136525000D03*
X125095000Y-103505000D03*
X131445000Y-136525000D03*
X202565000Y-84455000D03*
X141605000Y-88265000D03*
X206375000Y-136525000D03*
X141605000Y-95885000D03*
X202565000Y-89535000D03*
X167005000Y-136525000D03*
X170815000Y-105410000D03*
X186055000Y-111125000D03*
X141605000Y-80645000D03*
X125095000Y-127635000D03*
X149225000Y-75565000D03*
X125095000Y-104775000D03*
X140970000Y-121285000D03*
X125095000Y-116205000D03*
X125095000Y-118745000D03*
X156845000Y-136525000D03*
X160655000Y-136525000D03*
X198755000Y-65405000D03*
X191770000Y-106680000D03*
X189865000Y-105410000D03*
X125095000Y-136525000D03*
X141605000Y-97155000D03*
%TO.N,/inR*%
X168910000Y-129540000D03*
%TO.N,Net-(U2-INR)*%
X175057500Y-126840000D03*
%TO.N,/inL*%
X156210000Y-130810000D03*
%TO.N,+5V*%
X184785000Y-104775000D03*
X178869484Y-123624484D03*
X179070000Y-127000000D03*
X190500000Y-96520000D03*
%TO.N,/bckIn*%
X165552069Y-91892069D03*
X161606000Y-88008000D03*
%TO.N,/sdIn*%
X160590000Y-88008000D03*
X162560000Y-93345000D03*
%TO.N,/wsIn*%
X159574000Y-88008000D03*
X160972500Y-92392500D03*
%TO.N,/wsOut*%
X163068000Y-115982000D03*
X157480000Y-104140000D03*
%TO.N,/bckOut*%
X157480000Y-92710000D03*
X161925000Y-120650000D03*
%TO.N,Net-(U2--OUT_R)*%
X179705000Y-120015000D03*
%TO.N,Net-(U2-+OUT_R)*%
X179070000Y-117475000D03*
%TO.N,/sdOut*%
X164279979Y-117514327D03*
X168275000Y-113665000D03*
%TO.N,Net-(U4-GPIO0{slash}BOOT{slash}ADC2_CH1)*%
X155510000Y-111884000D03*
%TO.N,GNDA*%
X149314500Y-125476000D03*
%TO.N,+3.3VA*%
X162014500Y-123028000D03*
X158966500Y-122428000D03*
%TO.N,Net-(U6-CAPM)*%
X158966500Y-128524000D03*
%TO.N,Net-(U6-CAPP)*%
X157950500Y-127000000D03*
%TO.N,/d2+*%
X170242000Y-111884000D03*
%TO.N,/d2-*%
X169226000Y-112392000D03*
%TO.N,/cc21*%
X194310000Y-97155000D03*
%TO.N,Net-(RN1-R1.2)*%
X163030500Y-127000000D03*
%TO.N,Net-(RN1-R2.2)*%
X161506500Y-127000000D03*
%TD*%
D33*
%TO.N,GND*%
X147320000Y-113030000D02*
X148590000Y-111760000D01*
X145415000Y-113030000D02*
X147320000Y-113030000D01*
%TO.N,Net-(J2-Pin_1)*%
X140950000Y-112415000D02*
X134320000Y-112415000D01*
X142875000Y-110490000D02*
X140950000Y-112415000D01*
%TO.N,Net-(J1-Pin_2)*%
X201970000Y-111125000D02*
X190500000Y-111125000D01*
X202565000Y-110530000D02*
X201970000Y-111125000D01*
%TO.N,GND*%
X194310000Y-113665000D02*
X195580000Y-114935000D01*
X193040000Y-113665000D02*
X194310000Y-113665000D01*
X179705000Y-131802499D02*
X181295000Y-131802499D01*
X198940000Y-94795000D02*
X200280000Y-93455000D01*
X189945000Y-109220000D02*
X191770000Y-107395000D01*
X191770000Y-107395000D02*
X191770000Y-106680000D01*
X186167500Y-130650000D02*
X186167500Y-131605000D01*
X196085000Y-102055000D02*
X198940000Y-102055000D01*
X193217500Y-102055000D02*
X193040000Y-101877500D01*
X193185000Y-125730000D02*
X194945000Y-125730000D01*
X198940000Y-102055000D02*
X200280000Y-103395000D01*
X187005000Y-122597499D02*
X190052499Y-122597499D01*
X196085000Y-94795000D02*
X198940000Y-94795000D01*
X181295000Y-131802499D02*
X181610000Y-131487499D01*
X194945000Y-125730000D02*
X195580000Y-126365000D01*
X177205000Y-125137499D02*
X178204999Y-125137499D01*
X140335000Y-125095000D02*
X140335000Y-121920000D01*
X182205000Y-120057499D02*
X184380001Y-120057499D01*
X175302499Y-120057499D02*
X174625000Y-119380000D01*
X186167500Y-131605000D02*
X185217500Y-132555000D01*
X184380001Y-120057499D02*
X185217500Y-119220000D01*
X167418500Y-112616500D02*
X166686000Y-111884000D01*
X177205000Y-120057499D02*
X175302499Y-120057499D01*
X140335000Y-121920000D02*
X140970000Y-121285000D01*
X179502500Y-123839998D02*
X179502500Y-123030000D01*
X196085000Y-102055000D02*
X193217500Y-102055000D01*
X185362500Y-114300000D02*
X185362500Y-111817500D01*
X190052499Y-122597499D02*
X193185000Y-125730000D01*
X185362500Y-111817500D02*
X186055000Y-111125000D01*
X178204999Y-125137499D02*
X179502500Y-123839998D01*
X166686000Y-111884000D02*
X165159400Y-111884000D01*
%TO.N,/inR*%
X168270000Y-130180000D02*
X168910000Y-129540000D01*
X166078500Y-130180000D02*
X163560500Y-130180000D01*
X166078500Y-130180000D02*
X168270000Y-130180000D01*
X163560500Y-130180000D02*
X163500500Y-130240000D01*
%TO.N,+3.3V*%
X177880000Y-85090000D02*
X148075000Y-85090000D01*
X148075000Y-85090000D02*
X146050000Y-87115000D01*
%TO.N,Net-(U2-INR)*%
X175490001Y-126407499D02*
X177205000Y-126407499D01*
X175057500Y-126840000D02*
X175490001Y-126407499D01*
%TO.N,/inL*%
X159982500Y-130180000D02*
X162500500Y-130180000D01*
X159982500Y-130180000D02*
X156840000Y-130180000D01*
X162500500Y-130180000D02*
X162560500Y-130240000D01*
X156840000Y-130180000D02*
X156210000Y-130810000D01*
%TO.N,+5V*%
X177971030Y-122597499D02*
X180627500Y-119941029D01*
X183505000Y-124837498D02*
X183505000Y-122897500D01*
X197485000Y-100160000D02*
X197485000Y-96690000D01*
X179705000Y-129902499D02*
X176214999Y-129902499D01*
X181205001Y-122597499D02*
X180340000Y-123462500D01*
X176214999Y-129902499D02*
X174192500Y-127880000D01*
X189085000Y-125730000D02*
X188237501Y-125730000D01*
X180627500Y-114935000D02*
X181262500Y-114300000D01*
X183204999Y-125137499D02*
X183505000Y-124837498D01*
X188237501Y-125730000D02*
X185105000Y-122597499D01*
X191155000Y-95865000D02*
X190500000Y-96520000D01*
X183204999Y-122597499D02*
X182205000Y-122597499D01*
X181262500Y-108297500D02*
X184785000Y-104775000D01*
X174192500Y-124137499D02*
X175732500Y-122597499D01*
X177205000Y-122597499D02*
X177971030Y-122597499D01*
X196660000Y-95865000D02*
X196085000Y-95865000D01*
X180627500Y-119941029D02*
X180627500Y-114935000D01*
X196660000Y-100985000D02*
X197485000Y-100160000D01*
X175732500Y-122597499D02*
X177205000Y-122597499D01*
X179705000Y-129902499D02*
X180340000Y-129267499D01*
X197485000Y-96690000D02*
X196660000Y-95865000D01*
X180340000Y-129267499D02*
X180340000Y-123462500D01*
X182205000Y-125137499D02*
X183204999Y-125137499D01*
X183505000Y-122897500D02*
X183204999Y-122597499D01*
X177842499Y-122597499D02*
X177205000Y-122597499D01*
X179070000Y-127000000D02*
X178392501Y-127677499D01*
X182205000Y-122597499D02*
X185105000Y-122597499D01*
X178869484Y-123624484D02*
X177842499Y-122597499D01*
X174192500Y-127880000D02*
X174192500Y-124137499D01*
X178392501Y-127677499D02*
X177205000Y-127677499D01*
X196085000Y-95865000D02*
X191155000Y-95865000D01*
X181262500Y-114300000D02*
X181262500Y-108297500D01*
X182205000Y-122597499D02*
X181205001Y-122597499D01*
X196085000Y-100985000D02*
X196660000Y-100985000D01*
%TO.N,/bckIn*%
X147984314Y-92115000D02*
X153091314Y-87008000D01*
X168836138Y-88608000D02*
X181862000Y-88608000D01*
X181862000Y-88608000D02*
X185380000Y-85090000D01*
X160606000Y-87008000D02*
X161606000Y-88008000D01*
X146050000Y-92115000D02*
X147984314Y-92115000D01*
X153091314Y-87008000D02*
X160606000Y-87008000D01*
X165552069Y-91892069D02*
X168836138Y-88608000D01*
%TO.N,/sdIn*%
X159990000Y-87408000D02*
X160590000Y-88008000D01*
X146050000Y-94615000D02*
X153257000Y-87408000D01*
X163222805Y-93345000D02*
X168359805Y-88208000D01*
X168359805Y-88208000D02*
X179762000Y-88208000D01*
X162560000Y-93345000D02*
X163222805Y-93345000D01*
X179762000Y-88208000D02*
X182880000Y-85090000D01*
X153257000Y-87408000D02*
X159990000Y-87408000D01*
%TO.N,/wsIn*%
X180380000Y-86320000D02*
X180380000Y-85090000D01*
X168117079Y-87630000D02*
X179070000Y-87630000D01*
X153492000Y-87808000D02*
X148590000Y-92710000D01*
X159574000Y-88008000D02*
X159374000Y-87808000D01*
X160972500Y-92392500D02*
X163354579Y-92392500D01*
X159374000Y-87808000D02*
X153492000Y-87808000D01*
X148590000Y-94575000D02*
X146050000Y-97115000D01*
X163354579Y-92392500D02*
X168117079Y-87630000D01*
X179070000Y-87630000D02*
X180380000Y-86320000D01*
X148590000Y-92710000D02*
X148590000Y-94575000D01*
%TO.N,/wsOut*%
X163068000Y-115982000D02*
X163068000Y-109728000D01*
X163068000Y-109728000D02*
X157480000Y-104140000D01*
%TO.N,/bckOut*%
X160911971Y-120650000D02*
X154910000Y-114648029D01*
X156210000Y-93980000D02*
X157480000Y-92710000D01*
X156210000Y-110335471D02*
X156210000Y-93980000D01*
X161925000Y-120650000D02*
X160911971Y-120650000D01*
X154910000Y-111635471D02*
X156210000Y-110335471D01*
X154910000Y-114648029D02*
X154910000Y-111635471D01*
%TO.N,Net-(U2-VREF)*%
X184267500Y-129739999D02*
X182205000Y-127677499D01*
X184267500Y-130650000D02*
X184267500Y-129739999D01*
%TO.N,Net-(U2--OUT_R)*%
X177205000Y-121327499D02*
X178392501Y-121327499D01*
X178392501Y-121327499D02*
X179705000Y-120015000D01*
%TO.N,Net-(U2-+OUT_R)*%
X178517499Y-117475000D02*
X179070000Y-117475000D01*
X177205000Y-118787499D02*
X178517499Y-117475000D01*
%TO.N,/sdOut*%
X168275000Y-113665000D02*
X168129306Y-113665000D01*
X168129306Y-113665000D02*
X164279979Y-117514327D01*
%TO.N,Net-(U4-GPIO0{slash}BOOT{slash}ADC2_CH1)*%
X155510000Y-111884000D02*
X158558000Y-111884000D01*
%TO.N,GNDA*%
X159982500Y-132080000D02*
X166078500Y-132080000D01*
X155918500Y-132080000D02*
X159982500Y-132080000D01*
X149314500Y-125476000D02*
X155918500Y-132080000D01*
%TO.N,+3.3VA*%
X161414500Y-122428000D02*
X158966500Y-122428000D01*
X162014500Y-123028000D02*
X161414500Y-122428000D01*
%TO.N,Net-(U6-CAPM)*%
X156868500Y-128524000D02*
X158966500Y-128524000D01*
%TO.N,Net-(U6-CAPP)*%
X154968500Y-128524000D02*
X156492500Y-127000000D01*
X156492500Y-127000000D02*
X157950500Y-127000000D01*
%TO.N,/d2+*%
X189549314Y-98175000D02*
X175840314Y-111884000D01*
X196085000Y-98175000D02*
X189549314Y-98175000D01*
X175840314Y-111884000D02*
X170242000Y-111884000D01*
%TO.N,/d2-*%
X169318000Y-112484000D02*
X169226000Y-112392000D01*
X196085000Y-98675000D02*
X189615000Y-98675000D01*
X175806000Y-112484000D02*
X169318000Y-112484000D01*
X189615000Y-98675000D02*
X175806000Y-112484000D01*
%TO.N,/cc22*%
X193162500Y-100175000D02*
X193040000Y-100052500D01*
X196085000Y-100175000D02*
X193162500Y-100175000D01*
%TO.N,/cc21*%
X196085000Y-97175000D02*
X194330000Y-97175000D01*
X194330000Y-97175000D02*
X194310000Y-97155000D01*
%TO.N,Net-(RN1-R1.2)*%
X163030500Y-127000000D02*
X163500500Y-127470000D01*
X163500500Y-127470000D02*
X163500500Y-128840000D01*
%TO.N,Net-(RN1-R2.2)*%
X162560500Y-128054000D02*
X162560500Y-128840000D01*
X161506500Y-127000000D02*
X162560500Y-128054000D01*
%TD*%
%TA.AperFunction,Conductor*%
%TO.N,GND*%
G36*
X179695742Y-124080346D02*
G01*
X179734114Y-124138736D01*
X179739500Y-124174883D01*
X179739500Y-126250905D01*
X179719815Y-126317944D01*
X179667011Y-126363699D01*
X179597853Y-126373643D01*
X179549528Y-126355899D01*
X179419523Y-126274211D01*
X179249254Y-126214631D01*
X179249249Y-126214630D01*
X179070004Y-126194435D01*
X179069996Y-126194435D01*
X178890750Y-126214630D01*
X178890742Y-126214632D01*
X178859224Y-126225661D01*
X178789445Y-126229222D01*
X178728818Y-126194493D01*
X178699194Y-126143214D01*
X178688329Y-126105816D01*
X178656744Y-125997101D01*
X178573081Y-125855634D01*
X178573078Y-125855631D01*
X178568298Y-125849468D01*
X178570635Y-125847654D01*
X178543798Y-125798549D01*
X178548756Y-125728855D01*
X178569554Y-125696497D01*
X178567903Y-125695216D01*
X178572686Y-125689049D01*
X178656282Y-125547695D01*
X178656283Y-125547692D01*
X178702099Y-125389994D01*
X178702100Y-125389988D01*
X178704999Y-125353148D01*
X178705000Y-125353133D01*
X178705000Y-124921864D01*
X178704999Y-124921849D01*
X178702100Y-124885009D01*
X178702099Y-124885003D01*
X178656283Y-124727305D01*
X178656282Y-124727302D01*
X178579397Y-124597295D01*
X178562214Y-124529571D01*
X178584374Y-124463308D01*
X178638840Y-124419545D01*
X178700011Y-124410954D01*
X178776258Y-124419545D01*
X178869481Y-124430049D01*
X178869484Y-124430049D01*
X178869488Y-124430049D01*
X179048733Y-124409853D01*
X179048736Y-124409852D01*
X179048739Y-124409852D01*
X179219006Y-124350273D01*
X179371746Y-124254300D01*
X179499300Y-124126746D01*
X179510506Y-124108912D01*
X179562840Y-124062620D01*
X179631894Y-124051971D01*
X179695742Y-124080346D01*
G37*
%TD.AperFunction*%
%TA.AperFunction,Conductor*%
G36*
X180646211Y-120874064D02*
G01*
X180702144Y-120915936D01*
X180726561Y-120981400D01*
X180721954Y-121024839D01*
X180707402Y-121074928D01*
X180707401Y-121074931D01*
X180704500Y-121111797D01*
X180704500Y-121543200D01*
X180707401Y-121580066D01*
X180707402Y-121580072D01*
X180753254Y-121737892D01*
X180753255Y-121737895D01*
X180836917Y-121879361D01*
X180841702Y-121885530D01*
X180839256Y-121887426D01*
X180865857Y-121936141D01*
X180860873Y-122005833D01*
X180840069Y-122038202D01*
X180841702Y-122039468D01*
X180836916Y-122045637D01*
X180753253Y-122187104D01*
X180752798Y-122188157D01*
X180751511Y-122190050D01*
X180749285Y-122193815D01*
X180749048Y-122193675D01*
X180726702Y-122226561D01*
X180724501Y-122228763D01*
X180724481Y-122228783D01*
X179859481Y-123093782D01*
X179859475Y-123093790D01*
X179822939Y-123157074D01*
X179822939Y-123157076D01*
X179781344Y-123229119D01*
X179730776Y-123277334D01*
X179662169Y-123290556D01*
X179597304Y-123264588D01*
X179568963Y-123233090D01*
X179564003Y-123225196D01*
X179499300Y-123122222D01*
X179371746Y-122994668D01*
X179269245Y-122930262D01*
X179219005Y-122898694D01*
X179048733Y-122839114D01*
X178961814Y-122829321D01*
X178897400Y-122802254D01*
X178888017Y-122793782D01*
X178843679Y-122749444D01*
X178810194Y-122688121D01*
X178815178Y-122618429D01*
X178843675Y-122574087D01*
X180515200Y-120902562D01*
X180576519Y-120869080D01*
X180646211Y-120874064D01*
G37*
%TD.AperFunction*%
%TA.AperFunction,Conductor*%
G36*
X203277539Y-64655185D02*
G01*
X203323294Y-64707989D01*
X203334500Y-64759500D01*
X203334500Y-104840891D01*
X203368608Y-104968187D01*
X203370059Y-104970700D01*
X203434500Y-105082314D01*
X203527686Y-105175500D01*
X203641814Y-105241392D01*
X203769108Y-105275500D01*
X203900892Y-105275500D01*
X207020500Y-105275500D01*
X207087539Y-105295185D01*
X207133294Y-105347989D01*
X207144500Y-105399500D01*
X207144500Y-137170500D01*
X207124815Y-137237539D01*
X207072011Y-137283294D01*
X207020500Y-137294500D01*
X124449500Y-137294500D01*
X124382461Y-137274815D01*
X124336706Y-137222011D01*
X124325500Y-137170500D01*
X124325500Y-125475996D01*
X148508935Y-125475996D01*
X148508935Y-125476003D01*
X148529130Y-125655249D01*
X148529131Y-125655254D01*
X148588711Y-125825523D01*
X148651519Y-125925480D01*
X148684684Y-125978262D01*
X148812238Y-126105816D01*
X148964978Y-126201789D01*
X149135245Y-126261368D01*
X149222169Y-126271161D01*
X149286580Y-126298226D01*
X149295965Y-126306700D01*
X155433639Y-132444374D01*
X155433649Y-132444385D01*
X155437979Y-132448715D01*
X155437980Y-132448716D01*
X155549784Y-132560520D01*
X155549786Y-132560521D01*
X155549790Y-132560524D01*
X155686709Y-132639573D01*
X155686716Y-132639577D01*
X155798519Y-132669534D01*
X155839442Y-132680500D01*
X155839443Y-132680500D01*
X158772702Y-132680500D01*
X158839741Y-132700185D01*
X158878239Y-132739401D01*
X158914788Y-132798656D01*
X159038844Y-132922712D01*
X159188166Y-133014814D01*
X159354703Y-133069999D01*
X159457491Y-133080500D01*
X160507508Y-133080499D01*
X160507516Y-133080498D01*
X160507519Y-133080498D01*
X160563802Y-133074748D01*
X160610297Y-133069999D01*
X160776834Y-133014814D01*
X160926156Y-132922712D01*
X161050212Y-132798656D01*
X161086759Y-132739402D01*
X161138707Y-132692679D01*
X161192298Y-132680500D01*
X164868702Y-132680500D01*
X164935741Y-132700185D01*
X164974239Y-132739401D01*
X165010788Y-132798656D01*
X165134844Y-132922712D01*
X165284166Y-133014814D01*
X165450703Y-133069999D01*
X165553491Y-133080500D01*
X166603508Y-133080499D01*
X166603516Y-133080498D01*
X166603519Y-133080498D01*
X166659802Y-133074748D01*
X166706297Y-133069999D01*
X166872834Y-133014814D01*
X167022156Y-132922712D01*
X167146212Y-132798656D01*
X167238314Y-132649334D01*
X167293499Y-132482797D01*
X167304000Y-132380009D01*
X167303999Y-131779992D01*
X167297596Y-131717315D01*
X167293499Y-131677203D01*
X167293498Y-131677200D01*
X167265815Y-131593659D01*
X167238314Y-131510666D01*
X167146212Y-131361344D01*
X167022156Y-131237288D01*
X167019319Y-131235538D01*
X167017783Y-131233830D01*
X167016489Y-131232807D01*
X167016663Y-131232585D01*
X166972596Y-131183594D01*
X166961372Y-131114632D01*
X166989213Y-131050549D01*
X167019317Y-131024462D01*
X167022156Y-131022712D01*
X167146212Y-130898656D01*
X167182759Y-130839402D01*
X167234707Y-130792679D01*
X167288298Y-130780500D01*
X168183331Y-130780500D01*
X168183347Y-130780501D01*
X168190943Y-130780501D01*
X168349054Y-130780501D01*
X168349057Y-130780501D01*
X168501785Y-130739577D01*
X168551904Y-130710639D01*
X168638716Y-130660520D01*
X168750520Y-130548716D01*
X168750520Y-130548714D01*
X168760728Y-130538507D01*
X168760730Y-130538504D01*
X168928535Y-130370698D01*
X168989856Y-130337215D01*
X169002311Y-130335163D01*
X169089255Y-130325368D01*
X169259522Y-130265789D01*
X169412262Y-130169816D01*
X169539816Y-130042262D01*
X169635789Y-129889522D01*
X169695368Y-129719255D01*
X169696165Y-129712183D01*
X169715565Y-129540003D01*
X169715565Y-129539996D01*
X169695369Y-129360750D01*
X169695368Y-129360745D01*
X169658418Y-129255148D01*
X169635789Y-129190478D01*
X169635489Y-129190001D01*
X169546897Y-129049008D01*
X169539816Y-129037738D01*
X169412262Y-128910184D01*
X169399236Y-128901999D01*
X169259523Y-128814211D01*
X169089254Y-128754631D01*
X169089249Y-128754630D01*
X168910004Y-128734435D01*
X168909996Y-128734435D01*
X168730750Y-128754630D01*
X168730745Y-128754631D01*
X168560476Y-128814211D01*
X168407737Y-128910184D01*
X168280184Y-129037737D01*
X168184210Y-129190478D01*
X168124630Y-129360750D01*
X168114837Y-129447667D01*
X168087770Y-129512081D01*
X168079302Y-129521460D01*
X168057587Y-129543177D01*
X167996266Y-129576665D01*
X167969902Y-129579500D01*
X167288298Y-129579500D01*
X167221259Y-129559815D01*
X167182759Y-129520597D01*
X167182757Y-129520593D01*
X167146212Y-129461344D01*
X167022156Y-129337288D01*
X166872834Y-129245186D01*
X166706297Y-129190001D01*
X166706295Y-129190000D01*
X166603510Y-129179500D01*
X165553498Y-129179500D01*
X165553480Y-129179501D01*
X165450703Y-129190000D01*
X165450700Y-129190001D01*
X165284168Y-129245185D01*
X165284163Y-129245187D01*
X165134842Y-129337289D01*
X165010789Y-129461342D01*
X164998134Y-129481859D01*
X164979494Y-129512081D01*
X164974241Y-129520597D01*
X164922293Y-129567321D01*
X164868702Y-129579500D01*
X164387999Y-129579500D01*
X164320960Y-129559815D01*
X164275205Y-129507011D01*
X164265261Y-129437853D01*
X164271817Y-129412167D01*
X164306815Y-129318331D01*
X164314591Y-129297483D01*
X164321000Y-129237873D01*
X164320999Y-128442128D01*
X164314591Y-128382517D01*
X164300814Y-128345580D01*
X164264297Y-128247671D01*
X164264293Y-128247664D01*
X164178048Y-128132457D01*
X164178046Y-128132454D01*
X164178044Y-128132452D01*
X164178042Y-128132450D01*
X164150688Y-128111973D01*
X164108818Y-128056039D01*
X164101000Y-128012707D01*
X164101000Y-127390942D01*
X164093830Y-127364186D01*
X164093829Y-127364182D01*
X164082104Y-127320423D01*
X164060077Y-127238216D01*
X164055326Y-127229987D01*
X163981024Y-127101290D01*
X163981021Y-127101286D01*
X163981020Y-127101284D01*
X163869216Y-126989480D01*
X163869215Y-126989479D01*
X163864885Y-126985149D01*
X163864874Y-126985139D01*
X163861200Y-126981465D01*
X163827715Y-126920142D01*
X163825663Y-126907686D01*
X163815868Y-126820745D01*
X163756289Y-126650478D01*
X163660316Y-126497738D01*
X163532762Y-126370184D01*
X163449623Y-126317944D01*
X163380023Y-126274211D01*
X163209754Y-126214631D01*
X163209749Y-126214630D01*
X163030504Y-126194435D01*
X163030496Y-126194435D01*
X162851250Y-126214630D01*
X162851245Y-126214631D01*
X162680976Y-126274211D01*
X162528237Y-126370184D01*
X162400684Y-126497737D01*
X162400682Y-126497740D01*
X162373493Y-126541011D01*
X162321158Y-126587302D01*
X162252105Y-126597949D01*
X162188256Y-126569574D01*
X162163507Y-126541011D01*
X162136317Y-126497740D01*
X162136315Y-126497737D01*
X162008762Y-126370184D01*
X161856023Y-126274211D01*
X161685754Y-126214631D01*
X161685749Y-126214630D01*
X161506504Y-126194435D01*
X161506496Y-126194435D01*
X161327250Y-126214630D01*
X161327245Y-126214631D01*
X161156976Y-126274211D01*
X161004237Y-126370184D01*
X160876684Y-126497737D01*
X160780711Y-126650476D01*
X160721131Y-126820745D01*
X160721130Y-126820750D01*
X160700935Y-126999996D01*
X160700935Y-127000003D01*
X160721130Y-127179249D01*
X160721131Y-127179254D01*
X160780711Y-127349523D01*
X160856297Y-127469816D01*
X160876684Y-127502262D01*
X161004238Y-127629816D01*
X161156978Y-127725789D01*
X161327245Y-127785368D01*
X161414169Y-127795161D01*
X161478580Y-127822226D01*
X161487965Y-127830700D01*
X161769756Y-128112491D01*
X161803241Y-128173814D01*
X161798257Y-128243505D01*
X161746408Y-128382517D01*
X161740001Y-128442116D01*
X161740001Y-128442123D01*
X161740000Y-128442135D01*
X161740000Y-129237870D01*
X161740001Y-129237876D01*
X161746408Y-129297483D01*
X161789183Y-129412167D01*
X161794167Y-129481859D01*
X161760682Y-129543182D01*
X161699358Y-129576666D01*
X161673001Y-129579500D01*
X161192298Y-129579500D01*
X161125259Y-129559815D01*
X161086759Y-129520597D01*
X161086757Y-129520593D01*
X161050212Y-129461344D01*
X160926156Y-129337288D01*
X160776834Y-129245186D01*
X160610297Y-129190001D01*
X160610295Y-129190000D01*
X160507516Y-129179500D01*
X159724390Y-129179500D01*
X159657351Y-129159815D01*
X159611596Y-129107011D01*
X159601652Y-129037853D01*
X159619395Y-128989531D01*
X159692289Y-128873522D01*
X159751868Y-128703255D01*
X159772065Y-128524000D01*
X159770974Y-128514318D01*
X159751869Y-128344750D01*
X159751868Y-128344745D01*
X159721739Y-128258641D01*
X159692289Y-128174478D01*
X159681946Y-128158018D01*
X159637883Y-128087892D01*
X159596316Y-128021738D01*
X159468762Y-127894184D01*
X159403174Y-127852972D01*
X159316023Y-127798211D01*
X159145754Y-127738631D01*
X159145749Y-127738630D01*
X158966504Y-127718435D01*
X158966496Y-127718435D01*
X158787250Y-127738630D01*
X158787242Y-127738632D01*
X158618127Y-127797808D01*
X158548348Y-127801369D01*
X158487721Y-127766640D01*
X158455494Y-127704647D01*
X158461899Y-127635071D01*
X158489488Y-127593089D01*
X158580316Y-127502262D01*
X158676289Y-127349522D01*
X158735868Y-127179255D01*
X158735869Y-127179249D01*
X158756065Y-127000003D01*
X158756065Y-126999996D01*
X158735869Y-126820750D01*
X158735868Y-126820745D01*
X158679646Y-126660072D01*
X158676289Y-126650478D01*
X158580316Y-126497738D01*
X158452762Y-126370184D01*
X158369623Y-126317944D01*
X158300023Y-126274211D01*
X158129754Y-126214631D01*
X158129749Y-126214630D01*
X157950504Y-126194435D01*
X157950496Y-126194435D01*
X157771250Y-126214630D01*
X157771245Y-126214631D01*
X157600976Y-126274211D01*
X157448236Y-126370185D01*
X157445403Y-126372445D01*
X157443224Y-126373334D01*
X157442342Y-126373889D01*
X157442244Y-126373734D01*
X157380717Y-126398855D01*
X157368088Y-126399500D01*
X156413440Y-126399500D01*
X156372519Y-126410464D01*
X156372519Y-126410465D01*
X156335251Y-126420451D01*
X156260714Y-126440423D01*
X156260709Y-126440426D01*
X156123790Y-126519475D01*
X156123782Y-126519481D01*
X156011978Y-126631286D01*
X155379361Y-127263902D01*
X155318038Y-127297387D01*
X155279082Y-127299579D01*
X155268528Y-127298501D01*
X155268512Y-127298500D01*
X155268509Y-127298500D01*
X155268504Y-127298500D01*
X154668498Y-127298500D01*
X154668480Y-127298501D01*
X154565703Y-127309000D01*
X154565700Y-127309001D01*
X154399168Y-127364185D01*
X154399163Y-127364187D01*
X154249842Y-127456289D01*
X154125789Y-127580342D01*
X154033687Y-127729663D01*
X154033685Y-127729668D01*
X154005849Y-127813670D01*
X153978501Y-127896203D01*
X153978501Y-127896204D01*
X153978500Y-127896204D01*
X153968000Y-127998983D01*
X153968000Y-128980903D01*
X153948315Y-129047942D01*
X153895511Y-129093697D01*
X153826353Y-129103641D01*
X153762797Y-129074616D01*
X153756319Y-129068584D01*
X150145200Y-125457465D01*
X150111715Y-125396142D01*
X150109663Y-125383686D01*
X150099868Y-125296745D01*
X150040289Y-125126478D01*
X149944316Y-124973738D01*
X149816762Y-124846184D01*
X149664023Y-124750211D01*
X149493754Y-124690631D01*
X149493749Y-124690630D01*
X149314504Y-124670435D01*
X149314496Y-124670435D01*
X149135250Y-124690630D01*
X149135245Y-124690631D01*
X148964976Y-124750211D01*
X148812237Y-124846184D01*
X148684684Y-124973737D01*
X148588711Y-125126476D01*
X148529131Y-125296745D01*
X148529130Y-125296750D01*
X148508935Y-125475996D01*
X124325500Y-125475996D01*
X124325500Y-122427996D01*
X158160935Y-122427996D01*
X158160935Y-122428003D01*
X158181130Y-122607249D01*
X158181131Y-122607254D01*
X158240711Y-122777523D01*
X158316848Y-122898694D01*
X158336684Y-122930262D01*
X158464238Y-123057816D01*
X158616978Y-123153789D01*
X158743323Y-123197999D01*
X158787245Y-123213368D01*
X158787250Y-123213369D01*
X158966496Y-123233565D01*
X158966500Y-123233565D01*
X158966504Y-123233565D01*
X159145749Y-123213369D01*
X159145752Y-123213368D01*
X159145755Y-123213368D01*
X159316022Y-123153789D01*
X159468762Y-123057816D01*
X159468767Y-123057810D01*
X159471597Y-123055555D01*
X159473775Y-123054665D01*
X159474658Y-123054111D01*
X159474755Y-123054265D01*
X159536283Y-123029145D01*
X159548912Y-123028500D01*
X161098178Y-123028500D01*
X161165217Y-123048185D01*
X161210972Y-123100989D01*
X161221398Y-123138617D01*
X161229130Y-123207249D01*
X161288710Y-123377521D01*
X161290853Y-123380931D01*
X161384684Y-123530262D01*
X161512238Y-123657816D01*
X161664978Y-123753789D01*
X161829455Y-123811342D01*
X161835245Y-123813368D01*
X161835250Y-123813369D01*
X162014496Y-123833565D01*
X162014500Y-123833565D01*
X162014504Y-123833565D01*
X162193749Y-123813369D01*
X162193752Y-123813368D01*
X162193755Y-123813368D01*
X162364022Y-123753789D01*
X162516762Y-123657816D01*
X162644316Y-123530262D01*
X162740289Y-123377522D01*
X162799868Y-123207255D01*
X162805892Y-123153789D01*
X162820065Y-123028003D01*
X162820065Y-123027996D01*
X162799869Y-122848750D01*
X162799868Y-122848745D01*
X162740288Y-122678476D01*
X162695533Y-122607249D01*
X162644316Y-122525738D01*
X162516762Y-122398184D01*
X162364021Y-122302210D01*
X162193749Y-122242630D01*
X162106830Y-122232837D01*
X162042416Y-122205770D01*
X162033033Y-122197298D01*
X161902090Y-122066355D01*
X161902088Y-122066352D01*
X161783217Y-121947481D01*
X161783209Y-121947475D01*
X161681436Y-121888717D01*
X161681434Y-121888716D01*
X161646290Y-121868425D01*
X161646289Y-121868424D01*
X161633763Y-121865067D01*
X161493557Y-121827499D01*
X161335443Y-121827499D01*
X161327847Y-121827499D01*
X161327831Y-121827500D01*
X159548912Y-121827500D01*
X159481873Y-121807815D01*
X159471597Y-121800445D01*
X159468763Y-121798185D01*
X159468762Y-121798184D01*
X159336535Y-121715100D01*
X159316023Y-121702211D01*
X159145754Y-121642631D01*
X159145749Y-121642630D01*
X158966504Y-121622435D01*
X158966496Y-121622435D01*
X158787250Y-121642630D01*
X158787245Y-121642631D01*
X158616976Y-121702211D01*
X158464237Y-121798184D01*
X158336684Y-121925737D01*
X158240711Y-122078476D01*
X158181131Y-122248745D01*
X158181130Y-122248750D01*
X158160935Y-122427996D01*
X124325500Y-122427996D01*
X124325500Y-111764983D01*
X132819500Y-111764983D01*
X132819500Y-113065001D01*
X132819501Y-113065018D01*
X132830000Y-113167796D01*
X132830001Y-113167799D01*
X132885185Y-113334331D01*
X132885187Y-113334336D01*
X132920069Y-113390888D01*
X132962165Y-113459138D01*
X132977289Y-113483657D01*
X133101344Y-113607712D01*
X133256120Y-113703178D01*
X133302845Y-113755126D01*
X133314068Y-113824088D01*
X133286224Y-113888171D01*
X133278706Y-113896398D01*
X133139889Y-114035215D01*
X133014951Y-114207179D01*
X132918444Y-114396585D01*
X132852753Y-114598760D01*
X132819500Y-114808713D01*
X132819500Y-115021286D01*
X132852753Y-115231239D01*
X132918444Y-115433414D01*
X133014951Y-115622820D01*
X133139890Y-115794786D01*
X133290213Y-115945109D01*
X133462179Y-116070048D01*
X133462181Y-116070049D01*
X133462184Y-116070051D01*
X133651588Y-116166557D01*
X133853757Y-116232246D01*
X134063713Y-116265500D01*
X134063714Y-116265500D01*
X134576286Y-116265500D01*
X134576287Y-116265500D01*
X134786243Y-116232246D01*
X134988412Y-116166557D01*
X135177816Y-116070051D01*
X135299009Y-115982000D01*
X135349786Y-115945109D01*
X135349788Y-115945106D01*
X135349792Y-115945104D01*
X135500104Y-115794792D01*
X135500106Y-115794788D01*
X135500109Y-115794786D01*
X135625048Y-115622820D01*
X135625047Y-115622820D01*
X135625051Y-115622816D01*
X135721557Y-115433412D01*
X135787246Y-115231243D01*
X135820500Y-115021287D01*
X135820500Y-114808713D01*
X135807571Y-114727083D01*
X154309498Y-114727083D01*
X154350423Y-114879814D01*
X154379358Y-114929929D01*
X154379359Y-114929933D01*
X154379360Y-114929933D01*
X154429479Y-115016743D01*
X154429481Y-115016746D01*
X154548349Y-115135614D01*
X154548354Y-115135618D01*
X160543255Y-121130520D01*
X160680186Y-121209577D01*
X160832914Y-121250501D01*
X160832917Y-121250501D01*
X160998625Y-121250501D01*
X160998641Y-121250500D01*
X161342588Y-121250500D01*
X161409627Y-121270185D01*
X161419903Y-121277555D01*
X161422736Y-121279814D01*
X161422738Y-121279816D01*
X161536270Y-121351152D01*
X161570243Y-121372500D01*
X161575478Y-121375789D01*
X161745745Y-121435368D01*
X161745750Y-121435369D01*
X161924996Y-121455565D01*
X161925000Y-121455565D01*
X161925004Y-121455565D01*
X162104249Y-121435369D01*
X162104252Y-121435368D01*
X162104255Y-121435368D01*
X162274522Y-121375789D01*
X162427262Y-121279816D01*
X162554816Y-121152262D01*
X162650789Y-120999522D01*
X162710368Y-120829255D01*
X162716409Y-120775639D01*
X162730565Y-120650003D01*
X162730565Y-120649996D01*
X162710369Y-120470750D01*
X162710368Y-120470745D01*
X162693154Y-120421550D01*
X162650789Y-120300478D01*
X162633616Y-120273148D01*
X162611582Y-120238080D01*
X162554816Y-120147738D01*
X162427262Y-120020184D01*
X162416117Y-120013181D01*
X162274523Y-119924211D01*
X162104254Y-119864631D01*
X162104249Y-119864630D01*
X161925004Y-119844435D01*
X161924996Y-119844435D01*
X161745750Y-119864630D01*
X161745745Y-119864631D01*
X161575476Y-119924211D01*
X161422736Y-120020185D01*
X161419903Y-120022445D01*
X161417724Y-120023334D01*
X161416842Y-120023889D01*
X161416744Y-120023734D01*
X161355217Y-120048855D01*
X161342588Y-120049500D01*
X161212069Y-120049500D01*
X161145030Y-120029815D01*
X161124388Y-120013181D01*
X158625530Y-117514323D01*
X163474414Y-117514323D01*
X163474414Y-117514330D01*
X163494609Y-117693576D01*
X163494610Y-117693581D01*
X163554190Y-117863850D01*
X163631570Y-117986999D01*
X163650163Y-118016589D01*
X163777717Y-118144143D01*
X163930457Y-118240116D01*
X163988334Y-118260368D01*
X164100724Y-118299695D01*
X164100729Y-118299696D01*
X164279975Y-118319892D01*
X164279979Y-118319892D01*
X164279983Y-118319892D01*
X164459228Y-118299696D01*
X164459231Y-118299695D01*
X164459234Y-118299695D01*
X164629501Y-118240116D01*
X164782241Y-118144143D01*
X164909795Y-118016589D01*
X165005768Y-117863849D01*
X165065347Y-117693582D01*
X165075140Y-117606656D01*
X165102205Y-117542245D01*
X165110669Y-117532870D01*
X168141083Y-114502456D01*
X168202404Y-114468973D01*
X168242644Y-114466919D01*
X168275000Y-114470565D01*
X168275000Y-114470564D01*
X168275001Y-114470565D01*
X168275003Y-114470565D01*
X168454249Y-114450369D01*
X168454252Y-114450368D01*
X168454255Y-114450368D01*
X168624522Y-114390789D01*
X168777262Y-114294816D01*
X168904816Y-114167262D01*
X169000789Y-114014522D01*
X169060368Y-113844255D01*
X169060369Y-113844249D01*
X169080565Y-113665003D01*
X169080565Y-113664996D01*
X169060369Y-113485750D01*
X169060366Y-113485737D01*
X169013772Y-113352579D01*
X169010210Y-113282800D01*
X169044938Y-113222173D01*
X169106932Y-113189945D01*
X169144694Y-113188404D01*
X169198344Y-113194449D01*
X169225998Y-113197565D01*
X169226000Y-113197565D01*
X169226004Y-113197565D01*
X169405249Y-113177369D01*
X169405252Y-113177368D01*
X169405255Y-113177368D01*
X169575522Y-113117789D01*
X169598252Y-113103507D01*
X169664225Y-113084500D01*
X175719331Y-113084500D01*
X175719347Y-113084501D01*
X175726943Y-113084501D01*
X175885054Y-113084501D01*
X175885057Y-113084501D01*
X176037785Y-113043577D01*
X176105128Y-113004696D01*
X176174716Y-112964520D01*
X176286520Y-112852716D01*
X176286520Y-112852714D01*
X176296724Y-112842511D01*
X176296727Y-112842506D01*
X180450321Y-108688913D01*
X180511642Y-108655430D01*
X180581334Y-108660414D01*
X180637267Y-108702286D01*
X180661684Y-108767750D01*
X180662000Y-108776596D01*
X180662000Y-112019698D01*
X180642315Y-112086737D01*
X180589511Y-112132492D01*
X180577005Y-112137404D01*
X180493165Y-112165186D01*
X180493162Y-112165187D01*
X180343842Y-112257289D01*
X180219789Y-112381342D01*
X180127687Y-112530662D01*
X180127685Y-112530667D01*
X180119291Y-112556000D01*
X180072501Y-112697202D01*
X180072501Y-112697203D01*
X180072500Y-112697203D01*
X180062000Y-112799982D01*
X180062000Y-114708993D01*
X180057775Y-114741086D01*
X180026999Y-114855943D01*
X180026999Y-115024046D01*
X180027000Y-115024059D01*
X180027000Y-117063033D01*
X180007315Y-117130072D01*
X179954511Y-117175827D01*
X179885353Y-117185771D01*
X179821797Y-117156746D01*
X179798007Y-117129006D01*
X179699817Y-116972739D01*
X179572262Y-116845184D01*
X179419523Y-116749211D01*
X179249254Y-116689631D01*
X179249249Y-116689630D01*
X179070004Y-116669435D01*
X179069996Y-116669435D01*
X178890750Y-116689630D01*
X178890745Y-116689631D01*
X178720476Y-116749211D01*
X178567737Y-116845184D01*
X178564903Y-116847445D01*
X178562724Y-116848334D01*
X178561842Y-116848889D01*
X178561744Y-116848734D01*
X178500216Y-116873854D01*
X178487589Y-116874499D01*
X178438442Y-116874499D01*
X178331086Y-116903265D01*
X178285709Y-116915424D01*
X178285708Y-116915425D01*
X178250565Y-116935716D01*
X178250563Y-116935717D01*
X178148789Y-116994475D01*
X178148781Y-116994481D01*
X178080230Y-117063033D01*
X178036979Y-117106284D01*
X178036977Y-117106286D01*
X177601019Y-117542245D01*
X177192584Y-117950680D01*
X177131261Y-117984165D01*
X177104903Y-117986999D01*
X176289298Y-117986999D01*
X176252432Y-117989900D01*
X176252426Y-117989901D01*
X176094606Y-118035753D01*
X176094603Y-118035754D01*
X175953137Y-118119416D01*
X175953129Y-118119422D01*
X175836923Y-118235628D01*
X175836917Y-118235636D01*
X175753255Y-118377102D01*
X175753254Y-118377105D01*
X175707402Y-118534925D01*
X175707401Y-118534931D01*
X175704500Y-118571797D01*
X175704500Y-119003200D01*
X175707401Y-119040066D01*
X175707402Y-119040072D01*
X175753254Y-119197892D01*
X175753255Y-119197895D01*
X175753256Y-119197897D01*
X175790681Y-119261180D01*
X175836917Y-119339361D01*
X175841702Y-119345530D01*
X175839369Y-119347339D01*
X175866210Y-119396494D01*
X175861226Y-119466186D01*
X175840470Y-119498520D01*
X175842097Y-119499782D01*
X175837313Y-119505948D01*
X175753717Y-119647302D01*
X175753716Y-119647305D01*
X175707900Y-119805003D01*
X175707899Y-119805009D01*
X175705000Y-119841849D01*
X175705000Y-120273148D01*
X175707899Y-120309988D01*
X175707900Y-120309994D01*
X175753716Y-120467692D01*
X175753717Y-120467695D01*
X175837314Y-120609051D01*
X175842100Y-120615221D01*
X175839640Y-120617128D01*
X175866210Y-120665787D01*
X175861226Y-120735479D01*
X175840162Y-120768280D01*
X175841699Y-120769473D01*
X175836915Y-120775639D01*
X175753255Y-120917102D01*
X175753254Y-120917105D01*
X175707402Y-121074925D01*
X175707401Y-121074931D01*
X175704500Y-121111797D01*
X175704500Y-121543200D01*
X175707401Y-121580066D01*
X175707402Y-121580072D01*
X175753254Y-121737892D01*
X175753255Y-121737895D01*
X175753256Y-121737897D01*
X175794605Y-121807815D01*
X175795825Y-121809877D01*
X175813008Y-121877601D01*
X175790848Y-121943863D01*
X175736382Y-121987627D01*
X175689093Y-121996998D01*
X175653443Y-121996998D01*
X175546087Y-122025764D01*
X175500710Y-122037923D01*
X175500709Y-122037924D01*
X175450596Y-122066858D01*
X175450595Y-122066859D01*
X175407189Y-122091919D01*
X175363785Y-122116978D01*
X175363782Y-122116980D01*
X173711981Y-123768781D01*
X173711980Y-123768783D01*
X173674579Y-123833565D01*
X173661861Y-123855593D01*
X173661859Y-123855595D01*
X173632925Y-123905708D01*
X173632924Y-123905709D01*
X173632923Y-123905714D01*
X173591999Y-124058442D01*
X173591999Y-124058444D01*
X173591999Y-124226545D01*
X173592000Y-124226558D01*
X173592000Y-127793330D01*
X173591999Y-127793348D01*
X173591999Y-127959054D01*
X173591998Y-127959054D01*
X173612616Y-128036000D01*
X173632923Y-128111785D01*
X173659616Y-128158018D01*
X173661858Y-128161900D01*
X173661859Y-128161904D01*
X173661860Y-128161904D01*
X173708971Y-128243505D01*
X173711979Y-128248714D01*
X173711981Y-128248717D01*
X173830849Y-128367585D01*
X173830854Y-128367589D01*
X175846283Y-130383019D01*
X175846285Y-130383020D01*
X175846289Y-130383023D01*
X175980447Y-130460478D01*
X175983215Y-130462076D01*
X176135942Y-130503000D01*
X176135944Y-130503000D01*
X176301653Y-130503000D01*
X176301669Y-130502999D01*
X178495202Y-130502999D01*
X178562241Y-130522684D01*
X178600739Y-130561900D01*
X178637288Y-130621155D01*
X178761344Y-130745211D01*
X178764628Y-130747236D01*
X178764653Y-130747252D01*
X178766445Y-130749245D01*
X178767011Y-130749692D01*
X178766934Y-130749788D01*
X178811379Y-130799198D01*
X178822603Y-130868160D01*
X178794761Y-130932243D01*
X178764665Y-130958325D01*
X178761660Y-130960178D01*
X178761655Y-130960182D01*
X178637684Y-131084153D01*
X178545643Y-131233374D01*
X178545641Y-131233379D01*
X178490494Y-131399801D01*
X178490493Y-131399808D01*
X178480000Y-131502512D01*
X178480000Y-132102470D01*
X178480001Y-132102486D01*
X178490494Y-132205196D01*
X178545641Y-132371618D01*
X178545643Y-132371623D01*
X178637684Y-132520844D01*
X178761654Y-132644814D01*
X178910875Y-132736855D01*
X178910880Y-132736857D01*
X179077302Y-132792004D01*
X179077309Y-132792005D01*
X179180019Y-132802498D01*
X180229971Y-132802498D01*
X180229987Y-132802497D01*
X180332697Y-132792004D01*
X180499119Y-132736857D01*
X180499124Y-132736855D01*
X180648345Y-132644814D01*
X180772315Y-132520844D01*
X180864356Y-132371623D01*
X180864358Y-132371618D01*
X180919505Y-132205196D01*
X180919506Y-132205189D01*
X180929999Y-132102485D01*
X180929999Y-131502527D01*
X180929998Y-131502511D01*
X180919505Y-131399801D01*
X180864358Y-131233379D01*
X180864356Y-131233374D01*
X180772315Y-131084153D01*
X180648344Y-130960182D01*
X180648341Y-130960180D01*
X180645339Y-130958328D01*
X180643713Y-130956520D01*
X180642677Y-130955701D01*
X180642817Y-130955523D01*
X180598617Y-130906379D01*
X180587397Y-130837416D01*
X180615243Y-130773335D01*
X180645344Y-130747253D01*
X180648656Y-130745211D01*
X180772712Y-130621155D01*
X180864814Y-130471833D01*
X180919999Y-130305296D01*
X180930500Y-130202508D01*
X180930499Y-129602491D01*
X180928150Y-129579500D01*
X180926043Y-129558877D01*
X180919999Y-129499702D01*
X180919997Y-129499696D01*
X180918582Y-129493085D01*
X180920049Y-129492770D01*
X180917920Y-129430850D01*
X180918254Y-129429579D01*
X180922920Y-129412167D01*
X180940501Y-129346556D01*
X180940501Y-129188441D01*
X180940501Y-129180846D01*
X180940500Y-129180828D01*
X180940500Y-128549624D01*
X180960185Y-128482585D01*
X181012989Y-128436830D01*
X181082147Y-128426886D01*
X181099087Y-128430546D01*
X181252431Y-128475097D01*
X181289306Y-128477999D01*
X182104903Y-128477999D01*
X182171942Y-128497684D01*
X182192584Y-128514318D01*
X183340131Y-129661865D01*
X183373616Y-129723188D01*
X183368632Y-129792880D01*
X183357989Y-129814642D01*
X183332690Y-129855659D01*
X183332685Y-129855668D01*
X183304849Y-129939670D01*
X183277501Y-130022203D01*
X183277501Y-130022204D01*
X183277500Y-130022204D01*
X183267000Y-130124983D01*
X183267000Y-131175001D01*
X183267001Y-131175019D01*
X183277500Y-131277796D01*
X183277501Y-131277799D01*
X183320318Y-131407011D01*
X183332686Y-131444334D01*
X183424788Y-131593656D01*
X183548844Y-131717712D01*
X183698166Y-131809814D01*
X183864703Y-131864999D01*
X183967491Y-131875500D01*
X184567508Y-131875499D01*
X184567516Y-131875498D01*
X184567519Y-131875498D01*
X184623802Y-131869748D01*
X184670297Y-131864999D01*
X184836834Y-131809814D01*
X184986156Y-131717712D01*
X185110212Y-131593656D01*
X185112252Y-131590347D01*
X185114245Y-131588555D01*
X185114693Y-131587989D01*
X185114789Y-131588065D01*
X185164194Y-131543623D01*
X185233156Y-131532395D01*
X185297240Y-131560234D01*
X185323329Y-131590339D01*
X185325181Y-131593341D01*
X185325183Y-131593344D01*
X185449154Y-131717315D01*
X185598375Y-131809356D01*
X185598380Y-131809358D01*
X185764802Y-131864505D01*
X185764809Y-131864506D01*
X185867519Y-131874999D01*
X186467471Y-131874999D01*
X186467487Y-131874998D01*
X186570197Y-131864505D01*
X186736619Y-131809358D01*
X186736624Y-131809356D01*
X186885845Y-131717315D01*
X187009815Y-131593345D01*
X187101856Y-131444124D01*
X187101858Y-131444119D01*
X187157005Y-131277697D01*
X187157006Y-131277690D01*
X187167499Y-131174986D01*
X187167499Y-130125019D01*
X187167498Y-130125012D01*
X187157005Y-130022302D01*
X187101858Y-129855880D01*
X187101856Y-129855875D01*
X187009815Y-129706654D01*
X186885845Y-129582684D01*
X186736624Y-129490643D01*
X186736619Y-129490641D01*
X186570197Y-129435494D01*
X186570190Y-129435493D01*
X186467480Y-129425000D01*
X185867528Y-129425000D01*
X185867512Y-129425001D01*
X185764802Y-129435494D01*
X185598380Y-129490641D01*
X185598375Y-129490643D01*
X185449154Y-129582684D01*
X185325183Y-129706655D01*
X185325179Y-129706660D01*
X185323326Y-129709665D01*
X185321518Y-129711290D01*
X185320702Y-129712323D01*
X185320525Y-129712183D01*
X185271374Y-129756385D01*
X185202411Y-129767601D01*
X185138331Y-129739752D01*
X185112253Y-129709653D01*
X185112237Y-129709628D01*
X185110212Y-129706344D01*
X184986156Y-129582288D01*
X184836834Y-129490186D01*
X184836833Y-129490185D01*
X184832155Y-129487300D01*
X184789865Y-129443760D01*
X184748024Y-129371289D01*
X184748021Y-129371285D01*
X184748020Y-129371283D01*
X184636216Y-129259479D01*
X184636215Y-129259478D01*
X184631885Y-129255148D01*
X184631874Y-129255138D01*
X183653363Y-128276627D01*
X183619878Y-128215304D01*
X183624862Y-128145612D01*
X183634306Y-128125835D01*
X183656744Y-128087897D01*
X183694177Y-127959054D01*
X183702597Y-127930072D01*
X183702598Y-127930066D01*
X183702603Y-127929999D01*
X183705500Y-127893193D01*
X183705500Y-127461805D01*
X183702598Y-127424930D01*
X183692723Y-127390942D01*
X183656745Y-127267105D01*
X183656744Y-127267102D01*
X183656744Y-127267101D01*
X183573081Y-127125634D01*
X183573078Y-127125631D01*
X183568298Y-127119468D01*
X183570750Y-127117565D01*
X183544155Y-127068920D01*
X183549104Y-126999225D01*
X183569940Y-126966803D01*
X183568298Y-126965530D01*
X183573075Y-126959369D01*
X183573081Y-126959364D01*
X183656744Y-126817897D01*
X183702598Y-126660068D01*
X183705500Y-126623193D01*
X183705500Y-126191805D01*
X183702598Y-126154930D01*
X183699194Y-126143214D01*
X183656745Y-125997105D01*
X183656744Y-125997102D01*
X183656744Y-125997101D01*
X183573081Y-125855634D01*
X183573078Y-125855631D01*
X183568298Y-125849468D01*
X183570750Y-125847565D01*
X183544155Y-125798920D01*
X183549104Y-125729225D01*
X183569940Y-125696803D01*
X183568298Y-125695530D01*
X183573076Y-125689368D01*
X183573081Y-125689364D01*
X183656744Y-125547897D01*
X183656747Y-125547883D01*
X183657189Y-125546866D01*
X183658459Y-125544995D01*
X183660716Y-125541181D01*
X183660955Y-125541322D01*
X183683321Y-125508412D01*
X183685519Y-125506215D01*
X183685519Y-125506213D01*
X183695720Y-125496014D01*
X183695727Y-125496004D01*
X183863506Y-125328226D01*
X183863511Y-125328222D01*
X183873714Y-125318018D01*
X183873716Y-125318018D01*
X183985520Y-125206214D01*
X184064577Y-125069282D01*
X184100098Y-124936717D01*
X184105500Y-124916556D01*
X184105500Y-124758441D01*
X184105500Y-123683729D01*
X184125185Y-123616690D01*
X184177989Y-123570935D01*
X184247147Y-123560991D01*
X184310703Y-123590016D01*
X184317181Y-123596048D01*
X184386344Y-123665211D01*
X184535666Y-123757313D01*
X184702203Y-123812498D01*
X184804991Y-123822999D01*
X185405008Y-123822998D01*
X185415576Y-123821918D01*
X185484268Y-123834686D01*
X185515861Y-123857595D01*
X187752640Y-126094374D01*
X187752650Y-126094385D01*
X187756980Y-126098715D01*
X187756981Y-126098716D01*
X187848182Y-126189917D01*
X187881666Y-126251238D01*
X187884500Y-126277597D01*
X187884500Y-127230017D01*
X187895000Y-127332796D01*
X187950185Y-127499332D01*
X187950187Y-127499337D01*
X187951991Y-127502262D01*
X188042288Y-127648656D01*
X188166344Y-127772712D01*
X188315665Y-127864814D01*
X188482202Y-127919999D01*
X188584990Y-127930500D01*
X188584995Y-127930500D01*
X189585005Y-127930500D01*
X189585010Y-127930500D01*
X189687798Y-127919999D01*
X189854335Y-127864814D01*
X190003656Y-127772712D01*
X190127712Y-127648656D01*
X190219814Y-127499335D01*
X190274999Y-127332798D01*
X190285500Y-127230010D01*
X190285500Y-124230013D01*
X191985000Y-124230013D01*
X191985000Y-127229971D01*
X191985001Y-127229987D01*
X191995494Y-127332696D01*
X191995494Y-127332698D01*
X192050640Y-127499119D01*
X192050645Y-127499130D01*
X192142680Y-127648340D01*
X192142683Y-127648344D01*
X192266655Y-127772316D01*
X192266659Y-127772319D01*
X192415869Y-127864354D01*
X192415880Y-127864359D01*
X192582302Y-127919505D01*
X192685020Y-127929999D01*
X193684971Y-127929999D01*
X193684987Y-127929998D01*
X193787696Y-127919505D01*
X193787698Y-127919505D01*
X193954119Y-127864359D01*
X193954130Y-127864354D01*
X194103340Y-127772319D01*
X194103344Y-127772316D01*
X194227316Y-127648344D01*
X194227319Y-127648340D01*
X194319354Y-127499130D01*
X194319359Y-127499119D01*
X194374505Y-127332697D01*
X194384999Y-127229986D01*
X194384999Y-124230028D01*
X194384998Y-124230012D01*
X194374505Y-124127303D01*
X194374505Y-124127301D01*
X194319359Y-123960880D01*
X194319354Y-123960869D01*
X194227319Y-123811659D01*
X194227316Y-123811655D01*
X194103344Y-123687683D01*
X194103340Y-123687680D01*
X193954130Y-123595645D01*
X193954119Y-123595640D01*
X193787697Y-123540494D01*
X193684979Y-123530000D01*
X192685028Y-123530000D01*
X192685012Y-123530001D01*
X192582303Y-123540494D01*
X192582301Y-123540494D01*
X192415880Y-123595640D01*
X192415869Y-123595645D01*
X192266659Y-123687680D01*
X192266655Y-123687683D01*
X192142683Y-123811655D01*
X192142680Y-123811659D01*
X192050645Y-123960869D01*
X192050640Y-123960880D01*
X191995494Y-124127302D01*
X191985000Y-124230013D01*
X190285500Y-124230013D01*
X190285500Y-124229990D01*
X190274999Y-124127202D01*
X190219814Y-123960665D01*
X190127712Y-123811344D01*
X190003656Y-123687288D01*
X189855733Y-123596048D01*
X189854337Y-123595187D01*
X189854332Y-123595185D01*
X189781150Y-123570935D01*
X189687798Y-123540001D01*
X189687796Y-123540000D01*
X189585017Y-123529500D01*
X189585010Y-123529500D01*
X188584990Y-123529500D01*
X188584982Y-123529500D01*
X188482203Y-123540000D01*
X188482202Y-123540001D01*
X188399669Y-123567349D01*
X188315667Y-123595185D01*
X188315662Y-123595187D01*
X188166342Y-123687289D01*
X188042289Y-123811342D01*
X187950187Y-123960662D01*
X187950185Y-123960667D01*
X187945765Y-123974006D01*
X187895001Y-124127202D01*
X187895001Y-124127203D01*
X187895000Y-124127203D01*
X187884500Y-124229982D01*
X187884340Y-124233138D01*
X187884179Y-124233129D01*
X187884179Y-124233131D01*
X187884155Y-124233128D01*
X187883127Y-124233076D01*
X187864815Y-124295441D01*
X187812011Y-124341196D01*
X187742853Y-124351140D01*
X187679297Y-124322115D01*
X187672819Y-124316083D01*
X187370367Y-124013631D01*
X187336882Y-123952308D01*
X187341866Y-123882616D01*
X187383738Y-123826683D01*
X187419044Y-123808244D01*
X187574119Y-123756857D01*
X187574124Y-123756855D01*
X187723345Y-123664814D01*
X187847315Y-123540844D01*
X187939356Y-123391623D01*
X187939358Y-123391618D01*
X187994505Y-123225196D01*
X187994506Y-123225189D01*
X188004999Y-123122485D01*
X188004999Y-122072527D01*
X188004998Y-122072511D01*
X187994505Y-121969801D01*
X187939358Y-121803379D01*
X187939356Y-121803374D01*
X187847315Y-121654153D01*
X187723345Y-121530183D01*
X187574124Y-121438142D01*
X187574119Y-121438140D01*
X187407697Y-121382993D01*
X187407690Y-121382992D01*
X187304980Y-121372499D01*
X186705028Y-121372499D01*
X186705012Y-121372500D01*
X186602302Y-121382993D01*
X186435880Y-121438140D01*
X186435875Y-121438142D01*
X186286654Y-121530183D01*
X186162683Y-121654154D01*
X186162679Y-121654159D01*
X186160826Y-121657164D01*
X186159018Y-121658789D01*
X186158202Y-121659822D01*
X186158025Y-121659682D01*
X186108874Y-121703884D01*
X186039911Y-121715100D01*
X185975831Y-121687251D01*
X185949753Y-121657152D01*
X185949737Y-121657127D01*
X185947712Y-121653843D01*
X185823656Y-121529787D01*
X185674334Y-121437685D01*
X185507797Y-121382500D01*
X185507795Y-121382499D01*
X185405010Y-121371999D01*
X184804998Y-121371999D01*
X184804980Y-121372000D01*
X184702203Y-121382499D01*
X184702200Y-121382500D01*
X184535668Y-121437684D01*
X184535663Y-121437686D01*
X184386342Y-121529788D01*
X184262289Y-121653841D01*
X184170187Y-121803162D01*
X184170185Y-121803167D01*
X184134121Y-121912003D01*
X184094348Y-121969448D01*
X184029833Y-121996271D01*
X184016415Y-121996999D01*
X183720907Y-121996999D01*
X183653868Y-121977314D01*
X183608113Y-121924510D01*
X183598169Y-121855352D01*
X183614175Y-121809879D01*
X183635973Y-121773017D01*
X183656744Y-121737897D01*
X183702598Y-121580068D01*
X183705500Y-121543193D01*
X183705500Y-121111805D01*
X183702598Y-121074930D01*
X183702597Y-121074928D01*
X183702597Y-121074925D01*
X183656745Y-120917105D01*
X183656744Y-120917102D01*
X183656744Y-120917101D01*
X183573081Y-120775634D01*
X183573078Y-120775631D01*
X183568298Y-120769468D01*
X183570635Y-120767654D01*
X183543798Y-120718549D01*
X183548756Y-120648855D01*
X183569554Y-120616497D01*
X183567903Y-120615216D01*
X183572686Y-120609049D01*
X183656282Y-120467695D01*
X183656283Y-120467692D01*
X183702099Y-120309994D01*
X183702100Y-120309988D01*
X183704999Y-120273148D01*
X183705000Y-120273133D01*
X183705000Y-119841864D01*
X183704999Y-119841849D01*
X183702100Y-119805009D01*
X183702099Y-119805003D01*
X183656283Y-119647305D01*
X183656282Y-119647302D01*
X183572685Y-119505946D01*
X183567900Y-119499777D01*
X183570366Y-119497863D01*
X183543802Y-119449275D01*
X183548749Y-119379581D01*
X183569856Y-119346731D01*
X183568301Y-119345525D01*
X183573077Y-119339367D01*
X183573081Y-119339364D01*
X183656744Y-119197897D01*
X183702598Y-119040068D01*
X183705500Y-119003193D01*
X183705500Y-118571805D01*
X183702598Y-118534930D01*
X183702597Y-118534928D01*
X183702597Y-118534925D01*
X183656745Y-118377105D01*
X183656744Y-118377102D01*
X183656744Y-118377101D01*
X183573081Y-118235634D01*
X183573079Y-118235632D01*
X183573076Y-118235628D01*
X183456870Y-118119422D01*
X183456862Y-118119416D01*
X183315396Y-118035754D01*
X183315393Y-118035753D01*
X183157573Y-117989901D01*
X183157567Y-117989900D01*
X183120701Y-117986999D01*
X183120694Y-117986999D01*
X181352000Y-117986999D01*
X181284961Y-117967314D01*
X181239206Y-117914510D01*
X181228000Y-117862999D01*
X181228000Y-116624500D01*
X181247685Y-116557461D01*
X181300489Y-116511706D01*
X181352000Y-116500500D01*
X181762505Y-116500500D01*
X181762510Y-116500500D01*
X181865298Y-116489999D01*
X182031835Y-116434814D01*
X182181156Y-116342712D01*
X182305212Y-116218656D01*
X182397314Y-116069335D01*
X182452499Y-115902798D01*
X182463000Y-115800010D01*
X182463000Y-112800013D01*
X184162500Y-112800013D01*
X184162500Y-115799971D01*
X184162501Y-115799987D01*
X184172994Y-115902696D01*
X184172994Y-115902698D01*
X184228140Y-116069119D01*
X184228145Y-116069130D01*
X184320180Y-116218340D01*
X184320183Y-116218344D01*
X184444155Y-116342316D01*
X184444159Y-116342319D01*
X184593369Y-116434354D01*
X184593380Y-116434359D01*
X184759802Y-116489505D01*
X184862520Y-116499999D01*
X185862471Y-116499999D01*
X185862487Y-116499998D01*
X185965196Y-116489505D01*
X185965198Y-116489505D01*
X186131619Y-116434359D01*
X186131630Y-116434354D01*
X186280840Y-116342319D01*
X186280844Y-116342316D01*
X186404816Y-116218344D01*
X186404819Y-116218340D01*
X186496854Y-116069130D01*
X186496859Y-116069119D01*
X186552005Y-115902697D01*
X186562499Y-115799986D01*
X186562499Y-113664999D01*
X191926249Y-113664999D01*
X191926249Y-113665000D01*
X191945212Y-113869646D01*
X192001459Y-114067336D01*
X192093070Y-114251314D01*
X192216929Y-114415331D01*
X192368813Y-114553790D01*
X192543557Y-114661988D01*
X192543558Y-114661989D01*
X192735205Y-114736232D01*
X192937238Y-114774000D01*
X193142762Y-114774000D01*
X193344794Y-114736232D01*
X193536441Y-114661989D01*
X193536442Y-114661988D01*
X193711186Y-114553790D01*
X193863070Y-114415331D01*
X193986929Y-114251314D01*
X194078540Y-114067336D01*
X194134787Y-113869646D01*
X194153751Y-113665000D01*
X194153751Y-113664999D01*
X194134787Y-113460353D01*
X194078540Y-113262663D01*
X193986929Y-113078685D01*
X193863070Y-112914668D01*
X193711186Y-112776209D01*
X193536442Y-112668011D01*
X193536441Y-112668010D01*
X193344794Y-112593767D01*
X193142762Y-112556000D01*
X192937238Y-112556000D01*
X192735205Y-112593767D01*
X192543558Y-112668010D01*
X192543557Y-112668011D01*
X192368813Y-112776209D01*
X192216929Y-112914668D01*
X192093070Y-113078685D01*
X192001459Y-113262663D01*
X191945212Y-113460353D01*
X191926249Y-113664999D01*
X186562499Y-113664999D01*
X186562499Y-112800028D01*
X186562498Y-112800012D01*
X186552005Y-112697303D01*
X186552005Y-112697301D01*
X186496859Y-112530880D01*
X186496854Y-112530869D01*
X186404819Y-112381659D01*
X186404816Y-112381655D01*
X186280844Y-112257683D01*
X186280840Y-112257680D01*
X186131630Y-112165645D01*
X186131619Y-112165640D01*
X185965197Y-112110494D01*
X185862479Y-112100000D01*
X184862528Y-112100000D01*
X184862512Y-112100001D01*
X184759803Y-112110494D01*
X184759801Y-112110494D01*
X184593380Y-112165640D01*
X184593369Y-112165645D01*
X184444159Y-112257680D01*
X184444155Y-112257683D01*
X184320183Y-112381655D01*
X184320180Y-112381659D01*
X184228145Y-112530869D01*
X184228140Y-112530880D01*
X184172994Y-112697302D01*
X184162500Y-112800013D01*
X182463000Y-112800013D01*
X182463000Y-112799990D01*
X182452499Y-112697202D01*
X182397314Y-112530665D01*
X182305212Y-112381344D01*
X182181156Y-112257288D01*
X182082953Y-112196716D01*
X182031837Y-112165187D01*
X182031836Y-112165186D01*
X182031835Y-112165186D01*
X181970731Y-112144938D01*
X181947995Y-112137404D01*
X181890550Y-112097631D01*
X181863728Y-112033114D01*
X181863000Y-112019698D01*
X181863000Y-111124999D01*
X189385747Y-111124999D01*
X189385747Y-111125000D01*
X189404718Y-111329742D01*
X189404719Y-111329745D01*
X189460987Y-111527510D01*
X189460990Y-111527516D01*
X189541835Y-111689873D01*
X189552643Y-111711579D01*
X189676557Y-111875667D01*
X189767713Y-111958767D01*
X189828512Y-112014192D01*
X189828514Y-112014194D01*
X190003331Y-112122436D01*
X190003332Y-112122436D01*
X190003335Y-112122438D01*
X190195070Y-112196717D01*
X190397190Y-112234500D01*
X190397192Y-112234500D01*
X190602808Y-112234500D01*
X190602810Y-112234500D01*
X190804930Y-112196717D01*
X190996665Y-112122438D01*
X191171487Y-112014193D01*
X191323443Y-111875667D01*
X191399635Y-111774773D01*
X191455744Y-111733137D01*
X191498589Y-111725500D01*
X201158770Y-111725500D01*
X201225809Y-111745185D01*
X201271564Y-111797989D01*
X201281508Y-111867147D01*
X201252483Y-111930703D01*
X201246451Y-111937181D01*
X201222289Y-111961342D01*
X201130187Y-112110663D01*
X201130185Y-112110668D01*
X201121326Y-112137404D01*
X201075001Y-112277203D01*
X201075001Y-112277204D01*
X201075000Y-112277204D01*
X201064500Y-112379983D01*
X201064500Y-113680001D01*
X201064501Y-113680018D01*
X201075000Y-113782796D01*
X201075001Y-113782799D01*
X201120065Y-113918790D01*
X201130186Y-113949334D01*
X201222288Y-114098656D01*
X201346344Y-114222712D01*
X201495666Y-114314814D01*
X201662203Y-114369999D01*
X201764991Y-114380500D01*
X203365008Y-114380499D01*
X203467797Y-114369999D01*
X203634334Y-114314814D01*
X203783656Y-114222712D01*
X203907712Y-114098656D01*
X203999814Y-113949334D01*
X204054999Y-113782797D01*
X204065500Y-113680009D01*
X204065499Y-112379992D01*
X204054999Y-112277203D01*
X203999814Y-112110666D01*
X203907712Y-111961344D01*
X203783656Y-111837288D01*
X203634334Y-111745186D01*
X203634333Y-111745185D01*
X203628878Y-111741821D01*
X203582154Y-111689873D01*
X203570931Y-111620910D01*
X203598775Y-111556828D01*
X203606272Y-111548623D01*
X203745104Y-111409792D01*
X203807129Y-111324422D01*
X203863338Y-111247056D01*
X203870051Y-111237816D01*
X203966557Y-111048412D01*
X204032246Y-110846243D01*
X204065500Y-110636287D01*
X204065500Y-110423713D01*
X204032246Y-110213757D01*
X203966557Y-110011588D01*
X203870051Y-109822184D01*
X203870049Y-109822181D01*
X203870048Y-109822179D01*
X203745109Y-109650213D01*
X203594786Y-109499890D01*
X203422820Y-109374951D01*
X203233414Y-109278444D01*
X203233413Y-109278443D01*
X203233412Y-109278443D01*
X203031243Y-109212754D01*
X203031241Y-109212753D01*
X203031240Y-109212753D01*
X202869957Y-109187208D01*
X202821287Y-109179500D01*
X202308713Y-109179500D01*
X202260042Y-109187208D01*
X202098760Y-109212753D01*
X201896585Y-109278444D01*
X201707179Y-109374951D01*
X201535213Y-109499890D01*
X201384890Y-109650213D01*
X201259951Y-109822179D01*
X201163444Y-110011585D01*
X201097753Y-110213760D01*
X201065104Y-110419898D01*
X201035175Y-110483033D01*
X200975863Y-110519964D01*
X200942631Y-110524500D01*
X191498589Y-110524500D01*
X191431550Y-110504815D01*
X191399635Y-110475227D01*
X191323441Y-110374331D01*
X191171487Y-110235807D01*
X191171485Y-110235805D01*
X190996668Y-110127563D01*
X190996662Y-110127561D01*
X190804930Y-110053283D01*
X190602810Y-110015500D01*
X190397190Y-110015500D01*
X190195070Y-110053283D01*
X190108721Y-110086735D01*
X190003337Y-110127561D01*
X190003331Y-110127563D01*
X189828514Y-110235805D01*
X189828512Y-110235807D01*
X189676558Y-110374331D01*
X189552643Y-110538420D01*
X189460990Y-110722483D01*
X189460987Y-110722489D01*
X189404719Y-110920254D01*
X189404718Y-110920257D01*
X189385747Y-111124999D01*
X181863000Y-111124999D01*
X181863000Y-108597596D01*
X181882685Y-108530557D01*
X181899314Y-108509920D01*
X182481099Y-107928135D01*
X191930500Y-107928135D01*
X191930500Y-109241870D01*
X191930501Y-109241876D01*
X191936908Y-109301483D01*
X191987202Y-109436328D01*
X191987206Y-109436335D01*
X192073452Y-109551544D01*
X192073455Y-109551547D01*
X192188664Y-109637793D01*
X192188671Y-109637797D01*
X192323517Y-109688091D01*
X192323516Y-109688091D01*
X192330444Y-109688835D01*
X192383127Y-109694500D01*
X193696872Y-109694499D01*
X193756483Y-109688091D01*
X193891331Y-109637796D01*
X194006546Y-109551546D01*
X194092796Y-109436331D01*
X194143091Y-109301483D01*
X194149500Y-109241873D01*
X194149499Y-107928128D01*
X194143091Y-107868517D01*
X194092796Y-107733669D01*
X194092795Y-107733668D01*
X194092793Y-107733664D01*
X194006547Y-107618455D01*
X194006544Y-107618452D01*
X193891335Y-107532206D01*
X193891328Y-107532202D01*
X193756482Y-107481908D01*
X193756483Y-107481908D01*
X193696883Y-107475501D01*
X193696881Y-107475500D01*
X193696873Y-107475500D01*
X193696864Y-107475500D01*
X192383129Y-107475500D01*
X192383123Y-107475501D01*
X192323516Y-107481908D01*
X192188671Y-107532202D01*
X192188664Y-107532206D01*
X192073455Y-107618452D01*
X192073452Y-107618455D01*
X191987206Y-107733664D01*
X191987202Y-107733671D01*
X191936908Y-107868517D01*
X191930501Y-107928116D01*
X191930501Y-107928123D01*
X191930500Y-107928135D01*
X182481099Y-107928135D01*
X184803535Y-105605698D01*
X184864856Y-105572215D01*
X184877311Y-105570163D01*
X184964255Y-105560368D01*
X185134522Y-105500789D01*
X185287262Y-105404816D01*
X185414816Y-105277262D01*
X185510789Y-105124522D01*
X185570368Y-104954255D01*
X185571972Y-104940019D01*
X185590565Y-104775003D01*
X185590565Y-104774996D01*
X185570369Y-104595750D01*
X185570368Y-104595745D01*
X185525558Y-104467686D01*
X185510789Y-104425478D01*
X185414816Y-104272738D01*
X185287262Y-104145184D01*
X185287259Y-104145181D01*
X185238852Y-104114766D01*
X185192560Y-104062432D01*
X185181911Y-103993378D01*
X185210286Y-103929530D01*
X185217129Y-103922104D01*
X185828843Y-103310390D01*
X198505000Y-103310390D01*
X198505000Y-103479609D01*
X198531469Y-103646726D01*
X198583760Y-103807659D01*
X198660578Y-103958423D01*
X198760038Y-104095316D01*
X198760038Y-104095317D01*
X198879682Y-104214961D01*
X199016576Y-104314421D01*
X199167340Y-104391239D01*
X199328273Y-104443530D01*
X199495391Y-104470000D01*
X201064609Y-104470000D01*
X201231726Y-104443530D01*
X201392659Y-104391239D01*
X201543423Y-104314421D01*
X201680316Y-104214961D01*
X201680317Y-104214961D01*
X201799961Y-104095317D01*
X201799961Y-104095316D01*
X201899421Y-103958423D01*
X201976239Y-103807659D01*
X202028530Y-103646726D01*
X202055000Y-103479609D01*
X202055000Y-103310390D01*
X202028530Y-103143273D01*
X201976239Y-102982340D01*
X201899421Y-102831576D01*
X201799961Y-102694683D01*
X201799961Y-102694682D01*
X201680317Y-102575038D01*
X201543423Y-102475578D01*
X201392659Y-102398760D01*
X201231726Y-102346469D01*
X201064609Y-102320000D01*
X199495391Y-102320000D01*
X199328273Y-102346469D01*
X199167340Y-102398760D01*
X199016576Y-102475578D01*
X198879683Y-102575038D01*
X198879682Y-102575038D01*
X198760038Y-102694682D01*
X198760038Y-102694683D01*
X198660578Y-102831576D01*
X198583760Y-102982340D01*
X198531469Y-103143273D01*
X198505000Y-103310390D01*
X185828843Y-103310390D01*
X189827416Y-99311819D01*
X189888739Y-99278334D01*
X189915097Y-99275500D01*
X191803391Y-99275500D01*
X191870430Y-99295185D01*
X191916185Y-99347989D01*
X191926129Y-99417147D01*
X191908929Y-99464597D01*
X191905190Y-99470657D01*
X191905185Y-99470668D01*
X191886720Y-99526392D01*
X191850001Y-99637203D01*
X191850001Y-99637204D01*
X191850000Y-99637204D01*
X191839500Y-99739983D01*
X191839500Y-100365001D01*
X191839501Y-100365019D01*
X191850000Y-100467796D01*
X191850001Y-100467799D01*
X191905185Y-100634331D01*
X191905187Y-100634336D01*
X191909002Y-100640521D01*
X191994005Y-100778334D01*
X191997289Y-100783657D01*
X192091304Y-100877672D01*
X192124789Y-100938995D01*
X192119805Y-101008687D01*
X192091305Y-101053034D01*
X191997682Y-101146657D01*
X191905643Y-101295875D01*
X191905641Y-101295880D01*
X191850494Y-101462302D01*
X191850493Y-101462309D01*
X191840000Y-101565013D01*
X191840000Y-102189971D01*
X191840001Y-102189987D01*
X191850494Y-102292697D01*
X191905641Y-102459119D01*
X191905643Y-102459124D01*
X191997684Y-102608345D01*
X192121654Y-102732315D01*
X192270875Y-102824356D01*
X192270880Y-102824358D01*
X192437302Y-102879505D01*
X192437309Y-102879506D01*
X192540019Y-102889999D01*
X193539971Y-102889999D01*
X193539987Y-102889998D01*
X193642697Y-102879505D01*
X193809119Y-102824358D01*
X193809124Y-102824356D01*
X193958345Y-102732315D01*
X194082315Y-102608345D01*
X194174356Y-102459124D01*
X194174358Y-102459119D01*
X194229505Y-102292697D01*
X194229506Y-102292690D01*
X194239999Y-102189986D01*
X194239999Y-101565028D01*
X194239998Y-101565012D01*
X194229505Y-101462302D01*
X194174358Y-101295880D01*
X194174356Y-101295875D01*
X194082315Y-101146654D01*
X193988695Y-101053034D01*
X193955210Y-100991711D01*
X193960194Y-100922019D01*
X193988691Y-100877676D01*
X194054551Y-100811816D01*
X194115873Y-100778334D01*
X194142230Y-100775500D01*
X195360500Y-100775500D01*
X195427539Y-100795185D01*
X195473294Y-100847989D01*
X195484500Y-100899500D01*
X195484500Y-101064058D01*
X195496294Y-101108075D01*
X195494631Y-101177925D01*
X195455467Y-101235787D01*
X195450830Y-101239433D01*
X195352812Y-101312809D01*
X195352809Y-101312812D01*
X195266649Y-101427906D01*
X195266645Y-101427913D01*
X195216403Y-101562620D01*
X195216401Y-101562627D01*
X195210000Y-101622155D01*
X195210000Y-102487844D01*
X195216401Y-102547372D01*
X195216403Y-102547379D01*
X195266645Y-102682086D01*
X195266649Y-102682093D01*
X195352809Y-102797187D01*
X195352812Y-102797190D01*
X195467906Y-102883350D01*
X195467913Y-102883354D01*
X195602620Y-102933596D01*
X195602627Y-102933598D01*
X195662155Y-102939999D01*
X195662172Y-102940000D01*
X196507828Y-102940000D01*
X196507844Y-102939999D01*
X196567372Y-102933598D01*
X196567379Y-102933596D01*
X196702086Y-102883354D01*
X196702093Y-102883350D01*
X196817187Y-102797190D01*
X196817190Y-102797187D01*
X196903350Y-102682093D01*
X196903354Y-102682086D01*
X196953596Y-102547379D01*
X196953598Y-102547372D01*
X196959999Y-102487844D01*
X196960000Y-102487827D01*
X196960000Y-101622172D01*
X196959999Y-101622160D01*
X196956789Y-101592306D01*
X196969193Y-101523546D01*
X197016802Y-101472408D01*
X197017974Y-101471721D01*
X197028716Y-101465520D01*
X197140520Y-101353716D01*
X197140520Y-101353714D01*
X197150728Y-101343507D01*
X197150730Y-101343504D01*
X197655468Y-100838766D01*
X199784500Y-100838766D01*
X199784500Y-101011233D01*
X199818143Y-101180366D01*
X199818146Y-101180378D01*
X199884138Y-101339698D01*
X199884145Y-101339711D01*
X199979954Y-101483098D01*
X199979957Y-101483102D01*
X200101897Y-101605042D01*
X200101901Y-101605045D01*
X200245288Y-101700854D01*
X200245301Y-101700861D01*
X200404621Y-101766853D01*
X200404626Y-101766855D01*
X200573766Y-101800499D01*
X200573769Y-101800500D01*
X200573771Y-101800500D01*
X200746231Y-101800500D01*
X200746232Y-101800499D01*
X200915374Y-101766855D01*
X201074705Y-101700858D01*
X201218099Y-101605045D01*
X201340045Y-101483099D01*
X201435858Y-101339705D01*
X201501855Y-101180374D01*
X201535500Y-101011229D01*
X201535500Y-100838771D01*
X201535500Y-100838768D01*
X201535499Y-100838766D01*
X201523478Y-100778334D01*
X201501855Y-100669626D01*
X201489799Y-100640520D01*
X201435861Y-100510301D01*
X201435854Y-100510288D01*
X201340045Y-100366901D01*
X201340042Y-100366897D01*
X201218102Y-100244957D01*
X201218098Y-100244954D01*
X201074711Y-100149145D01*
X201074698Y-100149138D01*
X200915378Y-100083146D01*
X200915366Y-100083143D01*
X200746232Y-100049500D01*
X200746229Y-100049500D01*
X200573771Y-100049500D01*
X200573768Y-100049500D01*
X200404633Y-100083143D01*
X200404621Y-100083146D01*
X200245301Y-100149138D01*
X200245288Y-100149145D01*
X200101901Y-100244954D01*
X200101897Y-100244957D01*
X199979957Y-100366897D01*
X199979954Y-100366901D01*
X199884145Y-100510288D01*
X199884138Y-100510301D01*
X199818146Y-100669621D01*
X199818143Y-100669633D01*
X199784500Y-100838766D01*
X197655468Y-100838766D01*
X197843506Y-100650728D01*
X197843511Y-100650724D01*
X197853714Y-100640520D01*
X197853716Y-100640520D01*
X197965520Y-100528716D01*
X198027585Y-100421216D01*
X198044577Y-100391785D01*
X198085500Y-100239058D01*
X198085500Y-100080943D01*
X198085500Y-96610943D01*
X198081342Y-96595423D01*
X198044577Y-96458215D01*
X197993433Y-96369632D01*
X197965520Y-96321284D01*
X197853716Y-96209480D01*
X197853715Y-96209479D01*
X197849385Y-96205149D01*
X197849374Y-96205139D01*
X197483001Y-95838766D01*
X199784500Y-95838766D01*
X199784500Y-96011233D01*
X199818143Y-96180366D01*
X199818146Y-96180378D01*
X199884138Y-96339698D01*
X199884145Y-96339711D01*
X199979954Y-96483098D01*
X199979957Y-96483102D01*
X200101897Y-96605042D01*
X200101901Y-96605045D01*
X200245288Y-96700854D01*
X200245301Y-96700861D01*
X200404621Y-96766853D01*
X200404626Y-96766855D01*
X200573766Y-96800499D01*
X200573769Y-96800500D01*
X200573771Y-96800500D01*
X200746231Y-96800500D01*
X200746232Y-96800499D01*
X200915374Y-96766855D01*
X201074705Y-96700858D01*
X201218099Y-96605045D01*
X201340045Y-96483099D01*
X201435858Y-96339705D01*
X201501855Y-96180374D01*
X201535500Y-96011229D01*
X201535500Y-95838771D01*
X201535500Y-95838768D01*
X201535499Y-95838766D01*
X201512837Y-95724837D01*
X201501855Y-95669626D01*
X201491698Y-95645104D01*
X201435861Y-95510301D01*
X201435854Y-95510288D01*
X201340045Y-95366901D01*
X201340042Y-95366897D01*
X201218102Y-95244957D01*
X201218098Y-95244954D01*
X201074711Y-95149145D01*
X201074698Y-95149138D01*
X200915378Y-95083146D01*
X200915366Y-95083143D01*
X200746232Y-95049500D01*
X200746229Y-95049500D01*
X200573771Y-95049500D01*
X200573768Y-95049500D01*
X200404633Y-95083143D01*
X200404621Y-95083146D01*
X200245301Y-95149138D01*
X200245288Y-95149145D01*
X200101901Y-95244954D01*
X200101897Y-95244957D01*
X199979957Y-95366897D01*
X199979954Y-95366901D01*
X199884145Y-95510288D01*
X199884138Y-95510301D01*
X199818146Y-95669621D01*
X199818143Y-95669633D01*
X199784500Y-95838766D01*
X197483001Y-95838766D01*
X197147590Y-95503355D01*
X197147588Y-95503352D01*
X197028715Y-95384479D01*
X197018079Y-95378339D01*
X196969863Y-95327772D01*
X196956639Y-95259165D01*
X196956789Y-95257693D01*
X196959999Y-95227839D01*
X196960000Y-95227827D01*
X196960000Y-94362172D01*
X196959999Y-94362155D01*
X196953598Y-94302627D01*
X196953596Y-94302620D01*
X196903354Y-94167913D01*
X196903350Y-94167906D01*
X196817190Y-94052812D01*
X196817187Y-94052809D01*
X196702093Y-93966649D01*
X196702086Y-93966645D01*
X196567379Y-93916403D01*
X196567372Y-93916401D01*
X196507844Y-93910000D01*
X195662155Y-93910000D01*
X195602627Y-93916401D01*
X195602620Y-93916403D01*
X195467913Y-93966645D01*
X195467906Y-93966649D01*
X195352812Y-94052809D01*
X195352809Y-94052812D01*
X195266649Y-94167906D01*
X195266645Y-94167913D01*
X195216403Y-94302620D01*
X195216401Y-94302627D01*
X195210000Y-94362155D01*
X195210000Y-95140500D01*
X195190315Y-95207539D01*
X195137511Y-95253294D01*
X195086000Y-95264500D01*
X191241669Y-95264500D01*
X191241653Y-95264499D01*
X191234057Y-95264499D01*
X191075943Y-95264499D01*
X190996010Y-95285917D01*
X190923216Y-95305422D01*
X190893088Y-95322817D01*
X190893087Y-95322816D01*
X190786287Y-95384477D01*
X190786282Y-95384481D01*
X190674478Y-95496286D01*
X190481465Y-95689298D01*
X190420142Y-95722783D01*
X190407668Y-95724837D01*
X190320750Y-95734630D01*
X190150478Y-95794210D01*
X189997737Y-95890184D01*
X189870184Y-96017737D01*
X189774211Y-96170476D01*
X189714631Y-96340745D01*
X189714630Y-96340750D01*
X189694435Y-96519996D01*
X189694435Y-96520003D01*
X189714630Y-96699249D01*
X189714631Y-96699254D01*
X189774211Y-96869523D01*
X189861671Y-97008713D01*
X189870184Y-97022262D01*
X189997738Y-97149816D01*
X190150478Y-97245789D01*
X190174107Y-97254057D01*
X190320745Y-97305368D01*
X190320750Y-97305369D01*
X190499996Y-97325565D01*
X190500000Y-97325565D01*
X190500004Y-97325565D01*
X190679249Y-97305369D01*
X190679252Y-97305368D01*
X190679255Y-97305368D01*
X190849522Y-97245789D01*
X191002262Y-97149816D01*
X191129816Y-97022262D01*
X191225789Y-96869522D01*
X191285368Y-96699255D01*
X191295161Y-96612329D01*
X191322226Y-96547919D01*
X191330689Y-96538544D01*
X191367419Y-96501816D01*
X191428743Y-96468333D01*
X191455098Y-96465500D01*
X193573472Y-96465500D01*
X193640511Y-96485185D01*
X193686266Y-96537989D01*
X193696210Y-96607147D01*
X193678466Y-96655472D01*
X193584211Y-96805476D01*
X193524631Y-96975745D01*
X193524630Y-96975750D01*
X193504435Y-97154996D01*
X193504435Y-97155003D01*
X193524630Y-97334249D01*
X193524632Y-97334257D01*
X193550977Y-97409546D01*
X193554538Y-97479324D01*
X193519809Y-97539952D01*
X193457816Y-97572179D01*
X193433935Y-97574500D01*
X189635984Y-97574500D01*
X189635968Y-97574499D01*
X189628372Y-97574499D01*
X189470257Y-97574499D01*
X189393893Y-97594961D01*
X189317528Y-97615423D01*
X189317523Y-97615426D01*
X189180604Y-97694475D01*
X189180596Y-97694481D01*
X179691681Y-107183397D01*
X179630358Y-107216882D01*
X179560666Y-107211898D01*
X179504733Y-107170026D01*
X179480316Y-107104562D01*
X179480000Y-107095716D01*
X179480000Y-93370390D01*
X198505000Y-93370390D01*
X198505000Y-93539609D01*
X198531469Y-93706726D01*
X198583760Y-93867659D01*
X198660578Y-94018423D01*
X198760038Y-94155316D01*
X198760038Y-94155317D01*
X198879682Y-94274961D01*
X199016576Y-94374421D01*
X199167340Y-94451239D01*
X199328273Y-94503530D01*
X199495391Y-94530000D01*
X201064609Y-94530000D01*
X201231726Y-94503530D01*
X201392659Y-94451239D01*
X201543423Y-94374421D01*
X201680316Y-94274961D01*
X201680317Y-94274961D01*
X201799961Y-94155317D01*
X201799961Y-94155316D01*
X201899421Y-94018423D01*
X201976239Y-93867659D01*
X202028530Y-93706726D01*
X202055000Y-93539609D01*
X202055000Y-93370390D01*
X202028530Y-93203273D01*
X201976239Y-93042340D01*
X201899421Y-92891576D01*
X201799961Y-92754683D01*
X201799961Y-92754682D01*
X201680317Y-92635038D01*
X201543423Y-92535578D01*
X201392659Y-92458760D01*
X201231726Y-92406469D01*
X201064609Y-92380000D01*
X199495391Y-92380000D01*
X199328273Y-92406469D01*
X199167340Y-92458760D01*
X199016576Y-92535578D01*
X198879683Y-92635038D01*
X198879682Y-92635038D01*
X198760038Y-92754682D01*
X198760038Y-92754683D01*
X198660578Y-92891576D01*
X198583760Y-93042340D01*
X198531469Y-93203273D01*
X198505000Y-93370390D01*
X179480000Y-93370390D01*
X179480000Y-90036000D01*
X173530000Y-90036000D01*
X173530000Y-108036000D01*
X178539717Y-108036000D01*
X178606756Y-108055685D01*
X178652511Y-108108489D01*
X178662455Y-108177647D01*
X178633430Y-108241203D01*
X178627398Y-108247681D01*
X175627898Y-111247181D01*
X175566575Y-111280666D01*
X175540217Y-111283500D01*
X170824412Y-111283500D01*
X170757373Y-111263815D01*
X170747097Y-111256445D01*
X170744263Y-111254185D01*
X170744262Y-111254184D01*
X170675553Y-111211011D01*
X170591523Y-111158211D01*
X170421254Y-111098631D01*
X170421249Y-111098630D01*
X170242004Y-111078435D01*
X170241996Y-111078435D01*
X170062750Y-111098630D01*
X170062745Y-111098631D01*
X169892476Y-111158211D01*
X169739737Y-111254184D01*
X169612184Y-111381737D01*
X169516209Y-111534479D01*
X169515715Y-111535507D01*
X169515218Y-111536056D01*
X169512506Y-111540374D01*
X169511749Y-111539898D01*
X169468892Y-111587367D01*
X169401465Y-111605679D01*
X169390112Y-111604925D01*
X169226004Y-111586435D01*
X169225996Y-111586435D01*
X169046750Y-111606630D01*
X169046745Y-111606631D01*
X168876476Y-111666211D01*
X168723737Y-111762184D01*
X168596184Y-111889737D01*
X168500211Y-112042476D01*
X168440631Y-112212745D01*
X168440630Y-112212750D01*
X168420435Y-112391996D01*
X168420435Y-112392003D01*
X168440630Y-112571249D01*
X168440632Y-112571257D01*
X168487228Y-112704421D01*
X168490789Y-112774200D01*
X168456060Y-112834827D01*
X168394067Y-112867054D01*
X168356303Y-112868595D01*
X168275004Y-112859435D01*
X168274996Y-112859435D01*
X168095750Y-112879630D01*
X168095745Y-112879631D01*
X167925476Y-112939211D01*
X167772737Y-113035184D01*
X167645184Y-113162737D01*
X167549212Y-113315475D01*
X167549211Y-113315476D01*
X167515291Y-113412413D01*
X167485931Y-113459138D01*
X164261444Y-116683625D01*
X164200121Y-116717110D01*
X164187647Y-116719164D01*
X164100729Y-116728957D01*
X163930457Y-116788537D01*
X163777716Y-116884511D01*
X163650163Y-117012064D01*
X163554190Y-117164803D01*
X163494610Y-117335072D01*
X163494609Y-117335077D01*
X163474414Y-117514323D01*
X158625530Y-117514323D01*
X155546819Y-114435612D01*
X155513334Y-114374289D01*
X155510500Y-114347931D01*
X155510500Y-112800321D01*
X155530185Y-112733282D01*
X155582989Y-112687527D01*
X155620612Y-112677101D01*
X155689255Y-112669368D01*
X155859522Y-112609789D01*
X156012262Y-112513816D01*
X156012267Y-112513810D01*
X156015097Y-112511555D01*
X156017275Y-112510665D01*
X156018158Y-112510111D01*
X156018255Y-112510265D01*
X156079783Y-112485145D01*
X156092412Y-112484500D01*
X157058545Y-112484500D01*
X157125584Y-112504185D01*
X157146226Y-112520819D01*
X157146350Y-112520943D01*
X157146353Y-112520945D01*
X157146354Y-112520946D01*
X157261569Y-112607196D01*
X157261570Y-112607196D01*
X157261571Y-112607197D01*
X157396417Y-112657491D01*
X157396416Y-112657491D01*
X157403344Y-112658235D01*
X157456027Y-112663900D01*
X159659972Y-112663899D01*
X159719583Y-112657491D01*
X159854431Y-112607196D01*
X159969646Y-112520946D01*
X160055896Y-112405731D01*
X160106191Y-112270883D01*
X160112600Y-112211273D01*
X160112599Y-111556728D01*
X160106191Y-111497117D01*
X160102580Y-111487436D01*
X160055897Y-111362271D01*
X160055893Y-111362264D01*
X159969647Y-111247055D01*
X159969644Y-111247052D01*
X159854435Y-111160806D01*
X159854428Y-111160802D01*
X159719582Y-111110508D01*
X159719583Y-111110508D01*
X159659983Y-111104101D01*
X159659981Y-111104100D01*
X159659973Y-111104100D01*
X159659964Y-111104100D01*
X157456029Y-111104100D01*
X157456023Y-111104101D01*
X157396416Y-111110508D01*
X157261571Y-111160802D01*
X157261569Y-111160804D01*
X157146350Y-111247056D01*
X157146226Y-111247181D01*
X157146071Y-111247265D01*
X157139254Y-111252369D01*
X157138520Y-111251388D01*
X157084903Y-111280666D01*
X157058545Y-111283500D01*
X156410569Y-111283500D01*
X156343530Y-111263815D01*
X156297775Y-111211011D01*
X156287831Y-111141853D01*
X156316856Y-111078297D01*
X156322888Y-111071819D01*
X156502197Y-110892510D01*
X156690520Y-110704187D01*
X156769577Y-110567255D01*
X156810501Y-110414528D01*
X156810501Y-110256413D01*
X156810501Y-110248818D01*
X156810500Y-110248800D01*
X156810500Y-104889094D01*
X156830185Y-104822055D01*
X156882989Y-104776300D01*
X156952147Y-104766356D01*
X157000471Y-104784100D01*
X157130478Y-104865789D01*
X157300745Y-104925368D01*
X157387669Y-104935161D01*
X157452080Y-104962226D01*
X157461465Y-104970700D01*
X162431181Y-109940416D01*
X162464666Y-110001739D01*
X162467500Y-110028097D01*
X162467500Y-115399587D01*
X162447815Y-115466626D01*
X162440450Y-115476896D01*
X162438186Y-115479734D01*
X162342211Y-115632476D01*
X162282631Y-115802745D01*
X162282630Y-115802750D01*
X162262435Y-115981996D01*
X162262435Y-115982003D01*
X162282630Y-116161249D01*
X162282631Y-116161254D01*
X162342211Y-116331523D01*
X162406828Y-116434359D01*
X162438184Y-116484262D01*
X162565738Y-116611816D01*
X162718478Y-116707789D01*
X162888745Y-116767368D01*
X162888750Y-116767369D01*
X163067996Y-116787565D01*
X163068000Y-116787565D01*
X163068004Y-116787565D01*
X163247249Y-116767369D01*
X163247252Y-116767368D01*
X163247255Y-116767368D01*
X163417522Y-116707789D01*
X163570262Y-116611816D01*
X163697816Y-116484262D01*
X163793789Y-116331522D01*
X163853368Y-116161255D01*
X163863644Y-116070051D01*
X163873565Y-115982003D01*
X163873565Y-115981996D01*
X163853369Y-115802750D01*
X163853368Y-115802745D01*
X163793788Y-115632476D01*
X163697813Y-115479734D01*
X163695550Y-115476896D01*
X163694659Y-115474715D01*
X163694111Y-115473842D01*
X163694264Y-115473745D01*
X163669144Y-115412209D01*
X163668500Y-115399587D01*
X163668500Y-112708714D01*
X163688185Y-112641675D01*
X163740989Y-112595920D01*
X163810147Y-112585976D01*
X163854433Y-112604324D01*
X163855428Y-112602503D01*
X163863213Y-112606754D01*
X163997920Y-112656996D01*
X163997927Y-112656998D01*
X164057455Y-112663399D01*
X164057472Y-112663400D01*
X166261328Y-112663400D01*
X166261344Y-112663399D01*
X166320872Y-112656998D01*
X166320879Y-112656996D01*
X166455586Y-112606754D01*
X166455593Y-112606750D01*
X166570687Y-112520590D01*
X166570690Y-112520587D01*
X166656850Y-112405493D01*
X166656854Y-112405486D01*
X166707096Y-112270779D01*
X166707098Y-112270772D01*
X166713499Y-112211244D01*
X166713500Y-112211227D01*
X166713500Y-111556772D01*
X166713499Y-111556755D01*
X166707098Y-111497227D01*
X166707096Y-111497220D01*
X166656854Y-111362513D01*
X166656850Y-111362506D01*
X166570690Y-111247412D01*
X166570687Y-111247409D01*
X166455593Y-111161249D01*
X166455586Y-111161245D01*
X166320879Y-111111003D01*
X166320872Y-111111001D01*
X166261344Y-111104600D01*
X164057455Y-111104600D01*
X163997927Y-111111001D01*
X163997920Y-111111003D01*
X163863213Y-111161245D01*
X163855428Y-111165497D01*
X163854203Y-111163254D01*
X163801345Y-111182969D01*
X163733072Y-111168116D01*
X163683667Y-111118711D01*
X163668500Y-111059285D01*
X163668500Y-109648945D01*
X163668500Y-109648943D01*
X163627577Y-109496216D01*
X163560769Y-109380500D01*
X163548524Y-109359290D01*
X163548521Y-109359286D01*
X163548520Y-109359284D01*
X163436716Y-109247480D01*
X163436715Y-109247479D01*
X163432385Y-109243149D01*
X163432374Y-109243139D01*
X158310700Y-104121465D01*
X158277215Y-104060142D01*
X158275163Y-104047686D01*
X158265368Y-103960745D01*
X158205789Y-103790478D01*
X158109816Y-103637738D01*
X157982262Y-103510184D01*
X157959528Y-103495899D01*
X157829523Y-103414211D01*
X157659254Y-103354631D01*
X157659249Y-103354630D01*
X157480004Y-103334435D01*
X157479996Y-103334435D01*
X157300750Y-103354630D01*
X157300745Y-103354631D01*
X157130476Y-103414211D01*
X157000472Y-103495899D01*
X156933235Y-103514899D01*
X156866400Y-103494531D01*
X156821186Y-103441263D01*
X156810500Y-103390905D01*
X156810500Y-94280096D01*
X156830185Y-94213057D01*
X156846815Y-94192419D01*
X157498535Y-93540698D01*
X157559856Y-93507215D01*
X157572311Y-93505163D01*
X157659255Y-93495368D01*
X157829522Y-93435789D01*
X157982262Y-93339816D01*
X158109816Y-93212262D01*
X158205789Y-93059522D01*
X158265368Y-92889255D01*
X158265369Y-92889249D01*
X158285565Y-92710003D01*
X158285565Y-92709996D01*
X158265369Y-92530750D01*
X158265368Y-92530745D01*
X158221882Y-92406469D01*
X158205789Y-92360478D01*
X158109816Y-92207738D01*
X157982262Y-92080184D01*
X157868517Y-92008713D01*
X157829523Y-91984211D01*
X157659254Y-91924631D01*
X157659249Y-91924630D01*
X157480004Y-91904435D01*
X157479996Y-91904435D01*
X157300750Y-91924630D01*
X157300745Y-91924631D01*
X157130476Y-91984211D01*
X156977737Y-92080184D01*
X156850184Y-92207737D01*
X156754210Y-92360478D01*
X156694630Y-92530750D01*
X156684837Y-92617668D01*
X156657770Y-92682082D01*
X156649298Y-92691465D01*
X155841286Y-93499478D01*
X155729482Y-93611281D01*
X155729480Y-93611283D01*
X155720075Y-93627573D01*
X155713190Y-93639500D01*
X155650423Y-93748215D01*
X155609499Y-93900943D01*
X155609499Y-93900945D01*
X155609499Y-94069046D01*
X155609500Y-94069059D01*
X155609500Y-110035373D01*
X155589815Y-110102412D01*
X155573181Y-110123054D01*
X154429481Y-111266753D01*
X154429479Y-111266755D01*
X154419812Y-111283500D01*
X154396186Y-111324423D01*
X154373304Y-111364054D01*
X154350423Y-111403685D01*
X154350423Y-111403686D01*
X154309499Y-111556414D01*
X154309499Y-111556416D01*
X154309499Y-111724517D01*
X154309500Y-111724530D01*
X154309500Y-114561359D01*
X154309499Y-114561377D01*
X154309499Y-114727083D01*
X154309498Y-114727083D01*
X135807571Y-114727083D01*
X135787246Y-114598757D01*
X135721557Y-114396588D01*
X135625051Y-114207184D01*
X135625049Y-114207181D01*
X135625048Y-114207179D01*
X135500109Y-114035213D01*
X135361294Y-113896398D01*
X135327809Y-113835075D01*
X135332793Y-113765383D01*
X135374665Y-113709450D01*
X135383879Y-113703178D01*
X135389331Y-113699814D01*
X135389334Y-113699814D01*
X135538656Y-113607712D01*
X135662712Y-113483656D01*
X135754814Y-113334334D01*
X135809999Y-113167797D01*
X135814177Y-113126896D01*
X135840573Y-113062207D01*
X135886440Y-113029999D01*
X144301249Y-113029999D01*
X144301249Y-113030000D01*
X144320212Y-113234646D01*
X144376459Y-113432336D01*
X144468070Y-113616314D01*
X144591929Y-113780331D01*
X144743813Y-113918790D01*
X144918557Y-114026988D01*
X144918558Y-114026989D01*
X145110205Y-114101232D01*
X145312238Y-114139000D01*
X145517762Y-114139000D01*
X145719794Y-114101232D01*
X145911441Y-114026989D01*
X145911442Y-114026988D01*
X146086186Y-113918790D01*
X146238070Y-113780331D01*
X146361929Y-113616314D01*
X146453540Y-113432336D01*
X146509787Y-113234646D01*
X146528751Y-113030000D01*
X146528751Y-113029999D01*
X146509787Y-112825353D01*
X146453540Y-112627663D01*
X146361929Y-112443685D01*
X146238070Y-112279668D01*
X146086186Y-112141209D01*
X145911442Y-112033011D01*
X145911441Y-112033010D01*
X145719794Y-111958767D01*
X145517762Y-111921000D01*
X145312238Y-111921000D01*
X145110205Y-111958767D01*
X144918558Y-112033010D01*
X144918557Y-112033011D01*
X144743813Y-112141209D01*
X144591929Y-112279668D01*
X144468070Y-112443685D01*
X144376459Y-112627663D01*
X144320212Y-112825353D01*
X144301249Y-113029999D01*
X135886440Y-113029999D01*
X135897753Y-113022055D01*
X135937535Y-113015500D01*
X140863331Y-113015500D01*
X140863347Y-113015501D01*
X140870943Y-113015501D01*
X141029054Y-113015501D01*
X141029057Y-113015501D01*
X141181785Y-112974577D01*
X141256772Y-112931283D01*
X141318716Y-112895520D01*
X141430520Y-112783716D01*
X141430520Y-112783714D01*
X141440724Y-112773511D01*
X141440728Y-112773506D01*
X142593317Y-111620916D01*
X142654638Y-111587433D01*
X142703778Y-111586711D01*
X142772190Y-111599500D01*
X142772191Y-111599500D01*
X142977808Y-111599500D01*
X142977810Y-111599500D01*
X143179930Y-111561717D01*
X143371665Y-111487438D01*
X143546487Y-111379193D01*
X143698443Y-111240667D01*
X143822357Y-111076579D01*
X143914010Y-110892515D01*
X143914010Y-110892512D01*
X143914012Y-110892510D01*
X143961132Y-110726897D01*
X143970281Y-110694743D01*
X143989253Y-110490000D01*
X143988607Y-110483033D01*
X143970281Y-110285257D01*
X143970280Y-110285254D01*
X143914012Y-110087489D01*
X143914009Y-110087483D01*
X143876216Y-110011585D01*
X143822357Y-109903421D01*
X143698443Y-109739333D01*
X143649263Y-109694500D01*
X143546487Y-109600807D01*
X143546485Y-109600805D01*
X143371668Y-109492563D01*
X143371662Y-109492561D01*
X143179930Y-109418283D01*
X142977810Y-109380500D01*
X142772190Y-109380500D01*
X142570070Y-109418283D01*
X142523473Y-109436335D01*
X142378337Y-109492561D01*
X142378331Y-109492563D01*
X142203514Y-109600805D01*
X142203512Y-109600807D01*
X142051558Y-109739331D01*
X141927643Y-109903420D01*
X141835990Y-110087483D01*
X141835987Y-110087489D01*
X141779719Y-110285254D01*
X141779718Y-110285257D01*
X141760747Y-110489999D01*
X141760747Y-110490001D01*
X141777850Y-110674581D01*
X141764435Y-110743151D01*
X141742060Y-110773703D01*
X140737584Y-111778181D01*
X140676261Y-111811666D01*
X140649903Y-111814500D01*
X135937535Y-111814500D01*
X135870496Y-111794815D01*
X135824741Y-111742011D01*
X135814177Y-111703102D01*
X135813663Y-111698071D01*
X135809999Y-111662203D01*
X135754814Y-111495666D01*
X135662712Y-111346344D01*
X135538656Y-111222288D01*
X135429485Y-111154951D01*
X135389336Y-111130187D01*
X135389331Y-111130185D01*
X135373681Y-111124999D01*
X135222797Y-111075001D01*
X135222795Y-111075000D01*
X135120010Y-111064500D01*
X133519998Y-111064500D01*
X133519981Y-111064501D01*
X133417203Y-111075000D01*
X133417200Y-111075001D01*
X133250668Y-111130185D01*
X133250663Y-111130187D01*
X133101342Y-111222289D01*
X132977289Y-111346342D01*
X132885187Y-111495663D01*
X132885185Y-111495668D01*
X132871984Y-111535507D01*
X132830001Y-111662203D01*
X132830001Y-111662204D01*
X132830000Y-111662204D01*
X132819500Y-111764983D01*
X124325500Y-111764983D01*
X124325500Y-107293135D01*
X144305500Y-107293135D01*
X144305500Y-108606870D01*
X144305501Y-108606876D01*
X144311908Y-108666483D01*
X144362202Y-108801328D01*
X144362206Y-108801335D01*
X144448452Y-108916544D01*
X144448455Y-108916547D01*
X144563664Y-109002793D01*
X144563671Y-109002797D01*
X144698517Y-109053091D01*
X144698516Y-109053091D01*
X144705444Y-109053835D01*
X144758127Y-109059500D01*
X146071872Y-109059499D01*
X146131483Y-109053091D01*
X146266331Y-109002796D01*
X146381546Y-108916546D01*
X146467796Y-108801331D01*
X146518091Y-108666483D01*
X146524500Y-108606873D01*
X146524499Y-107293128D01*
X146518091Y-107233517D01*
X146499397Y-107183397D01*
X146467797Y-107098671D01*
X146467793Y-107098664D01*
X146381547Y-106983455D01*
X146381544Y-106983452D01*
X146266335Y-106897206D01*
X146266328Y-106897202D01*
X146131482Y-106846908D01*
X146131483Y-106846908D01*
X146071883Y-106840501D01*
X146071881Y-106840500D01*
X146071873Y-106840500D01*
X146071864Y-106840500D01*
X144758129Y-106840500D01*
X144758123Y-106840501D01*
X144698516Y-106846908D01*
X144563671Y-106897202D01*
X144563664Y-106897206D01*
X144448455Y-106983452D01*
X144448452Y-106983455D01*
X144362206Y-107098664D01*
X144362202Y-107098671D01*
X144311908Y-107233517D01*
X144305501Y-107293116D01*
X144305501Y-107293123D01*
X144305500Y-107293135D01*
X124325500Y-107293135D01*
X124325500Y-99684500D01*
X124345185Y-99617461D01*
X124397989Y-99571706D01*
X124449500Y-99560500D01*
X140400890Y-99560500D01*
X140400892Y-99560500D01*
X140528186Y-99526392D01*
X140642314Y-99460500D01*
X140735500Y-99367314D01*
X140801392Y-99253186D01*
X140835500Y-99125892D01*
X140835500Y-87008713D01*
X144574500Y-87008713D01*
X144574500Y-87221286D01*
X144607753Y-87431239D01*
X144673444Y-87633414D01*
X144769951Y-87822820D01*
X144894890Y-87994786D01*
X145045209Y-88145105D01*
X145045214Y-88145109D01*
X145210218Y-88264991D01*
X145252884Y-88320320D01*
X145258863Y-88389934D01*
X145226258Y-88451729D01*
X145210218Y-88465627D01*
X145045540Y-88585272D01*
X145045535Y-88585276D01*
X144895276Y-88735535D01*
X144895272Y-88735540D01*
X144770379Y-88907442D01*
X144673904Y-89096782D01*
X144608242Y-89298869D01*
X144608242Y-89298872D01*
X144575000Y-89508753D01*
X144575000Y-89721246D01*
X144608242Y-89931127D01*
X144608242Y-89931130D01*
X144673904Y-90133217D01*
X144770379Y-90322557D01*
X144895272Y-90494459D01*
X144895276Y-90494464D01*
X145045535Y-90644723D01*
X145045540Y-90644727D01*
X145210218Y-90764372D01*
X145252884Y-90819701D01*
X145258863Y-90889315D01*
X145226258Y-90951110D01*
X145210218Y-90965008D01*
X145045214Y-91084890D01*
X145045209Y-91084894D01*
X144894890Y-91235213D01*
X144769951Y-91407179D01*
X144673444Y-91596585D01*
X144607753Y-91798760D01*
X144574500Y-92008713D01*
X144574500Y-92221286D01*
X144601907Y-92394331D01*
X144607754Y-92431243D01*
X144668389Y-92617858D01*
X144673444Y-92633414D01*
X144769951Y-92822820D01*
X144894890Y-92994786D01*
X145045209Y-93145105D01*
X145045214Y-93145109D01*
X145209793Y-93264682D01*
X145252459Y-93320011D01*
X145258438Y-93389625D01*
X145225833Y-93451420D01*
X145209793Y-93465318D01*
X145045214Y-93584890D01*
X145045209Y-93584894D01*
X144894890Y-93735213D01*
X144769951Y-93907179D01*
X144673444Y-94096585D01*
X144607753Y-94298760D01*
X144597710Y-94362172D01*
X144574500Y-94508713D01*
X144574500Y-94721287D01*
X144607754Y-94931243D01*
X144657110Y-95083145D01*
X144673444Y-95133414D01*
X144769951Y-95322820D01*
X144894890Y-95494786D01*
X145045209Y-95645105D01*
X145045214Y-95645109D01*
X145209793Y-95764682D01*
X145252459Y-95820011D01*
X145258438Y-95889625D01*
X145225833Y-95951420D01*
X145209793Y-95965318D01*
X145045214Y-96084890D01*
X145045209Y-96084894D01*
X144894890Y-96235213D01*
X144769951Y-96407179D01*
X144673444Y-96596585D01*
X144607753Y-96798760D01*
X144574500Y-97008713D01*
X144574500Y-97221286D01*
X144604317Y-97409546D01*
X144607754Y-97431243D01*
X144654301Y-97574500D01*
X144673444Y-97633414D01*
X144769951Y-97822820D01*
X144894890Y-97994786D01*
X145034068Y-98133964D01*
X145067553Y-98195287D01*
X145062569Y-98264979D01*
X145020697Y-98320912D01*
X145011484Y-98327183D01*
X144856659Y-98422680D01*
X144856655Y-98422683D01*
X144732684Y-98546654D01*
X144640643Y-98695875D01*
X144640641Y-98695880D01*
X144585494Y-98862302D01*
X144585493Y-98862309D01*
X144575000Y-98965013D01*
X144575000Y-100264971D01*
X144575001Y-100264987D01*
X144585494Y-100367697D01*
X144640641Y-100534119D01*
X144640643Y-100534124D01*
X144732684Y-100683345D01*
X144856654Y-100807315D01*
X145005875Y-100899356D01*
X145005880Y-100899358D01*
X145172302Y-100954505D01*
X145172309Y-100954506D01*
X145275019Y-100964999D01*
X146824971Y-100964999D01*
X146824987Y-100964998D01*
X146927697Y-100954505D01*
X147094119Y-100899358D01*
X147094124Y-100899356D01*
X147243345Y-100807315D01*
X147367315Y-100683345D01*
X147459356Y-100534124D01*
X147459358Y-100534119D01*
X147514505Y-100367697D01*
X147514506Y-100367690D01*
X147524999Y-100264986D01*
X147524999Y-98965028D01*
X147524998Y-98965012D01*
X147514505Y-98862302D01*
X147459358Y-98695880D01*
X147459356Y-98695875D01*
X147367315Y-98546654D01*
X147243345Y-98422684D01*
X147088515Y-98327184D01*
X147041791Y-98275236D01*
X147030568Y-98206273D01*
X147058412Y-98142191D01*
X147065909Y-98133986D01*
X147205104Y-97994792D01*
X147330051Y-97822816D01*
X147426557Y-97633412D01*
X147492246Y-97431243D01*
X147525500Y-97221287D01*
X147525500Y-97008713D01*
X147492246Y-96798757D01*
X147447851Y-96662126D01*
X147445857Y-96592290D01*
X147478100Y-96536133D01*
X148948506Y-95065728D01*
X148948511Y-95065724D01*
X148958714Y-95055520D01*
X148958716Y-95055520D01*
X149070520Y-94943716D01*
X149149577Y-94806784D01*
X149190500Y-94654057D01*
X149190500Y-93010097D01*
X149210185Y-92943058D01*
X149226819Y-92922416D01*
X153704416Y-88444819D01*
X153765739Y-88411334D01*
X153792097Y-88408500D01*
X158811710Y-88408500D01*
X158878749Y-88428185D01*
X158916703Y-88466527D01*
X158944182Y-88510260D01*
X158944184Y-88510262D01*
X159071738Y-88637816D01*
X159224478Y-88733789D01*
X159394745Y-88793368D01*
X159394750Y-88793369D01*
X159573996Y-88813565D01*
X159574000Y-88813565D01*
X159574004Y-88813565D01*
X159753249Y-88793369D01*
X159753252Y-88793368D01*
X159753255Y-88793368D01*
X159923522Y-88733789D01*
X160016027Y-88675663D01*
X160083264Y-88656663D01*
X160147973Y-88675664D01*
X160240475Y-88733788D01*
X160410745Y-88793368D01*
X160410750Y-88793369D01*
X160589996Y-88813565D01*
X160590000Y-88813565D01*
X160590004Y-88813565D01*
X160769249Y-88793369D01*
X160769252Y-88793368D01*
X160769255Y-88793368D01*
X160939522Y-88733789D01*
X161032027Y-88675663D01*
X161099264Y-88656663D01*
X161163973Y-88675664D01*
X161256475Y-88733788D01*
X161426745Y-88793368D01*
X161426750Y-88793369D01*
X161605996Y-88813565D01*
X161606000Y-88813565D01*
X161606004Y-88813565D01*
X161785249Y-88793369D01*
X161785252Y-88793368D01*
X161785255Y-88793368D01*
X161955522Y-88733789D01*
X162108262Y-88637816D01*
X162235816Y-88510262D01*
X162331789Y-88357522D01*
X162391368Y-88187255D01*
X162396117Y-88145105D01*
X162411565Y-88008003D01*
X162411565Y-88007996D01*
X162391369Y-87828750D01*
X162391368Y-87828745D01*
X162331788Y-87658476D01*
X162235815Y-87505737D01*
X162108262Y-87378184D01*
X161955521Y-87282210D01*
X161785249Y-87222630D01*
X161698330Y-87212837D01*
X161633916Y-87185770D01*
X161624533Y-87177298D01*
X161093590Y-86646355D01*
X161093588Y-86646352D01*
X160974717Y-86527481D01*
X160974716Y-86527480D01*
X160887904Y-86477360D01*
X160887904Y-86477359D01*
X160887900Y-86477358D01*
X160837785Y-86448423D01*
X160685057Y-86407499D01*
X160526943Y-86407499D01*
X160519347Y-86407499D01*
X160519331Y-86407500D01*
X153177984Y-86407500D01*
X153177968Y-86407499D01*
X153170372Y-86407499D01*
X153012257Y-86407499D01*
X152935893Y-86427961D01*
X152859528Y-86448423D01*
X152859523Y-86448426D01*
X152722604Y-86527475D01*
X152722596Y-86527481D01*
X147771898Y-91478181D01*
X147710575Y-91511666D01*
X147684217Y-91514500D01*
X147460719Y-91514500D01*
X147393680Y-91494815D01*
X147350235Y-91446795D01*
X147330052Y-91407185D01*
X147330051Y-91407184D01*
X147205109Y-91235213D01*
X147054790Y-91084894D01*
X147054785Y-91084890D01*
X146889781Y-90965008D01*
X146847115Y-90909678D01*
X146841136Y-90840065D01*
X146873741Y-90778270D01*
X146889781Y-90764371D01*
X147054466Y-90644721D01*
X147204723Y-90494464D01*
X147204727Y-90494459D01*
X147329620Y-90322557D01*
X147426095Y-90133217D01*
X147491757Y-89931130D01*
X147491757Y-89931127D01*
X147525000Y-89721246D01*
X147525000Y-89508753D01*
X147491757Y-89298872D01*
X147491757Y-89298869D01*
X147426095Y-89096782D01*
X147329620Y-88907442D01*
X147204727Y-88735540D01*
X147204723Y-88735535D01*
X147054464Y-88585276D01*
X147054459Y-88585272D01*
X146889781Y-88465627D01*
X146847115Y-88410297D01*
X146841136Y-88340684D01*
X146873741Y-88278889D01*
X146889776Y-88264994D01*
X147054792Y-88145104D01*
X147205104Y-87994792D01*
X147205106Y-87994788D01*
X147205109Y-87994786D01*
X147330048Y-87822820D01*
X147330047Y-87822820D01*
X147330051Y-87822816D01*
X147426557Y-87633412D01*
X147492246Y-87431243D01*
X147525500Y-87221287D01*
X147525500Y-87008713D01*
X147492246Y-86798757D01*
X147447851Y-86662126D01*
X147445857Y-86592290D01*
X147478100Y-86536133D01*
X148287416Y-85726819D01*
X148348739Y-85693334D01*
X148375097Y-85690500D01*
X176405501Y-85690500D01*
X176472540Y-85710185D01*
X176518295Y-85762989D01*
X176529501Y-85814500D01*
X176529501Y-85865018D01*
X176540000Y-85967796D01*
X176540001Y-85967799D01*
X176585894Y-86106294D01*
X176595186Y-86134334D01*
X176687288Y-86283656D01*
X176811344Y-86407712D01*
X176960666Y-86499814D01*
X177127203Y-86554999D01*
X177229991Y-86565500D01*
X178530008Y-86565499D01*
X178632797Y-86554999D01*
X178799334Y-86499814D01*
X178948656Y-86407712D01*
X179072712Y-86283656D01*
X179164814Y-86134334D01*
X179164814Y-86134331D01*
X179168178Y-86128879D01*
X179220126Y-86082154D01*
X179289088Y-86070931D01*
X179353170Y-86098774D01*
X179361398Y-86106294D01*
X179465252Y-86210148D01*
X179498737Y-86271471D01*
X179493753Y-86341163D01*
X179465252Y-86385510D01*
X178857584Y-86993181D01*
X178796261Y-87026666D01*
X178769903Y-87029500D01*
X168196136Y-87029500D01*
X168038022Y-87029500D01*
X167885294Y-87070423D01*
X167885293Y-87070423D01*
X167885291Y-87070424D01*
X167885288Y-87070425D01*
X167835175Y-87099359D01*
X167835174Y-87099360D01*
X167791768Y-87124420D01*
X167748364Y-87149479D01*
X167748361Y-87149481D01*
X167689863Y-87207980D01*
X167636559Y-87261284D01*
X167636557Y-87261286D01*
X165389091Y-89508753D01*
X163142163Y-91755681D01*
X163080840Y-91789166D01*
X163054482Y-91792000D01*
X161554912Y-91792000D01*
X161487873Y-91772315D01*
X161477597Y-91764945D01*
X161474763Y-91762685D01*
X161474762Y-91762684D01*
X161417996Y-91727015D01*
X161322023Y-91666711D01*
X161151754Y-91607131D01*
X161151749Y-91607130D01*
X160972504Y-91586935D01*
X160972496Y-91586935D01*
X160793250Y-91607130D01*
X160793245Y-91607131D01*
X160622976Y-91666711D01*
X160470237Y-91762684D01*
X160342684Y-91890237D01*
X160246711Y-92042976D01*
X160187131Y-92213245D01*
X160187130Y-92213250D01*
X160166935Y-92392496D01*
X160166935Y-92392503D01*
X160187130Y-92571749D01*
X160187131Y-92571754D01*
X160246711Y-92742023D01*
X160254666Y-92754683D01*
X160342684Y-92894762D01*
X160470238Y-93022316D01*
X160622978Y-93118289D01*
X160758614Y-93165750D01*
X160793245Y-93177868D01*
X160793250Y-93177869D01*
X160972496Y-93198065D01*
X160972500Y-93198065D01*
X160972504Y-93198065D01*
X161151749Y-93177869D01*
X161151752Y-93177868D01*
X161151755Y-93177868D01*
X161322022Y-93118289D01*
X161474762Y-93022316D01*
X161474767Y-93022310D01*
X161477597Y-93020055D01*
X161479775Y-93019165D01*
X161480658Y-93018611D01*
X161480755Y-93018765D01*
X161542283Y-92993645D01*
X161554912Y-92993000D01*
X161660316Y-92993000D01*
X161727355Y-93012685D01*
X161773110Y-93065489D01*
X161783054Y-93134647D01*
X161777357Y-93157956D01*
X161774632Y-93165740D01*
X161774630Y-93165750D01*
X161754435Y-93344996D01*
X161754435Y-93345003D01*
X161774630Y-93524249D01*
X161774631Y-93524254D01*
X161834211Y-93694523D01*
X161930184Y-93847262D01*
X162057738Y-93974816D01*
X162127138Y-94018423D01*
X162207724Y-94069059D01*
X162210478Y-94070789D01*
X162380745Y-94130368D01*
X162380750Y-94130369D01*
X162559996Y-94150565D01*
X162560000Y-94150565D01*
X162560004Y-94150565D01*
X162739249Y-94130369D01*
X162739252Y-94130368D01*
X162739255Y-94130368D01*
X162909522Y-94070789D01*
X163062262Y-93974816D01*
X163062266Y-93974811D01*
X163065097Y-93972555D01*
X163067275Y-93971665D01*
X163068158Y-93971111D01*
X163068255Y-93971265D01*
X163129784Y-93946146D01*
X163142411Y-93945501D01*
X163301859Y-93945501D01*
X163301862Y-93945501D01*
X163454590Y-93904577D01*
X163504709Y-93875639D01*
X163591521Y-93825520D01*
X163703325Y-93713716D01*
X163703325Y-93713714D01*
X163713533Y-93703507D01*
X163713534Y-93703504D01*
X164885413Y-92531626D01*
X164946734Y-92498143D01*
X165016426Y-92503127D01*
X165043676Y-92518552D01*
X165043911Y-92518180D01*
X165049806Y-92521884D01*
X165049807Y-92521885D01*
X165128590Y-92571388D01*
X165202244Y-92617668D01*
X165202547Y-92617858D01*
X165372814Y-92677437D01*
X165372819Y-92677438D01*
X165552065Y-92697634D01*
X165552069Y-92697634D01*
X165552073Y-92697634D01*
X165731318Y-92677438D01*
X165731321Y-92677437D01*
X165731324Y-92677437D01*
X165901591Y-92617858D01*
X166054331Y-92521885D01*
X166181885Y-92394331D01*
X166277858Y-92241591D01*
X166337437Y-92071324D01*
X166347230Y-91984398D01*
X166374295Y-91919987D01*
X166382759Y-91910612D01*
X169048554Y-89244819D01*
X169109877Y-89211334D01*
X169136235Y-89208500D01*
X181775331Y-89208500D01*
X181775347Y-89208501D01*
X181782943Y-89208501D01*
X181941054Y-89208501D01*
X181941057Y-89208501D01*
X182093785Y-89167577D01*
X182143904Y-89138639D01*
X182230716Y-89088520D01*
X182342520Y-88976716D01*
X182342520Y-88976714D01*
X182352728Y-88966507D01*
X182352730Y-88966504D01*
X184801133Y-86518100D01*
X184862454Y-86484617D01*
X184927126Y-86487851D01*
X185063757Y-86532246D01*
X185273713Y-86565500D01*
X185273714Y-86565500D01*
X185486286Y-86565500D01*
X185486287Y-86565500D01*
X185696243Y-86532246D01*
X185898412Y-86466557D01*
X186087816Y-86370051D01*
X186127577Y-86341163D01*
X186259786Y-86245109D01*
X186259788Y-86245106D01*
X186259792Y-86245104D01*
X186410104Y-86094792D01*
X186529991Y-85929779D01*
X186585320Y-85887115D01*
X186654933Y-85881136D01*
X186716729Y-85913741D01*
X186730627Y-85929781D01*
X186850272Y-86094459D01*
X186850276Y-86094464D01*
X187000535Y-86244723D01*
X187000540Y-86244727D01*
X187172442Y-86369620D01*
X187361782Y-86466095D01*
X187563870Y-86531757D01*
X187773754Y-86565000D01*
X187986246Y-86565000D01*
X188196127Y-86531757D01*
X188196130Y-86531757D01*
X188398217Y-86466095D01*
X188587557Y-86369620D01*
X188759459Y-86244727D01*
X188759464Y-86244723D01*
X188909721Y-86094466D01*
X189029371Y-85929781D01*
X189084701Y-85887115D01*
X189154314Y-85881136D01*
X189216110Y-85913741D01*
X189230008Y-85929781D01*
X189349890Y-86094785D01*
X189349894Y-86094790D01*
X189500213Y-86245109D01*
X189672179Y-86370048D01*
X189672181Y-86370049D01*
X189672184Y-86370051D01*
X189861588Y-86466557D01*
X190063757Y-86532246D01*
X190273713Y-86565500D01*
X190273714Y-86565500D01*
X190486286Y-86565500D01*
X190486287Y-86565500D01*
X190696243Y-86532246D01*
X190898412Y-86466557D01*
X191087816Y-86370051D01*
X191127577Y-86341163D01*
X191259786Y-86245109D01*
X191259788Y-86245106D01*
X191259792Y-86245104D01*
X191410104Y-86094792D01*
X191410106Y-86094788D01*
X191410109Y-86094786D01*
X191535048Y-85922820D01*
X191535047Y-85922820D01*
X191535051Y-85922816D01*
X191631557Y-85733412D01*
X191697246Y-85531243D01*
X191730500Y-85321287D01*
X191730500Y-84858713D01*
X191697246Y-84648757D01*
X191631557Y-84446588D01*
X191535051Y-84257184D01*
X191535049Y-84257181D01*
X191535048Y-84257179D01*
X191410109Y-84085213D01*
X191259786Y-83934890D01*
X191087820Y-83809951D01*
X190898414Y-83713444D01*
X190898413Y-83713443D01*
X190898412Y-83713443D01*
X190696243Y-83647754D01*
X190696241Y-83647753D01*
X190696240Y-83647753D01*
X190534957Y-83622208D01*
X190486287Y-83614500D01*
X190273713Y-83614500D01*
X190225042Y-83622208D01*
X190063760Y-83647753D01*
X189861585Y-83713444D01*
X189672179Y-83809951D01*
X189500213Y-83934890D01*
X189349894Y-84085209D01*
X189349890Y-84085214D01*
X189230008Y-84250218D01*
X189174678Y-84292884D01*
X189105065Y-84298863D01*
X189043270Y-84266257D01*
X189029372Y-84250218D01*
X188909727Y-84085540D01*
X188909723Y-84085535D01*
X188759464Y-83935276D01*
X188759459Y-83935272D01*
X188587557Y-83810379D01*
X188398217Y-83713904D01*
X188196129Y-83648242D01*
X187986246Y-83615000D01*
X187773754Y-83615000D01*
X187563872Y-83648242D01*
X187563869Y-83648242D01*
X187361782Y-83713904D01*
X187172442Y-83810379D01*
X187000540Y-83935272D01*
X187000535Y-83935276D01*
X186850276Y-84085535D01*
X186850272Y-84085540D01*
X186730627Y-84250218D01*
X186675297Y-84292884D01*
X186605684Y-84298863D01*
X186543889Y-84266257D01*
X186529991Y-84250218D01*
X186410109Y-84085214D01*
X186410105Y-84085209D01*
X186259786Y-83934890D01*
X186087820Y-83809951D01*
X185898414Y-83713444D01*
X185898413Y-83713443D01*
X185898412Y-83713443D01*
X185696243Y-83647754D01*
X185696241Y-83647753D01*
X185696240Y-83647753D01*
X185534957Y-83622208D01*
X185486287Y-83614500D01*
X185273713Y-83614500D01*
X185225042Y-83622208D01*
X185063760Y-83647753D01*
X184861585Y-83713444D01*
X184672179Y-83809951D01*
X184500213Y-83934890D01*
X184349894Y-84085209D01*
X184349890Y-84085214D01*
X184230318Y-84249793D01*
X184174989Y-84292459D01*
X184105375Y-84298438D01*
X184043580Y-84265833D01*
X184029682Y-84249793D01*
X183910109Y-84085214D01*
X183910105Y-84085209D01*
X183759786Y-83934890D01*
X183587820Y-83809951D01*
X183398414Y-83713444D01*
X183398413Y-83713443D01*
X183398412Y-83713443D01*
X183196243Y-83647754D01*
X183196241Y-83647753D01*
X183196240Y-83647753D01*
X183034957Y-83622208D01*
X182986287Y-83614500D01*
X182773713Y-83614500D01*
X182725042Y-83622208D01*
X182563760Y-83647753D01*
X182361585Y-83713444D01*
X182172179Y-83809951D01*
X182000213Y-83934890D01*
X181849894Y-84085209D01*
X181849890Y-84085214D01*
X181730318Y-84249793D01*
X181674989Y-84292459D01*
X181605375Y-84298438D01*
X181543580Y-84265833D01*
X181529682Y-84249793D01*
X181410109Y-84085214D01*
X181410105Y-84085209D01*
X181259786Y-83934890D01*
X181087820Y-83809951D01*
X180898414Y-83713444D01*
X180898413Y-83713443D01*
X180898412Y-83713443D01*
X180696243Y-83647754D01*
X180696241Y-83647753D01*
X180696240Y-83647753D01*
X180534957Y-83622208D01*
X180486287Y-83614500D01*
X180273713Y-83614500D01*
X180225042Y-83622208D01*
X180063760Y-83647753D01*
X179861585Y-83713444D01*
X179672179Y-83809951D01*
X179500215Y-83934889D01*
X179361398Y-84073706D01*
X179300075Y-84107190D01*
X179230383Y-84102206D01*
X179174450Y-84060334D01*
X179168178Y-84051120D01*
X179072712Y-83896344D01*
X178948657Y-83772289D01*
X178948656Y-83772288D01*
X178799334Y-83680186D01*
X178632797Y-83625001D01*
X178632795Y-83625000D01*
X178530010Y-83614500D01*
X177229998Y-83614500D01*
X177229981Y-83614501D01*
X177127203Y-83625000D01*
X177127200Y-83625001D01*
X176960668Y-83680185D01*
X176960663Y-83680187D01*
X176811342Y-83772289D01*
X176687289Y-83896342D01*
X176595187Y-84045663D01*
X176595185Y-84045668D01*
X176590325Y-84060334D01*
X176540001Y-84212203D01*
X176540001Y-84212204D01*
X176540000Y-84212204D01*
X176529500Y-84314983D01*
X176529500Y-84365500D01*
X176509815Y-84432539D01*
X176457011Y-84478294D01*
X176405500Y-84489500D01*
X147995940Y-84489500D01*
X147955019Y-84500464D01*
X147955019Y-84500465D01*
X147917751Y-84510451D01*
X147843214Y-84530423D01*
X147843209Y-84530426D01*
X147706290Y-84609475D01*
X147706282Y-84609481D01*
X147594478Y-84721286D01*
X146559025Y-85756738D01*
X146497702Y-85790223D01*
X146451946Y-85791530D01*
X146281287Y-85764500D01*
X145818713Y-85764500D01*
X145770042Y-85772208D01*
X145608760Y-85797753D01*
X145406585Y-85863444D01*
X145217179Y-85959951D01*
X145045213Y-86084890D01*
X144894890Y-86235213D01*
X144769951Y-86407179D01*
X144673444Y-86596585D01*
X144607753Y-86798760D01*
X144574500Y-87008713D01*
X140835500Y-87008713D01*
X140835500Y-74284500D01*
X140855185Y-74217461D01*
X140907989Y-74171706D01*
X140959500Y-74160500D01*
X187390890Y-74160500D01*
X187390892Y-74160500D01*
X187518186Y-74126392D01*
X187632314Y-74060500D01*
X187725500Y-73967314D01*
X187791392Y-73853186D01*
X187825500Y-73725892D01*
X187825500Y-70484999D01*
X189829432Y-70484999D01*
X189829432Y-70485000D01*
X189849266Y-70711705D01*
X189849268Y-70711715D01*
X189908164Y-70931523D01*
X189908166Y-70931527D01*
X189908167Y-70931531D01*
X189943722Y-71007778D01*
X190004344Y-71137783D01*
X190004345Y-71137785D01*
X190134873Y-71324198D01*
X190134878Y-71324204D01*
X190295795Y-71485121D01*
X190295801Y-71485126D01*
X190482214Y-71615654D01*
X190482216Y-71615655D01*
X190688469Y-71711833D01*
X190908290Y-71770733D01*
X191089658Y-71786601D01*
X191134999Y-71790568D01*
X191135000Y-71790568D01*
X191135001Y-71790568D01*
X191172785Y-71787262D01*
X191361710Y-71770733D01*
X191581531Y-71711833D01*
X191787784Y-71615655D01*
X191974203Y-71485123D01*
X192135123Y-71324203D01*
X192265655Y-71137784D01*
X192292618Y-71079961D01*
X192338790Y-71027523D01*
X192405984Y-71008371D01*
X192472865Y-71028587D01*
X192517382Y-71079962D01*
X192544344Y-71137783D01*
X192544345Y-71137785D01*
X192674873Y-71324198D01*
X192674878Y-71324204D01*
X192835795Y-71485121D01*
X192835801Y-71485126D01*
X193022214Y-71615654D01*
X193022216Y-71615655D01*
X193228469Y-71711833D01*
X193448290Y-71770733D01*
X193629658Y-71786601D01*
X193674999Y-71790568D01*
X193675000Y-71790568D01*
X193675001Y-71790568D01*
X193712785Y-71787262D01*
X193901710Y-71770733D01*
X194121531Y-71711833D01*
X194327784Y-71615655D01*
X194514203Y-71485123D01*
X194675123Y-71324203D01*
X194805655Y-71137784D01*
X194832895Y-71079367D01*
X194879065Y-71026930D01*
X194946259Y-71007778D01*
X195013140Y-71027993D01*
X195057658Y-71079369D01*
X195084780Y-71137533D01*
X195084782Y-71137537D01*
X195215261Y-71323881D01*
X195376118Y-71484738D01*
X195562462Y-71615217D01*
X195562466Y-71615219D01*
X195768639Y-71711359D01*
X195768648Y-71711363D01*
X195988372Y-71770237D01*
X195988382Y-71770239D01*
X196214999Y-71790066D01*
X196215001Y-71790066D01*
X196441617Y-71770239D01*
X196441627Y-71770237D01*
X196661351Y-71711363D01*
X196661360Y-71711359D01*
X196867533Y-71615219D01*
X196867537Y-71615217D01*
X197053881Y-71484738D01*
X197214738Y-71323881D01*
X197345217Y-71137537D01*
X197345218Y-71137534D01*
X197372340Y-71079371D01*
X197418512Y-71026931D01*
X197485705Y-71007778D01*
X197552587Y-71027993D01*
X197597105Y-71079369D01*
X197624344Y-71137783D01*
X197624345Y-71137785D01*
X197754873Y-71324198D01*
X197754878Y-71324204D01*
X197915795Y-71485121D01*
X197915801Y-71485126D01*
X198102214Y-71615654D01*
X198102216Y-71615655D01*
X198308469Y-71711833D01*
X198528290Y-71770733D01*
X198709658Y-71786601D01*
X198754999Y-71790568D01*
X198755000Y-71790568D01*
X198755001Y-71790568D01*
X198792785Y-71787262D01*
X198981710Y-71770733D01*
X199201531Y-71711833D01*
X199407784Y-71615655D01*
X199594203Y-71485123D01*
X199755123Y-71324203D01*
X199885655Y-71137784D01*
X199981833Y-70931531D01*
X200040733Y-70711710D01*
X200060568Y-70485000D01*
X200040733Y-70258290D01*
X199981833Y-70038469D01*
X199885655Y-69832216D01*
X199755123Y-69645797D01*
X199594203Y-69484877D01*
X199594201Y-69484876D01*
X199594198Y-69484873D01*
X199407785Y-69354345D01*
X199407783Y-69354344D01*
X199304657Y-69306256D01*
X199201531Y-69258167D01*
X199201527Y-69258166D01*
X199201523Y-69258164D01*
X198981715Y-69199268D01*
X198981705Y-69199266D01*
X198755001Y-69179432D01*
X198754999Y-69179432D01*
X198528294Y-69199266D01*
X198528284Y-69199268D01*
X198308476Y-69258164D01*
X198308467Y-69258168D01*
X198102216Y-69354344D01*
X198102214Y-69354345D01*
X197915801Y-69484873D01*
X197915795Y-69484878D01*
X197754878Y-69645795D01*
X197754873Y-69645801D01*
X197624346Y-69832213D01*
X197597105Y-69890631D01*
X197550932Y-69943070D01*
X197483738Y-69962221D01*
X197416857Y-69942004D01*
X197372340Y-69890629D01*
X197345216Y-69832462D01*
X197214738Y-69646118D01*
X197053881Y-69485261D01*
X196867537Y-69354782D01*
X196867533Y-69354780D01*
X196661360Y-69258640D01*
X196661351Y-69258636D01*
X196441627Y-69199762D01*
X196441617Y-69199760D01*
X196215001Y-69179934D01*
X196214999Y-69179934D01*
X195988382Y-69199760D01*
X195988372Y-69199762D01*
X195768648Y-69258636D01*
X195768639Y-69258640D01*
X195562466Y-69354780D01*
X195562462Y-69354782D01*
X195376118Y-69485261D01*
X195215261Y-69646118D01*
X195084782Y-69832462D01*
X195084780Y-69832467D01*
X195057658Y-69890630D01*
X195011485Y-69943069D01*
X194944292Y-69962221D01*
X194877410Y-69942005D01*
X194832894Y-69890630D01*
X194832617Y-69890037D01*
X194805655Y-69832216D01*
X194675123Y-69645797D01*
X194514203Y-69484877D01*
X194514201Y-69484876D01*
X194514198Y-69484873D01*
X194327785Y-69354345D01*
X194327783Y-69354344D01*
X194224657Y-69306256D01*
X194121531Y-69258167D01*
X194121527Y-69258166D01*
X194121523Y-69258164D01*
X193901715Y-69199268D01*
X193901705Y-69199266D01*
X193675001Y-69179432D01*
X193674999Y-69179432D01*
X193448294Y-69199266D01*
X193448284Y-69199268D01*
X193228476Y-69258164D01*
X193228467Y-69258168D01*
X193022216Y-69354344D01*
X193022214Y-69354345D01*
X192835801Y-69484873D01*
X192835795Y-69484878D01*
X192674878Y-69645795D01*
X192674873Y-69645801D01*
X192544345Y-69832214D01*
X192544344Y-69832216D01*
X192517382Y-69890037D01*
X192471209Y-69942476D01*
X192404016Y-69961628D01*
X192337134Y-69941412D01*
X192292618Y-69890037D01*
X192265655Y-69832216D01*
X192265654Y-69832214D01*
X192135126Y-69645801D01*
X192135121Y-69645795D01*
X191974204Y-69484878D01*
X191974198Y-69484873D01*
X191787785Y-69354345D01*
X191787783Y-69354344D01*
X191684657Y-69306256D01*
X191581531Y-69258167D01*
X191581527Y-69258166D01*
X191581523Y-69258164D01*
X191361715Y-69199268D01*
X191361705Y-69199266D01*
X191135001Y-69179432D01*
X191134999Y-69179432D01*
X190908294Y-69199266D01*
X190908284Y-69199268D01*
X190688476Y-69258164D01*
X190688467Y-69258168D01*
X190482216Y-69354344D01*
X190482214Y-69354345D01*
X190295801Y-69484873D01*
X190295795Y-69484878D01*
X190134878Y-69645795D01*
X190134873Y-69645801D01*
X190004345Y-69832214D01*
X190004344Y-69832216D01*
X189908168Y-70038467D01*
X189908164Y-70038476D01*
X189849268Y-70258284D01*
X189849266Y-70258294D01*
X189829432Y-70484999D01*
X187825500Y-70484999D01*
X187825500Y-64759500D01*
X187845185Y-64692461D01*
X187897989Y-64646706D01*
X187949500Y-64635500D01*
X203210500Y-64635500D01*
X203277539Y-64655185D01*
G37*
%TD.AperFunction*%
%TD*%
M02*
