%TF.GenerationSoftware,KiCad,Pcbnew,8.0.3*%
%TF.CreationDate,2024-10-26T03:20:48-07:00*%
%TF.ProjectId,test,74657374-2e6b-4696-9361-645f70636258,rev?*%
%TF.SameCoordinates,Original*%
%TF.FileFunction,Soldermask,Top*%
%TF.FilePolarity,Negative*%
%FSLAX46Y46*%
G04 Gerber Fmt 4.6, Leading zero omitted, Abs format (unit mm)*
G04 Created by KiCad (PCBNEW 8.0.3) date 2024-10-26 03:20:48*
%MOMM*%
%LPD*%
G01*
G04 APERTURE LIST*
G04 Aperture macros list*
%AMRoundRect*
0 Rectangle with rounded corners*
0 $1 Rounding radius*
0 $2 $3 $4 $5 $6 $7 $8 $9 X,Y pos of 4 corners*
0 Add a 4 corners polygon primitive as box body*
4,1,4,$2,$3,$4,$5,$6,$7,$8,$9,$2,$3,0*
0 Add four circle primitives for the rounded corners*
1,1,$1+$1,$2,$3*
1,1,$1+$1,$4,$5*
1,1,$1+$1,$6,$7*
1,1,$1+$1,$8,$9*
0 Add four rect primitives between the rounded corners*
20,1,$1+$1,$2,$3,$4,$5,0*
20,1,$1+$1,$4,$5,$6,$7,0*
20,1,$1+$1,$6,$7,$8,$9,0*
20,1,$1+$1,$8,$9,$2,$3,0*%
G04 Aperture macros list end*
%ADD10C,2.000000*%
%ADD11RoundRect,0.102000X-0.609000X0.609000X-0.609000X-0.609000X0.609000X-0.609000X0.609000X0.609000X0*%
%ADD12C,1.422000*%
%ADD13RoundRect,0.218750X-0.256250X0.218750X-0.256250X-0.218750X0.256250X-0.218750X0.256250X0.218750X0*%
%ADD14RoundRect,0.218750X0.218750X0.256250X-0.218750X0.256250X-0.218750X-0.256250X0.218750X-0.256250X0*%
%ADD15RoundRect,0.218750X-0.218750X-0.256250X0.218750X-0.256250X0.218750X0.256250X-0.218750X0.256250X0*%
%ADD16R,0.900000X1.500000*%
%ADD17R,1.500000X0.900000*%
%ADD18R,0.900000X0.900000*%
%ADD19RoundRect,0.250000X-0.475000X0.250000X-0.475000X-0.250000X0.475000X-0.250000X0.475000X0.250000X0*%
%ADD20RoundRect,0.375000X0.375000X-0.625000X0.375000X0.625000X-0.375000X0.625000X-0.375000X-0.625000X0*%
%ADD21RoundRect,0.500000X1.400000X-0.500000X1.400000X0.500000X-1.400000X0.500000X-1.400000X-0.500000X0*%
%ADD22RoundRect,0.250000X0.250000X0.475000X-0.250000X0.475000X-0.250000X-0.475000X0.250000X-0.475000X0*%
%ADD23RoundRect,0.250000X0.475000X-0.250000X0.475000X0.250000X-0.475000X0.250000X-0.475000X-0.250000X0*%
%ADD24RoundRect,0.250000X0.450000X-0.262500X0.450000X0.262500X-0.450000X0.262500X-0.450000X-0.262500X0*%
%ADD25R,2.108200X0.558800*%
%ADD26RoundRect,0.100000X0.100000X-0.637500X0.100000X0.637500X-0.100000X0.637500X-0.100000X-0.637500X0*%
%ADD27RoundRect,0.249999X-0.450001X-1.450001X0.450001X-1.450001X0.450001X1.450001X-0.450001X1.450001X0*%
%ADD28RoundRect,0.250000X0.262500X0.450000X-0.262500X0.450000X-0.262500X-0.450000X0.262500X-0.450000X0*%
%ADD29RoundRect,0.249999X1.450001X-0.450001X1.450001X0.450001X-1.450001X0.450001X-1.450001X-0.450001X0*%
%ADD30RoundRect,0.250000X-0.250000X-0.475000X0.250000X-0.475000X0.250000X0.475000X-0.250000X0.475000X0*%
%ADD31RoundRect,0.150000X-0.850000X-0.150000X0.850000X-0.150000X0.850000X0.150000X-0.850000X0.150000X0*%
%ADD32RoundRect,0.250000X0.750000X-0.600000X0.750000X0.600000X-0.750000X0.600000X-0.750000X-0.600000X0*%
%ADD33O,2.000000X1.700000*%
%ADD34RoundRect,0.250000X-0.750000X0.600000X-0.750000X-0.600000X0.750000X-0.600000X0.750000X0.600000X0*%
%ADD35C,1.600200*%
%ADD36RoundRect,0.250000X0.725000X-0.600000X0.725000X0.600000X-0.725000X0.600000X-0.725000X-0.600000X0*%
%ADD37O,1.950000X1.700000*%
%ADD38C,1.250000*%
%ADD39O,2.754000X1.354000*%
%ADD40RoundRect,0.250000X-0.600000X-0.725000X0.600000X-0.725000X0.600000X0.725000X-0.600000X0.725000X0*%
%ADD41O,1.700000X1.950000*%
G04 APERTURE END LIST*
D10*
%TO.C,TP1*%
X196850000Y-89655000D03*
%TD*%
%TO.C,TP4*%
X196850000Y-85090000D03*
%TD*%
%TO.C,TP8*%
X196850000Y-80645000D03*
%TD*%
D11*
%TO.C,RV2*%
X145415000Y-107950000D03*
D12*
X142875000Y-110490000D03*
X145415000Y-113030000D03*
%TD*%
D11*
%TO.C,RV1*%
X193040000Y-108585000D03*
D12*
X190500000Y-111125000D03*
X193040000Y-113665000D03*
%TD*%
D13*
%TO.C,FB6*%
X131445000Y-119227500D03*
X131445000Y-120802500D03*
%TD*%
%TO.C,FB5*%
X135255000Y-105892500D03*
X135255000Y-107467500D03*
%TD*%
D14*
%TO.C,FB4*%
X200812500Y-117475000D03*
X199237500Y-117475000D03*
%TD*%
D15*
%TO.C,FB3*%
X199237500Y-120650000D03*
X200812500Y-120650000D03*
%TD*%
D16*
%TO.C,U4*%
X171990000Y-90286000D03*
X170720000Y-90286000D03*
X169450000Y-90286000D03*
X168180000Y-90286000D03*
X166910000Y-90286000D03*
X165640000Y-90286000D03*
X164370000Y-90286000D03*
X163100000Y-90286000D03*
X161830000Y-90286000D03*
X160560000Y-90286000D03*
X159290000Y-90286000D03*
X158020000Y-90286000D03*
X156750000Y-90286000D03*
X155480000Y-90286000D03*
D17*
X154230000Y-93316000D03*
X154230000Y-94586000D03*
X154230000Y-95856000D03*
X154230000Y-97126000D03*
X154230000Y-98396000D03*
X154230000Y-99666000D03*
X154230000Y-100936000D03*
X154230000Y-102206000D03*
X154230000Y-103476000D03*
X154230000Y-104746000D03*
D16*
X155480000Y-107786000D03*
X156750000Y-107786000D03*
X158020000Y-107786000D03*
X159290000Y-107786000D03*
X160560000Y-107786000D03*
X161830000Y-107786000D03*
X163100000Y-107786000D03*
X164370000Y-107786000D03*
X165640000Y-107786000D03*
X166910000Y-107786000D03*
X168180000Y-107786000D03*
X169450000Y-107786000D03*
X170720000Y-107786000D03*
X171990000Y-107786000D03*
D18*
X165670000Y-96136000D03*
X165670000Y-96136000D03*
X164270000Y-96136000D03*
X162870000Y-96136000D03*
X162870000Y-96136000D03*
X165670000Y-97536000D03*
X164270000Y-97536000D03*
X162870000Y-97536000D03*
X162870000Y-97536000D03*
X165670000Y-98936000D03*
X164270000Y-98936000D03*
X162870000Y-98936000D03*
%TD*%
D19*
%TO.C,C6*%
X188022000Y-102806000D03*
X188022000Y-104706000D03*
%TD*%
%TO.C,C9*%
X132715000Y-129860000D03*
X132715000Y-131760000D03*
%TD*%
D20*
%TO.C,U5*%
X184198000Y-98270000D03*
X186498000Y-98270000D03*
D21*
X186498000Y-91970000D03*
D20*
X188798000Y-98270000D03*
%TD*%
D22*
%TO.C,C12*%
X165096000Y-79880000D03*
X163196000Y-79880000D03*
%TD*%
D23*
%TO.C,C5*%
X133985000Y-124140000D03*
X133985000Y-122240000D03*
%TD*%
D24*
%TO.C,R3*%
X130175000Y-131722500D03*
X130175000Y-129897500D03*
%TD*%
D25*
%TO.C,SW3*%
X153225300Y-83436000D03*
X159826700Y-83436000D03*
%TD*%
D26*
%TO.C,U6*%
X158073500Y-124782500D03*
X158723500Y-124782500D03*
X159373500Y-124782500D03*
X160023500Y-124782500D03*
X160673500Y-124782500D03*
X161323500Y-124782500D03*
X161973500Y-124782500D03*
X162623500Y-124782500D03*
X163273500Y-124782500D03*
X163923500Y-124782500D03*
X163923500Y-119057500D03*
X163273500Y-119057500D03*
X162623500Y-119057500D03*
X161973500Y-119057500D03*
X161323500Y-119057500D03*
X160673500Y-119057500D03*
X160023500Y-119057500D03*
X159373500Y-119057500D03*
X158723500Y-119057500D03*
X158073500Y-119057500D03*
%TD*%
D23*
%TO.C,C33*%
X152362500Y-117216000D03*
X152362500Y-115316000D03*
%TD*%
D22*
%TO.C,C31*%
X168486500Y-121412000D03*
X166586500Y-121412000D03*
%TD*%
D27*
%TO.C,C3*%
X145905000Y-130810000D03*
X150005000Y-130810000D03*
%TD*%
D28*
%TO.C,R13*%
X170948500Y-85468000D03*
X169123500Y-85468000D03*
%TD*%
D19*
%TO.C,C28*%
X154902500Y-115316000D03*
X154902500Y-117216000D03*
%TD*%
D28*
%TO.C,R11*%
X183752500Y-80077000D03*
X181927500Y-80077000D03*
%TD*%
D29*
%TO.C,C8*%
X146685000Y-122700000D03*
X146685000Y-118600000D03*
%TD*%
D24*
%TO.C,R12*%
X162622000Y-85261000D03*
X162622000Y-83436000D03*
%TD*%
%TO.C,R14*%
X193040000Y-93980000D03*
X193040000Y-92155000D03*
%TD*%
D30*
%TO.C,C4*%
X131130000Y-127000000D03*
X133030000Y-127000000D03*
%TD*%
D23*
%TO.C,C11*%
X137795000Y-132395000D03*
X137795000Y-130495000D03*
%TD*%
D22*
%TO.C,C25*%
X153920000Y-110868000D03*
X152020000Y-110868000D03*
%TD*%
D23*
%TO.C,C29*%
X150838500Y-122362000D03*
X150838500Y-120462000D03*
%TD*%
D30*
%TO.C,C26*%
X166586500Y-124968000D03*
X168486500Y-124968000D03*
%TD*%
D22*
%TO.C,C34*%
X154836500Y-121920000D03*
X152936500Y-121920000D03*
%TD*%
D19*
%TO.C,C27*%
X171158500Y-115382000D03*
X171158500Y-117282000D03*
%TD*%
D31*
%TO.C,U1*%
X137835000Y-119380000D03*
X137835000Y-120650000D03*
X137835000Y-121920000D03*
X137835000Y-123190000D03*
X137835000Y-124460000D03*
X137835000Y-125730000D03*
X137835000Y-127000000D03*
X137835000Y-128270000D03*
X142835000Y-128270000D03*
X142835000Y-127000000D03*
X142835000Y-125730000D03*
X142835000Y-124460000D03*
X142835000Y-123190000D03*
X142835000Y-121920000D03*
X142835000Y-120650000D03*
X142835000Y-119380000D03*
%TD*%
D30*
%TO.C,C30*%
X152936500Y-125476000D03*
X154836500Y-125476000D03*
%TD*%
D24*
%TO.C,R1*%
X170815000Y-132992500D03*
X170815000Y-131167500D03*
%TD*%
D22*
%TO.C,C1*%
X171445000Y-127635000D03*
X169545000Y-127635000D03*
%TD*%
%TO.C,C7*%
X184400000Y-102232000D03*
X182500000Y-102232000D03*
%TD*%
D23*
%TO.C,C22*%
X166178000Y-85402000D03*
X166178000Y-83502000D03*
%TD*%
D30*
%TO.C,C24*%
X169865000Y-83185000D03*
X171765000Y-83185000D03*
%TD*%
D19*
%TO.C,C32*%
X168618500Y-115382000D03*
X168618500Y-117282000D03*
%TD*%
%TO.C,C23*%
X170815000Y-77790000D03*
X170815000Y-79690000D03*
%TD*%
D32*
%TO.C,J1*%
X202565000Y-113030000D03*
D33*
X202565000Y-110530000D03*
%TD*%
D34*
%TO.C,J2*%
X134320000Y-112415000D03*
D33*
X134320000Y-114915000D03*
%TD*%
D35*
%TO.C,J6*%
X198755000Y-70485000D03*
X196215000Y-70485000D03*
X193675000Y-70485000D03*
X191135000Y-70485000D03*
%TD*%
D36*
%TO.C,J4*%
X146050000Y-99615000D03*
D37*
X146050000Y-97115000D03*
X146050000Y-94615000D03*
X146050000Y-92115000D03*
X146050000Y-89615000D03*
X146050000Y-87115000D03*
%TD*%
D38*
%TO.C,J3*%
X200660000Y-95925000D03*
X200660000Y-100925000D03*
D39*
X200280000Y-93455000D03*
X200280000Y-103395000D03*
%TD*%
D40*
%TO.C,J5*%
X177880000Y-85090000D03*
D41*
X180380000Y-85090000D03*
X182880000Y-85090000D03*
X185380000Y-85090000D03*
X187880000Y-85090000D03*
X190380000Y-85090000D03*
%TD*%
M02*
