%TF.GenerationSoftware,KiCad,Pcbnew,8.0.3*%
%TF.CreationDate,2024-11-04T16:53:38-08:00*%
%TF.ProjectId,MicPCB,4d696350-4342-42e6-9b69-6361645f7063,rev?*%
%TF.SameCoordinates,Original*%
%TF.FileFunction,Drillmap*%
%TF.FilePolarity,Positive*%
%FSLAX45Y45*%
G04 Gerber Fmt 4.5, Leading zero omitted, Abs format (unit mm)*
G04 Created by KiCad (PCBNEW 8.0.3) date 2024-11-04 16:53:38*
%MOMM*%
%LPD*%
G01*
G04 APERTURE LIST*
%ADD10C,0.050000*%
%ADD11C,0.200000*%
%ADD12C,0.100000*%
G04 APERTURE END LIST*
D10*
X8686800Y-5613400D02*
X10713720Y-5613400D01*
X10713720Y-7833360D01*
X8686800Y-7833360D01*
X8686800Y-5613400D01*
D11*
D12*
X9662400Y-6192760D02*
X9692400Y-6222760D01*
X9692400Y-6192760D02*
X9662400Y-6222760D01*
X10099280Y-6147040D02*
X10129280Y-6177040D01*
X10129280Y-6147040D02*
X10099280Y-6177040D01*
X10200880Y-7142720D02*
X10230880Y-7172720D01*
X10230880Y-7142720D02*
X10200880Y-7172720D01*
X9138000Y-7463000D02*
G75*
G02*
X9043000Y-7463000I-47500J0D01*
G01*
X9043000Y-7463000D02*
G75*
G02*
X9138000Y-7463000I47500J0D01*
G01*
X9388000Y-7463000D02*
G75*
G02*
X9293000Y-7463000I-47500J0D01*
G01*
X9293000Y-7463000D02*
G75*
G02*
X9388000Y-7463000I47500J0D01*
G01*
X9638000Y-7463000D02*
G75*
G02*
X9543000Y-7463000I-47500J0D01*
G01*
X9543000Y-7463000D02*
G75*
G02*
X9638000Y-7463000I47500J0D01*
G01*
X9888000Y-7463000D02*
G75*
G02*
X9793000Y-7463000I-47500J0D01*
G01*
X9793000Y-7463000D02*
G75*
G02*
X9888000Y-7463000I47500J0D01*
G01*
X10138000Y-7463000D02*
G75*
G02*
X10043000Y-7463000I-47500J0D01*
G01*
X10043000Y-7463000D02*
G75*
G02*
X10138000Y-7463000I47500J0D01*
G01*
X10388000Y-7463000D02*
G75*
G02*
X10293000Y-7463000I-47500J0D01*
G01*
X10293000Y-7463000D02*
G75*
G02*
X10388000Y-7463000I47500J0D01*
G01*
X9461500Y-6681000D02*
X9461500Y-6781000D01*
X9411500Y-6731000D02*
X9511500Y-6731000D01*
X9475700Y-5819980D02*
X9475700Y-5919980D01*
X9425700Y-5869980D02*
X9525700Y-5869980D01*
X9715500Y-6681000D02*
X9715500Y-6781000D01*
X9665500Y-6731000D02*
X9765500Y-6731000D01*
X9729700Y-5819980D02*
X9729700Y-5919980D01*
X9679700Y-5869980D02*
X9779700Y-5869980D01*
X9969500Y-6681000D02*
X9969500Y-6781000D01*
X9919500Y-6731000D02*
X10019500Y-6731000D01*
X9983700Y-5819980D02*
X9983700Y-5919980D01*
X9933700Y-5869980D02*
X10033700Y-5869980D01*
D11*
X8945077Y-8147344D02*
X8945077Y-7947344D01*
X8945077Y-7947344D02*
X8992696Y-7947344D01*
X8992696Y-7947344D02*
X9021267Y-7956868D01*
X9021267Y-7956868D02*
X9040315Y-7975915D01*
X9040315Y-7975915D02*
X9049839Y-7994963D01*
X9049839Y-7994963D02*
X9059363Y-8033058D01*
X9059363Y-8033058D02*
X9059363Y-8061629D01*
X9059363Y-8061629D02*
X9049839Y-8099725D01*
X9049839Y-8099725D02*
X9040315Y-8118772D01*
X9040315Y-8118772D02*
X9021267Y-8137820D01*
X9021267Y-8137820D02*
X8992696Y-8147344D01*
X8992696Y-8147344D02*
X8945077Y-8147344D01*
X9145077Y-8147344D02*
X9145077Y-8014010D01*
X9145077Y-8052106D02*
X9154601Y-8033058D01*
X9154601Y-8033058D02*
X9164124Y-8023534D01*
X9164124Y-8023534D02*
X9183172Y-8014010D01*
X9183172Y-8014010D02*
X9202220Y-8014010D01*
X9268886Y-8147344D02*
X9268886Y-8014010D01*
X9268886Y-7947344D02*
X9259363Y-7956868D01*
X9259363Y-7956868D02*
X9268886Y-7966391D01*
X9268886Y-7966391D02*
X9278410Y-7956868D01*
X9278410Y-7956868D02*
X9268886Y-7947344D01*
X9268886Y-7947344D02*
X9268886Y-7966391D01*
X9392696Y-8147344D02*
X9373648Y-8137820D01*
X9373648Y-8137820D02*
X9364124Y-8118772D01*
X9364124Y-8118772D02*
X9364124Y-7947344D01*
X9497458Y-8147344D02*
X9478410Y-8137820D01*
X9478410Y-8137820D02*
X9468886Y-8118772D01*
X9468886Y-8118772D02*
X9468886Y-7947344D01*
X9726029Y-8147344D02*
X9726029Y-7947344D01*
X9726029Y-7947344D02*
X9792696Y-8090201D01*
X9792696Y-8090201D02*
X9859363Y-7947344D01*
X9859363Y-7947344D02*
X9859363Y-8147344D01*
X10040315Y-8147344D02*
X10040315Y-8042582D01*
X10040315Y-8042582D02*
X10030791Y-8023534D01*
X10030791Y-8023534D02*
X10011744Y-8014010D01*
X10011744Y-8014010D02*
X9973648Y-8014010D01*
X9973648Y-8014010D02*
X9954601Y-8023534D01*
X10040315Y-8137820D02*
X10021267Y-8147344D01*
X10021267Y-8147344D02*
X9973648Y-8147344D01*
X9973648Y-8147344D02*
X9954601Y-8137820D01*
X9954601Y-8137820D02*
X9945077Y-8118772D01*
X9945077Y-8118772D02*
X9945077Y-8099725D01*
X9945077Y-8099725D02*
X9954601Y-8080677D01*
X9954601Y-8080677D02*
X9973648Y-8071153D01*
X9973648Y-8071153D02*
X10021267Y-8071153D01*
X10021267Y-8071153D02*
X10040315Y-8061629D01*
X10135553Y-8014010D02*
X10135553Y-8214010D01*
X10135553Y-8023534D02*
X10154601Y-8014010D01*
X10154601Y-8014010D02*
X10192696Y-8014010D01*
X10192696Y-8014010D02*
X10211744Y-8023534D01*
X10211744Y-8023534D02*
X10221267Y-8033058D01*
X10221267Y-8033058D02*
X10230791Y-8052106D01*
X10230791Y-8052106D02*
X10230791Y-8109248D01*
X10230791Y-8109248D02*
X10221267Y-8128296D01*
X10221267Y-8128296D02*
X10211744Y-8137820D01*
X10211744Y-8137820D02*
X10192696Y-8147344D01*
X10192696Y-8147344D02*
X10154601Y-8147344D01*
X10154601Y-8147344D02*
X10135553Y-8137820D01*
X10316505Y-8128296D02*
X10326029Y-8137820D01*
X10326029Y-8137820D02*
X10316505Y-8147344D01*
X10316505Y-8147344D02*
X10306982Y-8137820D01*
X10306982Y-8137820D02*
X10316505Y-8128296D01*
X10316505Y-8128296D02*
X10316505Y-8147344D01*
X10316505Y-8023534D02*
X10326029Y-8033058D01*
X10326029Y-8033058D02*
X10316505Y-8042582D01*
X10316505Y-8042582D02*
X10306982Y-8033058D01*
X10306982Y-8033058D02*
X10316505Y-8023534D01*
X10316505Y-8023534D02*
X10316505Y-8042582D01*
D12*
X8654300Y-8460860D02*
X8684300Y-8490860D01*
X8684300Y-8460860D02*
X8654300Y-8490860D01*
D11*
X8983172Y-8367344D02*
X9002220Y-8367344D01*
X9002220Y-8367344D02*
X9021267Y-8376868D01*
X9021267Y-8376868D02*
X9030791Y-8386391D01*
X9030791Y-8386391D02*
X9040315Y-8405439D01*
X9040315Y-8405439D02*
X9049839Y-8443534D01*
X9049839Y-8443534D02*
X9049839Y-8491153D01*
X9049839Y-8491153D02*
X9040315Y-8529249D01*
X9040315Y-8529249D02*
X9030791Y-8548296D01*
X9030791Y-8548296D02*
X9021267Y-8557820D01*
X9021267Y-8557820D02*
X9002220Y-8567344D01*
X9002220Y-8567344D02*
X8983172Y-8567344D01*
X8983172Y-8567344D02*
X8964124Y-8557820D01*
X8964124Y-8557820D02*
X8954601Y-8548296D01*
X8954601Y-8548296D02*
X8945077Y-8529249D01*
X8945077Y-8529249D02*
X8935553Y-8491153D01*
X8935553Y-8491153D02*
X8935553Y-8443534D01*
X8935553Y-8443534D02*
X8945077Y-8405439D01*
X8945077Y-8405439D02*
X8954601Y-8386391D01*
X8954601Y-8386391D02*
X8964124Y-8376868D01*
X8964124Y-8376868D02*
X8983172Y-8367344D01*
X9135553Y-8548296D02*
X9145077Y-8557820D01*
X9145077Y-8557820D02*
X9135553Y-8567344D01*
X9135553Y-8567344D02*
X9126029Y-8557820D01*
X9126029Y-8557820D02*
X9135553Y-8548296D01*
X9135553Y-8548296D02*
X9135553Y-8567344D01*
X9211744Y-8367344D02*
X9335553Y-8367344D01*
X9335553Y-8367344D02*
X9268886Y-8443534D01*
X9268886Y-8443534D02*
X9297458Y-8443534D01*
X9297458Y-8443534D02*
X9316505Y-8453058D01*
X9316505Y-8453058D02*
X9326029Y-8462582D01*
X9326029Y-8462582D02*
X9335553Y-8481630D01*
X9335553Y-8481630D02*
X9335553Y-8529249D01*
X9335553Y-8529249D02*
X9326029Y-8548296D01*
X9326029Y-8548296D02*
X9316505Y-8557820D01*
X9316505Y-8557820D02*
X9297458Y-8567344D01*
X9297458Y-8567344D02*
X9240315Y-8567344D01*
X9240315Y-8567344D02*
X9221267Y-8557820D01*
X9221267Y-8557820D02*
X9211744Y-8548296D01*
X9459363Y-8367344D02*
X9478410Y-8367344D01*
X9478410Y-8367344D02*
X9497458Y-8376868D01*
X9497458Y-8376868D02*
X9506982Y-8386391D01*
X9506982Y-8386391D02*
X9516505Y-8405439D01*
X9516505Y-8405439D02*
X9526029Y-8443534D01*
X9526029Y-8443534D02*
X9526029Y-8491153D01*
X9526029Y-8491153D02*
X9516505Y-8529249D01*
X9516505Y-8529249D02*
X9506982Y-8548296D01*
X9506982Y-8548296D02*
X9497458Y-8557820D01*
X9497458Y-8557820D02*
X9478410Y-8567344D01*
X9478410Y-8567344D02*
X9459363Y-8567344D01*
X9459363Y-8567344D02*
X9440315Y-8557820D01*
X9440315Y-8557820D02*
X9430791Y-8548296D01*
X9430791Y-8548296D02*
X9421267Y-8529249D01*
X9421267Y-8529249D02*
X9411744Y-8491153D01*
X9411744Y-8491153D02*
X9411744Y-8443534D01*
X9411744Y-8443534D02*
X9421267Y-8405439D01*
X9421267Y-8405439D02*
X9430791Y-8386391D01*
X9430791Y-8386391D02*
X9440315Y-8376868D01*
X9440315Y-8376868D02*
X9459363Y-8367344D01*
X9649839Y-8367344D02*
X9668886Y-8367344D01*
X9668886Y-8367344D02*
X9687934Y-8376868D01*
X9687934Y-8376868D02*
X9697458Y-8386391D01*
X9697458Y-8386391D02*
X9706982Y-8405439D01*
X9706982Y-8405439D02*
X9716505Y-8443534D01*
X9716505Y-8443534D02*
X9716505Y-8491153D01*
X9716505Y-8491153D02*
X9706982Y-8529249D01*
X9706982Y-8529249D02*
X9697458Y-8548296D01*
X9697458Y-8548296D02*
X9687934Y-8557820D01*
X9687934Y-8557820D02*
X9668886Y-8567344D01*
X9668886Y-8567344D02*
X9649839Y-8567344D01*
X9649839Y-8567344D02*
X9630791Y-8557820D01*
X9630791Y-8557820D02*
X9621267Y-8548296D01*
X9621267Y-8548296D02*
X9611744Y-8529249D01*
X9611744Y-8529249D02*
X9602220Y-8491153D01*
X9602220Y-8491153D02*
X9602220Y-8443534D01*
X9602220Y-8443534D02*
X9611744Y-8405439D01*
X9611744Y-8405439D02*
X9621267Y-8386391D01*
X9621267Y-8386391D02*
X9630791Y-8376868D01*
X9630791Y-8376868D02*
X9649839Y-8367344D01*
X9802220Y-8567344D02*
X9802220Y-8434010D01*
X9802220Y-8453058D02*
X9811744Y-8443534D01*
X9811744Y-8443534D02*
X9830791Y-8434010D01*
X9830791Y-8434010D02*
X9859363Y-8434010D01*
X9859363Y-8434010D02*
X9878410Y-8443534D01*
X9878410Y-8443534D02*
X9887934Y-8462582D01*
X9887934Y-8462582D02*
X9887934Y-8567344D01*
X9887934Y-8462582D02*
X9897458Y-8443534D01*
X9897458Y-8443534D02*
X9916505Y-8434010D01*
X9916505Y-8434010D02*
X9945077Y-8434010D01*
X9945077Y-8434010D02*
X9964125Y-8443534D01*
X9964125Y-8443534D02*
X9973648Y-8462582D01*
X9973648Y-8462582D02*
X9973648Y-8567344D01*
X10068886Y-8567344D02*
X10068886Y-8434010D01*
X10068886Y-8453058D02*
X10078410Y-8443534D01*
X10078410Y-8443534D02*
X10097458Y-8434010D01*
X10097458Y-8434010D02*
X10126029Y-8434010D01*
X10126029Y-8434010D02*
X10145077Y-8443534D01*
X10145077Y-8443534D02*
X10154601Y-8462582D01*
X10154601Y-8462582D02*
X10154601Y-8567344D01*
X10154601Y-8462582D02*
X10164125Y-8443534D01*
X10164125Y-8443534D02*
X10183172Y-8434010D01*
X10183172Y-8434010D02*
X10211744Y-8434010D01*
X10211744Y-8434010D02*
X10230791Y-8443534D01*
X10230791Y-8443534D02*
X10240315Y-8462582D01*
X10240315Y-8462582D02*
X10240315Y-8567344D01*
X10630791Y-8357820D02*
X10459363Y-8614963D01*
X10887934Y-8367344D02*
X10906982Y-8367344D01*
X10906982Y-8367344D02*
X10926029Y-8376868D01*
X10926029Y-8376868D02*
X10935553Y-8386391D01*
X10935553Y-8386391D02*
X10945077Y-8405439D01*
X10945077Y-8405439D02*
X10954601Y-8443534D01*
X10954601Y-8443534D02*
X10954601Y-8491153D01*
X10954601Y-8491153D02*
X10945077Y-8529249D01*
X10945077Y-8529249D02*
X10935553Y-8548296D01*
X10935553Y-8548296D02*
X10926029Y-8557820D01*
X10926029Y-8557820D02*
X10906982Y-8567344D01*
X10906982Y-8567344D02*
X10887934Y-8567344D01*
X10887934Y-8567344D02*
X10868887Y-8557820D01*
X10868887Y-8557820D02*
X10859363Y-8548296D01*
X10859363Y-8548296D02*
X10849839Y-8529249D01*
X10849839Y-8529249D02*
X10840315Y-8491153D01*
X10840315Y-8491153D02*
X10840315Y-8443534D01*
X10840315Y-8443534D02*
X10849839Y-8405439D01*
X10849839Y-8405439D02*
X10859363Y-8386391D01*
X10859363Y-8386391D02*
X10868887Y-8376868D01*
X10868887Y-8376868D02*
X10887934Y-8367344D01*
X11040315Y-8548296D02*
X11049839Y-8557820D01*
X11049839Y-8557820D02*
X11040315Y-8567344D01*
X11040315Y-8567344D02*
X11030791Y-8557820D01*
X11030791Y-8557820D02*
X11040315Y-8548296D01*
X11040315Y-8548296D02*
X11040315Y-8567344D01*
X11173648Y-8367344D02*
X11192696Y-8367344D01*
X11192696Y-8367344D02*
X11211744Y-8376868D01*
X11211744Y-8376868D02*
X11221267Y-8386391D01*
X11221267Y-8386391D02*
X11230791Y-8405439D01*
X11230791Y-8405439D02*
X11240315Y-8443534D01*
X11240315Y-8443534D02*
X11240315Y-8491153D01*
X11240315Y-8491153D02*
X11230791Y-8529249D01*
X11230791Y-8529249D02*
X11221267Y-8548296D01*
X11221267Y-8548296D02*
X11211744Y-8557820D01*
X11211744Y-8557820D02*
X11192696Y-8567344D01*
X11192696Y-8567344D02*
X11173648Y-8567344D01*
X11173648Y-8567344D02*
X11154601Y-8557820D01*
X11154601Y-8557820D02*
X11145077Y-8548296D01*
X11145077Y-8548296D02*
X11135553Y-8529249D01*
X11135553Y-8529249D02*
X11126029Y-8491153D01*
X11126029Y-8491153D02*
X11126029Y-8443534D01*
X11126029Y-8443534D02*
X11135553Y-8405439D01*
X11135553Y-8405439D02*
X11145077Y-8386391D01*
X11145077Y-8386391D02*
X11154601Y-8376868D01*
X11154601Y-8376868D02*
X11173648Y-8367344D01*
X11430791Y-8567344D02*
X11316506Y-8567344D01*
X11373648Y-8567344D02*
X11373648Y-8367344D01*
X11373648Y-8367344D02*
X11354601Y-8395915D01*
X11354601Y-8395915D02*
X11335553Y-8414963D01*
X11335553Y-8414963D02*
X11316506Y-8424487D01*
X11621267Y-8567344D02*
X11506982Y-8567344D01*
X11564125Y-8567344D02*
X11564125Y-8367344D01*
X11564125Y-8367344D02*
X11545077Y-8395915D01*
X11545077Y-8395915D02*
X11526029Y-8414963D01*
X11526029Y-8414963D02*
X11506982Y-8424487D01*
X11735553Y-8453058D02*
X11716506Y-8443534D01*
X11716506Y-8443534D02*
X11706982Y-8434010D01*
X11706982Y-8434010D02*
X11697458Y-8414963D01*
X11697458Y-8414963D02*
X11697458Y-8405439D01*
X11697458Y-8405439D02*
X11706982Y-8386391D01*
X11706982Y-8386391D02*
X11716506Y-8376868D01*
X11716506Y-8376868D02*
X11735553Y-8367344D01*
X11735553Y-8367344D02*
X11773648Y-8367344D01*
X11773648Y-8367344D02*
X11792696Y-8376868D01*
X11792696Y-8376868D02*
X11802220Y-8386391D01*
X11802220Y-8386391D02*
X11811744Y-8405439D01*
X11811744Y-8405439D02*
X11811744Y-8414963D01*
X11811744Y-8414963D02*
X11802220Y-8434010D01*
X11802220Y-8434010D02*
X11792696Y-8443534D01*
X11792696Y-8443534D02*
X11773648Y-8453058D01*
X11773648Y-8453058D02*
X11735553Y-8453058D01*
X11735553Y-8453058D02*
X11716506Y-8462582D01*
X11716506Y-8462582D02*
X11706982Y-8472106D01*
X11706982Y-8472106D02*
X11697458Y-8491153D01*
X11697458Y-8491153D02*
X11697458Y-8529249D01*
X11697458Y-8529249D02*
X11706982Y-8548296D01*
X11706982Y-8548296D02*
X11716506Y-8557820D01*
X11716506Y-8557820D02*
X11735553Y-8567344D01*
X11735553Y-8567344D02*
X11773648Y-8567344D01*
X11773648Y-8567344D02*
X11792696Y-8557820D01*
X11792696Y-8557820D02*
X11802220Y-8548296D01*
X11802220Y-8548296D02*
X11811744Y-8529249D01*
X11811744Y-8529249D02*
X11811744Y-8491153D01*
X11811744Y-8491153D02*
X11802220Y-8472106D01*
X11802220Y-8472106D02*
X11792696Y-8462582D01*
X11792696Y-8462582D02*
X11773648Y-8453058D01*
X11887934Y-8367344D02*
X11887934Y-8405439D01*
X11964125Y-8367344D02*
X11964125Y-8405439D01*
X12259363Y-8643534D02*
X12249839Y-8634010D01*
X12249839Y-8634010D02*
X12230791Y-8605439D01*
X12230791Y-8605439D02*
X12221268Y-8586391D01*
X12221268Y-8586391D02*
X12211744Y-8557820D01*
X12211744Y-8557820D02*
X12202220Y-8510201D01*
X12202220Y-8510201D02*
X12202220Y-8472106D01*
X12202220Y-8472106D02*
X12211744Y-8424487D01*
X12211744Y-8424487D02*
X12221268Y-8395915D01*
X12221268Y-8395915D02*
X12230791Y-8376868D01*
X12230791Y-8376868D02*
X12249839Y-8348296D01*
X12249839Y-8348296D02*
X12259363Y-8338772D01*
X12316506Y-8367344D02*
X12440315Y-8367344D01*
X12440315Y-8367344D02*
X12373648Y-8443534D01*
X12373648Y-8443534D02*
X12402220Y-8443534D01*
X12402220Y-8443534D02*
X12421268Y-8453058D01*
X12421268Y-8453058D02*
X12430791Y-8462582D01*
X12430791Y-8462582D02*
X12440315Y-8481630D01*
X12440315Y-8481630D02*
X12440315Y-8529249D01*
X12440315Y-8529249D02*
X12430791Y-8548296D01*
X12430791Y-8548296D02*
X12421268Y-8557820D01*
X12421268Y-8557820D02*
X12402220Y-8567344D01*
X12402220Y-8567344D02*
X12345077Y-8567344D01*
X12345077Y-8567344D02*
X12326029Y-8557820D01*
X12326029Y-8557820D02*
X12316506Y-8548296D01*
X12678410Y-8567344D02*
X12678410Y-8367344D01*
X12764125Y-8567344D02*
X12764125Y-8462582D01*
X12764125Y-8462582D02*
X12754601Y-8443534D01*
X12754601Y-8443534D02*
X12735553Y-8434010D01*
X12735553Y-8434010D02*
X12706982Y-8434010D01*
X12706982Y-8434010D02*
X12687934Y-8443534D01*
X12687934Y-8443534D02*
X12678410Y-8453058D01*
X12887934Y-8567344D02*
X12868887Y-8557820D01*
X12868887Y-8557820D02*
X12859363Y-8548296D01*
X12859363Y-8548296D02*
X12849839Y-8529249D01*
X12849839Y-8529249D02*
X12849839Y-8472106D01*
X12849839Y-8472106D02*
X12859363Y-8453058D01*
X12859363Y-8453058D02*
X12868887Y-8443534D01*
X12868887Y-8443534D02*
X12887934Y-8434010D01*
X12887934Y-8434010D02*
X12916506Y-8434010D01*
X12916506Y-8434010D02*
X12935553Y-8443534D01*
X12935553Y-8443534D02*
X12945077Y-8453058D01*
X12945077Y-8453058D02*
X12954601Y-8472106D01*
X12954601Y-8472106D02*
X12954601Y-8529249D01*
X12954601Y-8529249D02*
X12945077Y-8548296D01*
X12945077Y-8548296D02*
X12935553Y-8557820D01*
X12935553Y-8557820D02*
X12916506Y-8567344D01*
X12916506Y-8567344D02*
X12887934Y-8567344D01*
X13068887Y-8567344D02*
X13049839Y-8557820D01*
X13049839Y-8557820D02*
X13040315Y-8538772D01*
X13040315Y-8538772D02*
X13040315Y-8367344D01*
X13221268Y-8557820D02*
X13202220Y-8567344D01*
X13202220Y-8567344D02*
X13164125Y-8567344D01*
X13164125Y-8567344D02*
X13145077Y-8557820D01*
X13145077Y-8557820D02*
X13135553Y-8538772D01*
X13135553Y-8538772D02*
X13135553Y-8462582D01*
X13135553Y-8462582D02*
X13145077Y-8443534D01*
X13145077Y-8443534D02*
X13164125Y-8434010D01*
X13164125Y-8434010D02*
X13202220Y-8434010D01*
X13202220Y-8434010D02*
X13221268Y-8443534D01*
X13221268Y-8443534D02*
X13230791Y-8462582D01*
X13230791Y-8462582D02*
X13230791Y-8481630D01*
X13230791Y-8481630D02*
X13135553Y-8500677D01*
X13306982Y-8557820D02*
X13326030Y-8567344D01*
X13326030Y-8567344D02*
X13364125Y-8567344D01*
X13364125Y-8567344D02*
X13383172Y-8557820D01*
X13383172Y-8557820D02*
X13392696Y-8538772D01*
X13392696Y-8538772D02*
X13392696Y-8529249D01*
X13392696Y-8529249D02*
X13383172Y-8510201D01*
X13383172Y-8510201D02*
X13364125Y-8500677D01*
X13364125Y-8500677D02*
X13335553Y-8500677D01*
X13335553Y-8500677D02*
X13316506Y-8491153D01*
X13316506Y-8491153D02*
X13306982Y-8472106D01*
X13306982Y-8472106D02*
X13306982Y-8462582D01*
X13306982Y-8462582D02*
X13316506Y-8443534D01*
X13316506Y-8443534D02*
X13335553Y-8434010D01*
X13335553Y-8434010D02*
X13364125Y-8434010D01*
X13364125Y-8434010D02*
X13383172Y-8443534D01*
X13459363Y-8643534D02*
X13468887Y-8634010D01*
X13468887Y-8634010D02*
X13487934Y-8605439D01*
X13487934Y-8605439D02*
X13497458Y-8586391D01*
X13497458Y-8586391D02*
X13506982Y-8557820D01*
X13506982Y-8557820D02*
X13516506Y-8510201D01*
X13516506Y-8510201D02*
X13516506Y-8472106D01*
X13516506Y-8472106D02*
X13506982Y-8424487D01*
X13506982Y-8424487D02*
X13497458Y-8395915D01*
X13497458Y-8395915D02*
X13487934Y-8376868D01*
X13487934Y-8376868D02*
X13468887Y-8348296D01*
X13468887Y-8348296D02*
X13459363Y-8338772D01*
D12*
X8684300Y-8739860D02*
G75*
G02*
X8589300Y-8739860I-47500J0D01*
G01*
X8589300Y-8739860D02*
G75*
G02*
X8684300Y-8739860I47500J0D01*
G01*
D11*
X8983172Y-8631344D02*
X9002220Y-8631344D01*
X9002220Y-8631344D02*
X9021267Y-8640868D01*
X9021267Y-8640868D02*
X9030791Y-8650391D01*
X9030791Y-8650391D02*
X9040315Y-8669439D01*
X9040315Y-8669439D02*
X9049839Y-8707534D01*
X9049839Y-8707534D02*
X9049839Y-8755153D01*
X9049839Y-8755153D02*
X9040315Y-8793249D01*
X9040315Y-8793249D02*
X9030791Y-8812296D01*
X9030791Y-8812296D02*
X9021267Y-8821820D01*
X9021267Y-8821820D02*
X9002220Y-8831344D01*
X9002220Y-8831344D02*
X8983172Y-8831344D01*
X8983172Y-8831344D02*
X8964124Y-8821820D01*
X8964124Y-8821820D02*
X8954601Y-8812296D01*
X8954601Y-8812296D02*
X8945077Y-8793249D01*
X8945077Y-8793249D02*
X8935553Y-8755153D01*
X8935553Y-8755153D02*
X8935553Y-8707534D01*
X8935553Y-8707534D02*
X8945077Y-8669439D01*
X8945077Y-8669439D02*
X8954601Y-8650391D01*
X8954601Y-8650391D02*
X8964124Y-8640868D01*
X8964124Y-8640868D02*
X8983172Y-8631344D01*
X9135553Y-8812296D02*
X9145077Y-8821820D01*
X9145077Y-8821820D02*
X9135553Y-8831344D01*
X9135553Y-8831344D02*
X9126029Y-8821820D01*
X9126029Y-8821820D02*
X9135553Y-8812296D01*
X9135553Y-8812296D02*
X9135553Y-8831344D01*
X9240315Y-8831344D02*
X9278410Y-8831344D01*
X9278410Y-8831344D02*
X9297458Y-8821820D01*
X9297458Y-8821820D02*
X9306982Y-8812296D01*
X9306982Y-8812296D02*
X9326029Y-8783725D01*
X9326029Y-8783725D02*
X9335553Y-8745630D01*
X9335553Y-8745630D02*
X9335553Y-8669439D01*
X9335553Y-8669439D02*
X9326029Y-8650391D01*
X9326029Y-8650391D02*
X9316505Y-8640868D01*
X9316505Y-8640868D02*
X9297458Y-8631344D01*
X9297458Y-8631344D02*
X9259363Y-8631344D01*
X9259363Y-8631344D02*
X9240315Y-8640868D01*
X9240315Y-8640868D02*
X9230791Y-8650391D01*
X9230791Y-8650391D02*
X9221267Y-8669439D01*
X9221267Y-8669439D02*
X9221267Y-8717058D01*
X9221267Y-8717058D02*
X9230791Y-8736106D01*
X9230791Y-8736106D02*
X9240315Y-8745630D01*
X9240315Y-8745630D02*
X9259363Y-8755153D01*
X9259363Y-8755153D02*
X9297458Y-8755153D01*
X9297458Y-8755153D02*
X9316505Y-8745630D01*
X9316505Y-8745630D02*
X9326029Y-8736106D01*
X9326029Y-8736106D02*
X9335553Y-8717058D01*
X9516505Y-8631344D02*
X9421267Y-8631344D01*
X9421267Y-8631344D02*
X9411744Y-8726582D01*
X9411744Y-8726582D02*
X9421267Y-8717058D01*
X9421267Y-8717058D02*
X9440315Y-8707534D01*
X9440315Y-8707534D02*
X9487934Y-8707534D01*
X9487934Y-8707534D02*
X9506982Y-8717058D01*
X9506982Y-8717058D02*
X9516505Y-8726582D01*
X9516505Y-8726582D02*
X9526029Y-8745630D01*
X9526029Y-8745630D02*
X9526029Y-8793249D01*
X9526029Y-8793249D02*
X9516505Y-8812296D01*
X9516505Y-8812296D02*
X9506982Y-8821820D01*
X9506982Y-8821820D02*
X9487934Y-8831344D01*
X9487934Y-8831344D02*
X9440315Y-8831344D01*
X9440315Y-8831344D02*
X9421267Y-8821820D01*
X9421267Y-8821820D02*
X9411744Y-8812296D01*
X9649839Y-8631344D02*
X9668886Y-8631344D01*
X9668886Y-8631344D02*
X9687934Y-8640868D01*
X9687934Y-8640868D02*
X9697458Y-8650391D01*
X9697458Y-8650391D02*
X9706982Y-8669439D01*
X9706982Y-8669439D02*
X9716505Y-8707534D01*
X9716505Y-8707534D02*
X9716505Y-8755153D01*
X9716505Y-8755153D02*
X9706982Y-8793249D01*
X9706982Y-8793249D02*
X9697458Y-8812296D01*
X9697458Y-8812296D02*
X9687934Y-8821820D01*
X9687934Y-8821820D02*
X9668886Y-8831344D01*
X9668886Y-8831344D02*
X9649839Y-8831344D01*
X9649839Y-8831344D02*
X9630791Y-8821820D01*
X9630791Y-8821820D02*
X9621267Y-8812296D01*
X9621267Y-8812296D02*
X9611744Y-8793249D01*
X9611744Y-8793249D02*
X9602220Y-8755153D01*
X9602220Y-8755153D02*
X9602220Y-8707534D01*
X9602220Y-8707534D02*
X9611744Y-8669439D01*
X9611744Y-8669439D02*
X9621267Y-8650391D01*
X9621267Y-8650391D02*
X9630791Y-8640868D01*
X9630791Y-8640868D02*
X9649839Y-8631344D01*
X9802220Y-8831344D02*
X9802220Y-8698010D01*
X9802220Y-8717058D02*
X9811744Y-8707534D01*
X9811744Y-8707534D02*
X9830791Y-8698010D01*
X9830791Y-8698010D02*
X9859363Y-8698010D01*
X9859363Y-8698010D02*
X9878410Y-8707534D01*
X9878410Y-8707534D02*
X9887934Y-8726582D01*
X9887934Y-8726582D02*
X9887934Y-8831344D01*
X9887934Y-8726582D02*
X9897458Y-8707534D01*
X9897458Y-8707534D02*
X9916505Y-8698010D01*
X9916505Y-8698010D02*
X9945077Y-8698010D01*
X9945077Y-8698010D02*
X9964125Y-8707534D01*
X9964125Y-8707534D02*
X9973648Y-8726582D01*
X9973648Y-8726582D02*
X9973648Y-8831344D01*
X10068886Y-8831344D02*
X10068886Y-8698010D01*
X10068886Y-8717058D02*
X10078410Y-8707534D01*
X10078410Y-8707534D02*
X10097458Y-8698010D01*
X10097458Y-8698010D02*
X10126029Y-8698010D01*
X10126029Y-8698010D02*
X10145077Y-8707534D01*
X10145077Y-8707534D02*
X10154601Y-8726582D01*
X10154601Y-8726582D02*
X10154601Y-8831344D01*
X10154601Y-8726582D02*
X10164125Y-8707534D01*
X10164125Y-8707534D02*
X10183172Y-8698010D01*
X10183172Y-8698010D02*
X10211744Y-8698010D01*
X10211744Y-8698010D02*
X10230791Y-8707534D01*
X10230791Y-8707534D02*
X10240315Y-8726582D01*
X10240315Y-8726582D02*
X10240315Y-8831344D01*
X10630791Y-8621820D02*
X10459363Y-8878963D01*
X10887934Y-8631344D02*
X10906982Y-8631344D01*
X10906982Y-8631344D02*
X10926029Y-8640868D01*
X10926029Y-8640868D02*
X10935553Y-8650391D01*
X10935553Y-8650391D02*
X10945077Y-8669439D01*
X10945077Y-8669439D02*
X10954601Y-8707534D01*
X10954601Y-8707534D02*
X10954601Y-8755153D01*
X10954601Y-8755153D02*
X10945077Y-8793249D01*
X10945077Y-8793249D02*
X10935553Y-8812296D01*
X10935553Y-8812296D02*
X10926029Y-8821820D01*
X10926029Y-8821820D02*
X10906982Y-8831344D01*
X10906982Y-8831344D02*
X10887934Y-8831344D01*
X10887934Y-8831344D02*
X10868887Y-8821820D01*
X10868887Y-8821820D02*
X10859363Y-8812296D01*
X10859363Y-8812296D02*
X10849839Y-8793249D01*
X10849839Y-8793249D02*
X10840315Y-8755153D01*
X10840315Y-8755153D02*
X10840315Y-8707534D01*
X10840315Y-8707534D02*
X10849839Y-8669439D01*
X10849839Y-8669439D02*
X10859363Y-8650391D01*
X10859363Y-8650391D02*
X10868887Y-8640868D01*
X10868887Y-8640868D02*
X10887934Y-8631344D01*
X11040315Y-8812296D02*
X11049839Y-8821820D01*
X11049839Y-8821820D02*
X11040315Y-8831344D01*
X11040315Y-8831344D02*
X11030791Y-8821820D01*
X11030791Y-8821820D02*
X11040315Y-8812296D01*
X11040315Y-8812296D02*
X11040315Y-8831344D01*
X11173648Y-8631344D02*
X11192696Y-8631344D01*
X11192696Y-8631344D02*
X11211744Y-8640868D01*
X11211744Y-8640868D02*
X11221267Y-8650391D01*
X11221267Y-8650391D02*
X11230791Y-8669439D01*
X11230791Y-8669439D02*
X11240315Y-8707534D01*
X11240315Y-8707534D02*
X11240315Y-8755153D01*
X11240315Y-8755153D02*
X11230791Y-8793249D01*
X11230791Y-8793249D02*
X11221267Y-8812296D01*
X11221267Y-8812296D02*
X11211744Y-8821820D01*
X11211744Y-8821820D02*
X11192696Y-8831344D01*
X11192696Y-8831344D02*
X11173648Y-8831344D01*
X11173648Y-8831344D02*
X11154601Y-8821820D01*
X11154601Y-8821820D02*
X11145077Y-8812296D01*
X11145077Y-8812296D02*
X11135553Y-8793249D01*
X11135553Y-8793249D02*
X11126029Y-8755153D01*
X11126029Y-8755153D02*
X11126029Y-8707534D01*
X11126029Y-8707534D02*
X11135553Y-8669439D01*
X11135553Y-8669439D02*
X11145077Y-8650391D01*
X11145077Y-8650391D02*
X11154601Y-8640868D01*
X11154601Y-8640868D02*
X11173648Y-8631344D01*
X11306982Y-8631344D02*
X11430791Y-8631344D01*
X11430791Y-8631344D02*
X11364125Y-8707534D01*
X11364125Y-8707534D02*
X11392696Y-8707534D01*
X11392696Y-8707534D02*
X11411744Y-8717058D01*
X11411744Y-8717058D02*
X11421267Y-8726582D01*
X11421267Y-8726582D02*
X11430791Y-8745630D01*
X11430791Y-8745630D02*
X11430791Y-8793249D01*
X11430791Y-8793249D02*
X11421267Y-8812296D01*
X11421267Y-8812296D02*
X11411744Y-8821820D01*
X11411744Y-8821820D02*
X11392696Y-8831344D01*
X11392696Y-8831344D02*
X11335553Y-8831344D01*
X11335553Y-8831344D02*
X11316506Y-8821820D01*
X11316506Y-8821820D02*
X11306982Y-8812296D01*
X11497458Y-8631344D02*
X11630791Y-8631344D01*
X11630791Y-8631344D02*
X11545077Y-8831344D01*
X11792696Y-8698010D02*
X11792696Y-8831344D01*
X11745077Y-8621820D02*
X11697458Y-8764677D01*
X11697458Y-8764677D02*
X11821267Y-8764677D01*
X11887934Y-8631344D02*
X11887934Y-8669439D01*
X11964125Y-8631344D02*
X11964125Y-8669439D01*
X12259363Y-8907534D02*
X12249839Y-8898010D01*
X12249839Y-8898010D02*
X12230791Y-8869439D01*
X12230791Y-8869439D02*
X12221268Y-8850391D01*
X12221268Y-8850391D02*
X12211744Y-8821820D01*
X12211744Y-8821820D02*
X12202220Y-8774201D01*
X12202220Y-8774201D02*
X12202220Y-8736106D01*
X12202220Y-8736106D02*
X12211744Y-8688487D01*
X12211744Y-8688487D02*
X12221268Y-8659915D01*
X12221268Y-8659915D02*
X12230791Y-8640868D01*
X12230791Y-8640868D02*
X12249839Y-8612296D01*
X12249839Y-8612296D02*
X12259363Y-8602772D01*
X12421268Y-8631344D02*
X12383172Y-8631344D01*
X12383172Y-8631344D02*
X12364125Y-8640868D01*
X12364125Y-8640868D02*
X12354601Y-8650391D01*
X12354601Y-8650391D02*
X12335553Y-8678963D01*
X12335553Y-8678963D02*
X12326029Y-8717058D01*
X12326029Y-8717058D02*
X12326029Y-8793249D01*
X12326029Y-8793249D02*
X12335553Y-8812296D01*
X12335553Y-8812296D02*
X12345077Y-8821820D01*
X12345077Y-8821820D02*
X12364125Y-8831344D01*
X12364125Y-8831344D02*
X12402220Y-8831344D01*
X12402220Y-8831344D02*
X12421268Y-8821820D01*
X12421268Y-8821820D02*
X12430791Y-8812296D01*
X12430791Y-8812296D02*
X12440315Y-8793249D01*
X12440315Y-8793249D02*
X12440315Y-8745630D01*
X12440315Y-8745630D02*
X12430791Y-8726582D01*
X12430791Y-8726582D02*
X12421268Y-8717058D01*
X12421268Y-8717058D02*
X12402220Y-8707534D01*
X12402220Y-8707534D02*
X12364125Y-8707534D01*
X12364125Y-8707534D02*
X12345077Y-8717058D01*
X12345077Y-8717058D02*
X12335553Y-8726582D01*
X12335553Y-8726582D02*
X12326029Y-8745630D01*
X12678410Y-8831344D02*
X12678410Y-8631344D01*
X12764125Y-8831344D02*
X12764125Y-8726582D01*
X12764125Y-8726582D02*
X12754601Y-8707534D01*
X12754601Y-8707534D02*
X12735553Y-8698010D01*
X12735553Y-8698010D02*
X12706982Y-8698010D01*
X12706982Y-8698010D02*
X12687934Y-8707534D01*
X12687934Y-8707534D02*
X12678410Y-8717058D01*
X12887934Y-8831344D02*
X12868887Y-8821820D01*
X12868887Y-8821820D02*
X12859363Y-8812296D01*
X12859363Y-8812296D02*
X12849839Y-8793249D01*
X12849839Y-8793249D02*
X12849839Y-8736106D01*
X12849839Y-8736106D02*
X12859363Y-8717058D01*
X12859363Y-8717058D02*
X12868887Y-8707534D01*
X12868887Y-8707534D02*
X12887934Y-8698010D01*
X12887934Y-8698010D02*
X12916506Y-8698010D01*
X12916506Y-8698010D02*
X12935553Y-8707534D01*
X12935553Y-8707534D02*
X12945077Y-8717058D01*
X12945077Y-8717058D02*
X12954601Y-8736106D01*
X12954601Y-8736106D02*
X12954601Y-8793249D01*
X12954601Y-8793249D02*
X12945077Y-8812296D01*
X12945077Y-8812296D02*
X12935553Y-8821820D01*
X12935553Y-8821820D02*
X12916506Y-8831344D01*
X12916506Y-8831344D02*
X12887934Y-8831344D01*
X13068887Y-8831344D02*
X13049839Y-8821820D01*
X13049839Y-8821820D02*
X13040315Y-8802772D01*
X13040315Y-8802772D02*
X13040315Y-8631344D01*
X13221268Y-8821820D02*
X13202220Y-8831344D01*
X13202220Y-8831344D02*
X13164125Y-8831344D01*
X13164125Y-8831344D02*
X13145077Y-8821820D01*
X13145077Y-8821820D02*
X13135553Y-8802772D01*
X13135553Y-8802772D02*
X13135553Y-8726582D01*
X13135553Y-8726582D02*
X13145077Y-8707534D01*
X13145077Y-8707534D02*
X13164125Y-8698010D01*
X13164125Y-8698010D02*
X13202220Y-8698010D01*
X13202220Y-8698010D02*
X13221268Y-8707534D01*
X13221268Y-8707534D02*
X13230791Y-8726582D01*
X13230791Y-8726582D02*
X13230791Y-8745630D01*
X13230791Y-8745630D02*
X13135553Y-8764677D01*
X13306982Y-8821820D02*
X13326030Y-8831344D01*
X13326030Y-8831344D02*
X13364125Y-8831344D01*
X13364125Y-8831344D02*
X13383172Y-8821820D01*
X13383172Y-8821820D02*
X13392696Y-8802772D01*
X13392696Y-8802772D02*
X13392696Y-8793249D01*
X13392696Y-8793249D02*
X13383172Y-8774201D01*
X13383172Y-8774201D02*
X13364125Y-8764677D01*
X13364125Y-8764677D02*
X13335553Y-8764677D01*
X13335553Y-8764677D02*
X13316506Y-8755153D01*
X13316506Y-8755153D02*
X13306982Y-8736106D01*
X13306982Y-8736106D02*
X13306982Y-8726582D01*
X13306982Y-8726582D02*
X13316506Y-8707534D01*
X13316506Y-8707534D02*
X13335553Y-8698010D01*
X13335553Y-8698010D02*
X13364125Y-8698010D01*
X13364125Y-8698010D02*
X13383172Y-8707534D01*
X13459363Y-8907534D02*
X13468887Y-8898010D01*
X13468887Y-8898010D02*
X13487934Y-8869439D01*
X13487934Y-8869439D02*
X13497458Y-8850391D01*
X13497458Y-8850391D02*
X13506982Y-8821820D01*
X13506982Y-8821820D02*
X13516506Y-8774201D01*
X13516506Y-8774201D02*
X13516506Y-8736106D01*
X13516506Y-8736106D02*
X13506982Y-8688487D01*
X13506982Y-8688487D02*
X13497458Y-8659915D01*
X13497458Y-8659915D02*
X13487934Y-8640868D01*
X13487934Y-8640868D02*
X13468887Y-8612296D01*
X13468887Y-8612296D02*
X13459363Y-8602772D01*
D12*
X8634300Y-8953860D02*
X8634300Y-9053860D01*
X8584300Y-9003860D02*
X8684300Y-9003860D01*
D11*
X9049839Y-9095344D02*
X8935553Y-9095344D01*
X8992696Y-9095344D02*
X8992696Y-8895344D01*
X8992696Y-8895344D02*
X8973648Y-8923915D01*
X8973648Y-8923915D02*
X8954601Y-8942963D01*
X8954601Y-8942963D02*
X8935553Y-8952487D01*
X9135553Y-9076296D02*
X9145077Y-9085820D01*
X9145077Y-9085820D02*
X9135553Y-9095344D01*
X9135553Y-9095344D02*
X9126029Y-9085820D01*
X9126029Y-9085820D02*
X9135553Y-9076296D01*
X9135553Y-9076296D02*
X9135553Y-9095344D01*
X9268886Y-8895344D02*
X9287934Y-8895344D01*
X9287934Y-8895344D02*
X9306982Y-8904868D01*
X9306982Y-8904868D02*
X9316505Y-8914391D01*
X9316505Y-8914391D02*
X9326029Y-8933439D01*
X9326029Y-8933439D02*
X9335553Y-8971534D01*
X9335553Y-8971534D02*
X9335553Y-9019153D01*
X9335553Y-9019153D02*
X9326029Y-9057249D01*
X9326029Y-9057249D02*
X9316505Y-9076296D01*
X9316505Y-9076296D02*
X9306982Y-9085820D01*
X9306982Y-9085820D02*
X9287934Y-9095344D01*
X9287934Y-9095344D02*
X9268886Y-9095344D01*
X9268886Y-9095344D02*
X9249839Y-9085820D01*
X9249839Y-9085820D02*
X9240315Y-9076296D01*
X9240315Y-9076296D02*
X9230791Y-9057249D01*
X9230791Y-9057249D02*
X9221267Y-9019153D01*
X9221267Y-9019153D02*
X9221267Y-8971534D01*
X9221267Y-8971534D02*
X9230791Y-8933439D01*
X9230791Y-8933439D02*
X9240315Y-8914391D01*
X9240315Y-8914391D02*
X9249839Y-8904868D01*
X9249839Y-8904868D02*
X9268886Y-8895344D01*
X9459363Y-8895344D02*
X9478410Y-8895344D01*
X9478410Y-8895344D02*
X9497458Y-8904868D01*
X9497458Y-8904868D02*
X9506982Y-8914391D01*
X9506982Y-8914391D02*
X9516505Y-8933439D01*
X9516505Y-8933439D02*
X9526029Y-8971534D01*
X9526029Y-8971534D02*
X9526029Y-9019153D01*
X9526029Y-9019153D02*
X9516505Y-9057249D01*
X9516505Y-9057249D02*
X9506982Y-9076296D01*
X9506982Y-9076296D02*
X9497458Y-9085820D01*
X9497458Y-9085820D02*
X9478410Y-9095344D01*
X9478410Y-9095344D02*
X9459363Y-9095344D01*
X9459363Y-9095344D02*
X9440315Y-9085820D01*
X9440315Y-9085820D02*
X9430791Y-9076296D01*
X9430791Y-9076296D02*
X9421267Y-9057249D01*
X9421267Y-9057249D02*
X9411744Y-9019153D01*
X9411744Y-9019153D02*
X9411744Y-8971534D01*
X9411744Y-8971534D02*
X9421267Y-8933439D01*
X9421267Y-8933439D02*
X9430791Y-8914391D01*
X9430791Y-8914391D02*
X9440315Y-8904868D01*
X9440315Y-8904868D02*
X9459363Y-8895344D01*
X9649839Y-8895344D02*
X9668886Y-8895344D01*
X9668886Y-8895344D02*
X9687934Y-8904868D01*
X9687934Y-8904868D02*
X9697458Y-8914391D01*
X9697458Y-8914391D02*
X9706982Y-8933439D01*
X9706982Y-8933439D02*
X9716505Y-8971534D01*
X9716505Y-8971534D02*
X9716505Y-9019153D01*
X9716505Y-9019153D02*
X9706982Y-9057249D01*
X9706982Y-9057249D02*
X9697458Y-9076296D01*
X9697458Y-9076296D02*
X9687934Y-9085820D01*
X9687934Y-9085820D02*
X9668886Y-9095344D01*
X9668886Y-9095344D02*
X9649839Y-9095344D01*
X9649839Y-9095344D02*
X9630791Y-9085820D01*
X9630791Y-9085820D02*
X9621267Y-9076296D01*
X9621267Y-9076296D02*
X9611744Y-9057249D01*
X9611744Y-9057249D02*
X9602220Y-9019153D01*
X9602220Y-9019153D02*
X9602220Y-8971534D01*
X9602220Y-8971534D02*
X9611744Y-8933439D01*
X9611744Y-8933439D02*
X9621267Y-8914391D01*
X9621267Y-8914391D02*
X9630791Y-8904868D01*
X9630791Y-8904868D02*
X9649839Y-8895344D01*
X9802220Y-9095344D02*
X9802220Y-8962010D01*
X9802220Y-8981058D02*
X9811744Y-8971534D01*
X9811744Y-8971534D02*
X9830791Y-8962010D01*
X9830791Y-8962010D02*
X9859363Y-8962010D01*
X9859363Y-8962010D02*
X9878410Y-8971534D01*
X9878410Y-8971534D02*
X9887934Y-8990582D01*
X9887934Y-8990582D02*
X9887934Y-9095344D01*
X9887934Y-8990582D02*
X9897458Y-8971534D01*
X9897458Y-8971534D02*
X9916505Y-8962010D01*
X9916505Y-8962010D02*
X9945077Y-8962010D01*
X9945077Y-8962010D02*
X9964125Y-8971534D01*
X9964125Y-8971534D02*
X9973648Y-8990582D01*
X9973648Y-8990582D02*
X9973648Y-9095344D01*
X10068886Y-9095344D02*
X10068886Y-8962010D01*
X10068886Y-8981058D02*
X10078410Y-8971534D01*
X10078410Y-8971534D02*
X10097458Y-8962010D01*
X10097458Y-8962010D02*
X10126029Y-8962010D01*
X10126029Y-8962010D02*
X10145077Y-8971534D01*
X10145077Y-8971534D02*
X10154601Y-8990582D01*
X10154601Y-8990582D02*
X10154601Y-9095344D01*
X10154601Y-8990582D02*
X10164125Y-8971534D01*
X10164125Y-8971534D02*
X10183172Y-8962010D01*
X10183172Y-8962010D02*
X10211744Y-8962010D01*
X10211744Y-8962010D02*
X10230791Y-8971534D01*
X10230791Y-8971534D02*
X10240315Y-8990582D01*
X10240315Y-8990582D02*
X10240315Y-9095344D01*
X10630791Y-8885820D02*
X10459363Y-9142963D01*
X10887934Y-8895344D02*
X10906982Y-8895344D01*
X10906982Y-8895344D02*
X10926029Y-8904868D01*
X10926029Y-8904868D02*
X10935553Y-8914391D01*
X10935553Y-8914391D02*
X10945077Y-8933439D01*
X10945077Y-8933439D02*
X10954601Y-8971534D01*
X10954601Y-8971534D02*
X10954601Y-9019153D01*
X10954601Y-9019153D02*
X10945077Y-9057249D01*
X10945077Y-9057249D02*
X10935553Y-9076296D01*
X10935553Y-9076296D02*
X10926029Y-9085820D01*
X10926029Y-9085820D02*
X10906982Y-9095344D01*
X10906982Y-9095344D02*
X10887934Y-9095344D01*
X10887934Y-9095344D02*
X10868887Y-9085820D01*
X10868887Y-9085820D02*
X10859363Y-9076296D01*
X10859363Y-9076296D02*
X10849839Y-9057249D01*
X10849839Y-9057249D02*
X10840315Y-9019153D01*
X10840315Y-9019153D02*
X10840315Y-8971534D01*
X10840315Y-8971534D02*
X10849839Y-8933439D01*
X10849839Y-8933439D02*
X10859363Y-8914391D01*
X10859363Y-8914391D02*
X10868887Y-8904868D01*
X10868887Y-8904868D02*
X10887934Y-8895344D01*
X11040315Y-9076296D02*
X11049839Y-9085820D01*
X11049839Y-9085820D02*
X11040315Y-9095344D01*
X11040315Y-9095344D02*
X11030791Y-9085820D01*
X11030791Y-9085820D02*
X11040315Y-9076296D01*
X11040315Y-9076296D02*
X11040315Y-9095344D01*
X11173648Y-8895344D02*
X11192696Y-8895344D01*
X11192696Y-8895344D02*
X11211744Y-8904868D01*
X11211744Y-8904868D02*
X11221267Y-8914391D01*
X11221267Y-8914391D02*
X11230791Y-8933439D01*
X11230791Y-8933439D02*
X11240315Y-8971534D01*
X11240315Y-8971534D02*
X11240315Y-9019153D01*
X11240315Y-9019153D02*
X11230791Y-9057249D01*
X11230791Y-9057249D02*
X11221267Y-9076296D01*
X11221267Y-9076296D02*
X11211744Y-9085820D01*
X11211744Y-9085820D02*
X11192696Y-9095344D01*
X11192696Y-9095344D02*
X11173648Y-9095344D01*
X11173648Y-9095344D02*
X11154601Y-9085820D01*
X11154601Y-9085820D02*
X11145077Y-9076296D01*
X11145077Y-9076296D02*
X11135553Y-9057249D01*
X11135553Y-9057249D02*
X11126029Y-9019153D01*
X11126029Y-9019153D02*
X11126029Y-8971534D01*
X11126029Y-8971534D02*
X11135553Y-8933439D01*
X11135553Y-8933439D02*
X11145077Y-8914391D01*
X11145077Y-8914391D02*
X11154601Y-8904868D01*
X11154601Y-8904868D02*
X11173648Y-8895344D01*
X11306982Y-8895344D02*
X11430791Y-8895344D01*
X11430791Y-8895344D02*
X11364125Y-8971534D01*
X11364125Y-8971534D02*
X11392696Y-8971534D01*
X11392696Y-8971534D02*
X11411744Y-8981058D01*
X11411744Y-8981058D02*
X11421267Y-8990582D01*
X11421267Y-8990582D02*
X11430791Y-9009630D01*
X11430791Y-9009630D02*
X11430791Y-9057249D01*
X11430791Y-9057249D02*
X11421267Y-9076296D01*
X11421267Y-9076296D02*
X11411744Y-9085820D01*
X11411744Y-9085820D02*
X11392696Y-9095344D01*
X11392696Y-9095344D02*
X11335553Y-9095344D01*
X11335553Y-9095344D02*
X11316506Y-9085820D01*
X11316506Y-9085820D02*
X11306982Y-9076296D01*
X11526029Y-9095344D02*
X11564125Y-9095344D01*
X11564125Y-9095344D02*
X11583172Y-9085820D01*
X11583172Y-9085820D02*
X11592696Y-9076296D01*
X11592696Y-9076296D02*
X11611744Y-9047725D01*
X11611744Y-9047725D02*
X11621267Y-9009630D01*
X11621267Y-9009630D02*
X11621267Y-8933439D01*
X11621267Y-8933439D02*
X11611744Y-8914391D01*
X11611744Y-8914391D02*
X11602220Y-8904868D01*
X11602220Y-8904868D02*
X11583172Y-8895344D01*
X11583172Y-8895344D02*
X11545077Y-8895344D01*
X11545077Y-8895344D02*
X11526029Y-8904868D01*
X11526029Y-8904868D02*
X11516506Y-8914391D01*
X11516506Y-8914391D02*
X11506982Y-8933439D01*
X11506982Y-8933439D02*
X11506982Y-8981058D01*
X11506982Y-8981058D02*
X11516506Y-9000106D01*
X11516506Y-9000106D02*
X11526029Y-9009630D01*
X11526029Y-9009630D02*
X11545077Y-9019153D01*
X11545077Y-9019153D02*
X11583172Y-9019153D01*
X11583172Y-9019153D02*
X11602220Y-9009630D01*
X11602220Y-9009630D02*
X11611744Y-9000106D01*
X11611744Y-9000106D02*
X11621267Y-8981058D01*
X11792696Y-8962010D02*
X11792696Y-9095344D01*
X11745077Y-8885820D02*
X11697458Y-9028677D01*
X11697458Y-9028677D02*
X11821267Y-9028677D01*
X11887934Y-8895344D02*
X11887934Y-8933439D01*
X11964125Y-8895344D02*
X11964125Y-8933439D01*
X12259363Y-9171534D02*
X12249839Y-9162010D01*
X12249839Y-9162010D02*
X12230791Y-9133439D01*
X12230791Y-9133439D02*
X12221268Y-9114391D01*
X12221268Y-9114391D02*
X12211744Y-9085820D01*
X12211744Y-9085820D02*
X12202220Y-9038201D01*
X12202220Y-9038201D02*
X12202220Y-9000106D01*
X12202220Y-9000106D02*
X12211744Y-8952487D01*
X12211744Y-8952487D02*
X12221268Y-8923915D01*
X12221268Y-8923915D02*
X12230791Y-8904868D01*
X12230791Y-8904868D02*
X12249839Y-8876296D01*
X12249839Y-8876296D02*
X12259363Y-8866772D01*
X12421268Y-8895344D02*
X12383172Y-8895344D01*
X12383172Y-8895344D02*
X12364125Y-8904868D01*
X12364125Y-8904868D02*
X12354601Y-8914391D01*
X12354601Y-8914391D02*
X12335553Y-8942963D01*
X12335553Y-8942963D02*
X12326029Y-8981058D01*
X12326029Y-8981058D02*
X12326029Y-9057249D01*
X12326029Y-9057249D02*
X12335553Y-9076296D01*
X12335553Y-9076296D02*
X12345077Y-9085820D01*
X12345077Y-9085820D02*
X12364125Y-9095344D01*
X12364125Y-9095344D02*
X12402220Y-9095344D01*
X12402220Y-9095344D02*
X12421268Y-9085820D01*
X12421268Y-9085820D02*
X12430791Y-9076296D01*
X12430791Y-9076296D02*
X12440315Y-9057249D01*
X12440315Y-9057249D02*
X12440315Y-9009630D01*
X12440315Y-9009630D02*
X12430791Y-8990582D01*
X12430791Y-8990582D02*
X12421268Y-8981058D01*
X12421268Y-8981058D02*
X12402220Y-8971534D01*
X12402220Y-8971534D02*
X12364125Y-8971534D01*
X12364125Y-8971534D02*
X12345077Y-8981058D01*
X12345077Y-8981058D02*
X12335553Y-8990582D01*
X12335553Y-8990582D02*
X12326029Y-9009630D01*
X12678410Y-9095344D02*
X12678410Y-8895344D01*
X12764125Y-9095344D02*
X12764125Y-8990582D01*
X12764125Y-8990582D02*
X12754601Y-8971534D01*
X12754601Y-8971534D02*
X12735553Y-8962010D01*
X12735553Y-8962010D02*
X12706982Y-8962010D01*
X12706982Y-8962010D02*
X12687934Y-8971534D01*
X12687934Y-8971534D02*
X12678410Y-8981058D01*
X12887934Y-9095344D02*
X12868887Y-9085820D01*
X12868887Y-9085820D02*
X12859363Y-9076296D01*
X12859363Y-9076296D02*
X12849839Y-9057249D01*
X12849839Y-9057249D02*
X12849839Y-9000106D01*
X12849839Y-9000106D02*
X12859363Y-8981058D01*
X12859363Y-8981058D02*
X12868887Y-8971534D01*
X12868887Y-8971534D02*
X12887934Y-8962010D01*
X12887934Y-8962010D02*
X12916506Y-8962010D01*
X12916506Y-8962010D02*
X12935553Y-8971534D01*
X12935553Y-8971534D02*
X12945077Y-8981058D01*
X12945077Y-8981058D02*
X12954601Y-9000106D01*
X12954601Y-9000106D02*
X12954601Y-9057249D01*
X12954601Y-9057249D02*
X12945077Y-9076296D01*
X12945077Y-9076296D02*
X12935553Y-9085820D01*
X12935553Y-9085820D02*
X12916506Y-9095344D01*
X12916506Y-9095344D02*
X12887934Y-9095344D01*
X13068887Y-9095344D02*
X13049839Y-9085820D01*
X13049839Y-9085820D02*
X13040315Y-9066772D01*
X13040315Y-9066772D02*
X13040315Y-8895344D01*
X13221268Y-9085820D02*
X13202220Y-9095344D01*
X13202220Y-9095344D02*
X13164125Y-9095344D01*
X13164125Y-9095344D02*
X13145077Y-9085820D01*
X13145077Y-9085820D02*
X13135553Y-9066772D01*
X13135553Y-9066772D02*
X13135553Y-8990582D01*
X13135553Y-8990582D02*
X13145077Y-8971534D01*
X13145077Y-8971534D02*
X13164125Y-8962010D01*
X13164125Y-8962010D02*
X13202220Y-8962010D01*
X13202220Y-8962010D02*
X13221268Y-8971534D01*
X13221268Y-8971534D02*
X13230791Y-8990582D01*
X13230791Y-8990582D02*
X13230791Y-9009630D01*
X13230791Y-9009630D02*
X13135553Y-9028677D01*
X13306982Y-9085820D02*
X13326030Y-9095344D01*
X13326030Y-9095344D02*
X13364125Y-9095344D01*
X13364125Y-9095344D02*
X13383172Y-9085820D01*
X13383172Y-9085820D02*
X13392696Y-9066772D01*
X13392696Y-9066772D02*
X13392696Y-9057249D01*
X13392696Y-9057249D02*
X13383172Y-9038201D01*
X13383172Y-9038201D02*
X13364125Y-9028677D01*
X13364125Y-9028677D02*
X13335553Y-9028677D01*
X13335553Y-9028677D02*
X13316506Y-9019153D01*
X13316506Y-9019153D02*
X13306982Y-9000106D01*
X13306982Y-9000106D02*
X13306982Y-8990582D01*
X13306982Y-8990582D02*
X13316506Y-8971534D01*
X13316506Y-8971534D02*
X13335553Y-8962010D01*
X13335553Y-8962010D02*
X13364125Y-8962010D01*
X13364125Y-8962010D02*
X13383172Y-8971534D01*
X13459363Y-9171534D02*
X13468887Y-9162010D01*
X13468887Y-9162010D02*
X13487934Y-9133439D01*
X13487934Y-9133439D02*
X13497458Y-9114391D01*
X13497458Y-9114391D02*
X13506982Y-9085820D01*
X13506982Y-9085820D02*
X13516506Y-9038201D01*
X13516506Y-9038201D02*
X13516506Y-9000106D01*
X13516506Y-9000106D02*
X13506982Y-8952487D01*
X13506982Y-8952487D02*
X13497458Y-8923915D01*
X13497458Y-8923915D02*
X13487934Y-8904868D01*
X13487934Y-8904868D02*
X13468887Y-8876296D01*
X13468887Y-8876296D02*
X13459363Y-8866772D01*
M02*
