%TF.GenerationSoftware,KiCad,Pcbnew,8.0.3*%
%TF.CreationDate,2024-11-04T16:53:41-08:00*%
%TF.ProjectId,MicPCB,4d696350-4342-42e6-9b69-6361645f7063,rev?*%
%TF.SameCoordinates,Original*%
%TF.FileFunction,Copper,L2,Bot*%
%TF.FilePolarity,Positive*%
%FSLAX46Y46*%
G04 Gerber Fmt 4.6, Leading zero omitted, Abs format (unit mm)*
G04 Created by KiCad (PCBNEW 8.0.3) date 2024-11-04 16:53:41*
%MOMM*%
%LPD*%
G01*
G04 APERTURE LIST*
G04 Aperture macros list*
%AMRoundRect*
0 Rectangle with rounded corners*
0 $1 Rounding radius*
0 $2 $3 $4 $5 $6 $7 $8 $9 X,Y pos of 4 corners*
0 Add a 4 corners polygon primitive as box body*
4,1,4,$2,$3,$4,$5,$6,$7,$8,$9,$2,$3,0*
0 Add four circle primitives for the rounded corners*
1,1,$1+$1,$2,$3*
1,1,$1+$1,$4,$5*
1,1,$1+$1,$6,$7*
1,1,$1+$1,$8,$9*
0 Add four rect primitives between the rounded corners*
20,1,$1+$1,$2,$3,$4,$5,0*
20,1,$1+$1,$4,$5,$6,$7,0*
20,1,$1+$1,$6,$7,$8,$9,0*
20,1,$1+$1,$8,$9,$2,$3,0*%
G04 Aperture macros list end*
%TA.AperFunction,SMDPad,CuDef*%
%ADD10RoundRect,0.200000X0.275000X-0.200000X0.275000X0.200000X-0.275000X0.200000X-0.275000X-0.200000X0*%
%TD*%
%TA.AperFunction,ComponentPad*%
%ADD11R,1.700000X1.700000*%
%TD*%
%TA.AperFunction,ComponentPad*%
%ADD12O,1.700000X1.700000*%
%TD*%
%TA.AperFunction,ComponentPad*%
%ADD13RoundRect,0.250000X-0.600000X-0.725000X0.600000X-0.725000X0.600000X0.725000X-0.600000X0.725000X0*%
%TD*%
%TA.AperFunction,ComponentPad*%
%ADD14O,1.700000X1.950000*%
%TD*%
%TA.AperFunction,ViaPad*%
%ADD15C,0.600000*%
%TD*%
%TA.AperFunction,Conductor*%
%ADD16C,0.200000*%
%TD*%
G04 APERTURE END LIST*
D10*
%TO.P,R1,1*%
%TO.N,/sd*%
X102666800Y-64934600D03*
%TO.P,R1,2*%
%TO.N,GND*%
X102666800Y-63284600D03*
%TD*%
D11*
%TO.P,J3,1,Pin_1*%
%TO.N,GND*%
X94757000Y-58699800D03*
D12*
%TO.P,J3,2,Pin_2*%
%TO.N,+3.3V*%
X97297000Y-58699800D03*
%TO.P,J3,3,Pin_3*%
%TO.N,/sd*%
X99837000Y-58699800D03*
%TD*%
D11*
%TO.P,J2,1,Pin_1*%
%TO.N,/sel*%
X94615000Y-67310000D03*
D12*
%TO.P,J2,2,Pin_2*%
%TO.N,/lrcl*%
X97155000Y-67310000D03*
%TO.P,J2,3,Pin_3*%
%TO.N,/bclk*%
X99695000Y-67310000D03*
%TD*%
D13*
%TO.P,J1,1,Pin_1*%
%TO.N,/sel*%
X90905000Y-74630000D03*
D14*
%TO.P,J1,2,Pin_2*%
%TO.N,/lrcl*%
X93405000Y-74630000D03*
%TO.P,J1,3,Pin_3*%
%TO.N,/sd*%
X95905000Y-74630000D03*
%TO.P,J1,4,Pin_4*%
%TO.N,/bclk*%
X98405000Y-74630000D03*
%TO.P,J1,5,Pin_5*%
%TO.N,GND*%
X100905000Y-74630000D03*
%TO.P,J1,6,Pin_6*%
%TO.N,+3.3V*%
X103405000Y-74630000D03*
%TD*%
D15*
%TO.N,GND*%
X101142800Y-61620400D03*
X102158800Y-71577200D03*
X96774000Y-62077600D03*
%TD*%
D16*
%TO.N,/sd*%
X99837000Y-62104800D02*
X99837000Y-58699800D01*
X102666800Y-64934600D02*
X99837000Y-62104800D01*
%TO.N,GND*%
X102666800Y-63144400D02*
X101142800Y-61620400D01*
X102666800Y-63284600D02*
X102666800Y-63144400D01*
%TO.N,/sd*%
X102666800Y-67868200D02*
X102666800Y-64934600D01*
X95905000Y-74630000D02*
X102666800Y-67868200D01*
%TO.N,GND*%
X100905000Y-72831000D02*
X102158800Y-71577200D01*
X100905000Y-74630000D02*
X100905000Y-72831000D01*
X94757000Y-60060600D02*
X96774000Y-62077600D01*
X94757000Y-58699800D02*
X94757000Y-60060600D01*
%TD*%
%TA.AperFunction,Conductor*%
%TO.N,GND*%
G36*
X106579739Y-56654185D02*
G01*
X106625494Y-56706989D01*
X106636700Y-56758500D01*
X106636700Y-77709100D01*
X106617015Y-77776139D01*
X106564211Y-77821894D01*
X106512700Y-77833100D01*
X87492500Y-77833100D01*
X87425461Y-77813415D01*
X87379706Y-77760611D01*
X87368500Y-77709100D01*
X87368500Y-73854983D01*
X89554500Y-73854983D01*
X89554500Y-75405001D01*
X89554501Y-75405018D01*
X89565000Y-75507796D01*
X89565001Y-75507799D01*
X89610894Y-75646294D01*
X89620186Y-75674334D01*
X89712288Y-75823656D01*
X89836344Y-75947712D01*
X89985666Y-76039814D01*
X90152203Y-76094999D01*
X90254991Y-76105500D01*
X91555008Y-76105499D01*
X91657797Y-76094999D01*
X91824334Y-76039814D01*
X91973656Y-75947712D01*
X92097712Y-75823656D01*
X92189814Y-75674334D01*
X92189814Y-75674331D01*
X92193178Y-75668879D01*
X92245126Y-75622154D01*
X92314088Y-75610931D01*
X92378170Y-75638774D01*
X92386398Y-75646294D01*
X92525213Y-75785109D01*
X92697179Y-75910048D01*
X92697181Y-75910049D01*
X92697184Y-75910051D01*
X92886588Y-76006557D01*
X93088757Y-76072246D01*
X93298713Y-76105500D01*
X93298714Y-76105500D01*
X93511286Y-76105500D01*
X93511287Y-76105500D01*
X93721243Y-76072246D01*
X93923412Y-76006557D01*
X94112816Y-75910051D01*
X94134789Y-75894086D01*
X94284786Y-75785109D01*
X94284788Y-75785106D01*
X94284792Y-75785104D01*
X94435104Y-75634792D01*
X94554683Y-75470204D01*
X94610011Y-75427540D01*
X94679624Y-75421561D01*
X94741420Y-75454166D01*
X94755313Y-75470199D01*
X94857560Y-75610931D01*
X94874896Y-75634792D01*
X95025213Y-75785109D01*
X95197179Y-75910048D01*
X95197181Y-75910049D01*
X95197184Y-75910051D01*
X95386588Y-76006557D01*
X95588757Y-76072246D01*
X95798713Y-76105500D01*
X95798714Y-76105500D01*
X96011286Y-76105500D01*
X96011287Y-76105500D01*
X96221243Y-76072246D01*
X96423412Y-76006557D01*
X96612816Y-75910051D01*
X96634789Y-75894086D01*
X96784786Y-75785109D01*
X96784788Y-75785106D01*
X96784792Y-75785104D01*
X96935104Y-75634792D01*
X97054683Y-75470204D01*
X97110011Y-75427540D01*
X97179624Y-75421561D01*
X97241420Y-75454166D01*
X97255313Y-75470199D01*
X97357560Y-75610931D01*
X97374896Y-75634792D01*
X97525213Y-75785109D01*
X97697179Y-75910048D01*
X97697181Y-75910049D01*
X97697184Y-75910051D01*
X97886588Y-76006557D01*
X98088757Y-76072246D01*
X98298713Y-76105500D01*
X98298714Y-76105500D01*
X98511286Y-76105500D01*
X98511287Y-76105500D01*
X98721243Y-76072246D01*
X98923412Y-76006557D01*
X99112816Y-75910051D01*
X99134789Y-75894086D01*
X99284786Y-75785109D01*
X99284788Y-75785106D01*
X99284792Y-75785104D01*
X99435104Y-75634792D01*
X99554991Y-75469779D01*
X99610320Y-75427115D01*
X99679933Y-75421136D01*
X99741729Y-75453741D01*
X99755627Y-75469781D01*
X99875272Y-75634459D01*
X99875276Y-75634464D01*
X100025535Y-75784723D01*
X100025540Y-75784727D01*
X100197442Y-75909620D01*
X100386782Y-76006095D01*
X100588870Y-76071757D01*
X100798754Y-76105000D01*
X101011246Y-76105000D01*
X101221127Y-76071757D01*
X101221130Y-76071757D01*
X101423217Y-76006095D01*
X101612557Y-75909620D01*
X101784459Y-75784727D01*
X101784464Y-75784723D01*
X101934721Y-75634466D01*
X102054371Y-75469781D01*
X102109701Y-75427115D01*
X102179314Y-75421136D01*
X102241110Y-75453741D01*
X102255008Y-75469781D01*
X102374890Y-75634785D01*
X102374894Y-75634790D01*
X102525213Y-75785109D01*
X102697179Y-75910048D01*
X102697181Y-75910049D01*
X102697184Y-75910051D01*
X102886588Y-76006557D01*
X103088757Y-76072246D01*
X103298713Y-76105500D01*
X103298714Y-76105500D01*
X103511286Y-76105500D01*
X103511287Y-76105500D01*
X103721243Y-76072246D01*
X103923412Y-76006557D01*
X104112816Y-75910051D01*
X104134789Y-75894086D01*
X104284786Y-75785109D01*
X104284788Y-75785106D01*
X104284792Y-75785104D01*
X104435104Y-75634792D01*
X104435106Y-75634788D01*
X104435109Y-75634786D01*
X104560048Y-75462820D01*
X104560047Y-75462820D01*
X104560051Y-75462816D01*
X104656557Y-75273412D01*
X104722246Y-75071243D01*
X104755500Y-74861287D01*
X104755500Y-74398713D01*
X104722246Y-74188757D01*
X104656557Y-73986588D01*
X104560051Y-73797184D01*
X104560049Y-73797181D01*
X104560048Y-73797179D01*
X104435109Y-73625213D01*
X104284786Y-73474890D01*
X104112820Y-73349951D01*
X103923414Y-73253444D01*
X103923413Y-73253443D01*
X103923412Y-73253443D01*
X103721243Y-73187754D01*
X103721241Y-73187753D01*
X103721240Y-73187753D01*
X103559957Y-73162208D01*
X103511287Y-73154500D01*
X103298713Y-73154500D01*
X103250042Y-73162208D01*
X103088760Y-73187753D01*
X102886585Y-73253444D01*
X102697179Y-73349951D01*
X102525213Y-73474890D01*
X102374894Y-73625209D01*
X102374890Y-73625214D01*
X102255008Y-73790218D01*
X102199678Y-73832884D01*
X102130065Y-73838863D01*
X102068270Y-73806257D01*
X102054372Y-73790218D01*
X101934727Y-73625540D01*
X101934723Y-73625535D01*
X101784464Y-73475276D01*
X101784459Y-73475272D01*
X101612557Y-73350379D01*
X101423217Y-73253904D01*
X101221129Y-73188242D01*
X101011246Y-73155000D01*
X100798754Y-73155000D01*
X100588872Y-73188242D01*
X100588869Y-73188242D01*
X100386782Y-73253904D01*
X100197442Y-73350379D01*
X100025540Y-73475272D01*
X100025535Y-73475276D01*
X99875276Y-73625535D01*
X99875272Y-73625540D01*
X99755627Y-73790218D01*
X99700297Y-73832884D01*
X99630684Y-73838863D01*
X99568889Y-73806257D01*
X99554991Y-73790218D01*
X99435109Y-73625214D01*
X99435105Y-73625209D01*
X99284786Y-73474890D01*
X99112820Y-73349951D01*
X98923414Y-73253444D01*
X98923413Y-73253443D01*
X98923412Y-73253443D01*
X98721243Y-73187754D01*
X98721241Y-73187753D01*
X98721240Y-73187753D01*
X98570504Y-73163879D01*
X98511287Y-73154500D01*
X98511286Y-73154500D01*
X98508596Y-73154074D01*
X98445461Y-73124145D01*
X98408530Y-73064833D01*
X98409528Y-72994971D01*
X98440311Y-72943922D01*
X103035513Y-68348721D01*
X103035516Y-68348720D01*
X103147320Y-68236916D01*
X103197439Y-68150104D01*
X103226377Y-68099985D01*
X103267300Y-67947258D01*
X103267300Y-67789143D01*
X103267300Y-65826315D01*
X103286985Y-65759276D01*
X103327149Y-65720198D01*
X103376985Y-65690072D01*
X103497272Y-65569785D01*
X103585278Y-65424206D01*
X103635886Y-65261796D01*
X103642300Y-65191216D01*
X103642300Y-64677984D01*
X103635886Y-64607404D01*
X103585278Y-64444994D01*
X103497272Y-64299415D01*
X103497270Y-64299413D01*
X103497269Y-64299411D01*
X103394784Y-64196926D01*
X103361299Y-64135603D01*
X103366283Y-64065911D01*
X103394785Y-64021563D01*
X103496871Y-63919478D01*
X103496872Y-63919477D01*
X103584819Y-63773995D01*
X103635390Y-63611706D01*
X103641799Y-63541172D01*
X103641799Y-63028017D01*
X103635391Y-62957497D01*
X103635390Y-62957492D01*
X103584818Y-62795203D01*
X103496872Y-62649722D01*
X103376677Y-62529527D01*
X103231195Y-62441580D01*
X103231196Y-62441580D01*
X103068905Y-62391009D01*
X103068906Y-62391009D01*
X102998372Y-62384600D01*
X102335217Y-62384600D01*
X102264697Y-62391008D01*
X102264692Y-62391009D01*
X102102403Y-62441581D01*
X101956922Y-62529527D01*
X101836727Y-62649722D01*
X101748781Y-62795203D01*
X101721391Y-62883099D01*
X101682653Y-62941247D01*
X101618628Y-62969220D01*
X101549642Y-62958138D01*
X101515325Y-62933889D01*
X100473819Y-61892383D01*
X100440334Y-61831060D01*
X100437500Y-61804702D01*
X100437500Y-59988890D01*
X100457185Y-59921851D01*
X100509101Y-59876506D01*
X100514830Y-59873835D01*
X100708401Y-59738295D01*
X100875495Y-59571201D01*
X101011035Y-59377630D01*
X101110903Y-59163463D01*
X101172063Y-58935208D01*
X101192659Y-58699800D01*
X101172063Y-58464392D01*
X101110903Y-58236137D01*
X101011035Y-58021971D01*
X101005425Y-58013958D01*
X100875494Y-57828397D01*
X100708402Y-57661306D01*
X100708395Y-57661301D01*
X100514834Y-57525767D01*
X100514830Y-57525765D01*
X100443727Y-57492609D01*
X100300663Y-57425897D01*
X100300659Y-57425896D01*
X100300655Y-57425894D01*
X100072413Y-57364738D01*
X100072403Y-57364736D01*
X99837001Y-57344141D01*
X99836999Y-57344141D01*
X99601596Y-57364736D01*
X99601586Y-57364738D01*
X99373344Y-57425894D01*
X99373335Y-57425898D01*
X99159171Y-57525764D01*
X99159169Y-57525765D01*
X98965597Y-57661305D01*
X98798505Y-57828397D01*
X98668575Y-58013958D01*
X98613998Y-58057583D01*
X98544500Y-58064777D01*
X98482145Y-58033254D01*
X98465425Y-58013958D01*
X98335494Y-57828397D01*
X98168402Y-57661306D01*
X98168395Y-57661301D01*
X97974834Y-57525767D01*
X97974830Y-57525765D01*
X97903727Y-57492609D01*
X97760663Y-57425897D01*
X97760659Y-57425896D01*
X97760655Y-57425894D01*
X97532413Y-57364738D01*
X97532403Y-57364736D01*
X97297001Y-57344141D01*
X97296999Y-57344141D01*
X97061596Y-57364736D01*
X97061586Y-57364738D01*
X96833344Y-57425894D01*
X96833335Y-57425898D01*
X96619171Y-57525764D01*
X96619169Y-57525765D01*
X96425600Y-57661303D01*
X96303284Y-57783619D01*
X96241961Y-57817103D01*
X96172269Y-57812119D01*
X96116336Y-57770247D01*
X96099421Y-57739270D01*
X96050354Y-57607713D01*
X96050350Y-57607706D01*
X95964190Y-57492612D01*
X95964187Y-57492609D01*
X95849093Y-57406449D01*
X95849086Y-57406445D01*
X95714379Y-57356203D01*
X95714372Y-57356201D01*
X95654844Y-57349800D01*
X93859155Y-57349800D01*
X93799627Y-57356201D01*
X93799620Y-57356203D01*
X93664913Y-57406445D01*
X93664906Y-57406449D01*
X93549812Y-57492609D01*
X93549809Y-57492612D01*
X93463649Y-57607706D01*
X93463645Y-57607713D01*
X93413403Y-57742420D01*
X93413401Y-57742427D01*
X93407000Y-57801955D01*
X93407000Y-59597644D01*
X93413401Y-59657172D01*
X93413403Y-59657179D01*
X93463645Y-59791886D01*
X93463649Y-59791893D01*
X93549809Y-59906987D01*
X93549812Y-59906990D01*
X93664906Y-59993150D01*
X93664913Y-59993154D01*
X93799620Y-60043396D01*
X93799627Y-60043398D01*
X93859155Y-60049799D01*
X93859172Y-60049800D01*
X95654828Y-60049800D01*
X95654844Y-60049799D01*
X95714372Y-60043398D01*
X95714379Y-60043396D01*
X95849086Y-59993154D01*
X95849093Y-59993150D01*
X95964187Y-59906990D01*
X95964190Y-59906987D01*
X96050350Y-59791893D01*
X96050354Y-59791886D01*
X96099422Y-59660329D01*
X96141293Y-59604395D01*
X96206757Y-59579978D01*
X96275030Y-59594830D01*
X96303285Y-59615981D01*
X96425599Y-59738295D01*
X96502135Y-59791886D01*
X96619165Y-59873832D01*
X96619167Y-59873833D01*
X96619170Y-59873835D01*
X96833337Y-59973703D01*
X97061592Y-60034863D01*
X97232319Y-60049800D01*
X97296999Y-60055459D01*
X97297000Y-60055459D01*
X97297001Y-60055459D01*
X97361681Y-60049800D01*
X97532408Y-60034863D01*
X97760663Y-59973703D01*
X97974830Y-59873835D01*
X98168401Y-59738295D01*
X98335495Y-59571201D01*
X98465425Y-59385642D01*
X98520002Y-59342017D01*
X98589500Y-59334823D01*
X98651855Y-59366346D01*
X98668575Y-59385642D01*
X98798500Y-59571195D01*
X98798505Y-59571201D01*
X98965599Y-59738295D01*
X99042135Y-59791886D01*
X99159165Y-59873832D01*
X99159167Y-59873833D01*
X99159170Y-59873835D01*
X99164898Y-59876506D01*
X99217339Y-59922672D01*
X99236500Y-59988890D01*
X99236500Y-62018130D01*
X99236499Y-62018148D01*
X99236499Y-62183854D01*
X99236498Y-62183854D01*
X99236499Y-62183857D01*
X99277423Y-62336585D01*
X99305145Y-62384600D01*
X99306358Y-62386700D01*
X99306359Y-62386704D01*
X99306360Y-62386704D01*
X99356479Y-62473514D01*
X99356481Y-62473517D01*
X99475349Y-62592385D01*
X99475355Y-62592390D01*
X101654981Y-64772016D01*
X101688466Y-64833339D01*
X101691300Y-64859697D01*
X101691300Y-65191213D01*
X101697713Y-65261792D01*
X101748322Y-65424206D01*
X101836330Y-65569788D01*
X101956611Y-65690069D01*
X101956613Y-65690070D01*
X101956615Y-65690072D01*
X102006450Y-65720198D01*
X102053638Y-65771726D01*
X102066300Y-65826315D01*
X102066300Y-67568102D01*
X102046615Y-67635141D01*
X102029981Y-67655783D01*
X96483867Y-73201896D01*
X96422544Y-73235381D01*
X96357868Y-73232146D01*
X96221240Y-73187753D01*
X96059957Y-73162208D01*
X96011287Y-73154500D01*
X95798713Y-73154500D01*
X95750042Y-73162208D01*
X95588760Y-73187753D01*
X95386585Y-73253444D01*
X95197179Y-73349951D01*
X95025213Y-73474890D01*
X94874894Y-73625209D01*
X94874890Y-73625214D01*
X94755318Y-73789793D01*
X94699989Y-73832459D01*
X94630375Y-73838438D01*
X94568580Y-73805833D01*
X94554682Y-73789793D01*
X94435109Y-73625214D01*
X94435105Y-73625209D01*
X94284786Y-73474890D01*
X94112820Y-73349951D01*
X93923414Y-73253444D01*
X93923413Y-73253443D01*
X93923412Y-73253443D01*
X93721243Y-73187754D01*
X93721241Y-73187753D01*
X93721240Y-73187753D01*
X93559957Y-73162208D01*
X93511287Y-73154500D01*
X93298713Y-73154500D01*
X93250042Y-73162208D01*
X93088760Y-73187753D01*
X92886585Y-73253444D01*
X92697179Y-73349951D01*
X92525215Y-73474889D01*
X92386398Y-73613706D01*
X92325075Y-73647190D01*
X92255383Y-73642206D01*
X92199450Y-73600334D01*
X92193178Y-73591120D01*
X92097712Y-73436344D01*
X91973657Y-73312289D01*
X91973656Y-73312288D01*
X91848969Y-73235381D01*
X91824336Y-73220187D01*
X91824331Y-73220185D01*
X91822862Y-73219698D01*
X91657797Y-73165001D01*
X91657795Y-73165000D01*
X91555010Y-73154500D01*
X90254998Y-73154500D01*
X90254981Y-73154501D01*
X90152203Y-73165000D01*
X90152200Y-73165001D01*
X89985668Y-73220185D01*
X89985663Y-73220187D01*
X89836342Y-73312289D01*
X89712289Y-73436342D01*
X89620187Y-73585663D01*
X89620185Y-73585668D01*
X89615325Y-73600334D01*
X89565001Y-73752203D01*
X89565001Y-73752204D01*
X89565000Y-73752204D01*
X89554500Y-73854983D01*
X87368500Y-73854983D01*
X87368500Y-66412135D01*
X93264500Y-66412135D01*
X93264500Y-68207870D01*
X93264501Y-68207876D01*
X93270908Y-68267483D01*
X93321202Y-68402328D01*
X93321206Y-68402335D01*
X93407452Y-68517544D01*
X93407455Y-68517547D01*
X93522664Y-68603793D01*
X93522671Y-68603797D01*
X93657517Y-68654091D01*
X93657516Y-68654091D01*
X93664444Y-68654835D01*
X93717127Y-68660500D01*
X95512872Y-68660499D01*
X95572483Y-68654091D01*
X95707331Y-68603796D01*
X95822546Y-68517546D01*
X95908796Y-68402331D01*
X95957810Y-68270916D01*
X95999681Y-68214984D01*
X96065145Y-68190566D01*
X96133418Y-68205417D01*
X96161673Y-68226569D01*
X96283599Y-68348495D01*
X96380384Y-68416265D01*
X96477165Y-68484032D01*
X96477167Y-68484033D01*
X96477170Y-68484035D01*
X96691337Y-68583903D01*
X96919592Y-68645063D01*
X97096034Y-68660500D01*
X97154999Y-68665659D01*
X97155000Y-68665659D01*
X97155001Y-68665659D01*
X97213966Y-68660500D01*
X97390408Y-68645063D01*
X97618663Y-68583903D01*
X97832830Y-68484035D01*
X98026401Y-68348495D01*
X98193495Y-68181401D01*
X98323425Y-67995842D01*
X98378002Y-67952217D01*
X98447500Y-67945023D01*
X98509855Y-67976546D01*
X98526575Y-67995842D01*
X98656500Y-68181395D01*
X98656505Y-68181401D01*
X98823599Y-68348495D01*
X98920384Y-68416265D01*
X99017165Y-68484032D01*
X99017167Y-68484033D01*
X99017170Y-68484035D01*
X99231337Y-68583903D01*
X99459592Y-68645063D01*
X99636034Y-68660500D01*
X99694999Y-68665659D01*
X99695000Y-68665659D01*
X99695001Y-68665659D01*
X99753966Y-68660500D01*
X99930408Y-68645063D01*
X100158663Y-68583903D01*
X100372830Y-68484035D01*
X100566401Y-68348495D01*
X100733495Y-68181401D01*
X100869035Y-67987830D01*
X100968903Y-67773663D01*
X101030063Y-67545408D01*
X101050659Y-67310000D01*
X101030063Y-67074592D01*
X100968903Y-66846337D01*
X100869035Y-66632171D01*
X100863425Y-66624158D01*
X100733494Y-66438597D01*
X100566402Y-66271506D01*
X100566395Y-66271501D01*
X100372834Y-66135967D01*
X100372830Y-66135965D01*
X100372828Y-66135964D01*
X100158663Y-66036097D01*
X100158659Y-66036096D01*
X100158655Y-66036094D01*
X99930413Y-65974938D01*
X99930403Y-65974936D01*
X99695001Y-65954341D01*
X99694999Y-65954341D01*
X99459596Y-65974936D01*
X99459586Y-65974938D01*
X99231344Y-66036094D01*
X99231335Y-66036098D01*
X99017171Y-66135964D01*
X99017169Y-66135965D01*
X98823597Y-66271505D01*
X98656505Y-66438597D01*
X98526575Y-66624158D01*
X98471998Y-66667783D01*
X98402500Y-66674977D01*
X98340145Y-66643454D01*
X98323425Y-66624158D01*
X98193494Y-66438597D01*
X98026402Y-66271506D01*
X98026395Y-66271501D01*
X97832834Y-66135967D01*
X97832830Y-66135965D01*
X97832828Y-66135964D01*
X97618663Y-66036097D01*
X97618659Y-66036096D01*
X97618655Y-66036094D01*
X97390413Y-65974938D01*
X97390403Y-65974936D01*
X97155001Y-65954341D01*
X97154999Y-65954341D01*
X96919596Y-65974936D01*
X96919586Y-65974938D01*
X96691344Y-66036094D01*
X96691335Y-66036098D01*
X96477171Y-66135964D01*
X96477169Y-66135965D01*
X96283600Y-66271503D01*
X96161673Y-66393430D01*
X96100350Y-66426914D01*
X96030658Y-66421930D01*
X95974725Y-66380058D01*
X95957810Y-66349081D01*
X95908797Y-66217671D01*
X95908793Y-66217664D01*
X95822547Y-66102455D01*
X95822544Y-66102452D01*
X95707335Y-66016206D01*
X95707328Y-66016202D01*
X95572482Y-65965908D01*
X95572483Y-65965908D01*
X95512883Y-65959501D01*
X95512881Y-65959500D01*
X95512873Y-65959500D01*
X95512864Y-65959500D01*
X93717129Y-65959500D01*
X93717123Y-65959501D01*
X93657516Y-65965908D01*
X93522671Y-66016202D01*
X93522664Y-66016206D01*
X93407455Y-66102452D01*
X93407452Y-66102455D01*
X93321206Y-66217664D01*
X93321202Y-66217671D01*
X93270908Y-66352517D01*
X93264501Y-66412116D01*
X93264500Y-66412135D01*
X87368500Y-66412135D01*
X87368500Y-56758500D01*
X87388185Y-56691461D01*
X87440989Y-56645706D01*
X87492500Y-56634500D01*
X106512700Y-56634500D01*
X106579739Y-56654185D01*
G37*
%TD.AperFunction*%
%TD*%
M02*
