%TF.GenerationSoftware,KiCad,Pcbnew,8.0.3*%
%TF.CreationDate,2024-11-04T16:53:38-08:00*%
%TF.ProjectId,MicPCB,4d696350-4342-42e6-9b69-6361645f7063,rev?*%
%TF.SameCoordinates,Original*%
%TF.FileFunction,Drillmap*%
%TF.FilePolarity,Positive*%
%FSLAX45Y45*%
G04 Gerber Fmt 4.5, Leading zero omitted, Abs format (unit mm)*
G04 Created by KiCad (PCBNEW 8.0.3) date 2024-11-04 16:53:38*
%MOMM*%
%LPD*%
G01*
G04 APERTURE LIST*
%ADD10C,0.050000*%
%ADD11C,0.200000*%
G04 APERTURE END LIST*
D10*
X8686800Y-5613400D02*
X10713720Y-5613400D01*
X10713720Y-7833360D01*
X8686800Y-7833360D01*
X8686800Y-5613400D01*
D11*
X8945077Y-8147344D02*
X8945077Y-7947344D01*
X8945077Y-7947344D02*
X8992696Y-7947344D01*
X8992696Y-7947344D02*
X9021267Y-7956868D01*
X9021267Y-7956868D02*
X9040315Y-7975915D01*
X9040315Y-7975915D02*
X9049839Y-7994963D01*
X9049839Y-7994963D02*
X9059363Y-8033058D01*
X9059363Y-8033058D02*
X9059363Y-8061629D01*
X9059363Y-8061629D02*
X9049839Y-8099725D01*
X9049839Y-8099725D02*
X9040315Y-8118772D01*
X9040315Y-8118772D02*
X9021267Y-8137820D01*
X9021267Y-8137820D02*
X8992696Y-8147344D01*
X8992696Y-8147344D02*
X8945077Y-8147344D01*
X9145077Y-8147344D02*
X9145077Y-8014010D01*
X9145077Y-8052106D02*
X9154601Y-8033058D01*
X9154601Y-8033058D02*
X9164124Y-8023534D01*
X9164124Y-8023534D02*
X9183172Y-8014010D01*
X9183172Y-8014010D02*
X9202220Y-8014010D01*
X9268886Y-8147344D02*
X9268886Y-8014010D01*
X9268886Y-7947344D02*
X9259363Y-7956868D01*
X9259363Y-7956868D02*
X9268886Y-7966391D01*
X9268886Y-7966391D02*
X9278410Y-7956868D01*
X9278410Y-7956868D02*
X9268886Y-7947344D01*
X9268886Y-7947344D02*
X9268886Y-7966391D01*
X9392696Y-8147344D02*
X9373648Y-8137820D01*
X9373648Y-8137820D02*
X9364124Y-8118772D01*
X9364124Y-8118772D02*
X9364124Y-7947344D01*
X9497458Y-8147344D02*
X9478410Y-8137820D01*
X9478410Y-8137820D02*
X9468886Y-8118772D01*
X9468886Y-8118772D02*
X9468886Y-7947344D01*
X9726029Y-8147344D02*
X9726029Y-7947344D01*
X9726029Y-7947344D02*
X9792696Y-8090201D01*
X9792696Y-8090201D02*
X9859363Y-7947344D01*
X9859363Y-7947344D02*
X9859363Y-8147344D01*
X10040315Y-8147344D02*
X10040315Y-8042582D01*
X10040315Y-8042582D02*
X10030791Y-8023534D01*
X10030791Y-8023534D02*
X10011744Y-8014010D01*
X10011744Y-8014010D02*
X9973648Y-8014010D01*
X9973648Y-8014010D02*
X9954601Y-8023534D01*
X10040315Y-8137820D02*
X10021267Y-8147344D01*
X10021267Y-8147344D02*
X9973648Y-8147344D01*
X9973648Y-8147344D02*
X9954601Y-8137820D01*
X9954601Y-8137820D02*
X9945077Y-8118772D01*
X9945077Y-8118772D02*
X9945077Y-8099725D01*
X9945077Y-8099725D02*
X9954601Y-8080677D01*
X9954601Y-8080677D02*
X9973648Y-8071153D01*
X9973648Y-8071153D02*
X10021267Y-8071153D01*
X10021267Y-8071153D02*
X10040315Y-8061629D01*
X10135553Y-8014010D02*
X10135553Y-8214010D01*
X10135553Y-8023534D02*
X10154601Y-8014010D01*
X10154601Y-8014010D02*
X10192696Y-8014010D01*
X10192696Y-8014010D02*
X10211744Y-8023534D01*
X10211744Y-8023534D02*
X10221267Y-8033058D01*
X10221267Y-8033058D02*
X10230791Y-8052106D01*
X10230791Y-8052106D02*
X10230791Y-8109248D01*
X10230791Y-8109248D02*
X10221267Y-8128296D01*
X10221267Y-8128296D02*
X10211744Y-8137820D01*
X10211744Y-8137820D02*
X10192696Y-8147344D01*
X10192696Y-8147344D02*
X10154601Y-8147344D01*
X10154601Y-8147344D02*
X10135553Y-8137820D01*
X10316505Y-8128296D02*
X10326029Y-8137820D01*
X10326029Y-8137820D02*
X10316505Y-8147344D01*
X10316505Y-8147344D02*
X10306982Y-8137820D01*
X10306982Y-8137820D02*
X10316505Y-8128296D01*
X10316505Y-8128296D02*
X10316505Y-8147344D01*
X10316505Y-8023534D02*
X10326029Y-8033058D01*
X10326029Y-8033058D02*
X10316505Y-8042582D01*
X10316505Y-8042582D02*
X10306982Y-8033058D01*
X10306982Y-8033058D02*
X10316505Y-8023534D01*
X10316505Y-8023534D02*
X10316505Y-8042582D01*
M02*
