%TF.GenerationSoftware,KiCad,Pcbnew,8.0.3*%
%TF.CreationDate,2024-11-04T16:53:41-08:00*%
%TF.ProjectId,MicPCB,4d696350-4342-42e6-9b69-6361645f7063,rev?*%
%TF.SameCoordinates,Original*%
%TF.FileFunction,Copper,L1,Top*%
%TF.FilePolarity,Positive*%
%FSLAX46Y46*%
G04 Gerber Fmt 4.6, Leading zero omitted, Abs format (unit mm)*
G04 Created by KiCad (PCBNEW 8.0.3) date 2024-11-04 16:53:41*
%MOMM*%
%LPD*%
G01*
G04 APERTURE LIST*
G04 Aperture macros list*
%AMRoundRect*
0 Rectangle with rounded corners*
0 $1 Rounding radius*
0 $2 $3 $4 $5 $6 $7 $8 $9 X,Y pos of 4 corners*
0 Add a 4 corners polygon primitive as box body*
4,1,4,$2,$3,$4,$5,$6,$7,$8,$9,$2,$3,0*
0 Add four circle primitives for the rounded corners*
1,1,$1+$1,$2,$3*
1,1,$1+$1,$4,$5*
1,1,$1+$1,$6,$7*
1,1,$1+$1,$8,$9*
0 Add four rect primitives between the rounded corners*
20,1,$1+$1,$2,$3,$4,$5,0*
20,1,$1+$1,$4,$5,$6,$7,0*
20,1,$1+$1,$6,$7,$8,$9,0*
20,1,$1+$1,$8,$9,$2,$3,0*%
G04 Aperture macros list end*
%TA.AperFunction,ComponentPad*%
%ADD10R,1.700000X1.700000*%
%TD*%
%TA.AperFunction,ComponentPad*%
%ADD11O,1.700000X1.700000*%
%TD*%
%TA.AperFunction,ComponentPad*%
%ADD12RoundRect,0.250000X-0.600000X-0.725000X0.600000X-0.725000X0.600000X0.725000X-0.600000X0.725000X0*%
%TD*%
%TA.AperFunction,ComponentPad*%
%ADD13O,1.700000X1.950000*%
%TD*%
%TA.AperFunction,ViaPad*%
%ADD14C,0.600000*%
%TD*%
%TA.AperFunction,Conductor*%
%ADD15C,0.200000*%
%TD*%
G04 APERTURE END LIST*
D10*
%TO.P,J3,1,Pin_1*%
%TO.N,GND*%
X94757000Y-58699800D03*
D11*
%TO.P,J3,2,Pin_2*%
%TO.N,+3.3V*%
X97297000Y-58699800D03*
%TO.P,J3,3,Pin_3*%
%TO.N,/sd*%
X99837000Y-58699800D03*
%TD*%
D10*
%TO.P,J2,1,Pin_1*%
%TO.N,/sel*%
X94615000Y-67310000D03*
D11*
%TO.P,J2,2,Pin_2*%
%TO.N,/lrcl*%
X97155000Y-67310000D03*
%TO.P,J2,3,Pin_3*%
%TO.N,/bclk*%
X99695000Y-67310000D03*
%TD*%
D12*
%TO.P,J1,1,Pin_1*%
%TO.N,/sel*%
X90905000Y-74630000D03*
D13*
%TO.P,J1,2,Pin_2*%
%TO.N,/lrcl*%
X93405000Y-74630000D03*
%TO.P,J1,3,Pin_3*%
%TO.N,/sd*%
X95905000Y-74630000D03*
%TO.P,J1,4,Pin_4*%
%TO.N,/bclk*%
X98405000Y-74630000D03*
%TO.P,J1,5,Pin_5*%
%TO.N,GND*%
X100905000Y-74630000D03*
%TO.P,J1,6,Pin_6*%
%TO.N,+3.3V*%
X103405000Y-74630000D03*
%TD*%
D14*
%TO.N,GND*%
X101142800Y-61620400D03*
X102158800Y-71577200D03*
X96774000Y-62077600D03*
%TD*%
D15*
%TO.N,+3.3V*%
X103405000Y-64807800D02*
X103405000Y-74630000D01*
X97297000Y-58699800D02*
X103405000Y-64807800D01*
%TO.N,/bclk*%
X99695000Y-73340000D02*
X98405000Y-74630000D01*
X99695000Y-67310000D02*
X99695000Y-73340000D01*
%TO.N,/lrcl*%
X93405000Y-71060000D02*
X97155000Y-67310000D01*
X93405000Y-74630000D02*
X93405000Y-71060000D01*
%TO.N,/sel*%
X90905000Y-74630000D02*
X90905000Y-71020000D01*
X90905000Y-71020000D02*
X94615000Y-67310000D01*
%TD*%
%TA.AperFunction,Conductor*%
%TO.N,GND*%
G36*
X106579739Y-56654185D02*
G01*
X106625494Y-56706989D01*
X106636700Y-56758500D01*
X106636700Y-77709100D01*
X106617015Y-77776139D01*
X106564211Y-77821894D01*
X106512700Y-77833100D01*
X87492500Y-77833100D01*
X87425461Y-77813415D01*
X87379706Y-77760611D01*
X87368500Y-77709100D01*
X87368500Y-73854983D01*
X89554500Y-73854983D01*
X89554500Y-75405001D01*
X89554501Y-75405018D01*
X89565000Y-75507796D01*
X89565001Y-75507799D01*
X89610894Y-75646294D01*
X89620186Y-75674334D01*
X89712288Y-75823656D01*
X89836344Y-75947712D01*
X89985666Y-76039814D01*
X90152203Y-76094999D01*
X90254991Y-76105500D01*
X91555008Y-76105499D01*
X91657797Y-76094999D01*
X91824334Y-76039814D01*
X91973656Y-75947712D01*
X92097712Y-75823656D01*
X92189814Y-75674334D01*
X92189814Y-75674331D01*
X92193178Y-75668879D01*
X92245126Y-75622154D01*
X92314088Y-75610931D01*
X92378170Y-75638774D01*
X92386398Y-75646294D01*
X92525213Y-75785109D01*
X92697179Y-75910048D01*
X92697181Y-75910049D01*
X92697184Y-75910051D01*
X92886588Y-76006557D01*
X93088757Y-76072246D01*
X93298713Y-76105500D01*
X93298714Y-76105500D01*
X93511286Y-76105500D01*
X93511287Y-76105500D01*
X93721243Y-76072246D01*
X93923412Y-76006557D01*
X94112816Y-75910051D01*
X94134789Y-75894086D01*
X94284786Y-75785109D01*
X94284788Y-75785106D01*
X94284792Y-75785104D01*
X94435104Y-75634792D01*
X94554683Y-75470204D01*
X94610011Y-75427540D01*
X94679624Y-75421561D01*
X94741420Y-75454166D01*
X94755313Y-75470199D01*
X94857560Y-75610931D01*
X94874896Y-75634792D01*
X95025213Y-75785109D01*
X95197179Y-75910048D01*
X95197181Y-75910049D01*
X95197184Y-75910051D01*
X95386588Y-76006557D01*
X95588757Y-76072246D01*
X95798713Y-76105500D01*
X95798714Y-76105500D01*
X96011286Y-76105500D01*
X96011287Y-76105500D01*
X96221243Y-76072246D01*
X96423412Y-76006557D01*
X96612816Y-75910051D01*
X96634789Y-75894086D01*
X96784786Y-75785109D01*
X96784788Y-75785106D01*
X96784792Y-75785104D01*
X96935104Y-75634792D01*
X97054683Y-75470204D01*
X97110011Y-75427540D01*
X97179624Y-75421561D01*
X97241420Y-75454166D01*
X97255313Y-75470199D01*
X97357560Y-75610931D01*
X97374896Y-75634792D01*
X97525213Y-75785109D01*
X97697179Y-75910048D01*
X97697181Y-75910049D01*
X97697184Y-75910051D01*
X97886588Y-76006557D01*
X98088757Y-76072246D01*
X98298713Y-76105500D01*
X98298714Y-76105500D01*
X98511286Y-76105500D01*
X98511287Y-76105500D01*
X98721243Y-76072246D01*
X98923412Y-76006557D01*
X99112816Y-75910051D01*
X99134789Y-75894086D01*
X99284786Y-75785109D01*
X99284788Y-75785106D01*
X99284792Y-75785104D01*
X99435104Y-75634792D01*
X99554991Y-75469779D01*
X99610320Y-75427115D01*
X99679933Y-75421136D01*
X99741729Y-75453741D01*
X99755627Y-75469781D01*
X99875272Y-75634459D01*
X99875276Y-75634464D01*
X100025535Y-75784723D01*
X100025540Y-75784727D01*
X100197442Y-75909620D01*
X100386782Y-76006095D01*
X100588870Y-76071757D01*
X100798754Y-76105000D01*
X101011246Y-76105000D01*
X101221127Y-76071757D01*
X101221130Y-76071757D01*
X101423217Y-76006095D01*
X101612557Y-75909620D01*
X101784459Y-75784727D01*
X101784464Y-75784723D01*
X101934721Y-75634466D01*
X102054371Y-75469781D01*
X102109701Y-75427115D01*
X102179314Y-75421136D01*
X102241110Y-75453741D01*
X102255008Y-75469781D01*
X102374890Y-75634785D01*
X102374894Y-75634790D01*
X102525213Y-75785109D01*
X102697179Y-75910048D01*
X102697181Y-75910049D01*
X102697184Y-75910051D01*
X102886588Y-76006557D01*
X103088757Y-76072246D01*
X103298713Y-76105500D01*
X103298714Y-76105500D01*
X103511286Y-76105500D01*
X103511287Y-76105500D01*
X103721243Y-76072246D01*
X103923412Y-76006557D01*
X104112816Y-75910051D01*
X104134789Y-75894086D01*
X104284786Y-75785109D01*
X104284788Y-75785106D01*
X104284792Y-75785104D01*
X104435104Y-75634792D01*
X104435106Y-75634788D01*
X104435109Y-75634786D01*
X104560048Y-75462820D01*
X104560047Y-75462820D01*
X104560051Y-75462816D01*
X104656557Y-75273412D01*
X104722246Y-75071243D01*
X104755500Y-74861287D01*
X104755500Y-74398713D01*
X104722246Y-74188757D01*
X104656557Y-73986588D01*
X104560051Y-73797184D01*
X104560049Y-73797181D01*
X104560048Y-73797179D01*
X104435109Y-73625213D01*
X104284786Y-73474890D01*
X104112815Y-73349948D01*
X104112814Y-73349947D01*
X104073205Y-73329765D01*
X104022409Y-73281791D01*
X104005500Y-73219281D01*
X104005500Y-64728745D01*
X104005500Y-64728743D01*
X103964577Y-64576016D01*
X103964573Y-64576009D01*
X103885524Y-64439090D01*
X103885521Y-64439086D01*
X103885520Y-64439084D01*
X103773716Y-64327280D01*
X103773715Y-64327279D01*
X103769385Y-64322949D01*
X103769374Y-64322939D01*
X99710666Y-60264231D01*
X99677181Y-60202908D01*
X99682165Y-60133216D01*
X99724037Y-60077283D01*
X99789501Y-60052866D01*
X99809144Y-60053021D01*
X99837000Y-60055459D01*
X100072408Y-60034863D01*
X100300663Y-59973703D01*
X100514830Y-59873835D01*
X100708401Y-59738295D01*
X100875495Y-59571201D01*
X101011035Y-59377630D01*
X101110903Y-59163463D01*
X101172063Y-58935208D01*
X101192659Y-58699800D01*
X101172063Y-58464392D01*
X101110903Y-58236137D01*
X101011035Y-58021971D01*
X101005425Y-58013958D01*
X100875494Y-57828397D01*
X100708402Y-57661306D01*
X100708395Y-57661301D01*
X100514834Y-57525767D01*
X100514830Y-57525765D01*
X100443727Y-57492609D01*
X100300663Y-57425897D01*
X100300659Y-57425896D01*
X100300655Y-57425894D01*
X100072413Y-57364738D01*
X100072403Y-57364736D01*
X99837001Y-57344141D01*
X99836999Y-57344141D01*
X99601596Y-57364736D01*
X99601586Y-57364738D01*
X99373344Y-57425894D01*
X99373335Y-57425898D01*
X99159171Y-57525764D01*
X99159169Y-57525765D01*
X98965597Y-57661305D01*
X98798505Y-57828397D01*
X98668575Y-58013958D01*
X98613998Y-58057583D01*
X98544500Y-58064777D01*
X98482145Y-58033254D01*
X98465425Y-58013958D01*
X98335494Y-57828397D01*
X98168402Y-57661306D01*
X98168395Y-57661301D01*
X97974834Y-57525767D01*
X97974830Y-57525765D01*
X97903727Y-57492609D01*
X97760663Y-57425897D01*
X97760659Y-57425896D01*
X97760655Y-57425894D01*
X97532413Y-57364738D01*
X97532403Y-57364736D01*
X97297001Y-57344141D01*
X97296999Y-57344141D01*
X97061596Y-57364736D01*
X97061586Y-57364738D01*
X96833344Y-57425894D01*
X96833335Y-57425898D01*
X96619171Y-57525764D01*
X96619169Y-57525765D01*
X96425600Y-57661303D01*
X96303284Y-57783619D01*
X96241961Y-57817103D01*
X96172269Y-57812119D01*
X96116336Y-57770247D01*
X96099421Y-57739270D01*
X96050354Y-57607713D01*
X96050350Y-57607706D01*
X95964190Y-57492612D01*
X95964187Y-57492609D01*
X95849093Y-57406449D01*
X95849086Y-57406445D01*
X95714379Y-57356203D01*
X95714372Y-57356201D01*
X95654844Y-57349800D01*
X93859155Y-57349800D01*
X93799627Y-57356201D01*
X93799620Y-57356203D01*
X93664913Y-57406445D01*
X93664906Y-57406449D01*
X93549812Y-57492609D01*
X93549809Y-57492612D01*
X93463649Y-57607706D01*
X93463645Y-57607713D01*
X93413403Y-57742420D01*
X93413401Y-57742427D01*
X93407000Y-57801955D01*
X93407000Y-59597644D01*
X93413401Y-59657172D01*
X93413403Y-59657179D01*
X93463645Y-59791886D01*
X93463649Y-59791893D01*
X93549809Y-59906987D01*
X93549812Y-59906990D01*
X93664906Y-59993150D01*
X93664913Y-59993154D01*
X93799620Y-60043396D01*
X93799627Y-60043398D01*
X93859155Y-60049799D01*
X93859172Y-60049800D01*
X95654828Y-60049800D01*
X95654844Y-60049799D01*
X95714372Y-60043398D01*
X95714379Y-60043396D01*
X95849086Y-59993154D01*
X95849093Y-59993150D01*
X95964187Y-59906990D01*
X95964190Y-59906987D01*
X96050350Y-59791893D01*
X96050354Y-59791886D01*
X96099422Y-59660329D01*
X96141293Y-59604395D01*
X96206757Y-59579978D01*
X96275030Y-59594830D01*
X96303285Y-59615981D01*
X96425599Y-59738295D01*
X96502135Y-59791886D01*
X96619165Y-59873832D01*
X96619167Y-59873833D01*
X96619170Y-59873835D01*
X96833337Y-59973703D01*
X97061592Y-60034863D01*
X97232319Y-60049800D01*
X97296999Y-60055459D01*
X97297000Y-60055459D01*
X97297001Y-60055459D01*
X97361681Y-60049800D01*
X97532408Y-60034863D01*
X97660757Y-60000472D01*
X97730606Y-60002135D01*
X97780531Y-60032566D01*
X102768181Y-65020216D01*
X102801666Y-65081539D01*
X102804500Y-65107897D01*
X102804500Y-73219281D01*
X102784815Y-73286320D01*
X102736795Y-73329765D01*
X102697185Y-73349947D01*
X102697184Y-73349948D01*
X102525213Y-73474890D01*
X102374894Y-73625209D01*
X102374890Y-73625214D01*
X102255008Y-73790218D01*
X102199678Y-73832884D01*
X102130065Y-73838863D01*
X102068270Y-73806257D01*
X102054372Y-73790218D01*
X101934727Y-73625540D01*
X101934723Y-73625535D01*
X101784464Y-73475276D01*
X101784459Y-73475272D01*
X101612557Y-73350379D01*
X101423217Y-73253904D01*
X101221129Y-73188242D01*
X101011246Y-73155000D01*
X100798754Y-73155000D01*
X100588872Y-73188242D01*
X100588869Y-73188242D01*
X100457818Y-73230824D01*
X100387977Y-73232819D01*
X100328144Y-73196739D01*
X100297316Y-73134038D01*
X100295500Y-73112893D01*
X100295500Y-68599090D01*
X100315185Y-68532051D01*
X100367101Y-68486706D01*
X100372830Y-68484035D01*
X100566401Y-68348495D01*
X100733495Y-68181401D01*
X100869035Y-67987830D01*
X100968903Y-67773663D01*
X101030063Y-67545408D01*
X101050659Y-67310000D01*
X101030063Y-67074592D01*
X100968903Y-66846337D01*
X100869035Y-66632171D01*
X100863425Y-66624158D01*
X100733494Y-66438597D01*
X100566402Y-66271506D01*
X100566395Y-66271501D01*
X100372834Y-66135967D01*
X100372830Y-66135965D01*
X100372828Y-66135964D01*
X100158663Y-66036097D01*
X100158659Y-66036096D01*
X100158655Y-66036094D01*
X99930413Y-65974938D01*
X99930403Y-65974936D01*
X99695001Y-65954341D01*
X99694999Y-65954341D01*
X99459596Y-65974936D01*
X99459586Y-65974938D01*
X99231344Y-66036094D01*
X99231335Y-66036098D01*
X99017171Y-66135964D01*
X99017169Y-66135965D01*
X98823597Y-66271505D01*
X98656505Y-66438597D01*
X98526575Y-66624158D01*
X98471998Y-66667783D01*
X98402500Y-66674977D01*
X98340145Y-66643454D01*
X98323425Y-66624158D01*
X98193494Y-66438597D01*
X98026402Y-66271506D01*
X98026395Y-66271501D01*
X97832834Y-66135967D01*
X97832830Y-66135965D01*
X97832828Y-66135964D01*
X97618663Y-66036097D01*
X97618659Y-66036096D01*
X97618655Y-66036094D01*
X97390413Y-65974938D01*
X97390403Y-65974936D01*
X97155001Y-65954341D01*
X97154999Y-65954341D01*
X96919596Y-65974936D01*
X96919586Y-65974938D01*
X96691344Y-66036094D01*
X96691335Y-66036098D01*
X96477171Y-66135964D01*
X96477169Y-66135965D01*
X96283600Y-66271503D01*
X96161673Y-66393430D01*
X96100350Y-66426914D01*
X96030658Y-66421930D01*
X95974725Y-66380058D01*
X95957810Y-66349081D01*
X95908797Y-66217671D01*
X95908793Y-66217664D01*
X95822547Y-66102455D01*
X95822544Y-66102452D01*
X95707335Y-66016206D01*
X95707328Y-66016202D01*
X95572482Y-65965908D01*
X95572483Y-65965908D01*
X95512883Y-65959501D01*
X95512881Y-65959500D01*
X95512873Y-65959500D01*
X95512864Y-65959500D01*
X93717129Y-65959500D01*
X93717123Y-65959501D01*
X93657516Y-65965908D01*
X93522671Y-66016202D01*
X93522664Y-66016206D01*
X93407455Y-66102452D01*
X93407452Y-66102455D01*
X93321206Y-66217664D01*
X93321202Y-66217671D01*
X93270908Y-66352517D01*
X93264501Y-66412116D01*
X93264500Y-66412135D01*
X93264500Y-67759902D01*
X93244815Y-67826941D01*
X93228181Y-67847583D01*
X90424481Y-70651282D01*
X90424479Y-70651285D01*
X90374361Y-70738094D01*
X90374359Y-70738096D01*
X90345425Y-70788209D01*
X90345424Y-70788210D01*
X90345423Y-70788215D01*
X90304499Y-70940943D01*
X90304499Y-70940945D01*
X90304499Y-71109046D01*
X90304500Y-71109059D01*
X90304500Y-73037465D01*
X90284815Y-73104504D01*
X90232011Y-73150259D01*
X90193102Y-73160823D01*
X90152202Y-73165001D01*
X90152200Y-73165001D01*
X89985668Y-73220185D01*
X89985663Y-73220187D01*
X89836342Y-73312289D01*
X89712289Y-73436342D01*
X89620187Y-73585663D01*
X89620185Y-73585668D01*
X89615325Y-73600334D01*
X89565001Y-73752203D01*
X89565001Y-73752204D01*
X89565000Y-73752204D01*
X89554500Y-73854983D01*
X87368500Y-73854983D01*
X87368500Y-56758500D01*
X87388185Y-56691461D01*
X87440989Y-56645706D01*
X87492500Y-56634500D01*
X106512700Y-56634500D01*
X106579739Y-56654185D01*
G37*
%TD.AperFunction*%
%TD*%
M02*
