%TF.GenerationSoftware,KiCad,Pcbnew,8.0.3*%
%TF.CreationDate,2024-11-04T16:53:41-08:00*%
%TF.ProjectId,MicPCB,4d696350-4342-42e6-9b69-6361645f7063,rev?*%
%TF.SameCoordinates,Original*%
%TF.FileFunction,Legend,Top*%
%TF.FilePolarity,Positive*%
%FSLAX46Y46*%
G04 Gerber Fmt 4.6, Leading zero omitted, Abs format (unit mm)*
G04 Created by KiCad (PCBNEW 8.0.3) date 2024-11-04 16:53:41*
%MOMM*%
%LPD*%
G01*
G04 APERTURE LIST*
%ADD10C,0.150000*%
%ADD11C,0.120000*%
G04 APERTURE END LIST*
D10*
X91441819Y-59033133D02*
X92156104Y-59033133D01*
X92156104Y-59033133D02*
X92298961Y-59080752D01*
X92298961Y-59080752D02*
X92394200Y-59175990D01*
X92394200Y-59175990D02*
X92441819Y-59318847D01*
X92441819Y-59318847D02*
X92441819Y-59414085D01*
X91441819Y-58652180D02*
X91441819Y-58033133D01*
X91441819Y-58033133D02*
X91822771Y-58366466D01*
X91822771Y-58366466D02*
X91822771Y-58223609D01*
X91822771Y-58223609D02*
X91870390Y-58128371D01*
X91870390Y-58128371D02*
X91918009Y-58080752D01*
X91918009Y-58080752D02*
X92013247Y-58033133D01*
X92013247Y-58033133D02*
X92251342Y-58033133D01*
X92251342Y-58033133D02*
X92346580Y-58080752D01*
X92346580Y-58080752D02*
X92394200Y-58128371D01*
X92394200Y-58128371D02*
X92441819Y-58223609D01*
X92441819Y-58223609D02*
X92441819Y-58509323D01*
X92441819Y-58509323D02*
X92394200Y-58604561D01*
X92394200Y-58604561D02*
X92346580Y-58652180D01*
X91299819Y-67643333D02*
X92014104Y-67643333D01*
X92014104Y-67643333D02*
X92156961Y-67690952D01*
X92156961Y-67690952D02*
X92252200Y-67786190D01*
X92252200Y-67786190D02*
X92299819Y-67929047D01*
X92299819Y-67929047D02*
X92299819Y-68024285D01*
X91395057Y-67214761D02*
X91347438Y-67167142D01*
X91347438Y-67167142D02*
X91299819Y-67071904D01*
X91299819Y-67071904D02*
X91299819Y-66833809D01*
X91299819Y-66833809D02*
X91347438Y-66738571D01*
X91347438Y-66738571D02*
X91395057Y-66690952D01*
X91395057Y-66690952D02*
X91490295Y-66643333D01*
X91490295Y-66643333D02*
X91585533Y-66643333D01*
X91585533Y-66643333D02*
X91728390Y-66690952D01*
X91728390Y-66690952D02*
X92299819Y-67262380D01*
X92299819Y-67262380D02*
X92299819Y-66643333D01*
D11*
%TO.C,J3*%
X96027000Y-60029800D02*
X101167000Y-60029800D01*
X96027000Y-60029800D02*
X96027000Y-57369800D01*
X101167000Y-60029800D02*
X101167000Y-57369800D01*
X93427000Y-58699800D02*
X93427000Y-57369800D01*
X93427000Y-57369800D02*
X94757000Y-57369800D01*
X96027000Y-57369800D02*
X101167000Y-57369800D01*
%TO.C,J2*%
X95885000Y-68640000D02*
X101025000Y-68640000D01*
X95885000Y-68640000D02*
X95885000Y-65980000D01*
X101025000Y-68640000D02*
X101025000Y-65980000D01*
X93285000Y-67310000D02*
X93285000Y-65980000D01*
X93285000Y-65980000D02*
X94615000Y-65980000D01*
X95885000Y-65980000D02*
X101025000Y-65980000D01*
%TD*%
M02*
