%TF.GenerationSoftware,KiCad,Pcbnew,8.0.3*%
%TF.CreationDate,2024-11-14T20:06:39-08:00*%
%TF.ProjectId,SpeakerR,53706561-6b65-4725-922e-6b696361645f,rev?*%
%TF.SameCoordinates,Original*%
%TF.FileFunction,Legend,Bot*%
%TF.FilePolarity,Positive*%
%FSLAX46Y46*%
G04 Gerber Fmt 4.6, Leading zero omitted, Abs format (unit mm)*
G04 Created by KiCad (PCBNEW 8.0.3) date 2024-11-14 20:06:39*
%MOMM*%
%LPD*%
G01*
G04 APERTURE LIST*
%ADD10C,0.100000*%
%ADD11C,0.150000*%
%ADD12C,0.250000*%
%ADD13C,0.127000*%
%ADD14C,0.200000*%
G04 APERTURE END LIST*
D10*
X104598115Y-103377466D02*
X103836211Y-103377466D01*
X104852115Y-99821466D02*
X104090211Y-99821466D01*
X104471163Y-100202419D02*
X104471163Y-99440514D01*
D11*
X103594819Y-101266666D02*
X104309104Y-101266666D01*
X104309104Y-101266666D02*
X104451961Y-101219047D01*
X104451961Y-101219047D02*
X104547200Y-101123809D01*
X104547200Y-101123809D02*
X104594819Y-100980952D01*
X104594819Y-100980952D02*
X104594819Y-100885714D01*
X104594819Y-102266666D02*
X104594819Y-101695238D01*
X104594819Y-101980952D02*
X103594819Y-101980952D01*
X103594819Y-101980952D02*
X103737676Y-101885714D01*
X103737676Y-101885714D02*
X103832914Y-101790476D01*
X103832914Y-101790476D02*
X103880533Y-101695238D01*
X122802589Y-90303695D02*
X123069256Y-89922742D01*
X123259732Y-90303695D02*
X123259732Y-89503695D01*
X123259732Y-89503695D02*
X122954970Y-89503695D01*
X122954970Y-89503695D02*
X122878780Y-89541790D01*
X122878780Y-89541790D02*
X122840685Y-89579885D01*
X122840685Y-89579885D02*
X122802589Y-89656076D01*
X122802589Y-89656076D02*
X122802589Y-89770361D01*
X122802589Y-89770361D02*
X122840685Y-89846552D01*
X122840685Y-89846552D02*
X122878780Y-89884647D01*
X122878780Y-89884647D02*
X122954970Y-89922742D01*
X122954970Y-89922742D02*
X123259732Y-89922742D01*
X122574018Y-89503695D02*
X122307351Y-90303695D01*
X122307351Y-90303695D02*
X122040685Y-89503695D01*
X121354971Y-90303695D02*
X121812114Y-90303695D01*
X121583542Y-90303695D02*
X121583542Y-89503695D01*
X121583542Y-89503695D02*
X121659733Y-89617980D01*
X121659733Y-89617980D02*
X121735923Y-89694171D01*
X121735923Y-89694171D02*
X121812114Y-89732266D01*
D12*
%TO.C,J1*%
X111126000Y-105280000D02*
X111376000Y-105280000D01*
X111126000Y-97920000D02*
X111376000Y-97920000D01*
X111376000Y-104140000D02*
X111376000Y-105280000D01*
X111376000Y-102870000D02*
X111376000Y-100330000D01*
X111376000Y-98930000D02*
X111376000Y-97920000D01*
X105536000Y-97920000D02*
X109986000Y-97920000D01*
X105536000Y-105280000D02*
X105536000Y-97920000D01*
X109986000Y-105280000D02*
X105536000Y-105280000D01*
D13*
%TO.C,RV1*%
X111287600Y-86435200D02*
X120817600Y-86435200D01*
X111287600Y-95965200D02*
X111287600Y-86435200D01*
X120817600Y-86435200D02*
X120817600Y-95965200D01*
X120817600Y-95965200D02*
X111287600Y-95965200D01*
D14*
X121452600Y-91135200D02*
G75*
G02*
X121252600Y-91135200I-100000J0D01*
G01*
X121252600Y-91135200D02*
G75*
G02*
X121452600Y-91135200I100000J0D01*
G01*
%TD*%
M02*
