%TF.GenerationSoftware,KiCad,Pcbnew,8.0.3*%
%TF.CreationDate,2024-11-14T20:06:35-08:00*%
%TF.ProjectId,SpeakerR,53706561-6b65-4725-922e-6b696361645f,rev?*%
%TF.SameCoordinates,Original*%
%TF.FileFunction,Drillmap*%
%TF.FilePolarity,Positive*%
%FSLAX45Y45*%
G04 Gerber Fmt 4.5, Leading zero omitted, Abs format (unit mm)*
G04 Created by KiCad (PCBNEW 8.0.3) date 2024-11-14 20:06:35*
%MOMM*%
%LPD*%
G01*
G04 APERTURE LIST*
%ADD10C,0.050000*%
%ADD11C,0.200000*%
G04 APERTURE END LIST*
D10*
X13378509Y-10033000D02*
G75*
G02*
X10065691Y-10033000I-1656409J0D01*
G01*
X10065691Y-10033000D02*
G75*
G02*
X13378509Y-10033000I1656409J0D01*
G01*
D11*
X10323968Y-12003393D02*
X10323968Y-11803393D01*
X10323968Y-11803393D02*
X10371587Y-11803393D01*
X10371587Y-11803393D02*
X10400158Y-11812917D01*
X10400158Y-11812917D02*
X10419206Y-11831964D01*
X10419206Y-11831964D02*
X10428730Y-11851012D01*
X10428730Y-11851012D02*
X10438253Y-11889107D01*
X10438253Y-11889107D02*
X10438253Y-11917679D01*
X10438253Y-11917679D02*
X10428730Y-11955774D01*
X10428730Y-11955774D02*
X10419206Y-11974821D01*
X10419206Y-11974821D02*
X10400158Y-11993869D01*
X10400158Y-11993869D02*
X10371587Y-12003393D01*
X10371587Y-12003393D02*
X10323968Y-12003393D01*
X10523968Y-12003393D02*
X10523968Y-11870060D01*
X10523968Y-11908155D02*
X10533491Y-11889107D01*
X10533491Y-11889107D02*
X10543015Y-11879583D01*
X10543015Y-11879583D02*
X10562063Y-11870060D01*
X10562063Y-11870060D02*
X10581111Y-11870060D01*
X10647777Y-12003393D02*
X10647777Y-11870060D01*
X10647777Y-11803393D02*
X10638253Y-11812917D01*
X10638253Y-11812917D02*
X10647777Y-11822441D01*
X10647777Y-11822441D02*
X10657301Y-11812917D01*
X10657301Y-11812917D02*
X10647777Y-11803393D01*
X10647777Y-11803393D02*
X10647777Y-11822441D01*
X10771587Y-12003393D02*
X10752539Y-11993869D01*
X10752539Y-11993869D02*
X10743015Y-11974821D01*
X10743015Y-11974821D02*
X10743015Y-11803393D01*
X10876349Y-12003393D02*
X10857301Y-11993869D01*
X10857301Y-11993869D02*
X10847777Y-11974821D01*
X10847777Y-11974821D02*
X10847777Y-11803393D01*
X11104920Y-12003393D02*
X11104920Y-11803393D01*
X11104920Y-11803393D02*
X11171587Y-11946250D01*
X11171587Y-11946250D02*
X11238253Y-11803393D01*
X11238253Y-11803393D02*
X11238253Y-12003393D01*
X11419206Y-12003393D02*
X11419206Y-11898631D01*
X11419206Y-11898631D02*
X11409682Y-11879583D01*
X11409682Y-11879583D02*
X11390634Y-11870060D01*
X11390634Y-11870060D02*
X11352539Y-11870060D01*
X11352539Y-11870060D02*
X11333491Y-11879583D01*
X11419206Y-11993869D02*
X11400158Y-12003393D01*
X11400158Y-12003393D02*
X11352539Y-12003393D01*
X11352539Y-12003393D02*
X11333491Y-11993869D01*
X11333491Y-11993869D02*
X11323968Y-11974821D01*
X11323968Y-11974821D02*
X11323968Y-11955774D01*
X11323968Y-11955774D02*
X11333491Y-11936726D01*
X11333491Y-11936726D02*
X11352539Y-11927202D01*
X11352539Y-11927202D02*
X11400158Y-11927202D01*
X11400158Y-11927202D02*
X11419206Y-11917679D01*
X11514444Y-11870060D02*
X11514444Y-12070060D01*
X11514444Y-11879583D02*
X11533491Y-11870060D01*
X11533491Y-11870060D02*
X11571587Y-11870060D01*
X11571587Y-11870060D02*
X11590634Y-11879583D01*
X11590634Y-11879583D02*
X11600158Y-11889107D01*
X11600158Y-11889107D02*
X11609682Y-11908155D01*
X11609682Y-11908155D02*
X11609682Y-11965298D01*
X11609682Y-11965298D02*
X11600158Y-11984345D01*
X11600158Y-11984345D02*
X11590634Y-11993869D01*
X11590634Y-11993869D02*
X11571587Y-12003393D01*
X11571587Y-12003393D02*
X11533491Y-12003393D01*
X11533491Y-12003393D02*
X11514444Y-11993869D01*
X11695396Y-11984345D02*
X11704920Y-11993869D01*
X11704920Y-11993869D02*
X11695396Y-12003393D01*
X11695396Y-12003393D02*
X11685872Y-11993869D01*
X11685872Y-11993869D02*
X11695396Y-11984345D01*
X11695396Y-11984345D02*
X11695396Y-12003393D01*
X11695396Y-11879583D02*
X11704920Y-11889107D01*
X11704920Y-11889107D02*
X11695396Y-11898631D01*
X11695396Y-11898631D02*
X11685872Y-11889107D01*
X11685872Y-11889107D02*
X11695396Y-11879583D01*
X11695396Y-11879583D02*
X11695396Y-11898631D01*
M02*
