%TF.GenerationSoftware,KiCad,Pcbnew,8.0.3*%
%TF.CreationDate,2024-11-14T20:06:39-08:00*%
%TF.ProjectId,SpeakerR,53706561-6b65-4725-922e-6b696361645f,rev?*%
%TF.SameCoordinates,Original*%
%TF.FileFunction,Copper,L2,Bot*%
%TF.FilePolarity,Positive*%
%FSLAX46Y46*%
G04 Gerber Fmt 4.6, Leading zero omitted, Abs format (unit mm)*
G04 Created by KiCad (PCBNEW 8.0.3) date 2024-11-14 20:06:39*
%MOMM*%
%LPD*%
G01*
G04 APERTURE LIST*
%TA.AperFunction,ComponentPad*%
%ADD10C,1.800000*%
%TD*%
%TA.AperFunction,ComponentPad*%
%ADD11R,1.800000X1.800000*%
%TD*%
%TA.AperFunction,ComponentPad*%
%ADD12C,1.100000*%
%TD*%
%TA.AperFunction,ComponentPad*%
%ADD13C,1.700000*%
%TD*%
%TA.AperFunction,ComponentPad*%
%ADD14R,1.218000X1.218000*%
%TD*%
%TA.AperFunction,ComponentPad*%
%ADD15C,1.218000*%
%TD*%
%TA.AperFunction,ViaPad*%
%ADD16C,0.600000*%
%TD*%
%TA.AperFunction,Conductor*%
%ADD17C,0.200000*%
%TD*%
G04 APERTURE END LIST*
D10*
%TO.P,J2,3,Pin_3*%
%TO.N,/inR*%
X125984000Y-101386000D03*
%TO.P,J2,2,Pin_2*%
%TO.N,GND*%
X125984000Y-103886000D03*
D11*
%TO.P,J2,1,Pin_1*%
%TO.N,+5V*%
X125984000Y-106386000D03*
D12*
%TO.P,J2,*%
%TO.N,*%
X127984000Y-107986000D03*
%TD*%
D13*
%TO.P,J1,1,Pin_1*%
%TO.N,Net-(J1-Pin_1)*%
X108966000Y-102870000D03*
%TO.P,J1,2,Pin_2*%
%TO.N,Net-(J1-Pin_2)*%
X108966000Y-100330000D03*
%TD*%
D14*
%TO.P,RV1,1,1*%
%TO.N,Net-(FB2-Pad1)*%
X118592600Y-91135200D03*
D15*
%TO.P,RV1,2,2*%
%TO.N,Net-(J1-Pin_2)*%
X116052600Y-88595200D03*
%TO.P,RV1,3,3*%
%TO.N,GND*%
X113512600Y-91135200D03*
%TD*%
D16*
%TO.N,GND*%
X117856000Y-99822000D03*
X115824000Y-108966000D03*
X112522000Y-104902000D03*
X116509800Y-92379800D03*
X111506000Y-107188000D03*
X118110000Y-97917000D03*
X118491000Y-103632000D03*
X127762000Y-103505000D03*
X120396000Y-93726000D03*
%TD*%
D17*
%TO.N,Net-(J1-Pin_2)*%
X116052600Y-88595200D02*
X116052600Y-89880721D01*
X116052600Y-89880721D02*
X108966000Y-96967321D01*
X108966000Y-96967321D02*
X108966000Y-100243000D01*
%TD*%
%TA.AperFunction,Conductor*%
%TO.N,GND*%
G36*
X117624561Y-84271554D02*
G01*
X118418378Y-84311172D01*
X118424478Y-84311629D01*
X119215348Y-84390767D01*
X119221453Y-84391533D01*
X119974716Y-84505069D01*
X120007361Y-84509990D01*
X120013452Y-84511064D01*
X120792469Y-84668546D01*
X120798434Y-84669907D01*
X121568694Y-84866039D01*
X121574619Y-84867706D01*
X122334090Y-85101972D01*
X122339941Y-85103938D01*
X123086788Y-85375768D01*
X123092527Y-85378020D01*
X123824897Y-85686740D01*
X123830532Y-85689283D01*
X124546599Y-86034122D01*
X124552102Y-86036943D01*
X125250078Y-86417041D01*
X125255432Y-86420132D01*
X125933618Y-86834562D01*
X125938764Y-86837886D01*
X126595490Y-87285634D01*
X126600483Y-87289224D01*
X127234041Y-87769126D01*
X127238835Y-87772949D01*
X127739054Y-88192683D01*
X127847689Y-88283839D01*
X127852323Y-88287929D01*
X128404145Y-88799945D01*
X128434913Y-88828493D01*
X128439334Y-88832804D01*
X128612924Y-89010777D01*
X128994287Y-89401770D01*
X128998492Y-89406302D01*
X129524378Y-90002203D01*
X129528352Y-90006939D01*
X130023888Y-90628321D01*
X130027621Y-90633250D01*
X130491553Y-91278539D01*
X130495036Y-91283647D01*
X130659015Y-91537536D01*
X130823412Y-91792073D01*
X130926240Y-91951281D01*
X130929458Y-91956548D01*
X130969092Y-92025195D01*
X131326846Y-92644845D01*
X131329803Y-92650275D01*
X131692380Y-93357507D01*
X131695063Y-93363077D01*
X132021952Y-94087538D01*
X132024353Y-94093236D01*
X132314706Y-94833043D01*
X132316821Y-94838853D01*
X132569949Y-95592248D01*
X132571771Y-95598156D01*
X132787021Y-96363204D01*
X132788547Y-96369195D01*
X132965403Y-97144050D01*
X132966628Y-97150111D01*
X133104635Y-97932788D01*
X133105557Y-97938901D01*
X133204384Y-98727526D01*
X133204999Y-98733678D01*
X133264393Y-99526216D01*
X133264701Y-99532392D01*
X133284514Y-100326909D01*
X133284514Y-100333091D01*
X133264701Y-101127607D01*
X133264393Y-101133783D01*
X133204999Y-101926321D01*
X133204384Y-101932473D01*
X133105557Y-102721098D01*
X133104635Y-102727211D01*
X132966628Y-103509888D01*
X132965403Y-103515949D01*
X132788547Y-104290804D01*
X132787021Y-104296795D01*
X132571771Y-105061843D01*
X132569949Y-105067751D01*
X132316821Y-105821146D01*
X132314706Y-105826956D01*
X132024353Y-106566763D01*
X132021952Y-106572461D01*
X131695063Y-107296922D01*
X131692380Y-107302492D01*
X131329803Y-108009724D01*
X131326846Y-108015154D01*
X130929464Y-108703442D01*
X130926240Y-108708718D01*
X130495036Y-109376352D01*
X130491553Y-109381460D01*
X130027621Y-110026749D01*
X130023888Y-110031678D01*
X129528352Y-110653060D01*
X129524378Y-110657796D01*
X128998492Y-111253697D01*
X128994287Y-111258229D01*
X128439340Y-111827189D01*
X128434913Y-111831506D01*
X127852324Y-112372069D01*
X127847689Y-112376160D01*
X127238855Y-112887034D01*
X127234021Y-112890889D01*
X126600496Y-113370765D01*
X126595476Y-113374375D01*
X125938788Y-113822098D01*
X125933594Y-113825452D01*
X125255432Y-114239867D01*
X125250078Y-114242958D01*
X124552102Y-114623056D01*
X124546599Y-114625877D01*
X123830532Y-114970716D01*
X123824897Y-114973259D01*
X123092544Y-115281972D01*
X123086788Y-115284231D01*
X122339941Y-115556061D01*
X122334081Y-115558030D01*
X121574632Y-115792289D01*
X121568680Y-115793964D01*
X120798465Y-115990085D01*
X120792437Y-115991460D01*
X120013450Y-116148935D01*
X120007361Y-116150009D01*
X119221468Y-116268464D01*
X119215333Y-116269233D01*
X118424510Y-116348367D01*
X118418345Y-116348829D01*
X117624562Y-116388445D01*
X117618381Y-116388599D01*
X116823619Y-116388599D01*
X116817438Y-116388445D01*
X116023654Y-116348829D01*
X116017489Y-116348367D01*
X115226666Y-116269233D01*
X115220531Y-116268464D01*
X114434638Y-116150009D01*
X114428549Y-116148935D01*
X113649562Y-115991460D01*
X113643534Y-115990085D01*
X112873319Y-115793964D01*
X112867367Y-115792289D01*
X112107918Y-115558030D01*
X112102058Y-115556061D01*
X111355211Y-115284231D01*
X111349455Y-115281972D01*
X110617102Y-114973259D01*
X110611467Y-114970716D01*
X109895400Y-114625877D01*
X109889897Y-114623056D01*
X109191921Y-114242958D01*
X109186567Y-114239867D01*
X108619113Y-113893104D01*
X108508391Y-113825443D01*
X108503225Y-113822107D01*
X107846517Y-113374370D01*
X107841503Y-113370765D01*
X107207963Y-112890877D01*
X107203160Y-112887046D01*
X106594310Y-112376160D01*
X106589675Y-112372069D01*
X106007086Y-111831506D01*
X106002659Y-111827189D01*
X105447712Y-111258229D01*
X105443507Y-111253697D01*
X104917621Y-110657796D01*
X104913647Y-110653060D01*
X104418111Y-110031678D01*
X104414378Y-110026749D01*
X103950446Y-109381460D01*
X103946963Y-109376352D01*
X103730746Y-109041583D01*
X103515747Y-108708698D01*
X103512547Y-108703462D01*
X103158056Y-108089465D01*
X103115153Y-108015154D01*
X103112196Y-108009724D01*
X102952308Y-107697852D01*
X102749611Y-107302476D01*
X102746944Y-107296939D01*
X102420047Y-106572461D01*
X102417646Y-106566763D01*
X102127293Y-105826956D01*
X102125178Y-105821146D01*
X101996491Y-105438129D01*
X101872045Y-105067736D01*
X101870228Y-105061843D01*
X101864702Y-105042204D01*
X101654978Y-104296795D01*
X101653452Y-104290804D01*
X101476596Y-103515949D01*
X101475371Y-103509888D01*
X101337364Y-102727211D01*
X101336442Y-102721098D01*
X101330973Y-102677460D01*
X101237615Y-101932473D01*
X101237000Y-101926321D01*
X101213842Y-101617305D01*
X101177604Y-101133753D01*
X101177299Y-101127637D01*
X101157485Y-100333087D01*
X101157485Y-100329999D01*
X107610341Y-100329999D01*
X107610341Y-100330000D01*
X107630936Y-100565403D01*
X107630938Y-100565413D01*
X107692094Y-100793655D01*
X107692096Y-100793659D01*
X107692097Y-100793663D01*
X107755532Y-100929699D01*
X107791965Y-101007830D01*
X107791967Y-101007834D01*
X107927501Y-101201395D01*
X107927506Y-101201402D01*
X108094597Y-101368493D01*
X108094603Y-101368498D01*
X108280158Y-101498425D01*
X108323783Y-101553002D01*
X108330977Y-101622500D01*
X108299454Y-101684855D01*
X108280158Y-101701575D01*
X108094597Y-101831505D01*
X107927505Y-101998597D01*
X107791965Y-102192169D01*
X107791964Y-102192171D01*
X107692098Y-102406335D01*
X107692094Y-102406344D01*
X107630938Y-102634586D01*
X107630936Y-102634596D01*
X107610341Y-102869999D01*
X107610341Y-102870000D01*
X107630936Y-103105403D01*
X107630938Y-103105413D01*
X107692094Y-103333655D01*
X107692096Y-103333659D01*
X107692097Y-103333663D01*
X107774272Y-103509888D01*
X107791965Y-103547830D01*
X107791967Y-103547834D01*
X107835162Y-103609522D01*
X107927505Y-103741401D01*
X108094599Y-103908495D01*
X108191384Y-103976265D01*
X108288165Y-104044032D01*
X108288167Y-104044033D01*
X108288170Y-104044035D01*
X108502337Y-104143903D01*
X108730592Y-104205063D01*
X108918918Y-104221539D01*
X108965999Y-104225659D01*
X108966000Y-104225659D01*
X108966001Y-104225659D01*
X109005234Y-104222226D01*
X109201408Y-104205063D01*
X109429663Y-104143903D01*
X109643830Y-104044035D01*
X109837401Y-103908495D01*
X110004495Y-103741401D01*
X110140035Y-103547830D01*
X110239903Y-103333663D01*
X110301063Y-103105408D01*
X110321659Y-102870000D01*
X110301063Y-102634592D01*
X110239903Y-102406337D01*
X110140035Y-102192171D01*
X110004495Y-101998599D01*
X110004494Y-101998597D01*
X109837402Y-101831506D01*
X109837396Y-101831501D01*
X109651842Y-101701575D01*
X109608217Y-101646998D01*
X109601023Y-101577500D01*
X109632546Y-101515145D01*
X109651842Y-101498425D01*
X109674026Y-101482891D01*
X109812411Y-101385993D01*
X124578700Y-101385993D01*
X124578700Y-101386006D01*
X124597864Y-101617297D01*
X124597866Y-101617308D01*
X124654842Y-101842300D01*
X124748075Y-102054848D01*
X124875016Y-102249147D01*
X124875019Y-102249151D01*
X124875021Y-102249153D01*
X125032216Y-102419913D01*
X125097161Y-102470462D01*
X125184530Y-102538464D01*
X125225342Y-102595174D01*
X125229017Y-102664947D01*
X125194385Y-102725630D01*
X125184530Y-102734170D01*
X125032558Y-102852455D01*
X124875414Y-103023157D01*
X124748516Y-103217390D01*
X124655317Y-103429864D01*
X124598361Y-103654781D01*
X124579202Y-103885994D01*
X124579202Y-103886005D01*
X124598361Y-104117218D01*
X124655317Y-104342135D01*
X124748516Y-104554609D01*
X124875417Y-104748846D01*
X124942896Y-104822147D01*
X124973819Y-104884801D01*
X124965959Y-104954227D01*
X124921812Y-105008383D01*
X124895001Y-105022312D01*
X124841669Y-105042203D01*
X124841664Y-105042206D01*
X124726455Y-105128452D01*
X124726452Y-105128455D01*
X124640206Y-105243664D01*
X124640202Y-105243671D01*
X124589908Y-105378517D01*
X124583501Y-105438116D01*
X124583501Y-105438123D01*
X124583500Y-105438135D01*
X124583500Y-107333870D01*
X124583501Y-107333876D01*
X124589908Y-107393483D01*
X124640202Y-107528328D01*
X124640206Y-107528335D01*
X124726452Y-107643544D01*
X124726455Y-107643547D01*
X124841664Y-107729793D01*
X124841671Y-107729797D01*
X124976517Y-107780091D01*
X124976516Y-107780091D01*
X124983444Y-107780835D01*
X125036127Y-107786500D01*
X126809500Y-107786499D01*
X126876539Y-107806184D01*
X126922294Y-107858987D01*
X126933500Y-107910499D01*
X126933500Y-107928299D01*
X126932903Y-107940453D01*
X126928417Y-107985999D01*
X126932903Y-108031545D01*
X126933500Y-108043699D01*
X126933500Y-108089465D01*
X126933501Y-108089468D01*
X126942428Y-108134348D01*
X126944213Y-108146383D01*
X126948700Y-108191934D01*
X126948700Y-108191936D01*
X126961984Y-108235730D01*
X126964940Y-108247531D01*
X126973868Y-108292414D01*
X126973870Y-108292422D01*
X126991379Y-108334692D01*
X126995478Y-108346146D01*
X127008766Y-108389949D01*
X127008768Y-108389954D01*
X127030346Y-108430323D01*
X127035545Y-108441316D01*
X127053057Y-108483595D01*
X127078486Y-108521653D01*
X127084739Y-108532086D01*
X127106316Y-108572452D01*
X127135345Y-108607824D01*
X127142593Y-108617597D01*
X127168022Y-108655654D01*
X127168025Y-108655658D01*
X127200383Y-108688015D01*
X127208557Y-108697033D01*
X127237588Y-108732408D01*
X127272966Y-108761442D01*
X127281983Y-108769615D01*
X127314341Y-108801974D01*
X127314346Y-108801978D01*
X127352395Y-108827401D01*
X127362170Y-108834650D01*
X127397550Y-108863685D01*
X127397552Y-108863686D01*
X127397555Y-108863688D01*
X127437916Y-108885262D01*
X127448349Y-108891515D01*
X127486402Y-108916941D01*
X127528689Y-108934456D01*
X127539677Y-108939654D01*
X127580043Y-108961231D01*
X127580045Y-108961231D01*
X127580046Y-108961232D01*
X127623848Y-108974518D01*
X127635295Y-108978614D01*
X127677580Y-108996130D01*
X127691517Y-108998902D01*
X127722471Y-109005060D01*
X127734274Y-109008016D01*
X127750710Y-109013001D01*
X127778066Y-109021300D01*
X127823615Y-109025785D01*
X127835629Y-109027567D01*
X127880535Y-109036500D01*
X127926299Y-109036500D01*
X127938453Y-109037097D01*
X127984000Y-109041583D01*
X128029547Y-109037097D01*
X128041701Y-109036500D01*
X128087468Y-109036500D01*
X128114201Y-109031181D01*
X128132356Y-109027569D01*
X128144382Y-109025785D01*
X128189934Y-109021300D01*
X128233741Y-109008010D01*
X128245515Y-109005061D01*
X128290420Y-108996130D01*
X128332720Y-108978607D01*
X128344141Y-108974521D01*
X128387954Y-108961232D01*
X128428332Y-108939648D01*
X128439304Y-108934458D01*
X128481598Y-108916941D01*
X128519668Y-108891502D01*
X128530085Y-108885260D01*
X128570450Y-108863685D01*
X128605834Y-108834644D01*
X128615585Y-108827413D01*
X128653655Y-108801977D01*
X128686033Y-108769597D01*
X128695020Y-108761452D01*
X128730410Y-108732410D01*
X128759452Y-108697020D01*
X128767597Y-108688033D01*
X128799977Y-108655655D01*
X128825413Y-108617585D01*
X128832644Y-108607834D01*
X128861685Y-108572450D01*
X128883262Y-108532081D01*
X128889502Y-108521668D01*
X128914941Y-108483598D01*
X128932458Y-108441304D01*
X128937648Y-108430332D01*
X128959232Y-108389954D01*
X128972521Y-108346141D01*
X128976607Y-108334720D01*
X128994130Y-108292420D01*
X129003061Y-108247515D01*
X129006014Y-108235730D01*
X129019300Y-108191934D01*
X129023785Y-108146382D01*
X129025571Y-108134348D01*
X129034500Y-108089468D01*
X129034500Y-108043699D01*
X129035097Y-108031545D01*
X129037246Y-108009724D01*
X129039583Y-107986000D01*
X129035097Y-107940453D01*
X129034500Y-107928299D01*
X129034500Y-107882535D01*
X129025567Y-107837629D01*
X129023785Y-107825615D01*
X129019300Y-107780066D01*
X129006016Y-107736274D01*
X129003060Y-107724471D01*
X128994131Y-107679587D01*
X128994130Y-107679580D01*
X128976614Y-107637295D01*
X128972518Y-107625848D01*
X128959232Y-107582046D01*
X128959231Y-107582045D01*
X128959231Y-107582043D01*
X128937654Y-107541677D01*
X128932456Y-107530689D01*
X128914941Y-107488402D01*
X128889515Y-107450349D01*
X128883262Y-107439916D01*
X128861688Y-107399555D01*
X128861684Y-107399549D01*
X128832650Y-107364170D01*
X128825401Y-107354395D01*
X128799978Y-107316346D01*
X128799974Y-107316341D01*
X128767615Y-107283983D01*
X128759442Y-107274966D01*
X128730408Y-107239588D01*
X128695033Y-107210557D01*
X128686015Y-107202383D01*
X128653658Y-107170025D01*
X128653654Y-107170022D01*
X128615597Y-107144593D01*
X128605824Y-107137345D01*
X128570452Y-107108316D01*
X128530086Y-107086739D01*
X128519653Y-107080486D01*
X128481595Y-107055057D01*
X128439316Y-107037545D01*
X128428323Y-107032346D01*
X128387954Y-107010768D01*
X128387951Y-107010767D01*
X128344146Y-106997478D01*
X128332692Y-106993379D01*
X128290422Y-106975870D01*
X128290414Y-106975868D01*
X128245531Y-106966940D01*
X128233730Y-106963984D01*
X128189935Y-106950700D01*
X128144383Y-106946213D01*
X128132353Y-106944428D01*
X128087465Y-106935500D01*
X128087463Y-106935500D01*
X128041701Y-106935500D01*
X128029547Y-106934903D01*
X127984000Y-106930417D01*
X127938453Y-106934903D01*
X127926299Y-106935500D01*
X127880534Y-106935500D01*
X127835639Y-106944429D01*
X127823607Y-106946214D01*
X127778070Y-106950699D01*
X127778068Y-106950699D01*
X127778066Y-106950700D01*
X127734272Y-106963984D01*
X127722473Y-106966939D01*
X127677584Y-106975868D01*
X127677581Y-106975869D01*
X127635286Y-106993387D01*
X127623835Y-106997484D01*
X127580047Y-107010767D01*
X127580040Y-107010770D01*
X127566948Y-107017768D01*
X127498545Y-107032008D01*
X127433302Y-107007005D01*
X127391934Y-106950699D01*
X127384499Y-106908408D01*
X127384499Y-105438129D01*
X127384498Y-105438123D01*
X127384497Y-105438116D01*
X127378091Y-105378517D01*
X127327796Y-105243669D01*
X127327795Y-105243668D01*
X127327793Y-105243664D01*
X127241547Y-105128455D01*
X127241544Y-105128452D01*
X127126335Y-105042206D01*
X127126328Y-105042202D01*
X127072999Y-105022312D01*
X127017065Y-104980441D01*
X126992648Y-104914977D01*
X127007500Y-104846704D01*
X127025103Y-104822146D01*
X127092585Y-104748842D01*
X127219483Y-104554609D01*
X127312682Y-104342135D01*
X127369638Y-104117218D01*
X127388798Y-103886005D01*
X127388798Y-103885994D01*
X127369638Y-103654781D01*
X127312682Y-103429864D01*
X127219483Y-103217390D01*
X127092585Y-103023157D01*
X126935441Y-102852454D01*
X126935437Y-102852451D01*
X126783470Y-102734170D01*
X126742657Y-102677460D01*
X126738982Y-102607687D01*
X126773614Y-102547004D01*
X126783470Y-102538463D01*
X126935784Y-102419913D01*
X127092979Y-102249153D01*
X127219924Y-102054849D01*
X127313157Y-101842300D01*
X127370134Y-101617305D01*
X127371568Y-101600000D01*
X127389300Y-101386006D01*
X127389300Y-101385993D01*
X127370135Y-101154702D01*
X127370133Y-101154691D01*
X127313157Y-100929699D01*
X127219924Y-100717151D01*
X127092983Y-100522852D01*
X127092980Y-100522849D01*
X127092979Y-100522847D01*
X126935784Y-100352087D01*
X126935779Y-100352083D01*
X126935777Y-100352081D01*
X126752634Y-100209535D01*
X126752628Y-100209531D01*
X126548504Y-100099064D01*
X126548495Y-100099061D01*
X126328984Y-100023702D01*
X126157282Y-99995050D01*
X126100049Y-99985500D01*
X125867951Y-99985500D01*
X125822164Y-99993140D01*
X125639015Y-100023702D01*
X125419504Y-100099061D01*
X125419495Y-100099064D01*
X125215371Y-100209531D01*
X125215365Y-100209535D01*
X125032222Y-100352081D01*
X125032219Y-100352084D01*
X124875016Y-100522852D01*
X124748075Y-100717151D01*
X124654842Y-100929699D01*
X124597866Y-101154691D01*
X124597864Y-101154702D01*
X124578700Y-101385993D01*
X109812411Y-101385993D01*
X109837401Y-101368495D01*
X110004495Y-101201401D01*
X110140035Y-101007830D01*
X110239903Y-100793663D01*
X110301063Y-100565408D01*
X110321659Y-100330000D01*
X110301063Y-100094592D01*
X110239903Y-99866337D01*
X110140035Y-99652171D01*
X110056166Y-99532392D01*
X110004494Y-99458597D01*
X109837402Y-99291506D01*
X109837395Y-99291501D01*
X109643831Y-99155965D01*
X109643826Y-99155962D01*
X109638091Y-99153288D01*
X109585653Y-99107113D01*
X109566500Y-99040908D01*
X109566500Y-97267417D01*
X109586185Y-97200378D01*
X109602814Y-97179741D01*
X116304220Y-90478335D01*
X117483100Y-90478335D01*
X117483100Y-91792070D01*
X117483101Y-91792076D01*
X117489508Y-91851683D01*
X117539802Y-91986528D01*
X117539806Y-91986535D01*
X117626052Y-92101744D01*
X117626055Y-92101747D01*
X117741264Y-92187993D01*
X117741271Y-92187997D01*
X117876117Y-92238291D01*
X117876116Y-92238291D01*
X117883044Y-92239035D01*
X117935727Y-92244700D01*
X119249472Y-92244699D01*
X119309083Y-92238291D01*
X119443931Y-92187996D01*
X119559146Y-92101746D01*
X119645396Y-91986531D01*
X119695691Y-91851683D01*
X119702100Y-91792073D01*
X119702099Y-90478328D01*
X119695691Y-90418717D01*
X119678060Y-90371447D01*
X119645397Y-90283871D01*
X119645393Y-90283864D01*
X119559147Y-90168655D01*
X119559144Y-90168652D01*
X119443935Y-90082406D01*
X119443928Y-90082402D01*
X119309082Y-90032108D01*
X119309083Y-90032108D01*
X119249483Y-90025701D01*
X119249481Y-90025700D01*
X119249473Y-90025700D01*
X119249464Y-90025700D01*
X117935729Y-90025700D01*
X117935723Y-90025701D01*
X117876116Y-90032108D01*
X117741271Y-90082402D01*
X117741264Y-90082406D01*
X117626055Y-90168652D01*
X117626052Y-90168655D01*
X117539806Y-90283864D01*
X117539802Y-90283871D01*
X117489508Y-90418717D01*
X117483105Y-90478282D01*
X117483101Y-90478323D01*
X117483100Y-90478335D01*
X116304220Y-90478335D01*
X116421313Y-90361242D01*
X116421316Y-90361241D01*
X116533120Y-90249437D01*
X116583239Y-90162625D01*
X116612177Y-90112506D01*
X116653101Y-89959778D01*
X116653101Y-89801664D01*
X116653101Y-89794069D01*
X116653100Y-89794051D01*
X116653100Y-89597413D01*
X116672785Y-89530374D01*
X116711824Y-89491985D01*
X116724087Y-89484393D01*
X116876043Y-89345867D01*
X116999957Y-89181779D01*
X117091610Y-88997715D01*
X117091610Y-88997712D01*
X117091612Y-88997710D01*
X117123831Y-88884468D01*
X117147881Y-88799943D01*
X117166853Y-88595200D01*
X117147881Y-88390457D01*
X117118710Y-88287930D01*
X117091612Y-88192689D01*
X117091609Y-88192683D01*
X116999957Y-88008621D01*
X116876043Y-87844533D01*
X116724087Y-87706007D01*
X116724085Y-87706005D01*
X116549268Y-87597763D01*
X116549262Y-87597761D01*
X116357530Y-87523483D01*
X116155410Y-87485700D01*
X115949790Y-87485700D01*
X115747670Y-87523483D01*
X115626418Y-87570456D01*
X115555937Y-87597761D01*
X115555931Y-87597763D01*
X115381114Y-87706005D01*
X115381112Y-87706007D01*
X115229158Y-87844531D01*
X115105243Y-88008620D01*
X115013590Y-88192683D01*
X115013587Y-88192689D01*
X114957319Y-88390454D01*
X114957318Y-88390457D01*
X114938347Y-88595199D01*
X114938347Y-88595200D01*
X114957318Y-88799942D01*
X114957319Y-88799945D01*
X115013587Y-88997710D01*
X115013590Y-88997716D01*
X115105243Y-89181779D01*
X115229158Y-89345868D01*
X115381112Y-89484392D01*
X115381115Y-89484395D01*
X115383005Y-89485565D01*
X115383718Y-89486360D01*
X115385689Y-89487849D01*
X115385397Y-89488234D01*
X115429642Y-89537592D01*
X115440747Y-89606573D01*
X115412795Y-89670608D01*
X115405411Y-89678674D01*
X114592848Y-90491236D01*
X114531525Y-90524721D01*
X114461833Y-90519737D01*
X114406213Y-90478282D01*
X114335670Y-90384869D01*
X114183786Y-90246409D01*
X114009042Y-90138211D01*
X114009041Y-90138210D01*
X113817394Y-90063967D01*
X113615362Y-90026200D01*
X113409838Y-90026200D01*
X113207805Y-90063967D01*
X113016158Y-90138210D01*
X113016157Y-90138211D01*
X112841413Y-90246409D01*
X112689529Y-90384868D01*
X112565670Y-90548885D01*
X112474059Y-90732863D01*
X112417812Y-90930553D01*
X112398849Y-91135199D01*
X112398849Y-91135200D01*
X112417812Y-91339846D01*
X112474059Y-91537536D01*
X112565670Y-91721514D01*
X112689529Y-91885531D01*
X112841410Y-92023987D01*
X112843360Y-92025195D01*
X112844098Y-92026018D01*
X112845991Y-92027448D01*
X112845711Y-92027817D01*
X112890001Y-92077219D01*
X112901112Y-92146199D01*
X112873165Y-92210236D01*
X112865774Y-92218310D01*
X108597286Y-96486799D01*
X108485481Y-96598603D01*
X108485479Y-96598606D01*
X108435361Y-96685415D01*
X108435359Y-96685417D01*
X108406425Y-96735530D01*
X108406424Y-96735531D01*
X108406423Y-96735536D01*
X108365499Y-96888264D01*
X108365499Y-96888266D01*
X108365499Y-97056367D01*
X108365500Y-97056380D01*
X108365500Y-99040908D01*
X108345815Y-99107947D01*
X108293914Y-99153286D01*
X108288173Y-99155963D01*
X108288169Y-99155965D01*
X108094597Y-99291505D01*
X107927505Y-99458597D01*
X107791965Y-99652169D01*
X107791964Y-99652171D01*
X107692098Y-99866335D01*
X107692094Y-99866344D01*
X107630938Y-100094586D01*
X107630936Y-100094596D01*
X107610341Y-100329999D01*
X101157485Y-100329999D01*
X101157485Y-100326909D01*
X101163167Y-100099061D01*
X101177299Y-99532360D01*
X101177604Y-99526248D01*
X101237000Y-98733675D01*
X101237615Y-98727526D01*
X101336442Y-97938894D01*
X101337364Y-97932788D01*
X101470148Y-97179736D01*
X101475372Y-97150103D01*
X101476596Y-97144050D01*
X101498889Y-97046381D01*
X101653453Y-96369190D01*
X101654978Y-96363204D01*
X101688240Y-96244983D01*
X101870236Y-95598129D01*
X101872041Y-95592275D01*
X102125181Y-94838844D01*
X102127293Y-94833043D01*
X102193452Y-94664474D01*
X102417648Y-94093229D01*
X102420047Y-94087538D01*
X102507758Y-93893151D01*
X102746951Y-93363044D01*
X102749603Y-93357539D01*
X103112198Y-92650270D01*
X103115153Y-92644845D01*
X103512558Y-91956519D01*
X103515735Y-91951318D01*
X103946973Y-91283631D01*
X103950434Y-91278555D01*
X104414391Y-90633232D01*
X104418097Y-90628338D01*
X104913657Y-90006926D01*
X104917610Y-90002215D01*
X105443516Y-89406291D01*
X105447712Y-89401770D01*
X106002684Y-88832784D01*
X106007059Y-88828518D01*
X106589696Y-88287911D01*
X106594289Y-88283856D01*
X107203184Y-87772933D01*
X107207938Y-87769141D01*
X107841535Y-87289210D01*
X107846490Y-87285647D01*
X108503253Y-86837873D01*
X108508363Y-86834574D01*
X109186579Y-86420124D01*
X109191908Y-86417048D01*
X109889921Y-86036930D01*
X109895391Y-86034126D01*
X110611473Y-85689280D01*
X110617081Y-85686749D01*
X111349486Y-85378014D01*
X111355193Y-85375774D01*
X112102066Y-85103935D01*
X112107897Y-85101976D01*
X112867391Y-84867703D01*
X112873294Y-84866041D01*
X113643573Y-84669904D01*
X113649522Y-84668548D01*
X114428554Y-84511063D01*
X114434632Y-84509990D01*
X115220551Y-84391532D01*
X115226646Y-84390768D01*
X116017524Y-84311629D01*
X116023618Y-84311172D01*
X116817438Y-84271554D01*
X116823619Y-84271401D01*
X117618381Y-84271401D01*
X117624561Y-84271554D01*
G37*
%TD.AperFunction*%
%TD*%
M02*
