%TF.GenerationSoftware,KiCad,Pcbnew,8.0.3*%
%TF.CreationDate,2024-11-14T20:06:39-08:00*%
%TF.ProjectId,SpeakerR,53706561-6b65-4725-922e-6b696361645f,rev?*%
%TF.SameCoordinates,Original*%
%TF.FileFunction,Soldermask,Top*%
%TF.FilePolarity,Negative*%
%FSLAX46Y46*%
G04 Gerber Fmt 4.6, Leading zero omitted, Abs format (unit mm)*
G04 Created by KiCad (PCBNEW 8.0.3) date 2024-11-14 20:06:39*
%MOMM*%
%LPD*%
G01*
G04 APERTURE LIST*
G04 Aperture macros list*
%AMRoundRect*
0 Rectangle with rounded corners*
0 $1 Rounding radius*
0 $2 $3 $4 $5 $6 $7 $8 $9 X,Y pos of 4 corners*
0 Add a 4 corners polygon primitive as box body*
4,1,4,$2,$3,$4,$5,$6,$7,$8,$9,$2,$3,0*
0 Add four circle primitives for the rounded corners*
1,1,$1+$1,$2,$3*
1,1,$1+$1,$4,$5*
1,1,$1+$1,$6,$7*
1,1,$1+$1,$8,$9*
0 Add four rect primitives between the rounded corners*
20,1,$1+$1,$2,$3,$4,$5,0*
20,1,$1+$1,$4,$5,$6,$7,0*
20,1,$1+$1,$6,$7,$8,$9,0*
20,1,$1+$1,$8,$9,$2,$3,0*%
G04 Aperture macros list end*
%ADD10C,1.800000*%
%ADD11R,1.800000X1.800000*%
%ADD12C,1.100000*%
%ADD13C,1.700000*%
%ADD14RoundRect,0.135000X0.135000X0.185000X-0.135000X0.185000X-0.135000X-0.185000X0.135000X-0.185000X0*%
%ADD15RoundRect,0.140000X0.170000X-0.140000X0.170000X0.140000X-0.170000X0.140000X-0.170000X-0.140000X0*%
%ADD16RoundRect,0.140000X-0.140000X-0.170000X0.140000X-0.170000X0.140000X0.170000X-0.140000X0.170000X0*%
%ADD17RoundRect,0.140000X-0.170000X0.140000X-0.170000X-0.140000X0.170000X-0.140000X0.170000X0.140000X0*%
%ADD18C,1.500000*%
%ADD19RoundRect,0.249999X0.450001X1.450001X-0.450001X1.450001X-0.450001X-1.450001X0.450001X-1.450001X0*%
%ADD20RoundRect,0.218750X0.256250X-0.218750X0.256250X0.218750X-0.256250X0.218750X-0.256250X-0.218750X0*%
%ADD21RoundRect,0.249999X1.450001X-0.450001X1.450001X0.450001X-1.450001X0.450001X-1.450001X-0.450001X0*%
%ADD22RoundRect,0.218750X-0.256250X0.218750X-0.256250X-0.218750X0.256250X-0.218750X0.256250X0.218750X0*%
%ADD23RoundRect,0.150000X-0.850000X-0.150000X0.850000X-0.150000X0.850000X0.150000X-0.850000X0.150000X0*%
%ADD24RoundRect,0.102000X0.609000X0.609000X-0.609000X0.609000X-0.609000X-0.609000X0.609000X-0.609000X0*%
%ADD25C,1.422000*%
G04 APERTURE END LIST*
D10*
%TO.C,J2*%
X125984000Y-101386000D03*
X125984000Y-103886000D03*
D11*
X125984000Y-106386000D03*
D12*
X127984000Y-107986000D03*
%TD*%
D13*
%TO.C,J1*%
X108966000Y-102870000D03*
X108966000Y-100330000D03*
%TD*%
D14*
%TO.C,R1*%
X123065000Y-103124000D03*
X122045000Y-103124000D03*
%TD*%
D15*
%TO.C,C6*%
X113284000Y-107287000D03*
X113284000Y-106327000D03*
%TD*%
D16*
%TO.C,C5*%
X122075000Y-102108000D03*
X123035000Y-102108000D03*
%TD*%
%TO.C,C3*%
X112169000Y-103505000D03*
X113129000Y-103505000D03*
%TD*%
D17*
%TO.C,C2*%
X112903000Y-100739000D03*
X112903000Y-101699000D03*
%TD*%
D18*
%TO.C,TP1*%
X127762000Y-96774000D03*
%TD*%
D19*
%TO.C,C1*%
X122446000Y-109601000D03*
X118346000Y-109601000D03*
%TD*%
D20*
%TO.C,FB1*%
X116205000Y-95783500D03*
X116205000Y-94208500D03*
%TD*%
D21*
%TO.C,C4*%
X123952000Y-96919000D03*
X123952000Y-92819000D03*
%TD*%
D22*
%TO.C,FB2*%
X118618000Y-94335500D03*
X118618000Y-95910500D03*
%TD*%
D23*
%TO.C,U1*%
X115121500Y-97626000D03*
X115121500Y-98896000D03*
X115121500Y-100166000D03*
X115121500Y-101436000D03*
X115121500Y-102706000D03*
X115121500Y-103976000D03*
X115121500Y-105246000D03*
X115121500Y-106516000D03*
X120121500Y-106516000D03*
X120121500Y-105246000D03*
X120121500Y-103976000D03*
X120121500Y-102706000D03*
X120121500Y-101436000D03*
X120121500Y-100166000D03*
X120121500Y-98896000D03*
X120121500Y-97626000D03*
%TD*%
D24*
%TO.C,RV1*%
X118592600Y-91135200D03*
D25*
X116052600Y-88595200D03*
X113512600Y-91135200D03*
%TD*%
M02*
