%TF.GenerationSoftware,KiCad,Pcbnew,8.0.3*%
%TF.CreationDate,2024-10-29T19:57:56-07:00*%
%TF.ProjectId,MicPCB,4d696350-4342-42e6-9b69-6361645f7063,rev?*%
%TF.SameCoordinates,Original*%
%TF.FileFunction,Copper,L2,Bot*%
%TF.FilePolarity,Positive*%
%FSLAX46Y46*%
G04 Gerber Fmt 4.6, Leading zero omitted, Abs format (unit mm)*
G04 Created by KiCad (PCBNEW 8.0.3) date 2024-10-29 19:57:56*
%MOMM*%
%LPD*%
G01*
G04 APERTURE LIST*
G04 Aperture macros list*
%AMRoundRect*
0 Rectangle with rounded corners*
0 $1 Rounding radius*
0 $2 $3 $4 $5 $6 $7 $8 $9 X,Y pos of 4 corners*
0 Add a 4 corners polygon primitive as box body*
4,1,4,$2,$3,$4,$5,$6,$7,$8,$9,$2,$3,0*
0 Add four circle primitives for the rounded corners*
1,1,$1+$1,$2,$3*
1,1,$1+$1,$4,$5*
1,1,$1+$1,$6,$7*
1,1,$1+$1,$8,$9*
0 Add four rect primitives between the rounded corners*
20,1,$1+$1,$2,$3,$4,$5,0*
20,1,$1+$1,$4,$5,$6,$7,0*
20,1,$1+$1,$6,$7,$8,$9,0*
20,1,$1+$1,$8,$9,$2,$3,0*%
G04 Aperture macros list end*
%TA.AperFunction,ComponentPad*%
%ADD10RoundRect,0.250000X-0.600000X-0.725000X0.600000X-0.725000X0.600000X0.725000X-0.600000X0.725000X0*%
%TD*%
%TA.AperFunction,ComponentPad*%
%ADD11O,1.700000X1.950000*%
%TD*%
%TA.AperFunction,ComponentPad*%
%ADD12R,1.700000X1.700000*%
%TD*%
%TA.AperFunction,ComponentPad*%
%ADD13O,1.700000X1.700000*%
%TD*%
%TA.AperFunction,ViaPad*%
%ADD14C,0.600000*%
%TD*%
%TA.AperFunction,Conductor*%
%ADD15C,0.200000*%
%TD*%
G04 APERTURE END LIST*
D10*
%TO.P,J5,1,Pin_1*%
%TO.N,/sel1*%
X159505000Y-99060000D03*
D11*
%TO.P,J5,2,Pin_2*%
%TO.N,/lrcl1*%
X162005000Y-99060000D03*
%TO.P,J5,3,Pin_3*%
%TO.N,/sd1*%
X164505000Y-99060000D03*
%TO.P,J5,4,Pin_4*%
%TO.N,/bclk1*%
X167005000Y-99060000D03*
%TO.P,J5,5,Pin_5*%
%TO.N,GND1*%
X169505000Y-99060000D03*
%TO.P,J5,6,Pin_6*%
%TO.N,+3.3V1*%
X172005000Y-99060000D03*
%TD*%
D12*
%TO.P,J4,1,Pin_1*%
%TO.N,/sel1*%
X159385000Y-90805000D03*
D13*
%TO.P,J4,2,Pin_2*%
%TO.N,/lrcl1*%
X161925000Y-90805000D03*
%TO.P,J4,3,Pin_3*%
%TO.N,/sd1*%
X164465000Y-90805000D03*
%TO.P,J4,4,Pin_4*%
%TO.N,/bclk1*%
X167005000Y-90805000D03*
%TO.P,J4,5,Pin_5*%
%TO.N,GND1*%
X169545000Y-90805000D03*
%TO.P,J4,6,Pin_6*%
%TO.N,+3.3V1*%
X172085000Y-90805000D03*
%TD*%
D14*
%TO.N,GND1*%
X170815000Y-102070000D03*
%TD*%
D15*
%TO.N,/bclk1*%
X167005000Y-90805000D02*
X167005000Y-99060000D01*
%TD*%
%TA.AperFunction,Conductor*%
%TO.N,GND1*%
G36*
X175972539Y-88150185D02*
G01*
X176018294Y-88202989D01*
X176029500Y-88254500D01*
X176029500Y-102880500D01*
X176009815Y-102947539D01*
X175957011Y-102993294D01*
X175905500Y-103004500D01*
X155564500Y-103004500D01*
X155497461Y-102984815D01*
X155451706Y-102932011D01*
X155440500Y-102880500D01*
X155440500Y-89907135D01*
X158034500Y-89907135D01*
X158034500Y-91702870D01*
X158034501Y-91702876D01*
X158040908Y-91762483D01*
X158091202Y-91897328D01*
X158091206Y-91897335D01*
X158177452Y-92012544D01*
X158177455Y-92012547D01*
X158292664Y-92098793D01*
X158292671Y-92098797D01*
X158427517Y-92149091D01*
X158427516Y-92149091D01*
X158434444Y-92149835D01*
X158487127Y-92155500D01*
X160282872Y-92155499D01*
X160342483Y-92149091D01*
X160477331Y-92098796D01*
X160592546Y-92012546D01*
X160678796Y-91897331D01*
X160727810Y-91765916D01*
X160769681Y-91709984D01*
X160835145Y-91685566D01*
X160903418Y-91700417D01*
X160931673Y-91721569D01*
X161053599Y-91843495D01*
X161150384Y-91911265D01*
X161247165Y-91979032D01*
X161247167Y-91979033D01*
X161247170Y-91979035D01*
X161461337Y-92078903D01*
X161689592Y-92140063D01*
X161866034Y-92155500D01*
X161924999Y-92160659D01*
X161925000Y-92160659D01*
X161925001Y-92160659D01*
X161983966Y-92155500D01*
X162160408Y-92140063D01*
X162388663Y-92078903D01*
X162602830Y-91979035D01*
X162796401Y-91843495D01*
X162963495Y-91676401D01*
X163093425Y-91490842D01*
X163148002Y-91447217D01*
X163217500Y-91440023D01*
X163279855Y-91471546D01*
X163296575Y-91490842D01*
X163426500Y-91676395D01*
X163426505Y-91676401D01*
X163593599Y-91843495D01*
X163690384Y-91911265D01*
X163787165Y-91979032D01*
X163787167Y-91979033D01*
X163787170Y-91979035D01*
X164001337Y-92078903D01*
X164229592Y-92140063D01*
X164406034Y-92155500D01*
X164464999Y-92160659D01*
X164465000Y-92160659D01*
X164465001Y-92160659D01*
X164523966Y-92155500D01*
X164700408Y-92140063D01*
X164928663Y-92078903D01*
X165142830Y-91979035D01*
X165336401Y-91843495D01*
X165503495Y-91676401D01*
X165633425Y-91490842D01*
X165688002Y-91447217D01*
X165757500Y-91440023D01*
X165819855Y-91471546D01*
X165836575Y-91490842D01*
X165966500Y-91676395D01*
X165966505Y-91676401D01*
X166133599Y-91843495D01*
X166230384Y-91911265D01*
X166327165Y-91979032D01*
X166327167Y-91979033D01*
X166327170Y-91979035D01*
X166332898Y-91981706D01*
X166385339Y-92027872D01*
X166404500Y-92094090D01*
X166404500Y-97649281D01*
X166384815Y-97716320D01*
X166336795Y-97759765D01*
X166297185Y-97779947D01*
X166297184Y-97779948D01*
X166125213Y-97904890D01*
X165974894Y-98055209D01*
X165974890Y-98055214D01*
X165855318Y-98219793D01*
X165799989Y-98262459D01*
X165730375Y-98268438D01*
X165668580Y-98235833D01*
X165654682Y-98219793D01*
X165535109Y-98055214D01*
X165535105Y-98055209D01*
X165384786Y-97904890D01*
X165212820Y-97779951D01*
X165023414Y-97683444D01*
X165023413Y-97683443D01*
X165023412Y-97683443D01*
X164821243Y-97617754D01*
X164821241Y-97617753D01*
X164821240Y-97617753D01*
X164659957Y-97592208D01*
X164611287Y-97584500D01*
X164398713Y-97584500D01*
X164350042Y-97592208D01*
X164188760Y-97617753D01*
X163986585Y-97683444D01*
X163797179Y-97779951D01*
X163625213Y-97904890D01*
X163474894Y-98055209D01*
X163474890Y-98055214D01*
X163355318Y-98219793D01*
X163299989Y-98262459D01*
X163230375Y-98268438D01*
X163168580Y-98235833D01*
X163154682Y-98219793D01*
X163035109Y-98055214D01*
X163035105Y-98055209D01*
X162884786Y-97904890D01*
X162712820Y-97779951D01*
X162523414Y-97683444D01*
X162523413Y-97683443D01*
X162523412Y-97683443D01*
X162321243Y-97617754D01*
X162321241Y-97617753D01*
X162321240Y-97617753D01*
X162159957Y-97592208D01*
X162111287Y-97584500D01*
X161898713Y-97584500D01*
X161850042Y-97592208D01*
X161688760Y-97617753D01*
X161486585Y-97683444D01*
X161297179Y-97779951D01*
X161125215Y-97904889D01*
X160986398Y-98043706D01*
X160925075Y-98077190D01*
X160855383Y-98072206D01*
X160799450Y-98030334D01*
X160793178Y-98021120D01*
X160697712Y-97866344D01*
X160573657Y-97742289D01*
X160573656Y-97742288D01*
X160424334Y-97650186D01*
X160257797Y-97595001D01*
X160257795Y-97595000D01*
X160155010Y-97584500D01*
X158854998Y-97584500D01*
X158854981Y-97584501D01*
X158752203Y-97595000D01*
X158752200Y-97595001D01*
X158585668Y-97650185D01*
X158585663Y-97650187D01*
X158436342Y-97742289D01*
X158312289Y-97866342D01*
X158220187Y-98015663D01*
X158220185Y-98015668D01*
X158215325Y-98030334D01*
X158165001Y-98182203D01*
X158165001Y-98182204D01*
X158165000Y-98182204D01*
X158154500Y-98284983D01*
X158154500Y-99835001D01*
X158154501Y-99835018D01*
X158165000Y-99937796D01*
X158165001Y-99937799D01*
X158210894Y-100076294D01*
X158220186Y-100104334D01*
X158312288Y-100253656D01*
X158436344Y-100377712D01*
X158585666Y-100469814D01*
X158752203Y-100524999D01*
X158854991Y-100535500D01*
X160155008Y-100535499D01*
X160257797Y-100524999D01*
X160424334Y-100469814D01*
X160573656Y-100377712D01*
X160697712Y-100253656D01*
X160789814Y-100104334D01*
X160789814Y-100104331D01*
X160793178Y-100098879D01*
X160845126Y-100052154D01*
X160914088Y-100040931D01*
X160978170Y-100068774D01*
X160986398Y-100076294D01*
X161125213Y-100215109D01*
X161297179Y-100340048D01*
X161297181Y-100340049D01*
X161297184Y-100340051D01*
X161486588Y-100436557D01*
X161688757Y-100502246D01*
X161898713Y-100535500D01*
X161898714Y-100535500D01*
X162111286Y-100535500D01*
X162111287Y-100535500D01*
X162321243Y-100502246D01*
X162523412Y-100436557D01*
X162712816Y-100340051D01*
X162734789Y-100324086D01*
X162884786Y-100215109D01*
X162884788Y-100215106D01*
X162884792Y-100215104D01*
X163035104Y-100064792D01*
X163154683Y-99900204D01*
X163210011Y-99857540D01*
X163279624Y-99851561D01*
X163341420Y-99884166D01*
X163355313Y-99900199D01*
X163457560Y-100040931D01*
X163474896Y-100064792D01*
X163625213Y-100215109D01*
X163797179Y-100340048D01*
X163797181Y-100340049D01*
X163797184Y-100340051D01*
X163986588Y-100436557D01*
X164188757Y-100502246D01*
X164398713Y-100535500D01*
X164398714Y-100535500D01*
X164611286Y-100535500D01*
X164611287Y-100535500D01*
X164821243Y-100502246D01*
X165023412Y-100436557D01*
X165212816Y-100340051D01*
X165234789Y-100324086D01*
X165384786Y-100215109D01*
X165384788Y-100215106D01*
X165384792Y-100215104D01*
X165535104Y-100064792D01*
X165654683Y-99900204D01*
X165710011Y-99857540D01*
X165779624Y-99851561D01*
X165841420Y-99884166D01*
X165855313Y-99900199D01*
X165957560Y-100040931D01*
X165974896Y-100064792D01*
X166125213Y-100215109D01*
X166297179Y-100340048D01*
X166297181Y-100340049D01*
X166297184Y-100340051D01*
X166486588Y-100436557D01*
X166688757Y-100502246D01*
X166898713Y-100535500D01*
X166898714Y-100535500D01*
X167111286Y-100535500D01*
X167111287Y-100535500D01*
X167321243Y-100502246D01*
X167523412Y-100436557D01*
X167712816Y-100340051D01*
X167734789Y-100324086D01*
X167884786Y-100215109D01*
X167884788Y-100215106D01*
X167884792Y-100215104D01*
X168035104Y-100064792D01*
X168154991Y-99899779D01*
X168210320Y-99857115D01*
X168279933Y-99851136D01*
X168341729Y-99883741D01*
X168355627Y-99899781D01*
X168475272Y-100064459D01*
X168475276Y-100064464D01*
X168625535Y-100214723D01*
X168625540Y-100214727D01*
X168797442Y-100339620D01*
X168986782Y-100436095D01*
X169188870Y-100501757D01*
X169398754Y-100535000D01*
X169611246Y-100535000D01*
X169821127Y-100501757D01*
X169821130Y-100501757D01*
X170023217Y-100436095D01*
X170212557Y-100339620D01*
X170384459Y-100214727D01*
X170384464Y-100214723D01*
X170534721Y-100064466D01*
X170654371Y-99899781D01*
X170709701Y-99857115D01*
X170779314Y-99851136D01*
X170841110Y-99883741D01*
X170855008Y-99899781D01*
X170974890Y-100064785D01*
X170974894Y-100064790D01*
X171125213Y-100215109D01*
X171297179Y-100340048D01*
X171297181Y-100340049D01*
X171297184Y-100340051D01*
X171486588Y-100436557D01*
X171688757Y-100502246D01*
X171898713Y-100535500D01*
X171898714Y-100535500D01*
X172111286Y-100535500D01*
X172111287Y-100535500D01*
X172321243Y-100502246D01*
X172523412Y-100436557D01*
X172712816Y-100340051D01*
X172734789Y-100324086D01*
X172884786Y-100215109D01*
X172884788Y-100215106D01*
X172884792Y-100215104D01*
X173035104Y-100064792D01*
X173035106Y-100064788D01*
X173035109Y-100064786D01*
X173160048Y-99892820D01*
X173160047Y-99892820D01*
X173160051Y-99892816D01*
X173256557Y-99703412D01*
X173322246Y-99501243D01*
X173355500Y-99291287D01*
X173355500Y-98828713D01*
X173322246Y-98618757D01*
X173256557Y-98416588D01*
X173160051Y-98227184D01*
X173160049Y-98227181D01*
X173160048Y-98227179D01*
X173035109Y-98055213D01*
X172884786Y-97904890D01*
X172712820Y-97779951D01*
X172523414Y-97683444D01*
X172523413Y-97683443D01*
X172523412Y-97683443D01*
X172321243Y-97617754D01*
X172321241Y-97617753D01*
X172321240Y-97617753D01*
X172159957Y-97592208D01*
X172111287Y-97584500D01*
X171898713Y-97584500D01*
X171850042Y-97592208D01*
X171688760Y-97617753D01*
X171486585Y-97683444D01*
X171297179Y-97779951D01*
X171125213Y-97904890D01*
X170974894Y-98055209D01*
X170974890Y-98055214D01*
X170855008Y-98220218D01*
X170799678Y-98262884D01*
X170730065Y-98268863D01*
X170668270Y-98236257D01*
X170654372Y-98220218D01*
X170534727Y-98055540D01*
X170534723Y-98055535D01*
X170384464Y-97905276D01*
X170384459Y-97905272D01*
X170212557Y-97780379D01*
X170023217Y-97683904D01*
X169821129Y-97618242D01*
X169611246Y-97585000D01*
X169398754Y-97585000D01*
X169188872Y-97618242D01*
X169188869Y-97618242D01*
X168986782Y-97683904D01*
X168797442Y-97780379D01*
X168625540Y-97905272D01*
X168625535Y-97905276D01*
X168475276Y-98055535D01*
X168475272Y-98055540D01*
X168355627Y-98220218D01*
X168300297Y-98262884D01*
X168230684Y-98268863D01*
X168168889Y-98236257D01*
X168154991Y-98220218D01*
X168035109Y-98055214D01*
X168035105Y-98055209D01*
X167884786Y-97904890D01*
X167712815Y-97779948D01*
X167712814Y-97779947D01*
X167673205Y-97759765D01*
X167622409Y-97711791D01*
X167605500Y-97649281D01*
X167605500Y-92094090D01*
X167625185Y-92027051D01*
X167677101Y-91981706D01*
X167682830Y-91979035D01*
X167876401Y-91843495D01*
X168043495Y-91676401D01*
X168173730Y-91490405D01*
X168228307Y-91446781D01*
X168297805Y-91439587D01*
X168360160Y-91471110D01*
X168376879Y-91490405D01*
X168506890Y-91676078D01*
X168673917Y-91843105D01*
X168867421Y-91978600D01*
X169081507Y-92078429D01*
X169081516Y-92078433D01*
X169309673Y-92139567D01*
X169309684Y-92139569D01*
X169544998Y-92160157D01*
X169545002Y-92160157D01*
X169780315Y-92139569D01*
X169780326Y-92139567D01*
X170008483Y-92078433D01*
X170008492Y-92078429D01*
X170222578Y-91978600D01*
X170416082Y-91843105D01*
X170583105Y-91676082D01*
X170713119Y-91490405D01*
X170767696Y-91446781D01*
X170837195Y-91439588D01*
X170899549Y-91471110D01*
X170916269Y-91490405D01*
X171046505Y-91676401D01*
X171213599Y-91843495D01*
X171310384Y-91911265D01*
X171407165Y-91979032D01*
X171407167Y-91979033D01*
X171407170Y-91979035D01*
X171621337Y-92078903D01*
X171849592Y-92140063D01*
X172026034Y-92155500D01*
X172084999Y-92160659D01*
X172085000Y-92160659D01*
X172085001Y-92160659D01*
X172143966Y-92155500D01*
X172320408Y-92140063D01*
X172548663Y-92078903D01*
X172762830Y-91979035D01*
X172956401Y-91843495D01*
X173123495Y-91676401D01*
X173259035Y-91482830D01*
X173358903Y-91268663D01*
X173420063Y-91040408D01*
X173440659Y-90805000D01*
X173420063Y-90569592D01*
X173358903Y-90341337D01*
X173259035Y-90127171D01*
X173253731Y-90119595D01*
X173123494Y-89933597D01*
X172956402Y-89766506D01*
X172956395Y-89766501D01*
X172762834Y-89630967D01*
X172762830Y-89630965D01*
X172762828Y-89630964D01*
X172548663Y-89531097D01*
X172548659Y-89531096D01*
X172548655Y-89531094D01*
X172320413Y-89469938D01*
X172320403Y-89469936D01*
X172085001Y-89449341D01*
X172084999Y-89449341D01*
X171849596Y-89469936D01*
X171849586Y-89469938D01*
X171621344Y-89531094D01*
X171621335Y-89531098D01*
X171407171Y-89630964D01*
X171407169Y-89630965D01*
X171213597Y-89766505D01*
X171046508Y-89933594D01*
X170916269Y-90119595D01*
X170861692Y-90163219D01*
X170792193Y-90170412D01*
X170729839Y-90138890D01*
X170713119Y-90119594D01*
X170583113Y-89933926D01*
X170583108Y-89933920D01*
X170416082Y-89766894D01*
X170222578Y-89631399D01*
X170008492Y-89531570D01*
X170008483Y-89531566D01*
X169780326Y-89470432D01*
X169780315Y-89470430D01*
X169545002Y-89449843D01*
X169544998Y-89449843D01*
X169309684Y-89470430D01*
X169309673Y-89470432D01*
X169081516Y-89531566D01*
X169081507Y-89531570D01*
X168867422Y-89631399D01*
X168867420Y-89631400D01*
X168673926Y-89766886D01*
X168673920Y-89766891D01*
X168506891Y-89933920D01*
X168506890Y-89933922D01*
X168376880Y-90119595D01*
X168322303Y-90163219D01*
X168252804Y-90170412D01*
X168190450Y-90138890D01*
X168173730Y-90119594D01*
X168043494Y-89933597D01*
X167876402Y-89766506D01*
X167876395Y-89766501D01*
X167682834Y-89630967D01*
X167682830Y-89630965D01*
X167682828Y-89630964D01*
X167468663Y-89531097D01*
X167468659Y-89531096D01*
X167468655Y-89531094D01*
X167240413Y-89469938D01*
X167240403Y-89469936D01*
X167005001Y-89449341D01*
X167004999Y-89449341D01*
X166769596Y-89469936D01*
X166769586Y-89469938D01*
X166541344Y-89531094D01*
X166541335Y-89531098D01*
X166327171Y-89630964D01*
X166327169Y-89630965D01*
X166133597Y-89766505D01*
X165966505Y-89933597D01*
X165836575Y-90119158D01*
X165781998Y-90162783D01*
X165712500Y-90169977D01*
X165650145Y-90138454D01*
X165633425Y-90119158D01*
X165503494Y-89933597D01*
X165336402Y-89766506D01*
X165336395Y-89766501D01*
X165142834Y-89630967D01*
X165142830Y-89630965D01*
X165142828Y-89630964D01*
X164928663Y-89531097D01*
X164928659Y-89531096D01*
X164928655Y-89531094D01*
X164700413Y-89469938D01*
X164700403Y-89469936D01*
X164465001Y-89449341D01*
X164464999Y-89449341D01*
X164229596Y-89469936D01*
X164229586Y-89469938D01*
X164001344Y-89531094D01*
X164001335Y-89531098D01*
X163787171Y-89630964D01*
X163787169Y-89630965D01*
X163593597Y-89766505D01*
X163426505Y-89933597D01*
X163296575Y-90119158D01*
X163241998Y-90162783D01*
X163172500Y-90169977D01*
X163110145Y-90138454D01*
X163093425Y-90119158D01*
X162963494Y-89933597D01*
X162796402Y-89766506D01*
X162796395Y-89766501D01*
X162602834Y-89630967D01*
X162602830Y-89630965D01*
X162602828Y-89630964D01*
X162388663Y-89531097D01*
X162388659Y-89531096D01*
X162388655Y-89531094D01*
X162160413Y-89469938D01*
X162160403Y-89469936D01*
X161925001Y-89449341D01*
X161924999Y-89449341D01*
X161689596Y-89469936D01*
X161689586Y-89469938D01*
X161461344Y-89531094D01*
X161461335Y-89531098D01*
X161247171Y-89630964D01*
X161247169Y-89630965D01*
X161053600Y-89766503D01*
X160931673Y-89888430D01*
X160870350Y-89921914D01*
X160800658Y-89916930D01*
X160744725Y-89875058D01*
X160727810Y-89844081D01*
X160678797Y-89712671D01*
X160678793Y-89712664D01*
X160592547Y-89597455D01*
X160592544Y-89597452D01*
X160477335Y-89511206D01*
X160477328Y-89511202D01*
X160342482Y-89460908D01*
X160342483Y-89460908D01*
X160282883Y-89454501D01*
X160282881Y-89454500D01*
X160282873Y-89454500D01*
X160282864Y-89454500D01*
X158487129Y-89454500D01*
X158487123Y-89454501D01*
X158427516Y-89460908D01*
X158292671Y-89511202D01*
X158292664Y-89511206D01*
X158177455Y-89597452D01*
X158177452Y-89597455D01*
X158091206Y-89712664D01*
X158091202Y-89712671D01*
X158040908Y-89847517D01*
X158034501Y-89907116D01*
X158034500Y-89907135D01*
X155440500Y-89907135D01*
X155440500Y-88254500D01*
X155460185Y-88187461D01*
X155512989Y-88141706D01*
X155564500Y-88130500D01*
X175905500Y-88130500D01*
X175972539Y-88150185D01*
G37*
%TD.AperFunction*%
%TD*%
M02*
